%TF.GenerationSoftware,KiCad,Pcbnew,8.0.2*%
%TF.CreationDate,2024-05-14T20:52:16+07:00*%
%TF.ProjectId,HW.ACIM-DBG,48572e41-4349-44d2-9d44-42472e6b6963,0.0*%
%TF.SameCoordinates,Original*%
%TF.FileFunction,Drillmap*%
%TF.FilePolarity,Positive*%
%FSLAX45Y45*%
G04 Gerber Fmt 4.5, Leading zero omitted, Abs format (unit mm)*
G04 Created by KiCad (PCBNEW 8.0.2) date 2024-05-14 20:52:16*
%MOMM*%
%LPD*%
G01*
G04 APERTURE LIST*
%ADD10C,0.100000*%
%ADD11C,0.200000*%
%ADD12C,0.250000*%
G04 APERTURE END LIST*
D10*
X16577500Y-3525000D02*
X11197500Y-3525000D01*
X16802500Y-8812500D02*
X16802500Y-3750000D01*
X11197500Y-10025000D02*
G75*
G02*
X10972500Y-9800000I0J225000D01*
G01*
X16577500Y-3525000D02*
G75*
G02*
X16802500Y-3750000I0J-225000D01*
G01*
X20247500Y-9037500D02*
X17027500Y-9037500D01*
X11197500Y-10025000D02*
X20247500Y-10025000D01*
X20247500Y-9037500D02*
G75*
G02*
X20472500Y-9262500I0J-225000D01*
G01*
X20472500Y-9800000D02*
G75*
G02*
X20247500Y-10025000I-225000J0D01*
G01*
X20472500Y-9800000D02*
X20472500Y-9262500D01*
X10972500Y-3750000D02*
X10972500Y-9800000D01*
X10972500Y-3750000D02*
G75*
G02*
X11197500Y-3525000I225000J0D01*
G01*
X17027500Y-9037500D02*
G75*
G02*
X16802500Y-8812500I0J225000D01*
G01*
D11*
D12*
X11072500Y-3625000D02*
X11322500Y-3875000D01*
X11322500Y-3625000D02*
X11072500Y-3875000D01*
X11072500Y-9675000D02*
X11322500Y-9925000D01*
X11322500Y-9675000D02*
X11072500Y-9925000D01*
X16452500Y-3625000D02*
X16702500Y-3875000D01*
X16702500Y-3625000D02*
X16452500Y-3875000D01*
X16452500Y-9675000D02*
X16702500Y-9925000D01*
X16702500Y-9675000D02*
X16452500Y-9925000D01*
X19853750Y-9406250D02*
X20103750Y-9656250D01*
X20103750Y-9406250D02*
X19853750Y-9656250D01*
D11*
X11228277Y-10341484D02*
X11228277Y-10141484D01*
X11228277Y-10141484D02*
X11275896Y-10141484D01*
X11275896Y-10141484D02*
X11304467Y-10151008D01*
X11304467Y-10151008D02*
X11323515Y-10170055D01*
X11323515Y-10170055D02*
X11333039Y-10189103D01*
X11333039Y-10189103D02*
X11342562Y-10227198D01*
X11342562Y-10227198D02*
X11342562Y-10255770D01*
X11342562Y-10255770D02*
X11333039Y-10293865D01*
X11333039Y-10293865D02*
X11323515Y-10312912D01*
X11323515Y-10312912D02*
X11304467Y-10331960D01*
X11304467Y-10331960D02*
X11275896Y-10341484D01*
X11275896Y-10341484D02*
X11228277Y-10341484D01*
X11428277Y-10341484D02*
X11428277Y-10208150D01*
X11428277Y-10246246D02*
X11437801Y-10227198D01*
X11437801Y-10227198D02*
X11447324Y-10217674D01*
X11447324Y-10217674D02*
X11466372Y-10208150D01*
X11466372Y-10208150D02*
X11485420Y-10208150D01*
X11552086Y-10341484D02*
X11552086Y-10208150D01*
X11552086Y-10141484D02*
X11542562Y-10151008D01*
X11542562Y-10151008D02*
X11552086Y-10160531D01*
X11552086Y-10160531D02*
X11561610Y-10151008D01*
X11561610Y-10151008D02*
X11552086Y-10141484D01*
X11552086Y-10141484D02*
X11552086Y-10160531D01*
X11675896Y-10341484D02*
X11656848Y-10331960D01*
X11656848Y-10331960D02*
X11647324Y-10312912D01*
X11647324Y-10312912D02*
X11647324Y-10141484D01*
X11780658Y-10341484D02*
X11761610Y-10331960D01*
X11761610Y-10331960D02*
X11752086Y-10312912D01*
X11752086Y-10312912D02*
X11752086Y-10141484D01*
X12009229Y-10341484D02*
X12009229Y-10141484D01*
X12009229Y-10141484D02*
X12075896Y-10284341D01*
X12075896Y-10284341D02*
X12142562Y-10141484D01*
X12142562Y-10141484D02*
X12142562Y-10341484D01*
X12323515Y-10341484D02*
X12323515Y-10236722D01*
X12323515Y-10236722D02*
X12313991Y-10217674D01*
X12313991Y-10217674D02*
X12294943Y-10208150D01*
X12294943Y-10208150D02*
X12256848Y-10208150D01*
X12256848Y-10208150D02*
X12237801Y-10217674D01*
X12323515Y-10331960D02*
X12304467Y-10341484D01*
X12304467Y-10341484D02*
X12256848Y-10341484D01*
X12256848Y-10341484D02*
X12237801Y-10331960D01*
X12237801Y-10331960D02*
X12228277Y-10312912D01*
X12228277Y-10312912D02*
X12228277Y-10293865D01*
X12228277Y-10293865D02*
X12237801Y-10274817D01*
X12237801Y-10274817D02*
X12256848Y-10265293D01*
X12256848Y-10265293D02*
X12304467Y-10265293D01*
X12304467Y-10265293D02*
X12323515Y-10255770D01*
X12418753Y-10208150D02*
X12418753Y-10408150D01*
X12418753Y-10217674D02*
X12437801Y-10208150D01*
X12437801Y-10208150D02*
X12475896Y-10208150D01*
X12475896Y-10208150D02*
X12494943Y-10217674D01*
X12494943Y-10217674D02*
X12504467Y-10227198D01*
X12504467Y-10227198D02*
X12513991Y-10246246D01*
X12513991Y-10246246D02*
X12513991Y-10303389D01*
X12513991Y-10303389D02*
X12504467Y-10322436D01*
X12504467Y-10322436D02*
X12494943Y-10331960D01*
X12494943Y-10331960D02*
X12475896Y-10341484D01*
X12475896Y-10341484D02*
X12437801Y-10341484D01*
X12437801Y-10341484D02*
X12418753Y-10331960D01*
X12599705Y-10322436D02*
X12609229Y-10331960D01*
X12609229Y-10331960D02*
X12599705Y-10341484D01*
X12599705Y-10341484D02*
X12590182Y-10331960D01*
X12590182Y-10331960D02*
X12599705Y-10322436D01*
X12599705Y-10322436D02*
X12599705Y-10341484D01*
X12599705Y-10217674D02*
X12609229Y-10227198D01*
X12609229Y-10227198D02*
X12599705Y-10236722D01*
X12599705Y-10236722D02*
X12590182Y-10227198D01*
X12590182Y-10227198D02*
X12599705Y-10217674D01*
X12599705Y-10217674D02*
X12599705Y-10236722D01*
X10767500Y-10570000D02*
X10967500Y-10770000D01*
X10967500Y-10570000D02*
X10767500Y-10770000D01*
X11218753Y-10580531D02*
X11228277Y-10571008D01*
X11228277Y-10571008D02*
X11247324Y-10561484D01*
X11247324Y-10561484D02*
X11294943Y-10561484D01*
X11294943Y-10561484D02*
X11313991Y-10571008D01*
X11313991Y-10571008D02*
X11323515Y-10580531D01*
X11323515Y-10580531D02*
X11333039Y-10599579D01*
X11333039Y-10599579D02*
X11333039Y-10618627D01*
X11333039Y-10618627D02*
X11323515Y-10647198D01*
X11323515Y-10647198D02*
X11209229Y-10761484D01*
X11209229Y-10761484D02*
X11333039Y-10761484D01*
X11418753Y-10742436D02*
X11428277Y-10751960D01*
X11428277Y-10751960D02*
X11418753Y-10761484D01*
X11418753Y-10761484D02*
X11409229Y-10751960D01*
X11409229Y-10751960D02*
X11418753Y-10742436D01*
X11418753Y-10742436D02*
X11418753Y-10761484D01*
X11609229Y-10561484D02*
X11513991Y-10561484D01*
X11513991Y-10561484D02*
X11504467Y-10656722D01*
X11504467Y-10656722D02*
X11513991Y-10647198D01*
X11513991Y-10647198D02*
X11533039Y-10637674D01*
X11533039Y-10637674D02*
X11580658Y-10637674D01*
X11580658Y-10637674D02*
X11599705Y-10647198D01*
X11599705Y-10647198D02*
X11609229Y-10656722D01*
X11609229Y-10656722D02*
X11618753Y-10675770D01*
X11618753Y-10675770D02*
X11618753Y-10723389D01*
X11618753Y-10723389D02*
X11609229Y-10742436D01*
X11609229Y-10742436D02*
X11599705Y-10751960D01*
X11599705Y-10751960D02*
X11580658Y-10761484D01*
X11580658Y-10761484D02*
X11533039Y-10761484D01*
X11533039Y-10761484D02*
X11513991Y-10751960D01*
X11513991Y-10751960D02*
X11504467Y-10742436D01*
X11742562Y-10561484D02*
X11761610Y-10561484D01*
X11761610Y-10561484D02*
X11780658Y-10571008D01*
X11780658Y-10571008D02*
X11790182Y-10580531D01*
X11790182Y-10580531D02*
X11799705Y-10599579D01*
X11799705Y-10599579D02*
X11809229Y-10637674D01*
X11809229Y-10637674D02*
X11809229Y-10685293D01*
X11809229Y-10685293D02*
X11799705Y-10723389D01*
X11799705Y-10723389D02*
X11790182Y-10742436D01*
X11790182Y-10742436D02*
X11780658Y-10751960D01*
X11780658Y-10751960D02*
X11761610Y-10761484D01*
X11761610Y-10761484D02*
X11742562Y-10761484D01*
X11742562Y-10761484D02*
X11723515Y-10751960D01*
X11723515Y-10751960D02*
X11713991Y-10742436D01*
X11713991Y-10742436D02*
X11704467Y-10723389D01*
X11704467Y-10723389D02*
X11694943Y-10685293D01*
X11694943Y-10685293D02*
X11694943Y-10637674D01*
X11694943Y-10637674D02*
X11704467Y-10599579D01*
X11704467Y-10599579D02*
X11713991Y-10580531D01*
X11713991Y-10580531D02*
X11723515Y-10571008D01*
X11723515Y-10571008D02*
X11742562Y-10561484D01*
X11933039Y-10561484D02*
X11952086Y-10561484D01*
X11952086Y-10561484D02*
X11971134Y-10571008D01*
X11971134Y-10571008D02*
X11980658Y-10580531D01*
X11980658Y-10580531D02*
X11990182Y-10599579D01*
X11990182Y-10599579D02*
X11999705Y-10637674D01*
X11999705Y-10637674D02*
X11999705Y-10685293D01*
X11999705Y-10685293D02*
X11990182Y-10723389D01*
X11990182Y-10723389D02*
X11980658Y-10742436D01*
X11980658Y-10742436D02*
X11971134Y-10751960D01*
X11971134Y-10751960D02*
X11952086Y-10761484D01*
X11952086Y-10761484D02*
X11933039Y-10761484D01*
X11933039Y-10761484D02*
X11913991Y-10751960D01*
X11913991Y-10751960D02*
X11904467Y-10742436D01*
X11904467Y-10742436D02*
X11894943Y-10723389D01*
X11894943Y-10723389D02*
X11885420Y-10685293D01*
X11885420Y-10685293D02*
X11885420Y-10637674D01*
X11885420Y-10637674D02*
X11894943Y-10599579D01*
X11894943Y-10599579D02*
X11904467Y-10580531D01*
X11904467Y-10580531D02*
X11913991Y-10571008D01*
X11913991Y-10571008D02*
X11933039Y-10561484D01*
X12085420Y-10761484D02*
X12085420Y-10628150D01*
X12085420Y-10647198D02*
X12094943Y-10637674D01*
X12094943Y-10637674D02*
X12113991Y-10628150D01*
X12113991Y-10628150D02*
X12142563Y-10628150D01*
X12142563Y-10628150D02*
X12161610Y-10637674D01*
X12161610Y-10637674D02*
X12171134Y-10656722D01*
X12171134Y-10656722D02*
X12171134Y-10761484D01*
X12171134Y-10656722D02*
X12180658Y-10637674D01*
X12180658Y-10637674D02*
X12199705Y-10628150D01*
X12199705Y-10628150D02*
X12228277Y-10628150D01*
X12228277Y-10628150D02*
X12247324Y-10637674D01*
X12247324Y-10637674D02*
X12256848Y-10656722D01*
X12256848Y-10656722D02*
X12256848Y-10761484D01*
X12352086Y-10761484D02*
X12352086Y-10628150D01*
X12352086Y-10647198D02*
X12361610Y-10637674D01*
X12361610Y-10637674D02*
X12380658Y-10628150D01*
X12380658Y-10628150D02*
X12409229Y-10628150D01*
X12409229Y-10628150D02*
X12428277Y-10637674D01*
X12428277Y-10637674D02*
X12437801Y-10656722D01*
X12437801Y-10656722D02*
X12437801Y-10761484D01*
X12437801Y-10656722D02*
X12447324Y-10637674D01*
X12447324Y-10637674D02*
X12466372Y-10628150D01*
X12466372Y-10628150D02*
X12494943Y-10628150D01*
X12494943Y-10628150D02*
X12513991Y-10637674D01*
X12513991Y-10637674D02*
X12523515Y-10656722D01*
X12523515Y-10656722D02*
X12523515Y-10761484D01*
X12913991Y-10551960D02*
X12742563Y-10809103D01*
X13171134Y-10561484D02*
X13190182Y-10561484D01*
X13190182Y-10561484D02*
X13209229Y-10571008D01*
X13209229Y-10571008D02*
X13218753Y-10580531D01*
X13218753Y-10580531D02*
X13228277Y-10599579D01*
X13228277Y-10599579D02*
X13237801Y-10637674D01*
X13237801Y-10637674D02*
X13237801Y-10685293D01*
X13237801Y-10685293D02*
X13228277Y-10723389D01*
X13228277Y-10723389D02*
X13218753Y-10742436D01*
X13218753Y-10742436D02*
X13209229Y-10751960D01*
X13209229Y-10751960D02*
X13190182Y-10761484D01*
X13190182Y-10761484D02*
X13171134Y-10761484D01*
X13171134Y-10761484D02*
X13152086Y-10751960D01*
X13152086Y-10751960D02*
X13142563Y-10742436D01*
X13142563Y-10742436D02*
X13133039Y-10723389D01*
X13133039Y-10723389D02*
X13123515Y-10685293D01*
X13123515Y-10685293D02*
X13123515Y-10637674D01*
X13123515Y-10637674D02*
X13133039Y-10599579D01*
X13133039Y-10599579D02*
X13142563Y-10580531D01*
X13142563Y-10580531D02*
X13152086Y-10571008D01*
X13152086Y-10571008D02*
X13171134Y-10561484D01*
X13323515Y-10742436D02*
X13333039Y-10751960D01*
X13333039Y-10751960D02*
X13323515Y-10761484D01*
X13323515Y-10761484D02*
X13313991Y-10751960D01*
X13313991Y-10751960D02*
X13323515Y-10742436D01*
X13323515Y-10742436D02*
X13323515Y-10761484D01*
X13456848Y-10561484D02*
X13475896Y-10561484D01*
X13475896Y-10561484D02*
X13494944Y-10571008D01*
X13494944Y-10571008D02*
X13504467Y-10580531D01*
X13504467Y-10580531D02*
X13513991Y-10599579D01*
X13513991Y-10599579D02*
X13523515Y-10637674D01*
X13523515Y-10637674D02*
X13523515Y-10685293D01*
X13523515Y-10685293D02*
X13513991Y-10723389D01*
X13513991Y-10723389D02*
X13504467Y-10742436D01*
X13504467Y-10742436D02*
X13494944Y-10751960D01*
X13494944Y-10751960D02*
X13475896Y-10761484D01*
X13475896Y-10761484D02*
X13456848Y-10761484D01*
X13456848Y-10761484D02*
X13437801Y-10751960D01*
X13437801Y-10751960D02*
X13428277Y-10742436D01*
X13428277Y-10742436D02*
X13418753Y-10723389D01*
X13418753Y-10723389D02*
X13409229Y-10685293D01*
X13409229Y-10685293D02*
X13409229Y-10637674D01*
X13409229Y-10637674D02*
X13418753Y-10599579D01*
X13418753Y-10599579D02*
X13428277Y-10580531D01*
X13428277Y-10580531D02*
X13437801Y-10571008D01*
X13437801Y-10571008D02*
X13456848Y-10561484D01*
X13618753Y-10761484D02*
X13656848Y-10761484D01*
X13656848Y-10761484D02*
X13675896Y-10751960D01*
X13675896Y-10751960D02*
X13685420Y-10742436D01*
X13685420Y-10742436D02*
X13704467Y-10713865D01*
X13704467Y-10713865D02*
X13713991Y-10675770D01*
X13713991Y-10675770D02*
X13713991Y-10599579D01*
X13713991Y-10599579D02*
X13704467Y-10580531D01*
X13704467Y-10580531D02*
X13694944Y-10571008D01*
X13694944Y-10571008D02*
X13675896Y-10561484D01*
X13675896Y-10561484D02*
X13637801Y-10561484D01*
X13637801Y-10561484D02*
X13618753Y-10571008D01*
X13618753Y-10571008D02*
X13609229Y-10580531D01*
X13609229Y-10580531D02*
X13599706Y-10599579D01*
X13599706Y-10599579D02*
X13599706Y-10647198D01*
X13599706Y-10647198D02*
X13609229Y-10666246D01*
X13609229Y-10666246D02*
X13618753Y-10675770D01*
X13618753Y-10675770D02*
X13637801Y-10685293D01*
X13637801Y-10685293D02*
X13675896Y-10685293D01*
X13675896Y-10685293D02*
X13694944Y-10675770D01*
X13694944Y-10675770D02*
X13704467Y-10666246D01*
X13704467Y-10666246D02*
X13713991Y-10647198D01*
X13828277Y-10647198D02*
X13809229Y-10637674D01*
X13809229Y-10637674D02*
X13799706Y-10628150D01*
X13799706Y-10628150D02*
X13790182Y-10609103D01*
X13790182Y-10609103D02*
X13790182Y-10599579D01*
X13790182Y-10599579D02*
X13799706Y-10580531D01*
X13799706Y-10580531D02*
X13809229Y-10571008D01*
X13809229Y-10571008D02*
X13828277Y-10561484D01*
X13828277Y-10561484D02*
X13866372Y-10561484D01*
X13866372Y-10561484D02*
X13885420Y-10571008D01*
X13885420Y-10571008D02*
X13894944Y-10580531D01*
X13894944Y-10580531D02*
X13904467Y-10599579D01*
X13904467Y-10599579D02*
X13904467Y-10609103D01*
X13904467Y-10609103D02*
X13894944Y-10628150D01*
X13894944Y-10628150D02*
X13885420Y-10637674D01*
X13885420Y-10637674D02*
X13866372Y-10647198D01*
X13866372Y-10647198D02*
X13828277Y-10647198D01*
X13828277Y-10647198D02*
X13809229Y-10656722D01*
X13809229Y-10656722D02*
X13799706Y-10666246D01*
X13799706Y-10666246D02*
X13790182Y-10685293D01*
X13790182Y-10685293D02*
X13790182Y-10723389D01*
X13790182Y-10723389D02*
X13799706Y-10742436D01*
X13799706Y-10742436D02*
X13809229Y-10751960D01*
X13809229Y-10751960D02*
X13828277Y-10761484D01*
X13828277Y-10761484D02*
X13866372Y-10761484D01*
X13866372Y-10761484D02*
X13885420Y-10751960D01*
X13885420Y-10751960D02*
X13894944Y-10742436D01*
X13894944Y-10742436D02*
X13904467Y-10723389D01*
X13904467Y-10723389D02*
X13904467Y-10685293D01*
X13904467Y-10685293D02*
X13894944Y-10666246D01*
X13894944Y-10666246D02*
X13885420Y-10656722D01*
X13885420Y-10656722D02*
X13866372Y-10647198D01*
X14075896Y-10628150D02*
X14075896Y-10761484D01*
X14028277Y-10551960D02*
X13980658Y-10694817D01*
X13980658Y-10694817D02*
X14104467Y-10694817D01*
X14171134Y-10561484D02*
X14171134Y-10599579D01*
X14247325Y-10561484D02*
X14247325Y-10599579D01*
X14542563Y-10837674D02*
X14533039Y-10828150D01*
X14533039Y-10828150D02*
X14513991Y-10799579D01*
X14513991Y-10799579D02*
X14504468Y-10780531D01*
X14504468Y-10780531D02*
X14494944Y-10751960D01*
X14494944Y-10751960D02*
X14485420Y-10704341D01*
X14485420Y-10704341D02*
X14485420Y-10666246D01*
X14485420Y-10666246D02*
X14494944Y-10618627D01*
X14494944Y-10618627D02*
X14504468Y-10590055D01*
X14504468Y-10590055D02*
X14513991Y-10571008D01*
X14513991Y-10571008D02*
X14533039Y-10542436D01*
X14533039Y-10542436D02*
X14542563Y-10532912D01*
X14713991Y-10561484D02*
X14618753Y-10561484D01*
X14618753Y-10561484D02*
X14609229Y-10656722D01*
X14609229Y-10656722D02*
X14618753Y-10647198D01*
X14618753Y-10647198D02*
X14637801Y-10637674D01*
X14637801Y-10637674D02*
X14685420Y-10637674D01*
X14685420Y-10637674D02*
X14704468Y-10647198D01*
X14704468Y-10647198D02*
X14713991Y-10656722D01*
X14713991Y-10656722D02*
X14723515Y-10675770D01*
X14723515Y-10675770D02*
X14723515Y-10723389D01*
X14723515Y-10723389D02*
X14713991Y-10742436D01*
X14713991Y-10742436D02*
X14704468Y-10751960D01*
X14704468Y-10751960D02*
X14685420Y-10761484D01*
X14685420Y-10761484D02*
X14637801Y-10761484D01*
X14637801Y-10761484D02*
X14618753Y-10751960D01*
X14618753Y-10751960D02*
X14609229Y-10742436D01*
X14961610Y-10761484D02*
X14961610Y-10561484D01*
X15047325Y-10761484D02*
X15047325Y-10656722D01*
X15047325Y-10656722D02*
X15037801Y-10637674D01*
X15037801Y-10637674D02*
X15018753Y-10628150D01*
X15018753Y-10628150D02*
X14990182Y-10628150D01*
X14990182Y-10628150D02*
X14971134Y-10637674D01*
X14971134Y-10637674D02*
X14961610Y-10647198D01*
X15171134Y-10761484D02*
X15152087Y-10751960D01*
X15152087Y-10751960D02*
X15142563Y-10742436D01*
X15142563Y-10742436D02*
X15133039Y-10723389D01*
X15133039Y-10723389D02*
X15133039Y-10666246D01*
X15133039Y-10666246D02*
X15142563Y-10647198D01*
X15142563Y-10647198D02*
X15152087Y-10637674D01*
X15152087Y-10637674D02*
X15171134Y-10628150D01*
X15171134Y-10628150D02*
X15199706Y-10628150D01*
X15199706Y-10628150D02*
X15218753Y-10637674D01*
X15218753Y-10637674D02*
X15228277Y-10647198D01*
X15228277Y-10647198D02*
X15237801Y-10666246D01*
X15237801Y-10666246D02*
X15237801Y-10723389D01*
X15237801Y-10723389D02*
X15228277Y-10742436D01*
X15228277Y-10742436D02*
X15218753Y-10751960D01*
X15218753Y-10751960D02*
X15199706Y-10761484D01*
X15199706Y-10761484D02*
X15171134Y-10761484D01*
X15352087Y-10761484D02*
X15333039Y-10751960D01*
X15333039Y-10751960D02*
X15323515Y-10732912D01*
X15323515Y-10732912D02*
X15323515Y-10561484D01*
X15504468Y-10751960D02*
X15485420Y-10761484D01*
X15485420Y-10761484D02*
X15447325Y-10761484D01*
X15447325Y-10761484D02*
X15428277Y-10751960D01*
X15428277Y-10751960D02*
X15418753Y-10732912D01*
X15418753Y-10732912D02*
X15418753Y-10656722D01*
X15418753Y-10656722D02*
X15428277Y-10637674D01*
X15428277Y-10637674D02*
X15447325Y-10628150D01*
X15447325Y-10628150D02*
X15485420Y-10628150D01*
X15485420Y-10628150D02*
X15504468Y-10637674D01*
X15504468Y-10637674D02*
X15513991Y-10656722D01*
X15513991Y-10656722D02*
X15513991Y-10675770D01*
X15513991Y-10675770D02*
X15418753Y-10694817D01*
X15590182Y-10751960D02*
X15609230Y-10761484D01*
X15609230Y-10761484D02*
X15647325Y-10761484D01*
X15647325Y-10761484D02*
X15666372Y-10751960D01*
X15666372Y-10751960D02*
X15675896Y-10732912D01*
X15675896Y-10732912D02*
X15675896Y-10723389D01*
X15675896Y-10723389D02*
X15666372Y-10704341D01*
X15666372Y-10704341D02*
X15647325Y-10694817D01*
X15647325Y-10694817D02*
X15618753Y-10694817D01*
X15618753Y-10694817D02*
X15599706Y-10685293D01*
X15599706Y-10685293D02*
X15590182Y-10666246D01*
X15590182Y-10666246D02*
X15590182Y-10656722D01*
X15590182Y-10656722D02*
X15599706Y-10637674D01*
X15599706Y-10637674D02*
X15618753Y-10628150D01*
X15618753Y-10628150D02*
X15647325Y-10628150D01*
X15647325Y-10628150D02*
X15666372Y-10637674D01*
X15742563Y-10837674D02*
X15752087Y-10828150D01*
X15752087Y-10828150D02*
X15771134Y-10799579D01*
X15771134Y-10799579D02*
X15780658Y-10780531D01*
X15780658Y-10780531D02*
X15790182Y-10751960D01*
X15790182Y-10751960D02*
X15799706Y-10704341D01*
X15799706Y-10704341D02*
X15799706Y-10666246D01*
X15799706Y-10666246D02*
X15790182Y-10618627D01*
X15790182Y-10618627D02*
X15780658Y-10590055D01*
X15780658Y-10590055D02*
X15771134Y-10571008D01*
X15771134Y-10571008D02*
X15752087Y-10542436D01*
X15752087Y-10542436D02*
X15742563Y-10532912D01*
X16104468Y-10837674D02*
X16094944Y-10828150D01*
X16094944Y-10828150D02*
X16075896Y-10799579D01*
X16075896Y-10799579D02*
X16066372Y-10780531D01*
X16066372Y-10780531D02*
X16056849Y-10751960D01*
X16056849Y-10751960D02*
X16047325Y-10704341D01*
X16047325Y-10704341D02*
X16047325Y-10666246D01*
X16047325Y-10666246D02*
X16056849Y-10618627D01*
X16056849Y-10618627D02*
X16066372Y-10590055D01*
X16066372Y-10590055D02*
X16075896Y-10571008D01*
X16075896Y-10571008D02*
X16094944Y-10542436D01*
X16094944Y-10542436D02*
X16104468Y-10532912D01*
X16180658Y-10628150D02*
X16180658Y-10761484D01*
X16180658Y-10647198D02*
X16190182Y-10637674D01*
X16190182Y-10637674D02*
X16209230Y-10628150D01*
X16209230Y-10628150D02*
X16237801Y-10628150D01*
X16237801Y-10628150D02*
X16256849Y-10637674D01*
X16256849Y-10637674D02*
X16266372Y-10656722D01*
X16266372Y-10656722D02*
X16266372Y-10761484D01*
X16390182Y-10761484D02*
X16371134Y-10751960D01*
X16371134Y-10751960D02*
X16361611Y-10742436D01*
X16361611Y-10742436D02*
X16352087Y-10723389D01*
X16352087Y-10723389D02*
X16352087Y-10666246D01*
X16352087Y-10666246D02*
X16361611Y-10647198D01*
X16361611Y-10647198D02*
X16371134Y-10637674D01*
X16371134Y-10637674D02*
X16390182Y-10628150D01*
X16390182Y-10628150D02*
X16418753Y-10628150D01*
X16418753Y-10628150D02*
X16437801Y-10637674D01*
X16437801Y-10637674D02*
X16447325Y-10647198D01*
X16447325Y-10647198D02*
X16456849Y-10666246D01*
X16456849Y-10666246D02*
X16456849Y-10723389D01*
X16456849Y-10723389D02*
X16447325Y-10742436D01*
X16447325Y-10742436D02*
X16437801Y-10751960D01*
X16437801Y-10751960D02*
X16418753Y-10761484D01*
X16418753Y-10761484D02*
X16390182Y-10761484D01*
X16513992Y-10628150D02*
X16590182Y-10628150D01*
X16542563Y-10561484D02*
X16542563Y-10732912D01*
X16542563Y-10732912D02*
X16552087Y-10751960D01*
X16552087Y-10751960D02*
X16571134Y-10761484D01*
X16571134Y-10761484D02*
X16590182Y-10761484D01*
X16809230Y-10628150D02*
X16809230Y-10828150D01*
X16809230Y-10637674D02*
X16828277Y-10628150D01*
X16828277Y-10628150D02*
X16866373Y-10628150D01*
X16866373Y-10628150D02*
X16885420Y-10637674D01*
X16885420Y-10637674D02*
X16894944Y-10647198D01*
X16894944Y-10647198D02*
X16904468Y-10666246D01*
X16904468Y-10666246D02*
X16904468Y-10723389D01*
X16904468Y-10723389D02*
X16894944Y-10742436D01*
X16894944Y-10742436D02*
X16885420Y-10751960D01*
X16885420Y-10751960D02*
X16866373Y-10761484D01*
X16866373Y-10761484D02*
X16828277Y-10761484D01*
X16828277Y-10761484D02*
X16809230Y-10751960D01*
X17018754Y-10761484D02*
X16999706Y-10751960D01*
X16999706Y-10751960D02*
X16990182Y-10732912D01*
X16990182Y-10732912D02*
X16990182Y-10561484D01*
X17180658Y-10761484D02*
X17180658Y-10656722D01*
X17180658Y-10656722D02*
X17171135Y-10637674D01*
X17171135Y-10637674D02*
X17152087Y-10628150D01*
X17152087Y-10628150D02*
X17113992Y-10628150D01*
X17113992Y-10628150D02*
X17094944Y-10637674D01*
X17180658Y-10751960D02*
X17161611Y-10761484D01*
X17161611Y-10761484D02*
X17113992Y-10761484D01*
X17113992Y-10761484D02*
X17094944Y-10751960D01*
X17094944Y-10751960D02*
X17085420Y-10732912D01*
X17085420Y-10732912D02*
X17085420Y-10713865D01*
X17085420Y-10713865D02*
X17094944Y-10694817D01*
X17094944Y-10694817D02*
X17113992Y-10685293D01*
X17113992Y-10685293D02*
X17161611Y-10685293D01*
X17161611Y-10685293D02*
X17180658Y-10675770D01*
X17247325Y-10628150D02*
X17323515Y-10628150D01*
X17275896Y-10561484D02*
X17275896Y-10732912D01*
X17275896Y-10732912D02*
X17285420Y-10751960D01*
X17285420Y-10751960D02*
X17304468Y-10761484D01*
X17304468Y-10761484D02*
X17323515Y-10761484D01*
X17466373Y-10751960D02*
X17447325Y-10761484D01*
X17447325Y-10761484D02*
X17409230Y-10761484D01*
X17409230Y-10761484D02*
X17390182Y-10751960D01*
X17390182Y-10751960D02*
X17380658Y-10732912D01*
X17380658Y-10732912D02*
X17380658Y-10656722D01*
X17380658Y-10656722D02*
X17390182Y-10637674D01*
X17390182Y-10637674D02*
X17409230Y-10628150D01*
X17409230Y-10628150D02*
X17447325Y-10628150D01*
X17447325Y-10628150D02*
X17466373Y-10637674D01*
X17466373Y-10637674D02*
X17475896Y-10656722D01*
X17475896Y-10656722D02*
X17475896Y-10675770D01*
X17475896Y-10675770D02*
X17380658Y-10694817D01*
X17647325Y-10761484D02*
X17647325Y-10561484D01*
X17647325Y-10751960D02*
X17628277Y-10761484D01*
X17628277Y-10761484D02*
X17590182Y-10761484D01*
X17590182Y-10761484D02*
X17571135Y-10751960D01*
X17571135Y-10751960D02*
X17561611Y-10742436D01*
X17561611Y-10742436D02*
X17552087Y-10723389D01*
X17552087Y-10723389D02*
X17552087Y-10666246D01*
X17552087Y-10666246D02*
X17561611Y-10647198D01*
X17561611Y-10647198D02*
X17571135Y-10637674D01*
X17571135Y-10637674D02*
X17590182Y-10628150D01*
X17590182Y-10628150D02*
X17628277Y-10628150D01*
X17628277Y-10628150D02*
X17647325Y-10637674D01*
X17723516Y-10837674D02*
X17733039Y-10828150D01*
X17733039Y-10828150D02*
X17752087Y-10799579D01*
X17752087Y-10799579D02*
X17761611Y-10780531D01*
X17761611Y-10780531D02*
X17771135Y-10751960D01*
X17771135Y-10751960D02*
X17780658Y-10704341D01*
X17780658Y-10704341D02*
X17780658Y-10666246D01*
X17780658Y-10666246D02*
X17771135Y-10618627D01*
X17771135Y-10618627D02*
X17761611Y-10590055D01*
X17761611Y-10590055D02*
X17752087Y-10571008D01*
X17752087Y-10571008D02*
X17733039Y-10542436D01*
X17733039Y-10542436D02*
X17723516Y-10532912D01*
M02*
