%TF.GenerationSoftware,KiCad,Pcbnew,8.0.2*%
%TF.CreationDate,2024-05-14T20:52:19+07:00*%
%TF.ProjectId,HW.ACIM-DBG,48572e41-4349-44d2-9d44-42472e6b6963,0.0*%
%TF.SameCoordinates,Original*%
%TF.FileFunction,Copper,L3,Inr*%
%TF.FilePolarity,Positive*%
%FSLAX46Y46*%
G04 Gerber Fmt 4.6, Leading zero omitted, Abs format (unit mm)*
G04 Created by KiCad (PCBNEW 8.0.2) date 2024-05-14 20:52:19*
%MOMM*%
%LPD*%
G01*
G04 APERTURE LIST*
G04 Aperture macros list*
%AMRoundRect*
0 Rectangle with rounded corners*
0 $1 Rounding radius*
0 $2 $3 $4 $5 $6 $7 $8 $9 X,Y pos of 4 corners*
0 Add a 4 corners polygon primitive as box body*
4,1,4,$2,$3,$4,$5,$6,$7,$8,$9,$2,$3,0*
0 Add four circle primitives for the rounded corners*
1,1,$1+$1,$2,$3*
1,1,$1+$1,$4,$5*
1,1,$1+$1,$6,$7*
1,1,$1+$1,$8,$9*
0 Add four rect primitives between the rounded corners*
20,1,$1+$1,$2,$3,$4,$5,0*
20,1,$1+$1,$4,$5,$6,$7,0*
20,1,$1+$1,$6,$7,$8,$9,0*
20,1,$1+$1,$8,$9,$2,$3,0*%
G04 Aperture macros list end*
%TA.AperFunction,ComponentPad*%
%ADD10RoundRect,0.450000X-0.450000X-0.450000X0.450000X-0.450000X0.450000X0.450000X-0.450000X0.450000X0*%
%TD*%
%TA.AperFunction,ComponentPad*%
%ADD11C,1.800000*%
%TD*%
%TA.AperFunction,ComponentPad*%
%ADD12RoundRect,0.450000X0.450000X-0.450000X0.450000X0.450000X-0.450000X0.450000X-0.450000X-0.450000X0*%
%TD*%
%TA.AperFunction,ComponentPad*%
%ADD13RoundRect,0.220000X-0.330000X0.980000X-0.330000X-0.980000X0.330000X-0.980000X0.330000X0.980000X0*%
%TD*%
%TA.AperFunction,ComponentPad*%
%ADD14RoundRect,0.250000X0.650000X-0.650000X0.650000X0.650000X-0.650000X0.650000X-0.650000X-0.650000X0*%
%TD*%
%TA.AperFunction,ViaPad*%
%ADD15C,0.480000*%
%TD*%
%TA.AperFunction,Conductor*%
%ADD16C,0.160000*%
%TD*%
G04 APERTURE END LIST*
D10*
%TO.N,/USB HUB/INV_VBUS*%
%TO.C,J1*%
X127432700Y-38950000D03*
D11*
%TO.N,/USB HUB/USB7_N*%
X129972700Y-38950000D03*
%TO.N,/USB HUB/USB7_P*%
X132512700Y-38950000D03*
%TO.N,/USB HUB/INV_TXD1*%
X135052700Y-38950000D03*
%TO.N,/USB HUB/INV_RXD1*%
X137592700Y-38950000D03*
%TO.N,/USB HUB/INV_TXD2*%
X140132700Y-38950000D03*
%TO.N,/USB HUB/INV_RXD2*%
X142672700Y-38950000D03*
%TO.N,/USB HUB/INV_RTS2*%
X145212700Y-38950000D03*
%TO.N,/USB HUB/INV_CTS2*%
X147752700Y-38950000D03*
%TO.N,GND*%
X150292700Y-38950000D03*
%TD*%
D12*
%TO.N,/USB HUB/PSU_VBUS*%
%TO.C,J3*%
X113425000Y-79180200D03*
D11*
%TO.N,/USB HUB/USB5_N*%
X113425000Y-76640200D03*
%TO.N,/USB HUB/USB5_P*%
X113425000Y-74100200D03*
%TO.N,/USB HUB/PSU_TXD1*%
X113425000Y-71560200D03*
%TO.N,/USB HUB/PSU_RXD1*%
X113425000Y-69020200D03*
%TO.N,/USB HUB/PSU_TXD2*%
X113425000Y-66480200D03*
%TO.N,/USB HUB/PSU_RXD2*%
X113425000Y-63940200D03*
%TO.N,/USB HUB/PSU_RTS2*%
X113425000Y-61400200D03*
%TO.N,/USB HUB/PSU_CTS2*%
X113425000Y-58860200D03*
%TO.N,GND*%
X113425000Y-56320200D03*
%TD*%
D13*
%TO.N,GND*%
%TO.C,J2*%
X182825100Y-96075100D03*
X182825100Y-92025100D03*
X191025100Y-92025100D03*
X191025100Y-96075100D03*
%TD*%
D14*
%TO.N,GND_ISO*%
%TO.C,J4*%
X142552700Y-92575000D03*
D11*
%TO.N,/USB HUB/USB1_P*%
X145092700Y-92575000D03*
%TO.N,/USB HUB/USB1_N*%
X147632700Y-92575000D03*
%TO.N,Net-(F1-Pad1)*%
X150172700Y-92575000D03*
%TD*%
D15*
%TO.N,GND*%
X123067000Y-82450200D03*
X120562700Y-41150000D03*
X131762700Y-78700000D03*
X110562700Y-94450000D03*
X153574385Y-79150000D03*
X134762700Y-64550000D03*
X115562700Y-39450000D03*
X131574385Y-85150000D03*
X186087500Y-99412500D03*
X143725000Y-66250000D03*
X176087500Y-99412500D03*
X155325000Y-59250000D03*
X133574385Y-83150000D03*
X160562700Y-41150000D03*
X151325000Y-61250000D03*
X129574385Y-93150000D03*
X159774385Y-90850000D03*
X142162700Y-75150000D03*
X186887500Y-92912500D03*
X160562700Y-36150000D03*
X156075000Y-51750000D03*
X125562700Y-56150000D03*
X110562700Y-69450000D03*
X110562700Y-84450000D03*
X150562700Y-36150000D03*
X135562700Y-46150000D03*
X115562700Y-54450000D03*
X199787500Y-91212500D03*
X121375000Y-75700200D03*
X155325000Y-61250000D03*
X146425000Y-62550000D03*
X157562700Y-75650000D03*
X110562700Y-59450000D03*
X146425000Y-59000000D03*
X129217000Y-66450200D03*
X125562700Y-46150000D03*
X146525000Y-46100000D03*
X140562700Y-36150000D03*
X135562700Y-36150000D03*
X155562700Y-36150000D03*
X203862700Y-92750000D03*
X162162700Y-70150000D03*
X125062700Y-95450000D03*
X126017000Y-66450200D03*
X126067000Y-82650200D03*
X120562700Y-61150000D03*
X163602700Y-95350000D03*
X120562700Y-65650000D03*
X120562700Y-56150000D03*
X126067000Y-74050200D03*
X115562700Y-44450000D03*
X130425000Y-46600000D03*
X139862700Y-62750000D03*
X156875000Y-54500000D03*
X141425000Y-41500000D03*
X123067000Y-86450200D03*
X128967000Y-74050200D03*
X130162700Y-78700000D03*
X121375000Y-72500200D03*
X130562700Y-36150000D03*
X167162700Y-50150000D03*
X162162700Y-55150000D03*
X155325000Y-63250000D03*
X130425000Y-62600000D03*
X120562700Y-51150000D03*
X161502700Y-96850000D03*
X133962700Y-66650000D03*
X194087500Y-98412500D03*
X195787500Y-99412500D03*
X110562700Y-74450000D03*
X146025000Y-54450000D03*
X135562700Y-71150000D03*
X167162700Y-70150000D03*
X159774385Y-86550000D03*
X153275000Y-59250000D03*
X145562700Y-36150000D03*
X125562700Y-61750000D03*
X127517000Y-72600200D03*
X124012700Y-94550000D03*
X132562700Y-64350000D03*
X115562700Y-36150000D03*
X140562700Y-56150000D03*
X203887500Y-95312500D03*
X121962700Y-99450000D03*
X128562700Y-78700000D03*
X151325000Y-63250000D03*
X164174385Y-92550000D03*
X159774385Y-82950000D03*
X132425000Y-58600000D03*
X121375000Y-74100200D03*
X167162700Y-40150000D03*
X202362700Y-99350000D03*
X110562700Y-89450000D03*
X143925000Y-41500000D03*
X132425000Y-48600000D03*
X150725000Y-41150000D03*
X152162700Y-70150000D03*
X157962700Y-45150000D03*
X126962700Y-97825000D03*
X140562700Y-64550000D03*
X146025000Y-56050000D03*
X195787500Y-91212500D03*
X125562700Y-36150000D03*
X154475000Y-51750000D03*
X135562700Y-62750000D03*
X125067000Y-85650200D03*
X199787500Y-99412500D03*
X130425000Y-50600000D03*
X116962700Y-99450000D03*
X130425000Y-58600000D03*
X179275100Y-96580100D03*
X151325000Y-59300000D03*
X167162700Y-45150000D03*
X147975000Y-59000000D03*
X124067000Y-89450200D03*
X162162700Y-75175000D03*
X195787500Y-95312500D03*
X157574385Y-79150000D03*
X130312700Y-99450000D03*
X123067000Y-88450200D03*
X147162700Y-75150000D03*
X157562700Y-76550000D03*
X135562700Y-56150000D03*
X128967000Y-71150200D03*
X129574385Y-90150000D03*
X193287500Y-99412500D03*
X146425000Y-66250000D03*
X126067000Y-72600200D03*
X162174385Y-84350000D03*
X175624385Y-91077911D03*
X130425000Y-64600000D03*
X132425000Y-44600000D03*
X116962700Y-94450000D03*
X127617000Y-66450200D03*
X130817000Y-68850200D03*
X159802700Y-95350000D03*
X123067000Y-84450200D03*
X140562700Y-46150000D03*
X110562700Y-64450000D03*
X167162700Y-85150000D03*
X129574385Y-87150000D03*
X128967000Y-72600200D03*
X146525000Y-41500000D03*
X125062700Y-93825000D03*
X157562700Y-77450000D03*
X127517000Y-71150200D03*
X151625000Y-50300000D03*
X116962700Y-89450000D03*
X167162700Y-90150000D03*
X135562700Y-76150000D03*
X125067000Y-89450200D03*
X132425000Y-52600000D03*
X162162700Y-65150000D03*
X202362700Y-91250000D03*
X194087500Y-96612500D03*
X115562700Y-49450000D03*
X126067000Y-71150200D03*
X140562700Y-51150000D03*
X146425000Y-57400000D03*
X122817000Y-66450200D03*
X203862700Y-97950000D03*
X130425000Y-42700000D03*
X153325000Y-63250000D03*
X132462700Y-41450000D03*
X167162700Y-65150000D03*
X153325000Y-49125000D03*
X132425000Y-61600000D03*
X148575000Y-62500000D03*
X125562700Y-51150000D03*
X157162700Y-70150000D03*
X128067000Y-88600200D03*
X110562700Y-79450000D03*
X180875100Y-96580100D03*
X116962700Y-84450000D03*
X118675000Y-75700200D03*
X167162700Y-60150000D03*
X161087500Y-99412500D03*
X110562700Y-44450000D03*
X110562700Y-54450000D03*
X125562700Y-41150000D03*
X130425000Y-54600000D03*
X142162700Y-70150000D03*
X139574385Y-79150000D03*
X163212700Y-75900000D03*
X124962700Y-80425000D03*
X167162700Y-80150000D03*
X110562700Y-49450000D03*
X149574385Y-79150000D03*
X135562700Y-51150000D03*
X126962700Y-99450000D03*
X137562700Y-64550000D03*
X125967000Y-78700200D03*
X120562700Y-36150000D03*
X132425000Y-55600000D03*
X125067000Y-83650200D03*
X155562700Y-41150000D03*
X167162700Y-75150000D03*
X125067000Y-87650200D03*
X130817000Y-66450200D03*
X181087500Y-99412500D03*
X121375000Y-70900200D03*
X171256350Y-99243650D03*
X167162700Y-55150000D03*
X143574385Y-79150000D03*
X157975000Y-50150000D03*
X153325000Y-61250000D03*
X120562700Y-46150000D03*
X123362700Y-78700000D03*
X161112700Y-75900000D03*
X115562700Y-74450000D03*
X170924385Y-92277911D03*
X127517000Y-74050200D03*
X174174385Y-94850000D03*
%TO.N,+3V3*%
X150725000Y-43250000D03*
X143725000Y-59000000D03*
X134767000Y-81400200D03*
X148050000Y-67850000D03*
X118675000Y-79180200D03*
X143725000Y-64650000D03*
X127067000Y-81400200D03*
X155275000Y-50150000D03*
X147150000Y-68800000D03*
X118675000Y-74100200D03*
X133867000Y-81400200D03*
X146425000Y-67850000D03*
X147625000Y-51750000D03*
X127432700Y-44200000D03*
X155275000Y-51025000D03*
%TO.N,Net-(C26-Pad2)*%
X125225000Y-67175200D03*
X119750000Y-69800200D03*
%TO.N,Net-(C28-Pad2)*%
X124962700Y-78700000D03*
X130817000Y-67950200D03*
X133667000Y-75800200D03*
X133767000Y-71600200D03*
%TO.N,Net-(U5-VREGOUT)*%
X160225000Y-61500000D03*
X159275000Y-55925000D03*
X147625000Y-54450000D03*
%TO.N,Net-(C48-Pad2)*%
X152575000Y-54450000D03*
X160225000Y-59900000D03*
X150575000Y-68075000D03*
%TO.N,/USB HUB/USB7_P*%
X130762700Y-41450000D03*
X131762700Y-40450000D03*
%TO.N,Net-(U5-ADBUS0{slash}TXD)*%
X115975000Y-69020200D03*
X148575000Y-63500000D03*
%TO.N,Net-(U5-ADBUS1{slash}RXD)*%
X148575000Y-64500000D03*
X115975000Y-71560200D03*
%TO.N,Net-(U5-BDBUS0{slash}TXD)*%
X153575000Y-66650000D03*
X115975000Y-63940200D03*
%TO.N,Net-(U5-BDBUS1{slash}RXD)*%
X154075000Y-66000000D03*
X115975000Y-66480200D03*
%TO.N,Net-(U5-BDBUS2{slash}~{RTS})*%
X115975000Y-58860200D03*
X154575000Y-66650000D03*
%TO.N,Net-(U5-BDBUS3{slash}~{CTS})*%
X155075000Y-66000000D03*
X115975000Y-61400200D03*
%TO.N,Net-(U5-CDBUS0{slash}TXD)*%
X158075000Y-63000000D03*
X137592700Y-41500000D03*
%TO.N,Net-(U5-CDBUS1{slash}RXD)*%
X158075000Y-61950000D03*
X135052700Y-41500000D03*
%TO.N,Net-(U5-DDBUS0{slash}TXD)*%
X158075000Y-58000000D03*
X142672700Y-41500000D03*
%TO.N,Net-(U5-DDBUS1{slash}RXD)*%
X140132700Y-41500000D03*
X155075000Y-56500000D03*
%TO.N,Net-(U5-DDBUS2{slash}~{RTS})*%
X154575000Y-55850000D03*
X147752700Y-41500000D03*
%TO.N,Net-(U5-DDBUS3{slash}~{CTS})*%
X145225000Y-41500000D03*
X154075000Y-56500000D03*
%TO.N,/VCP/EECS*%
X155275000Y-47175000D03*
X151625000Y-45100000D03*
%TO.N,/VCP/EECLK*%
X153275000Y-46525000D03*
%TO.N,/VCP/~{PWREN}*%
X151075000Y-56500000D03*
X153275000Y-47825000D03*
%TO.N,/USB HUB/USB4_N*%
X140975000Y-61750000D03*
X141775000Y-62550000D03*
%TO.N,/USB HUB/USB3_P*%
X131517000Y-73100200D03*
X193625100Y-94830100D03*
%TO.N,/USB HUB/USB3_N*%
X132267000Y-73600200D03*
X192675100Y-94830100D03*
%TO.N,/USB HUB/USB5_N*%
X132267000Y-74600200D03*
%TO.N,/USB HUB/USB5_P*%
X131517000Y-74100200D03*
%TO.N,Net-(U2-PRTPWR1{slash}BC_EN1)*%
X128517000Y-68600200D03*
X115975000Y-79180200D03*
%TO.N,Net-(U2-PRTPWR2{slash}BC_EN2)*%
X172524385Y-93002911D03*
X126517000Y-68600200D03*
%TO.N,Net-(U2-PRTPWR3{slash}BC_EN3)*%
X143725000Y-67850000D03*
X125517000Y-68600200D03*
%TO.N,Net-(U2-PRTPWR4{slash}BC_EN4)*%
X123767000Y-69600200D03*
X127432700Y-41500000D03*
%TD*%
D16*
%TO.N,Net-(U5-ADBUS0{slash}TXD)*%
X121495200Y-63500000D02*
X115975000Y-69020200D01*
X148575000Y-63500000D02*
X121495200Y-63500000D01*
%TO.N,Net-(U5-ADBUS1{slash}RXD)*%
X148575000Y-64500000D02*
X147925000Y-63850000D01*
X123685200Y-63850000D02*
X115975000Y-71560200D01*
X147925000Y-63850000D02*
X123685200Y-63850000D01*
%TO.N,Net-(U5-BDBUS0{slash}TXD)*%
X151175000Y-66650000D02*
X149425000Y-64900000D01*
X149425000Y-64900000D02*
X149425000Y-61400000D01*
X119565200Y-60350000D02*
X115975000Y-63940200D01*
X148375000Y-60350000D02*
X119565200Y-60350000D01*
X149425000Y-61400000D02*
X148375000Y-60350000D01*
X153575000Y-66650000D02*
X151175000Y-66650000D01*
%TO.N,Net-(U5-BDBUS1{slash}RXD)*%
X151042452Y-66970000D02*
X149075000Y-65002548D01*
X153753823Y-67150000D02*
X153325000Y-67150000D01*
X154075000Y-66828823D02*
X153753823Y-67150000D01*
X153325000Y-67150000D02*
X153145000Y-66970000D01*
X153145000Y-66970000D02*
X151042452Y-66970000D01*
X149075000Y-65002548D02*
X149075000Y-61550000D01*
X148225000Y-60700000D02*
X121755200Y-60700000D01*
X121755200Y-60700000D02*
X115975000Y-66480200D01*
X149075000Y-61550000D02*
X148225000Y-60700000D01*
X154075000Y-66000000D02*
X154075000Y-66828823D01*
%TO.N,Net-(U5-BDBUS2{slash}~{RTS})*%
X153722452Y-65200000D02*
X152912452Y-66010000D01*
X150065000Y-61040000D02*
X148675000Y-59650000D01*
X154953822Y-65200000D02*
X153722452Y-65200000D01*
X155103823Y-66650000D02*
X155489411Y-66264412D01*
X155555000Y-65900000D02*
X155555000Y-65801177D01*
X154575000Y-66650000D02*
X155103823Y-66650000D01*
X151440096Y-66010000D02*
X150065000Y-64634904D01*
X150065000Y-64634904D02*
X150065000Y-61040000D01*
X155555000Y-65801177D02*
X155339412Y-65585589D01*
X155555000Y-66198823D02*
X155555000Y-65900000D01*
X155214411Y-65460589D02*
X154997549Y-65243726D01*
X148675000Y-59650000D02*
X116764800Y-59650000D01*
X116764800Y-59650000D02*
X115975000Y-58860200D01*
X155489411Y-66264412D02*
X155555000Y-66198823D01*
X152912452Y-66010000D02*
X151440096Y-66010000D01*
X155339412Y-65585589D02*
X155214411Y-65460589D01*
X155214411Y-65460589D02*
X154953822Y-65200000D01*
%TO.N,Net-(U5-BDBUS3{slash}~{CTS})*%
X154225000Y-65520000D02*
X153855000Y-65520000D01*
X153855000Y-65520000D02*
X153045000Y-66330000D01*
X154595000Y-65520000D02*
X154225000Y-65520000D01*
X153045000Y-66330000D02*
X151307548Y-66330000D01*
X155075000Y-66000000D02*
X154595000Y-65520000D01*
X148525000Y-60000000D02*
X117375200Y-60000000D01*
X149745000Y-61220000D02*
X148525000Y-60000000D01*
X154225000Y-65520000D02*
X154075000Y-65520000D01*
X154075000Y-65520000D02*
X153905000Y-65520000D01*
X149745000Y-64767452D02*
X149745000Y-61220000D01*
X151307548Y-66330000D02*
X149745000Y-64767452D01*
X117375200Y-60000000D02*
X115975000Y-61400200D01*
%TO.N,Net-(U5-CDBUS0{slash}TXD)*%
X157755000Y-58832548D02*
X157755000Y-61407700D01*
X151405000Y-53937644D02*
X151405000Y-55430000D01*
X153625000Y-57650000D02*
X156572452Y-57650000D01*
X157755000Y-61407700D02*
X157595000Y-61567700D01*
X157595000Y-61567700D02*
X157595000Y-62520000D01*
X157595000Y-62520000D02*
X158075000Y-63000000D01*
X151405000Y-55430000D02*
X153625000Y-57650000D01*
X156572452Y-57650000D02*
X157755000Y-58832548D01*
X138967356Y-41500000D02*
X151405000Y-53937644D01*
X137592700Y-41500000D02*
X138967356Y-41500000D01*
%TO.N,Net-(U5-CDBUS1{slash}RXD)*%
X138919904Y-41000000D02*
X135552700Y-41000000D01*
X158075000Y-61950000D02*
X158075000Y-58700000D01*
X156695000Y-57320000D02*
X153763629Y-57320000D01*
X135552700Y-41000000D02*
X135052700Y-41500000D01*
X158075000Y-58700000D02*
X156695000Y-57320000D01*
X153763629Y-57320000D02*
X151725000Y-55281371D01*
X151725000Y-55281371D02*
X151725000Y-53805096D01*
X151725000Y-53805096D02*
X138919904Y-41000000D01*
%TO.N,Net-(U5-DDBUS0{slash}TXD)*%
X152075000Y-53702548D02*
X142672700Y-44300248D01*
X157075000Y-57000000D02*
X153896177Y-57000000D01*
X153896177Y-57000000D02*
X152075000Y-55178823D01*
X142672700Y-44300248D02*
X142672700Y-41500000D01*
X152075000Y-55178823D02*
X152075000Y-53702548D01*
X158075000Y-58000000D02*
X157075000Y-57000000D01*
%TO.N,Net-(U5-DDBUS1{slash}RXD)*%
X148775000Y-41192300D02*
X148232700Y-40650000D01*
X148775000Y-49044904D02*
X148775000Y-41192300D01*
X148232700Y-40650000D02*
X140982700Y-40650000D01*
X155075000Y-55344904D02*
X148775000Y-49044904D01*
X155075000Y-56500000D02*
X155075000Y-55344904D01*
X140982700Y-40650000D02*
X140132700Y-41500000D01*
%TO.N,Net-(U5-DDBUS2{slash}~{RTS})*%
X154575000Y-55850000D02*
X154575000Y-55297452D01*
X147752700Y-48475152D02*
X148076274Y-48798726D01*
X147752700Y-41500000D02*
X147752700Y-48475152D01*
X154575000Y-55297452D02*
X154101274Y-54823726D01*
X154101274Y-54823726D02*
X148076274Y-48798726D01*
%TO.N,Net-(U5-DDBUS3{slash}~{CTS})*%
X154075000Y-56500000D02*
X154075000Y-55250000D01*
X145225000Y-46400000D02*
X145225000Y-41500000D01*
X154075000Y-55250000D02*
X145225000Y-46400000D01*
%TO.N,Net-(U2-PRTPWR1{slash}BC_EN1)*%
X118907548Y-69080200D02*
X116475000Y-71512748D01*
X126225000Y-68100000D02*
X126025000Y-68300000D01*
X116475000Y-71512748D02*
X116475000Y-78680200D01*
X128517000Y-68600200D02*
X128016800Y-68100000D01*
X126025000Y-68300000D02*
X126025000Y-68800000D01*
X125744800Y-69080200D02*
X118907548Y-69080200D01*
X128016800Y-68100000D02*
X126225000Y-68100000D01*
X126025000Y-68800000D02*
X125744800Y-69080200D01*
X116475000Y-78680200D02*
X115975000Y-79180200D01*
%TO.N,Net-(U2-PRTPWR2{slash}BC_EN2)*%
X157284900Y-91518100D02*
X135517000Y-69750200D01*
X170374385Y-91518100D02*
X157284900Y-91518100D01*
X135517000Y-69750200D02*
X127667000Y-69750200D01*
X172524385Y-93002911D02*
X171039574Y-91518100D01*
X127667000Y-69750200D02*
X126517000Y-68600200D01*
X171039574Y-91518100D02*
X170374385Y-91518100D01*
%TO.N,Net-(U2-PRTPWR3{slash}BC_EN3)*%
X125517000Y-67958000D02*
X125517000Y-68600200D01*
X143725000Y-67850000D02*
X143050200Y-67175200D01*
X143050200Y-67175200D02*
X126299800Y-67175200D01*
X126299800Y-67175200D02*
X125517000Y-67958000D01*
%TD*%
%TA.AperFunction,Conductor*%
%TO.N,GND*%
G36*
X148150264Y-40909407D02*
G01*
X148162077Y-40919496D01*
X148505504Y-41262923D01*
X148533281Y-41317440D01*
X148534500Y-41332927D01*
X148534500Y-48677825D01*
X148515593Y-48736016D01*
X148466093Y-48771980D01*
X148404907Y-48771980D01*
X148365497Y-48747829D01*
X148206864Y-48589197D01*
X148206859Y-48589193D01*
X148022196Y-48404529D01*
X147994419Y-48350013D01*
X147993200Y-48334526D01*
X147993200Y-41866899D01*
X148012107Y-41808708D01*
X148022190Y-41796901D01*
X148080750Y-41738342D01*
X148138346Y-41625304D01*
X148158192Y-41500000D01*
X148138346Y-41374696D01*
X148136446Y-41370968D01*
X148134335Y-41366825D01*
X148080750Y-41261658D01*
X147991042Y-41171950D01*
X147937094Y-41144462D01*
X147878007Y-41114355D01*
X147878004Y-41114354D01*
X147752700Y-41094508D01*
X147627396Y-41114354D01*
X147627392Y-41114355D01*
X147514359Y-41171949D01*
X147424649Y-41261659D01*
X147367055Y-41374692D01*
X147367054Y-41374696D01*
X147347208Y-41499999D01*
X147347208Y-41500000D01*
X147367054Y-41625303D01*
X147367055Y-41625307D01*
X147422644Y-41734406D01*
X147424650Y-41738342D01*
X147483205Y-41796897D01*
X147510981Y-41851412D01*
X147512200Y-41866899D01*
X147512200Y-48108073D01*
X147493293Y-48166264D01*
X147443793Y-48202228D01*
X147382607Y-48202228D01*
X147343196Y-48178077D01*
X145494496Y-46329377D01*
X145466719Y-46274860D01*
X145465500Y-46259373D01*
X145465500Y-41866899D01*
X145484407Y-41808708D01*
X145494490Y-41796901D01*
X145553050Y-41738342D01*
X145610646Y-41625304D01*
X145630492Y-41500000D01*
X145610646Y-41374696D01*
X145608746Y-41370968D01*
X145606635Y-41366825D01*
X145553050Y-41261658D01*
X145463342Y-41171950D01*
X145409394Y-41144462D01*
X145350307Y-41114355D01*
X145350304Y-41114354D01*
X145225000Y-41094508D01*
X145099696Y-41114354D01*
X145099692Y-41114355D01*
X144986659Y-41171949D01*
X144896949Y-41261659D01*
X144839355Y-41374692D01*
X144839354Y-41374696D01*
X144819508Y-41499999D01*
X144819508Y-41500000D01*
X144839354Y-41625303D01*
X144839355Y-41625307D01*
X144894944Y-41734406D01*
X144896950Y-41738342D01*
X144955505Y-41796897D01*
X144983281Y-41851412D01*
X144984500Y-41866899D01*
X144984500Y-46032921D01*
X144965593Y-46091112D01*
X144916093Y-46127076D01*
X144854907Y-46127076D01*
X144815496Y-46102925D01*
X142942196Y-44229625D01*
X142914419Y-44175108D01*
X142913200Y-44159621D01*
X142913200Y-41866899D01*
X142932107Y-41808708D01*
X142942190Y-41796901D01*
X143000750Y-41738342D01*
X143058346Y-41625304D01*
X143078192Y-41500000D01*
X143058346Y-41374696D01*
X143056446Y-41370968D01*
X143054335Y-41366825D01*
X143000750Y-41261658D01*
X142911042Y-41171950D01*
X142857094Y-41144462D01*
X142798007Y-41114355D01*
X142798004Y-41114354D01*
X142672700Y-41094508D01*
X142547396Y-41114354D01*
X142547392Y-41114355D01*
X142434359Y-41171949D01*
X142344649Y-41261659D01*
X142287055Y-41374692D01*
X142287054Y-41374696D01*
X142267208Y-41499999D01*
X142267208Y-41500000D01*
X142287054Y-41625303D01*
X142287055Y-41625307D01*
X142342644Y-41734406D01*
X142344650Y-41738342D01*
X142403205Y-41796897D01*
X142430981Y-41851412D01*
X142432200Y-41866899D01*
X142432200Y-43933169D01*
X142413293Y-43991360D01*
X142363793Y-44027324D01*
X142302607Y-44027324D01*
X142263196Y-44003173D01*
X140279938Y-42019915D01*
X140252161Y-41965398D01*
X140261732Y-41904966D01*
X140304995Y-41861702D01*
X140371042Y-41828050D01*
X140460750Y-41738342D01*
X140518346Y-41625304D01*
X140538192Y-41500000D01*
X140537145Y-41493391D01*
X140546713Y-41432960D01*
X140564922Y-41407896D01*
X141053323Y-40919496D01*
X141107839Y-40891719D01*
X141123326Y-40890500D01*
X148092073Y-40890500D01*
X148150264Y-40909407D01*
G37*
%TD.AperFunction*%
%TA.AperFunction,Conductor*%
G36*
X164260996Y-35669407D02*
G01*
X164296960Y-35718907D01*
X164296960Y-35780093D01*
X164272810Y-35819501D01*
X164128497Y-35963815D01*
X164079348Y-36012964D01*
X163899764Y-36247002D01*
X163752253Y-36502500D01*
X163639361Y-36775046D01*
X163603580Y-36908584D01*
X163563007Y-37060007D01*
X163563006Y-37060011D01*
X163563006Y-37060013D01*
X163524500Y-37352493D01*
X163524500Y-37647506D01*
X163558379Y-37904844D01*
X163563007Y-37939993D01*
X163596224Y-38063960D01*
X163639361Y-38224953D01*
X163752253Y-38497499D01*
X163752255Y-38497503D01*
X163752257Y-38497507D01*
X163893476Y-38742106D01*
X163899764Y-38752997D01*
X164079348Y-38987035D01*
X164079350Y-38987037D01*
X164079354Y-38987042D01*
X164287958Y-39195646D01*
X164287962Y-39195649D01*
X164287964Y-39195651D01*
X164367925Y-39257007D01*
X164522006Y-39375238D01*
X164777493Y-39522743D01*
X164777499Y-39522745D01*
X164777500Y-39522746D01*
X164862592Y-39557992D01*
X165050048Y-39635639D01*
X165335007Y-39711993D01*
X165627494Y-39750500D01*
X165627495Y-39750500D01*
X165922505Y-39750500D01*
X165922506Y-39750500D01*
X166214993Y-39711993D01*
X166499952Y-39635639D01*
X166772507Y-39522743D01*
X167027994Y-39375238D01*
X167262042Y-39195646D01*
X167455498Y-39002189D01*
X167510013Y-38974414D01*
X167570445Y-38983985D01*
X167613710Y-39027250D01*
X167624500Y-39072195D01*
X167624500Y-88273865D01*
X167657831Y-88569671D01*
X167657832Y-88569677D01*
X167724076Y-88859912D01*
X167822398Y-89140899D01*
X167822399Y-89140902D01*
X167951557Y-89409102D01*
X167951561Y-89409109D01*
X167951565Y-89409117D01*
X168109950Y-89661185D01*
X168295562Y-89893934D01*
X168506066Y-90104438D01*
X168738815Y-90290050D01*
X168990883Y-90448435D01*
X168990894Y-90448440D01*
X168990897Y-90448442D01*
X169014794Y-90459950D01*
X169259099Y-90577601D01*
X169390270Y-90623499D01*
X169540087Y-90675923D01*
X169540090Y-90675923D01*
X169540091Y-90675924D01*
X169830325Y-90742168D01*
X169910096Y-90751156D01*
X170126134Y-90775499D01*
X170126150Y-90775499D01*
X170126151Y-90775500D01*
X170222273Y-90775500D01*
X181951441Y-90775500D01*
X182009632Y-90794407D01*
X182045596Y-90843907D01*
X182045596Y-90905093D01*
X182044199Y-90909097D01*
X182031119Y-90944165D01*
X182031117Y-90944172D01*
X182025100Y-91000148D01*
X182025100Y-91048322D01*
X182575100Y-91598322D01*
X182575100Y-91951878D01*
X182025100Y-91401878D01*
X182025100Y-92648321D01*
X182575100Y-92098320D01*
X182575100Y-92451875D01*
X182025100Y-93001874D01*
X182025100Y-93050047D01*
X182025101Y-93050055D01*
X182031117Y-93106030D01*
X182031118Y-93106032D01*
X182078348Y-93232662D01*
X182159340Y-93340855D01*
X182159344Y-93340859D01*
X182267537Y-93421851D01*
X182394164Y-93469080D01*
X182394172Y-93469082D01*
X182450148Y-93475099D01*
X183200048Y-93475099D01*
X183200054Y-93475098D01*
X183256030Y-93469082D01*
X183256032Y-93469081D01*
X183382662Y-93421851D01*
X183490855Y-93340859D01*
X183490859Y-93340855D01*
X183571851Y-93232662D01*
X183619080Y-93106035D01*
X183619082Y-93106027D01*
X183625099Y-93050051D01*
X183625099Y-93001877D01*
X183075100Y-92451878D01*
X183075100Y-92098322D01*
X183625099Y-92648321D01*
X183625099Y-91401878D01*
X183075100Y-91951876D01*
X183075100Y-91598320D01*
X183625099Y-91048322D01*
X183625099Y-91000151D01*
X183625098Y-91000145D01*
X183619082Y-90944169D01*
X183619081Y-90944167D01*
X183606001Y-90909097D01*
X183603381Y-90847968D01*
X183637191Y-90796973D01*
X183694519Y-90775591D01*
X183698759Y-90775500D01*
X190151441Y-90775500D01*
X190209632Y-90794407D01*
X190245596Y-90843907D01*
X190245596Y-90905093D01*
X190244199Y-90909097D01*
X190231119Y-90944165D01*
X190231117Y-90944172D01*
X190225100Y-91000148D01*
X190225100Y-91048322D01*
X190775100Y-91598322D01*
X190775100Y-91951878D01*
X190225100Y-91401878D01*
X190225100Y-92648321D01*
X190775100Y-92098320D01*
X190775100Y-92451875D01*
X190225100Y-93001874D01*
X190225100Y-93050047D01*
X190225101Y-93050055D01*
X190231117Y-93106030D01*
X190231118Y-93106032D01*
X190278348Y-93232662D01*
X190359340Y-93340855D01*
X190359344Y-93340859D01*
X190467537Y-93421851D01*
X190594164Y-93469080D01*
X190594172Y-93469082D01*
X190650148Y-93475099D01*
X191400048Y-93475099D01*
X191400054Y-93475098D01*
X191456030Y-93469082D01*
X191456032Y-93469081D01*
X191582662Y-93421851D01*
X191690855Y-93340859D01*
X191690859Y-93340855D01*
X191771851Y-93232662D01*
X191819080Y-93106035D01*
X191819082Y-93106027D01*
X191825099Y-93050051D01*
X191825099Y-93001877D01*
X191275100Y-92451878D01*
X191275100Y-92098322D01*
X191825099Y-92648321D01*
X191825099Y-91401878D01*
X191275100Y-91951876D01*
X191275100Y-91598320D01*
X191825099Y-91048322D01*
X191825099Y-91000151D01*
X191825098Y-91000145D01*
X191819082Y-90944169D01*
X191819081Y-90944167D01*
X191806001Y-90909097D01*
X191803381Y-90847968D01*
X191837191Y-90796973D01*
X191894519Y-90775591D01*
X191898759Y-90775500D01*
X202417417Y-90775500D01*
X202471759Y-90775500D01*
X202478234Y-90775712D01*
X202709938Y-90790898D01*
X202722763Y-90792587D01*
X202947327Y-90837255D01*
X202959827Y-90840604D01*
X202969556Y-90843907D01*
X203176630Y-90914200D01*
X203188593Y-90919156D01*
X203393929Y-91020416D01*
X203405145Y-91026891D01*
X203595510Y-91154089D01*
X203605783Y-91161972D01*
X203777915Y-91312927D01*
X203787072Y-91322084D01*
X203938027Y-91494216D01*
X203945910Y-91504489D01*
X204073108Y-91694854D01*
X204079583Y-91706070D01*
X204180843Y-91911406D01*
X204185799Y-91923369D01*
X204259393Y-92140167D01*
X204262745Y-92152676D01*
X204307411Y-92377229D01*
X204309101Y-92390068D01*
X204324288Y-92621765D01*
X204324500Y-92628240D01*
X204324500Y-97996759D01*
X204324288Y-98003234D01*
X204309101Y-98234931D01*
X204307411Y-98247770D01*
X204262745Y-98472323D01*
X204259393Y-98484832D01*
X204185799Y-98701630D01*
X204180843Y-98713593D01*
X204079583Y-98918929D01*
X204073108Y-98930145D01*
X203945910Y-99120510D01*
X203938027Y-99130783D01*
X203787072Y-99302915D01*
X203777915Y-99312072D01*
X203605783Y-99463027D01*
X203595510Y-99470910D01*
X203405145Y-99598108D01*
X203393929Y-99604583D01*
X203188593Y-99705843D01*
X203176630Y-99710799D01*
X202959832Y-99784393D01*
X202947323Y-99787745D01*
X202722770Y-99832411D01*
X202709931Y-99834101D01*
X202478234Y-99849288D01*
X202471759Y-99849500D01*
X167347195Y-99849500D01*
X167289004Y-99830593D01*
X167253040Y-99781093D01*
X167253040Y-99719907D01*
X167277189Y-99680498D01*
X167470646Y-99487042D01*
X167650238Y-99252994D01*
X167797743Y-98997507D01*
X167910639Y-98724952D01*
X167986993Y-98439993D01*
X168025500Y-98147506D01*
X168025500Y-97852494D01*
X167986993Y-97560007D01*
X167910639Y-97275048D01*
X167797743Y-97002493D01*
X167650238Y-96747006D01*
X167650235Y-96747002D01*
X167470651Y-96512964D01*
X167470649Y-96512962D01*
X167470646Y-96512958D01*
X167262042Y-96304354D01*
X167262037Y-96304350D01*
X167262035Y-96304348D01*
X167027997Y-96124764D01*
X167027994Y-96124762D01*
X166772507Y-95977257D01*
X166772503Y-95977255D01*
X166772499Y-95977253D01*
X166499953Y-95864361D01*
X166433183Y-95846470D01*
X166214993Y-95788007D01*
X166214986Y-95788006D01*
X165922506Y-95749500D01*
X165627494Y-95749500D01*
X165627493Y-95749500D01*
X165335013Y-95788006D01*
X165335011Y-95788006D01*
X165335007Y-95788007D01*
X165183584Y-95828580D01*
X165050046Y-95864361D01*
X164777500Y-95977253D01*
X164522002Y-96124764D01*
X164287964Y-96304348D01*
X164079348Y-96512964D01*
X163899764Y-96747002D01*
X163752253Y-97002500D01*
X163639361Y-97275046D01*
X163623232Y-97335243D01*
X163563007Y-97560007D01*
X163524500Y-97852494D01*
X163524500Y-98147506D01*
X163563007Y-98439993D01*
X163621470Y-98658183D01*
X163639361Y-98724953D01*
X163752253Y-98997499D01*
X163752255Y-98997503D01*
X163752257Y-98997507D01*
X163762877Y-99015901D01*
X163899764Y-99252997D01*
X164079348Y-99487035D01*
X164079350Y-99487037D01*
X164079354Y-99487042D01*
X164272810Y-99680498D01*
X164300586Y-99735013D01*
X164291015Y-99795445D01*
X164247750Y-99838710D01*
X164202805Y-99849500D01*
X113547195Y-99849500D01*
X113489004Y-99830593D01*
X113453040Y-99781093D01*
X113453040Y-99719907D01*
X113477189Y-99680498D01*
X113670646Y-99487042D01*
X113850238Y-99252994D01*
X113997743Y-98997507D01*
X114110639Y-98724952D01*
X114186993Y-98439993D01*
X114225500Y-98147506D01*
X114225500Y-97852494D01*
X114186993Y-97560007D01*
X114110639Y-97275048D01*
X113997743Y-97002493D01*
X113850238Y-96747006D01*
X113850235Y-96747002D01*
X113670651Y-96512964D01*
X113670649Y-96512962D01*
X113670646Y-96512958D01*
X113462042Y-96304354D01*
X113462037Y-96304350D01*
X113462035Y-96304348D01*
X113227997Y-96124764D01*
X113227994Y-96124762D01*
X112972507Y-95977257D01*
X112972503Y-95977255D01*
X112972499Y-95977253D01*
X112699953Y-95864361D01*
X112633183Y-95846470D01*
X112414993Y-95788007D01*
X112414986Y-95788006D01*
X112122506Y-95749500D01*
X111827494Y-95749500D01*
X111827493Y-95749500D01*
X111535013Y-95788006D01*
X111535011Y-95788006D01*
X111535007Y-95788007D01*
X111383584Y-95828580D01*
X111250046Y-95864361D01*
X110977500Y-95977253D01*
X110722002Y-96124764D01*
X110487964Y-96304348D01*
X110487958Y-96304353D01*
X110487958Y-96304354D01*
X110294501Y-96497810D01*
X110239987Y-96525586D01*
X110179555Y-96516015D01*
X110136290Y-96472750D01*
X110125500Y-96427805D01*
X110125500Y-95050148D01*
X182025100Y-95050148D01*
X182025100Y-95098322D01*
X182575100Y-95648322D01*
X182575100Y-96001878D01*
X182025100Y-95451878D01*
X182025100Y-96698321D01*
X182575100Y-96148320D01*
X182575100Y-96501875D01*
X182025100Y-97051874D01*
X182025100Y-97100047D01*
X182025101Y-97100055D01*
X182031117Y-97156030D01*
X182031118Y-97156032D01*
X182078348Y-97282662D01*
X182159340Y-97390855D01*
X182159344Y-97390859D01*
X182267537Y-97471851D01*
X182394164Y-97519080D01*
X182394172Y-97519082D01*
X182450148Y-97525099D01*
X183200048Y-97525099D01*
X183200054Y-97525098D01*
X183256030Y-97519082D01*
X183256032Y-97519081D01*
X183382662Y-97471851D01*
X183490855Y-97390859D01*
X183490859Y-97390855D01*
X183571851Y-97282662D01*
X183619080Y-97156035D01*
X183619082Y-97156027D01*
X183625099Y-97100051D01*
X183625099Y-97051877D01*
X183075100Y-96501878D01*
X183075100Y-96148322D01*
X183625099Y-96698321D01*
X183625099Y-95451878D01*
X183075100Y-96001876D01*
X183075100Y-95648320D01*
X183625099Y-95098322D01*
X183625099Y-95050151D01*
X183625098Y-95050148D01*
X190225100Y-95050148D01*
X190225100Y-95098322D01*
X190775100Y-95648322D01*
X190775100Y-96001878D01*
X190225100Y-95451878D01*
X190225100Y-96698321D01*
X190775100Y-96148320D01*
X190775100Y-96501875D01*
X190225100Y-97051874D01*
X190225100Y-97100047D01*
X190225101Y-97100055D01*
X190231117Y-97156030D01*
X190231118Y-97156032D01*
X190278348Y-97282662D01*
X190359340Y-97390855D01*
X190359344Y-97390859D01*
X190467537Y-97471851D01*
X190594164Y-97519080D01*
X190594172Y-97519082D01*
X190650148Y-97525099D01*
X191400048Y-97525099D01*
X191400054Y-97525098D01*
X191456030Y-97519082D01*
X191456032Y-97519081D01*
X191582662Y-97471851D01*
X191690855Y-97390859D01*
X191690859Y-97390855D01*
X191771851Y-97282662D01*
X191819080Y-97156035D01*
X191819082Y-97156027D01*
X191825099Y-97100051D01*
X191825099Y-97051877D01*
X191275100Y-96501878D01*
X191275100Y-96148322D01*
X191825099Y-96698321D01*
X191825099Y-95451878D01*
X191275100Y-96001876D01*
X191275100Y-95648320D01*
X191825099Y-95098322D01*
X191825099Y-95050151D01*
X191825098Y-95050145D01*
X191819082Y-94994169D01*
X191819081Y-94994167D01*
X191771851Y-94867537D01*
X191743826Y-94830100D01*
X192269608Y-94830100D01*
X192276325Y-94872513D01*
X192289454Y-94955403D01*
X192289455Y-94955407D01*
X192309206Y-94994169D01*
X192347050Y-95068442D01*
X192436758Y-95158150D01*
X192549796Y-95215746D01*
X192675100Y-95235592D01*
X192800404Y-95215746D01*
X192913442Y-95158150D01*
X193003150Y-95068442D01*
X193040997Y-94994164D01*
X193061891Y-94953158D01*
X193105155Y-94909893D01*
X193165587Y-94900322D01*
X193220104Y-94928100D01*
X193238309Y-94953158D01*
X193287730Y-95050151D01*
X193297050Y-95068442D01*
X193386758Y-95158150D01*
X193499796Y-95215746D01*
X193625100Y-95235592D01*
X193750404Y-95215746D01*
X193850010Y-95164994D01*
X197537000Y-95164994D01*
X197537000Y-95460006D01*
X197575507Y-95752493D01*
X197633970Y-95970683D01*
X197651861Y-96037453D01*
X197764753Y-96309999D01*
X197764755Y-96310003D01*
X197764757Y-96310007D01*
X197912262Y-96565494D01*
X197912264Y-96565497D01*
X198091848Y-96799535D01*
X198091850Y-96799537D01*
X198091854Y-96799542D01*
X198300458Y-97008146D01*
X198300462Y-97008149D01*
X198300464Y-97008151D01*
X198493183Y-97156030D01*
X198534506Y-97187738D01*
X198789993Y-97335243D01*
X199062548Y-97448139D01*
X199347507Y-97524493D01*
X199639994Y-97563000D01*
X199639995Y-97563000D01*
X199935005Y-97563000D01*
X199935006Y-97563000D01*
X200227493Y-97524493D01*
X200512452Y-97448139D01*
X200785007Y-97335243D01*
X201040494Y-97187738D01*
X201274542Y-97008146D01*
X201483146Y-96799542D01*
X201662738Y-96565494D01*
X201810243Y-96310007D01*
X201923139Y-96037452D01*
X201999493Y-95752493D01*
X202038000Y-95460006D01*
X202038000Y-95164994D01*
X201999493Y-94872507D01*
X201923139Y-94587548D01*
X201810243Y-94314993D01*
X201662738Y-94059506D01*
X201483146Y-93825458D01*
X201274542Y-93616854D01*
X201274537Y-93616850D01*
X201274535Y-93616848D01*
X201040497Y-93437264D01*
X201013801Y-93421851D01*
X200785007Y-93289757D01*
X200785003Y-93289755D01*
X200784999Y-93289753D01*
X200512453Y-93176861D01*
X200445683Y-93158970D01*
X200227493Y-93100507D01*
X200227486Y-93100506D01*
X199935006Y-93062000D01*
X199639994Y-93062000D01*
X199639993Y-93062000D01*
X199347513Y-93100506D01*
X199347511Y-93100506D01*
X199347507Y-93100507D01*
X199196084Y-93141080D01*
X199062546Y-93176861D01*
X198790000Y-93289753D01*
X198534502Y-93437264D01*
X198300464Y-93616848D01*
X198091848Y-93825464D01*
X197912264Y-94059502D01*
X197764753Y-94315000D01*
X197651861Y-94587546D01*
X197640186Y-94631119D01*
X197575507Y-94872507D01*
X197575506Y-94872511D01*
X197575506Y-94872513D01*
X197537901Y-95158150D01*
X197537000Y-95164994D01*
X193850010Y-95164994D01*
X193863442Y-95158150D01*
X193953150Y-95068442D01*
X194010746Y-94955404D01*
X194030592Y-94830100D01*
X194010746Y-94704796D01*
X193953150Y-94591758D01*
X193863442Y-94502050D01*
X193859506Y-94500044D01*
X193750407Y-94444455D01*
X193750404Y-94444454D01*
X193625100Y-94424608D01*
X193499796Y-94444454D01*
X193499792Y-94444455D01*
X193386759Y-94502049D01*
X193297049Y-94591759D01*
X193238309Y-94707042D01*
X193195044Y-94750306D01*
X193134612Y-94759877D01*
X193080096Y-94732099D01*
X193061891Y-94707042D01*
X193030110Y-94644670D01*
X193003150Y-94591758D01*
X192913442Y-94502050D01*
X192909506Y-94500044D01*
X192800407Y-94444455D01*
X192800404Y-94444454D01*
X192675100Y-94424608D01*
X192549796Y-94444454D01*
X192549792Y-94444455D01*
X192436759Y-94502049D01*
X192347049Y-94591759D01*
X192289455Y-94704792D01*
X192289454Y-94704796D01*
X192280815Y-94759344D01*
X192269608Y-94830100D01*
X191743826Y-94830100D01*
X191690859Y-94759344D01*
X191690855Y-94759340D01*
X191582662Y-94678348D01*
X191456035Y-94631119D01*
X191456027Y-94631117D01*
X191400051Y-94625100D01*
X190650151Y-94625100D01*
X190650145Y-94625101D01*
X190594169Y-94631117D01*
X190594167Y-94631118D01*
X190467537Y-94678348D01*
X190359344Y-94759340D01*
X190359340Y-94759344D01*
X190278348Y-94867537D01*
X190231119Y-94994164D01*
X190231117Y-94994172D01*
X190225100Y-95050148D01*
X183625098Y-95050148D01*
X183625098Y-95050145D01*
X183619082Y-94994169D01*
X183619081Y-94994167D01*
X183571851Y-94867537D01*
X183490859Y-94759344D01*
X183490855Y-94759340D01*
X183382662Y-94678348D01*
X183256035Y-94631119D01*
X183256027Y-94631117D01*
X183200051Y-94625100D01*
X182450151Y-94625100D01*
X182450145Y-94625101D01*
X182394169Y-94631117D01*
X182394167Y-94631118D01*
X182267537Y-94678348D01*
X182159344Y-94759340D01*
X182159340Y-94759344D01*
X182078348Y-94867537D01*
X182031119Y-94994164D01*
X182031117Y-94994172D01*
X182025100Y-95050148D01*
X110125500Y-95050148D01*
X110125500Y-94504611D01*
X140465000Y-94504611D01*
X140465001Y-94504611D01*
X152344999Y-94504611D01*
X152345000Y-94504611D01*
X152345000Y-90540199D01*
X140465000Y-90540199D01*
X140465000Y-94504611D01*
X110125500Y-94504611D01*
X110125500Y-81400199D01*
X126661508Y-81400199D01*
X126661508Y-81400200D01*
X126681354Y-81525503D01*
X126681355Y-81525507D01*
X126683164Y-81529057D01*
X126738950Y-81638542D01*
X126828658Y-81728250D01*
X126941696Y-81785846D01*
X127067000Y-81805692D01*
X127192304Y-81785846D01*
X127305342Y-81728250D01*
X127395050Y-81638542D01*
X127452646Y-81525504D01*
X127472492Y-81400200D01*
X127472492Y-81400199D01*
X133461508Y-81400199D01*
X133461508Y-81400200D01*
X133481354Y-81525503D01*
X133481355Y-81525507D01*
X133483164Y-81529057D01*
X133538950Y-81638542D01*
X133628658Y-81728250D01*
X133741696Y-81785846D01*
X133867000Y-81805692D01*
X133992304Y-81785846D01*
X134105342Y-81728250D01*
X134195050Y-81638542D01*
X134228791Y-81572320D01*
X134272055Y-81529057D01*
X134332487Y-81519486D01*
X134387004Y-81547264D01*
X134405206Y-81572317D01*
X134438950Y-81638542D01*
X134528658Y-81728250D01*
X134641696Y-81785846D01*
X134767000Y-81805692D01*
X134892304Y-81785846D01*
X135005342Y-81728250D01*
X135095050Y-81638542D01*
X135152646Y-81525504D01*
X135172492Y-81400200D01*
X135152646Y-81274896D01*
X135095050Y-81161858D01*
X135005342Y-81072150D01*
X135001406Y-81070144D01*
X134892307Y-81014555D01*
X134892304Y-81014554D01*
X134767000Y-80994708D01*
X134641696Y-81014554D01*
X134641692Y-81014555D01*
X134528659Y-81072149D01*
X134438949Y-81161859D01*
X134405209Y-81228078D01*
X134361944Y-81271342D01*
X134301512Y-81280913D01*
X134246996Y-81253135D01*
X134228791Y-81228078D01*
X134224658Y-81219968D01*
X134195050Y-81161858D01*
X134105342Y-81072150D01*
X134101406Y-81070144D01*
X133992307Y-81014555D01*
X133992304Y-81014554D01*
X133867000Y-80994708D01*
X133741696Y-81014554D01*
X133741692Y-81014555D01*
X133628659Y-81072149D01*
X133538949Y-81161859D01*
X133481355Y-81274892D01*
X133481354Y-81274896D01*
X133461508Y-81400199D01*
X127472492Y-81400199D01*
X127452646Y-81274896D01*
X127395050Y-81161858D01*
X127305342Y-81072150D01*
X127301406Y-81070144D01*
X127192307Y-81014555D01*
X127192304Y-81014554D01*
X127067000Y-80994708D01*
X126941696Y-81014554D01*
X126941692Y-81014555D01*
X126828659Y-81072149D01*
X126738949Y-81161859D01*
X126681355Y-81274892D01*
X126681354Y-81274896D01*
X126661508Y-81400199D01*
X110125500Y-81400199D01*
X110125500Y-78668555D01*
X112364500Y-78668555D01*
X112364500Y-79691844D01*
X112367223Y-79726458D01*
X112367225Y-79726465D01*
X112410259Y-79874588D01*
X112410259Y-79874589D01*
X112488774Y-80007350D01*
X112488775Y-80007351D01*
X112488777Y-80007354D01*
X112597846Y-80116423D01*
X112730614Y-80194942D01*
X112878738Y-80237976D01*
X112913350Y-80240700D01*
X112913355Y-80240700D01*
X113936645Y-80240700D01*
X113936650Y-80240700D01*
X113971262Y-80237976D01*
X114119386Y-80194942D01*
X114252154Y-80116423D01*
X114361223Y-80007354D01*
X114439742Y-79874586D01*
X114482776Y-79726462D01*
X114485500Y-79691850D01*
X114485500Y-78668550D01*
X114482776Y-78633938D01*
X114439742Y-78485814D01*
X114361223Y-78353046D01*
X114252154Y-78243977D01*
X114252151Y-78243975D01*
X114252150Y-78243974D01*
X114119388Y-78165459D01*
X114119387Y-78165458D01*
X114119386Y-78165458D01*
X113971262Y-78122424D01*
X113971261Y-78122423D01*
X113971258Y-78122423D01*
X113949271Y-78120693D01*
X113936650Y-78119700D01*
X112913350Y-78119700D01*
X112901586Y-78120625D01*
X112878741Y-78122423D01*
X112878734Y-78122425D01*
X112730611Y-78165459D01*
X112730610Y-78165459D01*
X112597849Y-78243974D01*
X112488774Y-78353049D01*
X112410259Y-78485810D01*
X112410259Y-78485811D01*
X112367225Y-78633934D01*
X112367223Y-78633941D01*
X112364500Y-78668555D01*
X110125500Y-78668555D01*
X110125500Y-76640196D01*
X112359369Y-76640196D01*
X112359369Y-76640203D01*
X112379843Y-76848089D01*
X112379844Y-76848094D01*
X112440485Y-77047999D01*
X112440487Y-77048004D01*
X112538952Y-77232221D01*
X112538958Y-77232230D01*
X112538960Y-77232233D01*
X112594222Y-77299570D01*
X112671480Y-77393710D01*
X112671489Y-77393719D01*
X112746800Y-77455524D01*
X112832967Y-77526240D01*
X112832971Y-77526242D01*
X112832978Y-77526247D01*
X113017195Y-77624712D01*
X113017201Y-77624715D01*
X113156465Y-77666959D01*
X113217105Y-77685355D01*
X113217110Y-77685356D01*
X113424997Y-77705831D01*
X113425000Y-77705831D01*
X113425003Y-77705831D01*
X113632889Y-77685356D01*
X113632894Y-77685355D01*
X113832799Y-77624715D01*
X113898850Y-77589409D01*
X114017021Y-77526247D01*
X114017024Y-77526244D01*
X114017033Y-77526240D01*
X114178515Y-77393715D01*
X114311040Y-77232233D01*
X114311044Y-77232224D01*
X114311047Y-77232221D01*
X114409512Y-77048004D01*
X114409515Y-77047999D01*
X114470155Y-76848094D01*
X114470156Y-76848089D01*
X114490631Y-76640203D01*
X114490631Y-76640196D01*
X114470156Y-76432310D01*
X114470155Y-76432305D01*
X114451759Y-76371665D01*
X114409515Y-76232401D01*
X114384631Y-76185846D01*
X114311047Y-76048178D01*
X114311042Y-76048171D01*
X114311040Y-76048167D01*
X114240324Y-75962000D01*
X114178519Y-75886689D01*
X114178510Y-75886680D01*
X114073133Y-75800200D01*
X114017033Y-75754160D01*
X114017030Y-75754158D01*
X114017021Y-75754152D01*
X113832804Y-75655687D01*
X113832799Y-75655685D01*
X113632894Y-75595044D01*
X113632889Y-75595043D01*
X113425003Y-75574569D01*
X113424997Y-75574569D01*
X113217110Y-75595043D01*
X113217105Y-75595044D01*
X113017200Y-75655685D01*
X113017195Y-75655687D01*
X112832978Y-75754152D01*
X112832968Y-75754159D01*
X112671489Y-75886680D01*
X112671480Y-75886689D01*
X112538959Y-76048168D01*
X112538952Y-76048178D01*
X112440487Y-76232395D01*
X112440485Y-76232400D01*
X112379844Y-76432305D01*
X112379843Y-76432310D01*
X112359369Y-76640196D01*
X110125500Y-76640196D01*
X110125500Y-74100196D01*
X112359369Y-74100196D01*
X112359369Y-74100203D01*
X112379843Y-74308089D01*
X112379844Y-74308094D01*
X112440485Y-74507999D01*
X112440487Y-74508004D01*
X112538952Y-74692221D01*
X112538958Y-74692230D01*
X112538960Y-74692233D01*
X112594222Y-74759570D01*
X112671480Y-74853710D01*
X112671489Y-74853719D01*
X112746800Y-74915524D01*
X112832967Y-74986240D01*
X112832971Y-74986242D01*
X112832978Y-74986247D01*
X113017195Y-75084712D01*
X113017201Y-75084715D01*
X113156465Y-75126959D01*
X113217105Y-75145355D01*
X113217110Y-75145356D01*
X113424997Y-75165831D01*
X113425000Y-75165831D01*
X113425003Y-75165831D01*
X113632889Y-75145356D01*
X113632894Y-75145355D01*
X113832799Y-75084715D01*
X113898850Y-75049409D01*
X114017021Y-74986247D01*
X114017024Y-74986244D01*
X114017033Y-74986240D01*
X114178515Y-74853715D01*
X114311040Y-74692233D01*
X114311044Y-74692224D01*
X114311047Y-74692221D01*
X114409512Y-74508004D01*
X114409515Y-74507999D01*
X114470155Y-74308094D01*
X114470156Y-74308089D01*
X114490631Y-74100203D01*
X114490631Y-74100196D01*
X114470156Y-73892310D01*
X114470155Y-73892305D01*
X114429377Y-73757878D01*
X114409515Y-73692401D01*
X114389087Y-73654182D01*
X114311047Y-73508178D01*
X114311042Y-73508171D01*
X114311040Y-73508167D01*
X114240324Y-73422000D01*
X114178519Y-73346689D01*
X114178510Y-73346680D01*
X114030859Y-73225507D01*
X114017033Y-73214160D01*
X114017030Y-73214158D01*
X114017021Y-73214152D01*
X113832804Y-73115687D01*
X113832799Y-73115685D01*
X113632894Y-73055044D01*
X113632889Y-73055043D01*
X113425003Y-73034569D01*
X113424997Y-73034569D01*
X113217110Y-73055043D01*
X113217105Y-73055044D01*
X113017200Y-73115685D01*
X113017195Y-73115687D01*
X112832978Y-73214152D01*
X112832968Y-73214159D01*
X112671489Y-73346680D01*
X112671480Y-73346689D01*
X112538959Y-73508168D01*
X112538952Y-73508178D01*
X112440487Y-73692395D01*
X112440485Y-73692400D01*
X112379844Y-73892305D01*
X112379843Y-73892310D01*
X112359369Y-74100196D01*
X110125500Y-74100196D01*
X110125500Y-71560196D01*
X112359369Y-71560196D01*
X112359369Y-71560203D01*
X112379843Y-71768089D01*
X112379844Y-71768094D01*
X112440485Y-71967999D01*
X112440487Y-71968004D01*
X112538952Y-72152221D01*
X112538958Y-72152230D01*
X112538960Y-72152233D01*
X112594222Y-72219570D01*
X112671480Y-72313710D01*
X112671489Y-72313719D01*
X112746800Y-72375524D01*
X112832967Y-72446240D01*
X112832971Y-72446242D01*
X112832978Y-72446247D01*
X113017195Y-72544712D01*
X113017201Y-72544715D01*
X113156465Y-72586959D01*
X113217105Y-72605355D01*
X113217110Y-72605356D01*
X113424997Y-72625831D01*
X113425000Y-72625831D01*
X113425003Y-72625831D01*
X113632889Y-72605356D01*
X113632894Y-72605355D01*
X113832799Y-72544715D01*
X113898850Y-72509409D01*
X114017021Y-72446247D01*
X114017024Y-72446244D01*
X114017033Y-72446240D01*
X114178515Y-72313715D01*
X114311040Y-72152233D01*
X114311044Y-72152224D01*
X114311047Y-72152221D01*
X114389368Y-72005692D01*
X114409515Y-71967999D01*
X114470155Y-71768094D01*
X114470156Y-71768089D01*
X114490631Y-71560203D01*
X114490631Y-71560196D01*
X114470156Y-71352310D01*
X114470155Y-71352305D01*
X114428369Y-71214555D01*
X114409515Y-71152401D01*
X114396460Y-71127977D01*
X114311047Y-70968178D01*
X114311042Y-70968171D01*
X114311040Y-70968167D01*
X114240324Y-70882000D01*
X114178519Y-70806689D01*
X114178510Y-70806680D01*
X114084370Y-70729422D01*
X114017033Y-70674160D01*
X114017030Y-70674158D01*
X114017021Y-70674152D01*
X113832804Y-70575687D01*
X113832799Y-70575685D01*
X113632894Y-70515044D01*
X113632889Y-70515043D01*
X113425003Y-70494569D01*
X113424997Y-70494569D01*
X113217110Y-70515043D01*
X113217105Y-70515044D01*
X113017200Y-70575685D01*
X113017195Y-70575687D01*
X112832978Y-70674152D01*
X112832968Y-70674159D01*
X112671489Y-70806680D01*
X112671480Y-70806689D01*
X112538959Y-70968168D01*
X112538952Y-70968178D01*
X112440487Y-71152395D01*
X112440485Y-71152400D01*
X112379844Y-71352305D01*
X112379843Y-71352310D01*
X112359369Y-71560196D01*
X110125500Y-71560196D01*
X110125500Y-69020196D01*
X112359369Y-69020196D01*
X112359369Y-69020203D01*
X112379843Y-69228089D01*
X112379844Y-69228094D01*
X112440485Y-69427999D01*
X112440487Y-69428004D01*
X112538952Y-69612221D01*
X112538958Y-69612230D01*
X112538960Y-69612233D01*
X112590383Y-69674892D01*
X112671480Y-69773710D01*
X112671489Y-69773719D01*
X112703757Y-69800200D01*
X112832967Y-69906240D01*
X112832971Y-69906242D01*
X112832978Y-69906247D01*
X113017195Y-70004712D01*
X113017201Y-70004715D01*
X113128708Y-70038540D01*
X113217105Y-70065355D01*
X113217110Y-70065356D01*
X113424997Y-70085831D01*
X113425000Y-70085831D01*
X113425003Y-70085831D01*
X113632889Y-70065356D01*
X113632894Y-70065355D01*
X113832799Y-70004715D01*
X113898850Y-69969409D01*
X114017021Y-69906247D01*
X114017024Y-69906244D01*
X114017033Y-69906240D01*
X114178515Y-69773715D01*
X114311040Y-69612233D01*
X114311044Y-69612224D01*
X114311047Y-69612221D01*
X114389928Y-69464644D01*
X114409515Y-69427999D01*
X114470155Y-69228094D01*
X114470156Y-69228089D01*
X114490631Y-69020203D01*
X114490631Y-69020196D01*
X114470156Y-68812310D01*
X114470155Y-68812305D01*
X114443736Y-68725213D01*
X114409515Y-68612401D01*
X114402994Y-68600201D01*
X114311047Y-68428178D01*
X114311042Y-68428171D01*
X114311040Y-68428167D01*
X114235272Y-68335844D01*
X114178519Y-68266689D01*
X114178510Y-68266680D01*
X114053109Y-68163767D01*
X114017033Y-68134160D01*
X114017030Y-68134158D01*
X114017021Y-68134152D01*
X113832804Y-68035687D01*
X113832799Y-68035685D01*
X113632894Y-67975044D01*
X113632889Y-67975043D01*
X113425003Y-67954569D01*
X113424997Y-67954569D01*
X113217110Y-67975043D01*
X113217105Y-67975044D01*
X113017200Y-68035685D01*
X113017195Y-68035687D01*
X112832978Y-68134152D01*
X112832968Y-68134159D01*
X112671489Y-68266680D01*
X112671480Y-68266689D01*
X112538959Y-68428168D01*
X112538952Y-68428178D01*
X112440487Y-68612395D01*
X112440485Y-68612400D01*
X112379844Y-68812305D01*
X112379843Y-68812310D01*
X112359369Y-69020196D01*
X110125500Y-69020196D01*
X110125500Y-66480196D01*
X112359369Y-66480196D01*
X112359369Y-66480203D01*
X112379843Y-66688089D01*
X112379844Y-66688094D01*
X112440485Y-66887999D01*
X112440487Y-66888004D01*
X112538952Y-67072221D01*
X112538958Y-67072230D01*
X112538960Y-67072233D01*
X112594222Y-67139570D01*
X112671480Y-67233710D01*
X112671489Y-67233719D01*
X112710092Y-67265399D01*
X112832967Y-67366240D01*
X112832971Y-67366242D01*
X112832978Y-67366247D01*
X113016527Y-67464355D01*
X113017201Y-67464715D01*
X113130927Y-67499213D01*
X113217105Y-67525355D01*
X113217110Y-67525356D01*
X113424997Y-67545831D01*
X113425000Y-67545831D01*
X113425003Y-67545831D01*
X113632889Y-67525356D01*
X113632894Y-67525355D01*
X113644122Y-67521949D01*
X113832799Y-67464715D01*
X113971648Y-67390499D01*
X114017021Y-67366247D01*
X114017024Y-67366244D01*
X114017033Y-67366240D01*
X114178515Y-67233715D01*
X114311040Y-67072233D01*
X114311044Y-67072224D01*
X114311047Y-67072221D01*
X114385251Y-66933393D01*
X114409515Y-66887999D01*
X114470155Y-66688094D01*
X114470156Y-66688089D01*
X114490631Y-66480203D01*
X114490631Y-66480196D01*
X114470156Y-66272310D01*
X114470155Y-66272305D01*
X114433706Y-66152149D01*
X114409515Y-66072401D01*
X114370816Y-66000000D01*
X114311047Y-65888178D01*
X114311042Y-65888171D01*
X114311040Y-65888167D01*
X114240324Y-65802000D01*
X114178519Y-65726689D01*
X114178510Y-65726680D01*
X114084370Y-65649422D01*
X114017033Y-65594160D01*
X114017030Y-65594158D01*
X114017021Y-65594152D01*
X113832804Y-65495687D01*
X113832799Y-65495685D01*
X113632894Y-65435044D01*
X113632889Y-65435043D01*
X113425003Y-65414569D01*
X113424997Y-65414569D01*
X113217110Y-65435043D01*
X113217105Y-65435044D01*
X113017200Y-65495685D01*
X113017195Y-65495687D01*
X112832978Y-65594152D01*
X112832968Y-65594159D01*
X112671489Y-65726680D01*
X112671480Y-65726689D01*
X112538959Y-65888168D01*
X112538952Y-65888178D01*
X112440487Y-66072395D01*
X112440485Y-66072400D01*
X112379844Y-66272305D01*
X112379843Y-66272310D01*
X112359369Y-66480196D01*
X110125500Y-66480196D01*
X110125500Y-63940196D01*
X112359369Y-63940196D01*
X112359369Y-63940203D01*
X112379843Y-64148089D01*
X112379844Y-64148094D01*
X112440485Y-64347999D01*
X112440487Y-64348004D01*
X112538952Y-64532221D01*
X112538958Y-64532230D01*
X112538960Y-64532233D01*
X112541465Y-64535285D01*
X112671480Y-64693710D01*
X112671489Y-64693719D01*
X112725863Y-64738342D01*
X112832967Y-64826240D01*
X112832971Y-64826242D01*
X112832978Y-64826247D01*
X113017195Y-64924712D01*
X113017201Y-64924715D01*
X113116079Y-64954709D01*
X113217105Y-64985355D01*
X113217110Y-64985356D01*
X113424997Y-65005831D01*
X113425000Y-65005831D01*
X113425003Y-65005831D01*
X113632889Y-64985356D01*
X113632894Y-64985355D01*
X113656148Y-64978301D01*
X113832799Y-64924715D01*
X113908695Y-64884148D01*
X114017021Y-64826247D01*
X114017024Y-64826244D01*
X114017033Y-64826240D01*
X114178515Y-64693715D01*
X114311040Y-64532233D01*
X114311044Y-64532224D01*
X114311047Y-64532221D01*
X114409512Y-64348004D01*
X114409515Y-64347999D01*
X114470155Y-64148094D01*
X114470156Y-64148089D01*
X114490631Y-63940203D01*
X114490631Y-63940196D01*
X114470156Y-63732310D01*
X114470155Y-63732305D01*
X114416235Y-63554555D01*
X114409515Y-63532401D01*
X114396460Y-63507977D01*
X114311047Y-63348178D01*
X114311042Y-63348171D01*
X114311040Y-63348167D01*
X114220907Y-63238340D01*
X114178519Y-63186689D01*
X114178510Y-63186680D01*
X114048380Y-63079886D01*
X114017033Y-63054160D01*
X114017030Y-63054158D01*
X114017021Y-63054152D01*
X113832804Y-62955687D01*
X113832799Y-62955685D01*
X113632894Y-62895044D01*
X113632889Y-62895043D01*
X113425003Y-62874569D01*
X113424997Y-62874569D01*
X113217110Y-62895043D01*
X113217105Y-62895044D01*
X113017200Y-62955685D01*
X113017195Y-62955687D01*
X112832978Y-63054152D01*
X112832968Y-63054159D01*
X112671489Y-63186680D01*
X112671480Y-63186689D01*
X112538959Y-63348168D01*
X112538952Y-63348178D01*
X112440487Y-63532395D01*
X112440485Y-63532400D01*
X112379844Y-63732305D01*
X112379843Y-63732310D01*
X112359369Y-63940196D01*
X110125500Y-63940196D01*
X110125500Y-61400196D01*
X112359369Y-61400196D01*
X112359369Y-61400203D01*
X112379843Y-61608089D01*
X112379844Y-61608094D01*
X112440485Y-61807999D01*
X112440487Y-61808004D01*
X112538952Y-61992221D01*
X112538958Y-61992230D01*
X112538960Y-61992233D01*
X112594222Y-62059570D01*
X112671480Y-62153710D01*
X112671489Y-62153719D01*
X112713678Y-62188342D01*
X112832967Y-62286240D01*
X112832971Y-62286242D01*
X112832978Y-62286247D01*
X113017195Y-62384712D01*
X113017201Y-62384715D01*
X113134777Y-62420381D01*
X113217105Y-62445355D01*
X113217110Y-62445356D01*
X113424997Y-62465831D01*
X113425000Y-62465831D01*
X113425003Y-62465831D01*
X113632889Y-62445356D01*
X113632894Y-62445355D01*
X113832799Y-62384715D01*
X113924605Y-62335644D01*
X114017021Y-62286247D01*
X114017024Y-62286244D01*
X114017033Y-62286240D01*
X114178515Y-62153715D01*
X114311040Y-61992233D01*
X114311044Y-61992224D01*
X114311047Y-61992221D01*
X114374209Y-61874050D01*
X114409515Y-61807999D01*
X114470155Y-61608094D01*
X114470156Y-61608089D01*
X114490631Y-61400203D01*
X114490631Y-61400196D01*
X114470156Y-61192310D01*
X114470155Y-61192305D01*
X114446509Y-61114354D01*
X114409515Y-60992401D01*
X114396460Y-60967977D01*
X114311047Y-60808178D01*
X114311042Y-60808171D01*
X114311040Y-60808167D01*
X114238759Y-60720093D01*
X114178519Y-60646689D01*
X114178510Y-60646680D01*
X114084370Y-60569422D01*
X114017033Y-60514160D01*
X114017030Y-60514158D01*
X114017021Y-60514152D01*
X113832804Y-60415687D01*
X113832799Y-60415685D01*
X113632894Y-60355044D01*
X113632889Y-60355043D01*
X113425003Y-60334569D01*
X113424997Y-60334569D01*
X113217110Y-60355043D01*
X113217105Y-60355044D01*
X113017200Y-60415685D01*
X113017195Y-60415687D01*
X112832978Y-60514152D01*
X112832968Y-60514159D01*
X112671489Y-60646680D01*
X112671480Y-60646689D01*
X112538959Y-60808168D01*
X112538952Y-60808178D01*
X112440487Y-60992395D01*
X112440485Y-60992400D01*
X112379844Y-61192305D01*
X112379843Y-61192310D01*
X112359369Y-61400196D01*
X110125500Y-61400196D01*
X110125500Y-58860196D01*
X112359369Y-58860196D01*
X112359369Y-58860203D01*
X112379843Y-59068089D01*
X112379844Y-59068094D01*
X112440485Y-59267999D01*
X112440487Y-59268004D01*
X112538952Y-59452221D01*
X112538958Y-59452230D01*
X112538960Y-59452233D01*
X112573654Y-59494508D01*
X112671480Y-59613710D01*
X112671489Y-59613719D01*
X112729905Y-59661659D01*
X112832967Y-59746240D01*
X112832971Y-59746242D01*
X112832978Y-59746247D01*
X113017195Y-59844712D01*
X113017201Y-59844715D01*
X113156465Y-59886959D01*
X113217105Y-59905355D01*
X113217110Y-59905356D01*
X113424997Y-59925831D01*
X113425000Y-59925831D01*
X113425003Y-59925831D01*
X113632889Y-59905356D01*
X113632894Y-59905355D01*
X113650547Y-59900000D01*
X113832799Y-59844715D01*
X113963796Y-59774696D01*
X114017021Y-59746247D01*
X114017024Y-59746244D01*
X114017033Y-59746240D01*
X114178515Y-59613715D01*
X114311040Y-59452233D01*
X114311044Y-59452224D01*
X114311047Y-59452221D01*
X114409512Y-59268004D01*
X114409515Y-59267999D01*
X114470155Y-59068094D01*
X114470156Y-59068089D01*
X114490631Y-58860203D01*
X114490631Y-58860199D01*
X115569508Y-58860199D01*
X115569508Y-58860200D01*
X115589354Y-58985503D01*
X115589355Y-58985507D01*
X115596740Y-59000000D01*
X115646950Y-59098542D01*
X115736658Y-59188250D01*
X115849696Y-59245846D01*
X115975000Y-59265692D01*
X115981606Y-59264645D01*
X116042036Y-59274212D01*
X116067102Y-59292421D01*
X116628567Y-59853886D01*
X116716961Y-59890500D01*
X116716962Y-59890500D01*
X116905574Y-59890500D01*
X116963765Y-59909407D01*
X116999729Y-59958907D01*
X116999729Y-60020093D01*
X116975577Y-60059504D01*
X116067101Y-60967977D01*
X116012585Y-60995754D01*
X115981618Y-60995755D01*
X115975005Y-60994708D01*
X115975000Y-60994708D01*
X115849696Y-61014554D01*
X115849692Y-61014555D01*
X115736659Y-61072149D01*
X115646949Y-61161859D01*
X115589355Y-61274892D01*
X115589354Y-61274896D01*
X115569509Y-61400196D01*
X115569508Y-61400200D01*
X115588460Y-61519862D01*
X115589354Y-61525503D01*
X115589355Y-61525507D01*
X115618701Y-61583100D01*
X115646950Y-61638542D01*
X115736658Y-61728250D01*
X115849696Y-61785846D01*
X115975000Y-61805692D01*
X116100304Y-61785846D01*
X116213342Y-61728250D01*
X116303050Y-61638542D01*
X116360646Y-61525504D01*
X116380492Y-61400200D01*
X116379445Y-61393591D01*
X116389013Y-61333160D01*
X116407218Y-61308099D01*
X117445822Y-60269496D01*
X117500339Y-60241719D01*
X117515826Y-60240500D01*
X119095574Y-60240500D01*
X119153765Y-60259407D01*
X119189729Y-60308907D01*
X119189729Y-60370093D01*
X119165578Y-60409504D01*
X116067102Y-63507977D01*
X116012585Y-63535754D01*
X115981618Y-63535755D01*
X115975005Y-63534708D01*
X115975000Y-63534708D01*
X115849696Y-63554554D01*
X115849692Y-63554555D01*
X115736659Y-63612149D01*
X115646949Y-63701859D01*
X115589355Y-63814892D01*
X115589354Y-63814896D01*
X115569508Y-63940199D01*
X115569508Y-63940200D01*
X115589354Y-64065503D01*
X115589355Y-64065507D01*
X115614244Y-64114354D01*
X115646950Y-64178542D01*
X115736658Y-64268250D01*
X115849696Y-64325846D01*
X115975000Y-64345692D01*
X116100304Y-64325846D01*
X116213342Y-64268250D01*
X116303050Y-64178542D01*
X116360646Y-64065504D01*
X116380492Y-63940200D01*
X116379445Y-63933591D01*
X116389013Y-63873160D01*
X116407218Y-63848099D01*
X119635822Y-60619496D01*
X119690339Y-60591719D01*
X119705826Y-60590500D01*
X121285573Y-60590500D01*
X121343764Y-60609407D01*
X121379728Y-60658907D01*
X121379728Y-60720093D01*
X121355577Y-60759504D01*
X116067102Y-66047977D01*
X116012585Y-66075754D01*
X115981618Y-66075755D01*
X115975005Y-66074708D01*
X115975000Y-66074708D01*
X115849696Y-66094554D01*
X115849692Y-66094555D01*
X115736659Y-66152149D01*
X115646949Y-66241859D01*
X115589355Y-66354892D01*
X115589354Y-66354896D01*
X115569508Y-66480199D01*
X115569508Y-66480200D01*
X115589354Y-66605503D01*
X115589355Y-66605507D01*
X115631433Y-66688089D01*
X115646950Y-66718542D01*
X115736658Y-66808250D01*
X115849696Y-66865846D01*
X115975000Y-66885692D01*
X116100304Y-66865846D01*
X116213342Y-66808250D01*
X116303050Y-66718542D01*
X116360646Y-66605504D01*
X116380492Y-66480200D01*
X116379445Y-66473591D01*
X116389013Y-66413160D01*
X116407218Y-66388099D01*
X120245319Y-62550000D01*
X141369508Y-62550000D01*
X141386333Y-62656233D01*
X141389354Y-62675303D01*
X141389355Y-62675307D01*
X141433354Y-62761658D01*
X141446950Y-62788342D01*
X141536658Y-62878050D01*
X141649696Y-62935646D01*
X141775000Y-62955492D01*
X141900304Y-62935646D01*
X142013342Y-62878050D01*
X142103050Y-62788342D01*
X142160646Y-62675304D01*
X142180492Y-62550000D01*
X142160646Y-62424696D01*
X142103050Y-62311658D01*
X142013342Y-62221950D01*
X141947383Y-62188342D01*
X141900307Y-62164355D01*
X141900304Y-62164354D01*
X141775000Y-62144508D01*
X141649696Y-62164354D01*
X141649692Y-62164355D01*
X141536659Y-62221949D01*
X141446949Y-62311659D01*
X141389355Y-62424692D01*
X141389354Y-62424696D01*
X141369508Y-62550000D01*
X120245319Y-62550000D01*
X121045320Y-61749999D01*
X140569508Y-61749999D01*
X140569508Y-61750000D01*
X140589354Y-61875303D01*
X140589355Y-61875307D01*
X140627413Y-61949999D01*
X140646950Y-61988342D01*
X140736658Y-62078050D01*
X140849696Y-62135646D01*
X140975000Y-62155492D01*
X141100304Y-62135646D01*
X141213342Y-62078050D01*
X141303050Y-61988342D01*
X141360646Y-61875304D01*
X141380492Y-61750000D01*
X141360646Y-61624696D01*
X141303050Y-61511658D01*
X141213342Y-61421950D01*
X141209406Y-61419944D01*
X141100307Y-61364355D01*
X141100304Y-61364354D01*
X140975000Y-61344508D01*
X140849696Y-61364354D01*
X140849692Y-61364355D01*
X140736659Y-61421949D01*
X140646949Y-61511659D01*
X140589355Y-61624692D01*
X140589354Y-61624696D01*
X140569508Y-61749999D01*
X121045320Y-61749999D01*
X121825823Y-60969496D01*
X121880340Y-60941719D01*
X121895827Y-60940500D01*
X148084373Y-60940500D01*
X148142564Y-60959407D01*
X148154377Y-60969496D01*
X148805504Y-61620622D01*
X148833281Y-61675139D01*
X148834500Y-61690626D01*
X148834500Y-63021695D01*
X148815593Y-63079886D01*
X148766093Y-63115850D01*
X148704911Y-63115851D01*
X148700305Y-63114354D01*
X148700304Y-63114354D01*
X148575000Y-63094508D01*
X148449696Y-63114354D01*
X148449692Y-63114355D01*
X148336658Y-63171950D01*
X148336656Y-63171951D01*
X148278103Y-63230504D01*
X148223586Y-63258281D01*
X148208100Y-63259500D01*
X121447362Y-63259500D01*
X121358970Y-63296112D01*
X116067102Y-68587977D01*
X116012585Y-68615754D01*
X115981618Y-68615755D01*
X115975005Y-68614708D01*
X115975000Y-68614708D01*
X115849696Y-68634554D01*
X115849692Y-68634555D01*
X115736659Y-68692149D01*
X115646949Y-68781859D01*
X115589355Y-68894892D01*
X115589354Y-68894896D01*
X115569508Y-69020199D01*
X115569508Y-69020200D01*
X115589354Y-69145503D01*
X115589355Y-69145507D01*
X115631433Y-69228089D01*
X115646950Y-69258542D01*
X115736658Y-69348250D01*
X115849696Y-69405846D01*
X115975000Y-69425692D01*
X116100304Y-69405846D01*
X116213342Y-69348250D01*
X116303050Y-69258542D01*
X116360646Y-69145504D01*
X116380492Y-69020200D01*
X116379445Y-69013591D01*
X116389013Y-68953160D01*
X116407218Y-68928099D01*
X121565822Y-63769496D01*
X121620339Y-63741719D01*
X121635826Y-63740500D01*
X123215574Y-63740500D01*
X123273765Y-63759407D01*
X123309729Y-63808907D01*
X123309729Y-63870093D01*
X123285578Y-63909504D01*
X116067102Y-71127977D01*
X116012585Y-71155754D01*
X115981618Y-71155755D01*
X115975005Y-71154708D01*
X115975000Y-71154708D01*
X115849696Y-71174554D01*
X115849692Y-71174555D01*
X115736659Y-71232149D01*
X115646949Y-71321859D01*
X115589355Y-71434892D01*
X115589354Y-71434896D01*
X115569508Y-71560199D01*
X115569508Y-71560200D01*
X115589354Y-71685503D01*
X115589355Y-71685507D01*
X115631433Y-71768089D01*
X115646950Y-71798542D01*
X115736658Y-71888250D01*
X115849696Y-71945846D01*
X115975000Y-71965692D01*
X116100304Y-71945846D01*
X116100314Y-71945840D01*
X116104904Y-71944350D01*
X116166090Y-71944348D01*
X116215591Y-71980311D01*
X116234500Y-72038501D01*
X116234500Y-78539573D01*
X116215593Y-78597764D01*
X116205503Y-78609577D01*
X116067101Y-78747978D01*
X116012585Y-78775755D01*
X115981611Y-78775755D01*
X115975000Y-78774708D01*
X115974999Y-78774708D01*
X115849696Y-78794554D01*
X115849692Y-78794555D01*
X115736659Y-78852149D01*
X115646949Y-78941859D01*
X115589355Y-79054892D01*
X115589354Y-79054896D01*
X115569508Y-79180199D01*
X115569508Y-79180200D01*
X115589354Y-79305503D01*
X115589355Y-79305507D01*
X115644944Y-79414606D01*
X115646950Y-79418542D01*
X115736658Y-79508250D01*
X115849696Y-79565846D01*
X115975000Y-79585692D01*
X116100304Y-79565846D01*
X116213342Y-79508250D01*
X116303050Y-79418542D01*
X116360646Y-79305504D01*
X116380492Y-79180200D01*
X116380492Y-79180199D01*
X118269508Y-79180199D01*
X118269508Y-79180200D01*
X118289354Y-79305503D01*
X118289355Y-79305507D01*
X118344944Y-79414606D01*
X118346950Y-79418542D01*
X118436658Y-79508250D01*
X118549696Y-79565846D01*
X118675000Y-79585692D01*
X118800304Y-79565846D01*
X118913342Y-79508250D01*
X119003050Y-79418542D01*
X119060646Y-79305504D01*
X119080492Y-79180200D01*
X119060646Y-79054896D01*
X119003050Y-78941858D01*
X118913342Y-78852150D01*
X118843242Y-78816432D01*
X118800307Y-78794555D01*
X118800304Y-78794554D01*
X118675000Y-78774708D01*
X118549696Y-78794554D01*
X118549692Y-78794555D01*
X118436659Y-78852149D01*
X118346949Y-78941859D01*
X118289355Y-79054892D01*
X118289354Y-79054896D01*
X118269508Y-79180199D01*
X116380492Y-79180199D01*
X116379444Y-79173585D01*
X116389014Y-79113156D01*
X116407219Y-79088098D01*
X116678886Y-78816432D01*
X116715500Y-78728038D01*
X116715500Y-78700000D01*
X124557208Y-78700000D01*
X124569040Y-78774708D01*
X124577054Y-78825303D01*
X124577055Y-78825307D01*
X124632644Y-78934406D01*
X124634650Y-78938342D01*
X124724358Y-79028050D01*
X124837396Y-79085646D01*
X124962700Y-79105492D01*
X125088004Y-79085646D01*
X125201042Y-79028050D01*
X125290750Y-78938342D01*
X125348346Y-78825304D01*
X125368192Y-78700000D01*
X125348346Y-78574696D01*
X125290750Y-78461658D01*
X125201042Y-78371950D01*
X125163941Y-78353046D01*
X125088007Y-78314355D01*
X125088004Y-78314354D01*
X124962700Y-78294508D01*
X124837396Y-78314354D01*
X124837392Y-78314355D01*
X124724359Y-78371949D01*
X124634649Y-78461659D01*
X124577055Y-78574692D01*
X124577054Y-78574696D01*
X124557208Y-78700000D01*
X116715500Y-78700000D01*
X116715500Y-78632361D01*
X116715500Y-75800199D01*
X133261508Y-75800199D01*
X133261508Y-75800200D01*
X133281354Y-75925503D01*
X133281355Y-75925507D01*
X133336944Y-76034606D01*
X133338950Y-76038542D01*
X133428658Y-76128250D01*
X133541696Y-76185846D01*
X133667000Y-76205692D01*
X133792304Y-76185846D01*
X133905342Y-76128250D01*
X133995050Y-76038542D01*
X134052646Y-75925504D01*
X134072492Y-75800200D01*
X134052646Y-75674896D01*
X133995050Y-75561858D01*
X133905342Y-75472150D01*
X133901406Y-75470144D01*
X133792307Y-75414555D01*
X133792304Y-75414554D01*
X133667000Y-75394708D01*
X133541696Y-75414554D01*
X133541692Y-75414555D01*
X133428659Y-75472149D01*
X133338949Y-75561859D01*
X133281355Y-75674892D01*
X133281354Y-75674896D01*
X133261508Y-75800199D01*
X116715500Y-75800199D01*
X116715500Y-74100200D01*
X118269508Y-74100200D01*
X118284476Y-74194708D01*
X118289354Y-74225503D01*
X118289355Y-74225507D01*
X118296573Y-74239672D01*
X118346950Y-74338542D01*
X118436658Y-74428250D01*
X118549696Y-74485846D01*
X118675000Y-74505692D01*
X118800304Y-74485846D01*
X118913342Y-74428250D01*
X119003050Y-74338542D01*
X119060646Y-74225504D01*
X119080492Y-74100200D01*
X119080491Y-74100196D01*
X119071942Y-74046218D01*
X119060646Y-73974896D01*
X119003050Y-73861858D01*
X118913342Y-73772150D01*
X118885330Y-73757877D01*
X118800307Y-73714555D01*
X118800304Y-73714554D01*
X118675000Y-73694708D01*
X118549696Y-73714554D01*
X118549692Y-73714555D01*
X118436659Y-73772149D01*
X118346949Y-73861859D01*
X118289355Y-73974892D01*
X118289354Y-73974896D01*
X118269509Y-74100196D01*
X118269508Y-74100200D01*
X116715500Y-74100200D01*
X116715500Y-73100200D01*
X131111508Y-73100200D01*
X131126476Y-73194708D01*
X131131354Y-73225503D01*
X131131355Y-73225507D01*
X131138573Y-73239672D01*
X131188950Y-73338542D01*
X131278658Y-73428250D01*
X131391696Y-73485846D01*
X131483547Y-73500393D01*
X131496334Y-73502419D01*
X131512427Y-73510618D01*
X131537665Y-73502419D01*
X131642304Y-73485846D01*
X131727332Y-73442521D01*
X131787762Y-73432950D01*
X131842279Y-73460727D01*
X131870057Y-73515243D01*
X131870057Y-73546217D01*
X131861508Y-73600197D01*
X131861508Y-73600201D01*
X131870057Y-73654182D01*
X131860485Y-73714614D01*
X131817220Y-73757878D01*
X131756788Y-73767449D01*
X131727331Y-73757877D01*
X131642310Y-73714556D01*
X131642305Y-73714554D01*
X131642304Y-73714554D01*
X131537664Y-73697980D01*
X131521571Y-73689781D01*
X131496334Y-73697981D01*
X131391696Y-73714554D01*
X131391692Y-73714555D01*
X131278659Y-73772149D01*
X131188949Y-73861859D01*
X131131355Y-73974892D01*
X131131354Y-73974896D01*
X131111509Y-74100196D01*
X131111508Y-74100200D01*
X131126476Y-74194708D01*
X131131354Y-74225503D01*
X131131355Y-74225507D01*
X131138573Y-74239672D01*
X131188950Y-74338542D01*
X131278658Y-74428250D01*
X131391696Y-74485846D01*
X131517000Y-74505692D01*
X131642304Y-74485846D01*
X131727332Y-74442521D01*
X131787762Y-74432950D01*
X131842279Y-74460727D01*
X131870057Y-74515243D01*
X131870057Y-74546217D01*
X131861508Y-74600197D01*
X131861508Y-74600200D01*
X131876084Y-74692233D01*
X131881354Y-74725503D01*
X131881355Y-74725507D01*
X131936944Y-74834606D01*
X131938950Y-74838542D01*
X132028658Y-74928250D01*
X132141696Y-74985846D01*
X132267000Y-75005692D01*
X132392304Y-74985846D01*
X132505342Y-74928250D01*
X132595050Y-74838542D01*
X132652646Y-74725504D01*
X132672492Y-74600200D01*
X132652646Y-74474896D01*
X132595050Y-74361858D01*
X132505342Y-74272150D01*
X132441601Y-74239672D01*
X132392307Y-74214555D01*
X132392304Y-74214554D01*
X132287664Y-74197980D01*
X132271571Y-74189781D01*
X132246334Y-74197981D01*
X132141696Y-74214554D01*
X132141694Y-74214554D01*
X132056668Y-74257878D01*
X131996236Y-74267449D01*
X131941719Y-74239672D01*
X131913942Y-74185155D01*
X131913942Y-74154180D01*
X131922492Y-74100203D01*
X131922492Y-74100200D01*
X131922491Y-74100196D01*
X131913942Y-74046218D01*
X131923513Y-73985786D01*
X131966778Y-73942521D01*
X132027210Y-73932950D01*
X132056666Y-73942521D01*
X132141696Y-73985846D01*
X132233547Y-74000393D01*
X132246334Y-74002419D01*
X132262427Y-74010618D01*
X132287665Y-74002419D01*
X132392304Y-73985846D01*
X132505342Y-73928250D01*
X132595050Y-73838542D01*
X132652646Y-73725504D01*
X132672492Y-73600200D01*
X132652646Y-73474896D01*
X132595050Y-73361858D01*
X132505342Y-73272150D01*
X132441601Y-73239672D01*
X132392307Y-73214555D01*
X132392304Y-73214554D01*
X132267000Y-73194708D01*
X132141696Y-73214554D01*
X132141694Y-73214554D01*
X132056668Y-73257878D01*
X131996236Y-73267449D01*
X131941719Y-73239672D01*
X131913942Y-73185155D01*
X131913942Y-73154180D01*
X131922492Y-73100199D01*
X131912097Y-73034569D01*
X131902646Y-72974896D01*
X131845050Y-72861858D01*
X131755342Y-72772150D01*
X131751406Y-72770144D01*
X131642307Y-72714555D01*
X131642304Y-72714554D01*
X131517000Y-72694708D01*
X131391696Y-72714554D01*
X131391692Y-72714555D01*
X131278659Y-72772149D01*
X131188949Y-72861859D01*
X131131355Y-72974892D01*
X131131354Y-72974896D01*
X131111508Y-73100200D01*
X116715500Y-73100200D01*
X116715500Y-71653374D01*
X116732777Y-71600199D01*
X133361508Y-71600199D01*
X133361508Y-71600200D01*
X133381354Y-71725503D01*
X133381355Y-71725507D01*
X133418568Y-71798540D01*
X133438950Y-71838542D01*
X133528658Y-71928250D01*
X133641696Y-71985846D01*
X133767000Y-72005692D01*
X133892304Y-71985846D01*
X134005342Y-71928250D01*
X134095050Y-71838542D01*
X134152646Y-71725504D01*
X134172492Y-71600200D01*
X134171697Y-71595183D01*
X134166157Y-71560203D01*
X134152646Y-71474896D01*
X134095050Y-71361858D01*
X134005342Y-71272150D01*
X134001406Y-71270144D01*
X133892307Y-71214555D01*
X133892304Y-71214554D01*
X133767000Y-71194708D01*
X133641696Y-71214554D01*
X133641692Y-71214555D01*
X133528659Y-71272149D01*
X133438949Y-71361859D01*
X133381355Y-71474892D01*
X133381354Y-71474896D01*
X133361508Y-71600199D01*
X116732777Y-71600199D01*
X116734407Y-71595183D01*
X116744496Y-71583370D01*
X118978170Y-69349696D01*
X119032687Y-69321919D01*
X119048174Y-69320700D01*
X119424101Y-69320700D01*
X119482292Y-69339607D01*
X119518256Y-69389107D01*
X119518256Y-69450293D01*
X119494106Y-69489701D01*
X119437496Y-69546312D01*
X119421949Y-69561859D01*
X119364355Y-69674892D01*
X119364354Y-69674896D01*
X119344508Y-69800199D01*
X119344508Y-69800200D01*
X119364354Y-69925503D01*
X119364355Y-69925507D01*
X119397573Y-69990700D01*
X119421950Y-70038542D01*
X119511658Y-70128250D01*
X119624696Y-70185846D01*
X119750000Y-70205692D01*
X119875304Y-70185846D01*
X119988342Y-70128250D01*
X120078050Y-70038542D01*
X120135646Y-69925504D01*
X120155492Y-69800200D01*
X120135646Y-69674896D01*
X120078050Y-69561858D01*
X120005893Y-69489701D01*
X119978118Y-69435187D01*
X119987689Y-69374755D01*
X120030954Y-69331490D01*
X120075899Y-69320700D01*
X123298367Y-69320700D01*
X123356558Y-69339607D01*
X123392522Y-69389107D01*
X123392522Y-69450293D01*
X123386577Y-69464644D01*
X123381355Y-69474891D01*
X123381354Y-69474896D01*
X123361508Y-69600199D01*
X123361508Y-69600200D01*
X123381354Y-69725503D01*
X123381355Y-69725507D01*
X123405916Y-69773710D01*
X123438950Y-69838542D01*
X123528658Y-69928250D01*
X123641696Y-69985846D01*
X123767000Y-70005692D01*
X123892304Y-69985846D01*
X124005342Y-69928250D01*
X124095050Y-69838542D01*
X124152646Y-69725504D01*
X124172492Y-69600200D01*
X124152646Y-69474896D01*
X124152644Y-69474892D01*
X124152644Y-69474891D01*
X124147423Y-69464644D01*
X124137852Y-69404212D01*
X124165630Y-69349696D01*
X124220147Y-69321919D01*
X124235633Y-69320700D01*
X125792639Y-69320700D01*
X125881033Y-69284086D01*
X126200114Y-68965003D01*
X126254629Y-68937227D01*
X126315060Y-68946797D01*
X126315061Y-68946798D01*
X126315061Y-68946799D01*
X126391689Y-68985843D01*
X126391691Y-68985843D01*
X126391696Y-68985846D01*
X126517000Y-69005692D01*
X126523606Y-69004645D01*
X126584036Y-69014212D01*
X126609101Y-69032421D01*
X127302185Y-69725503D01*
X127530768Y-69954086D01*
X127619162Y-69990700D01*
X127714839Y-69990700D01*
X135376373Y-69990700D01*
X135434564Y-70009607D01*
X135446377Y-70019696D01*
X157081014Y-91654332D01*
X157081013Y-91654332D01*
X157121536Y-91694854D01*
X157148668Y-91721986D01*
X157237062Y-91758600D01*
X170326547Y-91758600D01*
X170898947Y-91758600D01*
X170957138Y-91777507D01*
X170968951Y-91787596D01*
X172092163Y-92910808D01*
X172119940Y-92965325D01*
X172119940Y-92996298D01*
X172118893Y-93002908D01*
X172118893Y-93002912D01*
X172138739Y-93128214D01*
X172138740Y-93128218D01*
X172163525Y-93176861D01*
X172196335Y-93241253D01*
X172286043Y-93330961D01*
X172399081Y-93388557D01*
X172524385Y-93408403D01*
X172649689Y-93388557D01*
X172762727Y-93330961D01*
X172852435Y-93241253D01*
X172910031Y-93128215D01*
X172929877Y-93002911D01*
X172910031Y-92877607D01*
X172852435Y-92764569D01*
X172762727Y-92674861D01*
X172671229Y-92628240D01*
X172649692Y-92617266D01*
X172649689Y-92617265D01*
X172530996Y-92598466D01*
X172524386Y-92597419D01*
X172524383Y-92597419D01*
X172517772Y-92598466D01*
X172457340Y-92588894D01*
X172432282Y-92570689D01*
X171886692Y-92025099D01*
X171175807Y-91314214D01*
X171175805Y-91314213D01*
X171175804Y-91314212D01*
X171087413Y-91277600D01*
X171087412Y-91277600D01*
X170422223Y-91277600D01*
X157425526Y-91277600D01*
X157367335Y-91258693D01*
X157355522Y-91248604D01*
X147101626Y-80994708D01*
X135653233Y-69546314D01*
X135653231Y-69546313D01*
X135653230Y-69546312D01*
X135564839Y-69509700D01*
X135564838Y-69509700D01*
X127807626Y-69509700D01*
X127749435Y-69490793D01*
X127737622Y-69480704D01*
X126949221Y-68692302D01*
X126921444Y-68637785D01*
X126921444Y-68606809D01*
X126922492Y-68600200D01*
X126902646Y-68474896D01*
X126902643Y-68474890D01*
X126901084Y-68470089D01*
X126901087Y-68408903D01*
X126937053Y-68359405D01*
X126995240Y-68340500D01*
X127876174Y-68340500D01*
X127934365Y-68359407D01*
X127946177Y-68369496D01*
X128084777Y-68508095D01*
X128112555Y-68562612D01*
X128112555Y-68593582D01*
X128111509Y-68600197D01*
X128111508Y-68600201D01*
X128131354Y-68725503D01*
X128131355Y-68725507D01*
X128175582Y-68812306D01*
X128188950Y-68838542D01*
X128278658Y-68928250D01*
X128391696Y-68985846D01*
X128517000Y-69005692D01*
X128642304Y-68985846D01*
X128755342Y-68928250D01*
X128845050Y-68838542D01*
X128864689Y-68799999D01*
X146744508Y-68799999D01*
X146744508Y-68800000D01*
X146764354Y-68925303D01*
X146764355Y-68925307D01*
X146795200Y-68985843D01*
X146821950Y-69038342D01*
X146911658Y-69128050D01*
X147024696Y-69185646D01*
X147150000Y-69205492D01*
X147275304Y-69185646D01*
X147388342Y-69128050D01*
X147478050Y-69038342D01*
X147535646Y-68925304D01*
X147555492Y-68800000D01*
X147535646Y-68674696D01*
X147478050Y-68561658D01*
X147388342Y-68471950D01*
X147366153Y-68460644D01*
X147275307Y-68414355D01*
X147275304Y-68414354D01*
X147150000Y-68394508D01*
X147024696Y-68414354D01*
X147024692Y-68414355D01*
X146911659Y-68471949D01*
X146821949Y-68561659D01*
X146764355Y-68674692D01*
X146764354Y-68674696D01*
X146744508Y-68799999D01*
X128864689Y-68799999D01*
X128902646Y-68725504D01*
X128922492Y-68600200D01*
X128902646Y-68474896D01*
X128845050Y-68361858D01*
X128755342Y-68272150D01*
X128716114Y-68252162D01*
X128642307Y-68214555D01*
X128642304Y-68214554D01*
X128552351Y-68200307D01*
X128517001Y-68194708D01*
X128517000Y-68194708D01*
X128510383Y-68195756D01*
X128449951Y-68186182D01*
X128424895Y-68167977D01*
X128314536Y-68057618D01*
X128153033Y-67896114D01*
X128064639Y-67859500D01*
X128064638Y-67859500D01*
X126272839Y-67859500D01*
X126194626Y-67859500D01*
X126136435Y-67840593D01*
X126100471Y-67791093D01*
X126100471Y-67729907D01*
X126124622Y-67690496D01*
X126370422Y-67444696D01*
X126424939Y-67416919D01*
X126440426Y-67415700D01*
X130571475Y-67415700D01*
X130629666Y-67434607D01*
X130665630Y-67484107D01*
X130665630Y-67545293D01*
X130629666Y-67594793D01*
X130616427Y-67602905D01*
X130599250Y-67611658D01*
X130578658Y-67622150D01*
X130488949Y-67711859D01*
X130431355Y-67824892D01*
X130431354Y-67824896D01*
X130411508Y-67950199D01*
X130411508Y-67950200D01*
X130431354Y-68075503D01*
X130431355Y-68075507D01*
X130483604Y-68178050D01*
X130488950Y-68188542D01*
X130578658Y-68278250D01*
X130691696Y-68335846D01*
X130817000Y-68355692D01*
X130942304Y-68335846D01*
X131055342Y-68278250D01*
X131145050Y-68188542D01*
X131202646Y-68075504D01*
X131222492Y-67950200D01*
X131202646Y-67824896D01*
X131145050Y-67711858D01*
X131055342Y-67622150D01*
X131017578Y-67602908D01*
X130974315Y-67559645D01*
X130964744Y-67499213D01*
X130992522Y-67444696D01*
X131047038Y-67416919D01*
X131062525Y-67415700D01*
X142909573Y-67415700D01*
X142967764Y-67434607D01*
X142979577Y-67444696D01*
X143292778Y-67757897D01*
X143320555Y-67812414D01*
X143320555Y-67843387D01*
X143319508Y-67849997D01*
X143319508Y-67850001D01*
X143326812Y-67896114D01*
X143335297Y-67949692D01*
X143339354Y-67975303D01*
X143339355Y-67975307D01*
X143370120Y-68035685D01*
X143396950Y-68088342D01*
X143486658Y-68178050D01*
X143599696Y-68235646D01*
X143725000Y-68255492D01*
X143850304Y-68235646D01*
X143963342Y-68178050D01*
X144053050Y-68088342D01*
X144110646Y-67975304D01*
X144130492Y-67850000D01*
X146019508Y-67850000D01*
X146035297Y-67949692D01*
X146039354Y-67975303D01*
X146039355Y-67975307D01*
X146070120Y-68035685D01*
X146096950Y-68088342D01*
X146186658Y-68178050D01*
X146299696Y-68235646D01*
X146425000Y-68255492D01*
X146550304Y-68235646D01*
X146663342Y-68178050D01*
X146753050Y-68088342D01*
X146810646Y-67975304D01*
X146830492Y-67850000D01*
X147644508Y-67850000D01*
X147660297Y-67949692D01*
X147664354Y-67975303D01*
X147664355Y-67975307D01*
X147695120Y-68035685D01*
X147721950Y-68088342D01*
X147811658Y-68178050D01*
X147924696Y-68235646D01*
X148050000Y-68255492D01*
X148175304Y-68235646D01*
X148288342Y-68178050D01*
X148378050Y-68088342D01*
X148384849Y-68074999D01*
X150169508Y-68074999D01*
X150169508Y-68075000D01*
X150189354Y-68200303D01*
X150189355Y-68200307D01*
X150227061Y-68274308D01*
X150246950Y-68313342D01*
X150336658Y-68403050D01*
X150449696Y-68460646D01*
X150575000Y-68480492D01*
X150700304Y-68460646D01*
X150813342Y-68403050D01*
X150903050Y-68313342D01*
X150960646Y-68200304D01*
X150980492Y-68075000D01*
X150960646Y-67949696D01*
X150903050Y-67836658D01*
X150813342Y-67746950D01*
X150788297Y-67734189D01*
X150700307Y-67689355D01*
X150700304Y-67689354D01*
X150575000Y-67669508D01*
X150449696Y-67689354D01*
X150449692Y-67689355D01*
X150336659Y-67746949D01*
X150246949Y-67836659D01*
X150189355Y-67949692D01*
X150189354Y-67949696D01*
X150169508Y-68074999D01*
X148384849Y-68074999D01*
X148435646Y-67975304D01*
X148455492Y-67850000D01*
X148435646Y-67724696D01*
X148378050Y-67611658D01*
X148288342Y-67521950D01*
X148284406Y-67519944D01*
X148175307Y-67464355D01*
X148175304Y-67464354D01*
X148050000Y-67444508D01*
X147924696Y-67464354D01*
X147924692Y-67464355D01*
X147811659Y-67521949D01*
X147721949Y-67611659D01*
X147664355Y-67724692D01*
X147664354Y-67724696D01*
X147648980Y-67821767D01*
X147644508Y-67850000D01*
X146830492Y-67850000D01*
X146810646Y-67724696D01*
X146753050Y-67611658D01*
X146663342Y-67521950D01*
X146659406Y-67519944D01*
X146550307Y-67464355D01*
X146550304Y-67464354D01*
X146425000Y-67444508D01*
X146299696Y-67464354D01*
X146299692Y-67464355D01*
X146186659Y-67521949D01*
X146096949Y-67611659D01*
X146039355Y-67724692D01*
X146039354Y-67724696D01*
X146023980Y-67821767D01*
X146019508Y-67850000D01*
X144130492Y-67850000D01*
X144110646Y-67724696D01*
X144053050Y-67611658D01*
X143963342Y-67521950D01*
X143959406Y-67519944D01*
X143850307Y-67464355D01*
X143850304Y-67464354D01*
X143731611Y-67445555D01*
X143725001Y-67444508D01*
X143724998Y-67444508D01*
X143718387Y-67445555D01*
X143657955Y-67435983D01*
X143632898Y-67417778D01*
X143186432Y-66971313D01*
X143098039Y-66934700D01*
X143098038Y-66934700D01*
X126251962Y-66934700D01*
X126163568Y-66971313D01*
X126163566Y-66971314D01*
X126163561Y-66971320D01*
X125783989Y-67350891D01*
X125729473Y-67378668D01*
X125669041Y-67369097D01*
X125625776Y-67325832D01*
X125616205Y-67265402D01*
X125630492Y-67175200D01*
X125610646Y-67049896D01*
X125553050Y-66936858D01*
X125463342Y-66847150D01*
X125386997Y-66808250D01*
X125350307Y-66789555D01*
X125350304Y-66789554D01*
X125225000Y-66769708D01*
X125099696Y-66789554D01*
X125099692Y-66789555D01*
X124986659Y-66847149D01*
X124896949Y-66936859D01*
X124839355Y-67049892D01*
X124839354Y-67049896D01*
X124835817Y-67072231D01*
X124819508Y-67175200D01*
X124837093Y-67286231D01*
X124839354Y-67300503D01*
X124839355Y-67300507D01*
X124872848Y-67366240D01*
X124896950Y-67413542D01*
X124986658Y-67503250D01*
X125099696Y-67560846D01*
X125225000Y-67580692D01*
X125315202Y-67566405D01*
X125375631Y-67575976D01*
X125418896Y-67619240D01*
X125428468Y-67679672D01*
X125400691Y-67734189D01*
X125313114Y-67821766D01*
X125305316Y-67840593D01*
X125281605Y-67897838D01*
X125281605Y-67897839D01*
X125276500Y-67910162D01*
X125276500Y-68233300D01*
X125257593Y-68291491D01*
X125247504Y-68303303D01*
X125188951Y-68361856D01*
X125188950Y-68361858D01*
X125131355Y-68474892D01*
X125131354Y-68474896D01*
X125111508Y-68600199D01*
X125111508Y-68600200D01*
X125131308Y-68725213D01*
X125121737Y-68785645D01*
X125078472Y-68828910D01*
X125033527Y-68839700D01*
X119274627Y-68839700D01*
X119216436Y-68820793D01*
X119180472Y-68771293D01*
X119180472Y-68710107D01*
X119204623Y-68670696D01*
X123755822Y-64119496D01*
X123810339Y-64091719D01*
X123825826Y-64090500D01*
X143528539Y-64090500D01*
X143586730Y-64109407D01*
X143622694Y-64158907D01*
X143622694Y-64220093D01*
X143586730Y-64269593D01*
X143573485Y-64277709D01*
X143486659Y-64321949D01*
X143396949Y-64411659D01*
X143339355Y-64524692D01*
X143339354Y-64524696D01*
X143319508Y-64649999D01*
X143319508Y-64650000D01*
X143339354Y-64775303D01*
X143339355Y-64775307D01*
X143394813Y-64884148D01*
X143396950Y-64888342D01*
X143486658Y-64978050D01*
X143599696Y-65035646D01*
X143725000Y-65055492D01*
X143850304Y-65035646D01*
X143963342Y-64978050D01*
X144053050Y-64888342D01*
X144110646Y-64775304D01*
X144130492Y-64650000D01*
X144110646Y-64524696D01*
X144053050Y-64411658D01*
X143963342Y-64321950D01*
X143876515Y-64277709D01*
X143833251Y-64234444D01*
X143823680Y-64174012D01*
X143851458Y-64119496D01*
X143905975Y-64091719D01*
X143921461Y-64090500D01*
X147784374Y-64090500D01*
X147842565Y-64109407D01*
X147854377Y-64119496D01*
X147999235Y-64264354D01*
X148142777Y-64407895D01*
X148170555Y-64462412D01*
X148170556Y-64493383D01*
X148169508Y-64500001D01*
X148189354Y-64625303D01*
X148189355Y-64625307D01*
X148201937Y-64650000D01*
X148246950Y-64738342D01*
X148336658Y-64828050D01*
X148449696Y-64885646D01*
X148575000Y-64905492D01*
X148700304Y-64885646D01*
X148700314Y-64885640D01*
X148704904Y-64884150D01*
X148766090Y-64884148D01*
X148815591Y-64920111D01*
X148834500Y-64978301D01*
X148834500Y-65050386D01*
X148871112Y-65138778D01*
X148871113Y-65138779D01*
X148871114Y-65138781D01*
X150906219Y-67173886D01*
X150994613Y-67210500D01*
X150994614Y-67210500D01*
X153004374Y-67210500D01*
X153062565Y-67229407D01*
X153074377Y-67239496D01*
X153121113Y-67286231D01*
X153121114Y-67286233D01*
X153160714Y-67325832D01*
X153188768Y-67353886D01*
X153277162Y-67390500D01*
X153801662Y-67390500D01*
X153890056Y-67353886D01*
X154238919Y-67005022D01*
X154293434Y-66977246D01*
X154353863Y-66986816D01*
X154449696Y-67035646D01*
X154575000Y-67055492D01*
X154700304Y-67035646D01*
X154813342Y-66978050D01*
X154856692Y-66934700D01*
X154871897Y-66919496D01*
X154926414Y-66891719D01*
X154941900Y-66890500D01*
X155151662Y-66890500D01*
X155240056Y-66853886D01*
X155625642Y-66468298D01*
X155625644Y-66468298D01*
X155758886Y-66335056D01*
X155784878Y-66272305D01*
X155795500Y-66246662D01*
X155795500Y-65753339D01*
X155758886Y-65664945D01*
X155691237Y-65597295D01*
X155691231Y-65597290D01*
X155470010Y-65376067D01*
X155469995Y-65376054D01*
X155350643Y-65256703D01*
X155350642Y-65256702D01*
X155133782Y-65039841D01*
X155133779Y-65039837D01*
X155090054Y-64996113D01*
X155001661Y-64959500D01*
X155001660Y-64959500D01*
X153770291Y-64959500D01*
X153674613Y-64959500D01*
X153586221Y-64996112D01*
X152841829Y-65740504D01*
X152787312Y-65768281D01*
X152771825Y-65769500D01*
X151580722Y-65769500D01*
X151522531Y-65750593D01*
X151510718Y-65740504D01*
X150334496Y-64564281D01*
X150306719Y-64509764D01*
X150305500Y-64494277D01*
X150305500Y-60992162D01*
X150268886Y-60903768D01*
X150268886Y-60903767D01*
X148811233Y-59446114D01*
X148811231Y-59446113D01*
X148811230Y-59446112D01*
X148722839Y-59409500D01*
X148722838Y-59409500D01*
X144120899Y-59409500D01*
X144062708Y-59390593D01*
X144026744Y-59341093D01*
X144026744Y-59279907D01*
X144050893Y-59240498D01*
X144053050Y-59238342D01*
X144110646Y-59125304D01*
X144130492Y-59000000D01*
X144110646Y-58874696D01*
X144053050Y-58761658D01*
X143963342Y-58671950D01*
X143924506Y-58652162D01*
X143850307Y-58614355D01*
X143850304Y-58614354D01*
X143725000Y-58594508D01*
X143599696Y-58614354D01*
X143599692Y-58614355D01*
X143486659Y-58671949D01*
X143396949Y-58761659D01*
X143339355Y-58874692D01*
X143339354Y-58874696D01*
X143319508Y-58999999D01*
X143319508Y-59000000D01*
X143339354Y-59125303D01*
X143339355Y-59125307D01*
X143371427Y-59188250D01*
X143396950Y-59238342D01*
X143399106Y-59240498D01*
X143400489Y-59243213D01*
X143401531Y-59244647D01*
X143401304Y-59244811D01*
X143426882Y-59295013D01*
X143417311Y-59355445D01*
X143374046Y-59398710D01*
X143329101Y-59409500D01*
X116905427Y-59409500D01*
X116847236Y-59390593D01*
X116835423Y-59380504D01*
X116407221Y-58952302D01*
X116379444Y-58897785D01*
X116379444Y-58866809D01*
X116380492Y-58860200D01*
X116360646Y-58734896D01*
X116303050Y-58621858D01*
X116213342Y-58532150D01*
X116142618Y-58496114D01*
X116100307Y-58474555D01*
X116100304Y-58474554D01*
X115975000Y-58454708D01*
X115849696Y-58474554D01*
X115849692Y-58474555D01*
X115736659Y-58532149D01*
X115646949Y-58621859D01*
X115589355Y-58734892D01*
X115589354Y-58734896D01*
X115569508Y-58860199D01*
X114490631Y-58860199D01*
X114490631Y-58860196D01*
X114470156Y-58652310D01*
X114470155Y-58652305D01*
X114451759Y-58591665D01*
X114409515Y-58452401D01*
X114409512Y-58452395D01*
X114311047Y-58268178D01*
X114311042Y-58268171D01*
X114311040Y-58268167D01*
X114193798Y-58125307D01*
X114178519Y-58106689D01*
X114178510Y-58106680D01*
X114048519Y-58000000D01*
X114017033Y-57974160D01*
X114017030Y-57974158D01*
X114017021Y-57974152D01*
X113832804Y-57875687D01*
X113832799Y-57875685D01*
X113632894Y-57815044D01*
X113632889Y-57815043D01*
X113425003Y-57794569D01*
X113424997Y-57794569D01*
X113217110Y-57815043D01*
X113217105Y-57815044D01*
X113017200Y-57875685D01*
X113017195Y-57875687D01*
X112832978Y-57974152D01*
X112832968Y-57974159D01*
X112671489Y-58106680D01*
X112671480Y-58106689D01*
X112538959Y-58268168D01*
X112538952Y-58268178D01*
X112440487Y-58452395D01*
X112440485Y-58452400D01*
X112379844Y-58652305D01*
X112379843Y-58652310D01*
X112359369Y-58860196D01*
X110125500Y-58860196D01*
X110125500Y-56320200D01*
X112270073Y-56320200D01*
X112289738Y-56532416D01*
X112348064Y-56737410D01*
X112443057Y-56928183D01*
X112443062Y-56928192D01*
X112527894Y-57040526D01*
X112994269Y-56574150D01*
X113024901Y-56627207D01*
X113117993Y-56720299D01*
X113171046Y-56750929D01*
X112703432Y-57218542D01*
X112703433Y-57218544D01*
X112728995Y-57241847D01*
X112728994Y-57241847D01*
X112910206Y-57354047D01*
X113108941Y-57431038D01*
X113318437Y-57470200D01*
X113531563Y-57470200D01*
X113741058Y-57431038D01*
X113939795Y-57354047D01*
X113939797Y-57354046D01*
X114120995Y-57241854D01*
X114120997Y-57241852D01*
X114146565Y-57218543D01*
X113678952Y-56750930D01*
X113732007Y-56720299D01*
X113825099Y-56627207D01*
X113855730Y-56574152D01*
X114322106Y-57040528D01*
X114406931Y-56928202D01*
X114406940Y-56928187D01*
X114501935Y-56737410D01*
X114560261Y-56532416D01*
X114563265Y-56499999D01*
X150669508Y-56499999D01*
X150669508Y-56500000D01*
X150689354Y-56625303D01*
X150689355Y-56625307D01*
X150691701Y-56629911D01*
X150746950Y-56738342D01*
X150836658Y-56828050D01*
X150949696Y-56885646D01*
X151075000Y-56905492D01*
X151200304Y-56885646D01*
X151313342Y-56828050D01*
X151403050Y-56738342D01*
X151460646Y-56625304D01*
X151480492Y-56500000D01*
X151460646Y-56374696D01*
X151403050Y-56261658D01*
X151313342Y-56171950D01*
X151257351Y-56143421D01*
X151200307Y-56114355D01*
X151200304Y-56114354D01*
X151075000Y-56094508D01*
X150949696Y-56114354D01*
X150949692Y-56114355D01*
X150836659Y-56171949D01*
X150746949Y-56261659D01*
X150689355Y-56374692D01*
X150689354Y-56374696D01*
X150669508Y-56499999D01*
X114563265Y-56499999D01*
X114579926Y-56320200D01*
X114560261Y-56107983D01*
X114501935Y-55902989D01*
X114406942Y-55712216D01*
X114406937Y-55712207D01*
X114322105Y-55599872D01*
X113855729Y-56066246D01*
X113825099Y-56013193D01*
X113732007Y-55920101D01*
X113678950Y-55889469D01*
X114146565Y-55421855D01*
X114146565Y-55421854D01*
X114121004Y-55398552D01*
X114121005Y-55398552D01*
X113939793Y-55286352D01*
X113741058Y-55209361D01*
X113531563Y-55170200D01*
X113318437Y-55170200D01*
X113108941Y-55209361D01*
X112910206Y-55286352D01*
X112728998Y-55398550D01*
X112703433Y-55421855D01*
X113171047Y-55889469D01*
X113117993Y-55920101D01*
X113024901Y-56013193D01*
X112994269Y-56066247D01*
X112527893Y-55599871D01*
X112443066Y-55712201D01*
X112443057Y-55712216D01*
X112348064Y-55902989D01*
X112289738Y-56107983D01*
X112270073Y-56320200D01*
X110125500Y-56320200D01*
X110125500Y-54449999D01*
X147219508Y-54449999D01*
X147219508Y-54450000D01*
X147239354Y-54575303D01*
X147239355Y-54575307D01*
X147254849Y-54605715D01*
X147296950Y-54688342D01*
X147386658Y-54778050D01*
X147499696Y-54835646D01*
X147625000Y-54855492D01*
X147750304Y-54835646D01*
X147863342Y-54778050D01*
X147953050Y-54688342D01*
X148010646Y-54575304D01*
X148030492Y-54450000D01*
X148010646Y-54324696D01*
X147953050Y-54211658D01*
X147863342Y-54121950D01*
X147777616Y-54078270D01*
X147750307Y-54064355D01*
X147750304Y-54064354D01*
X147625000Y-54044508D01*
X147499696Y-54064354D01*
X147499692Y-54064355D01*
X147386659Y-54121949D01*
X147296949Y-54211659D01*
X147239355Y-54324692D01*
X147239354Y-54324696D01*
X147219508Y-54449999D01*
X110125500Y-54449999D01*
X110125500Y-51749999D01*
X147219508Y-51749999D01*
X147219508Y-51750000D01*
X147239354Y-51875303D01*
X147239355Y-51875307D01*
X147294944Y-51984406D01*
X147296950Y-51988342D01*
X147386658Y-52078050D01*
X147499696Y-52135646D01*
X147625000Y-52155492D01*
X147750304Y-52135646D01*
X147863342Y-52078050D01*
X147953050Y-51988342D01*
X148010646Y-51875304D01*
X148030492Y-51750000D01*
X148010646Y-51624696D01*
X147953050Y-51511658D01*
X147863342Y-51421950D01*
X147841153Y-51410644D01*
X147750307Y-51364355D01*
X147750304Y-51364354D01*
X147625000Y-51344508D01*
X147499696Y-51364354D01*
X147499692Y-51364355D01*
X147386659Y-51421949D01*
X147296949Y-51511659D01*
X147239355Y-51624692D01*
X147239354Y-51624696D01*
X147219508Y-51749999D01*
X110125500Y-51749999D01*
X110125500Y-44199999D01*
X127027208Y-44199999D01*
X127027208Y-44200000D01*
X127047054Y-44325303D01*
X127047055Y-44325307D01*
X127102644Y-44434406D01*
X127104650Y-44438342D01*
X127194358Y-44528050D01*
X127307396Y-44585646D01*
X127432700Y-44605492D01*
X127558004Y-44585646D01*
X127671042Y-44528050D01*
X127760750Y-44438342D01*
X127818346Y-44325304D01*
X127838192Y-44200000D01*
X127818346Y-44074696D01*
X127760750Y-43961658D01*
X127671042Y-43871950D01*
X127667106Y-43869944D01*
X127558007Y-43814355D01*
X127558004Y-43814354D01*
X127432700Y-43794508D01*
X127307396Y-43814354D01*
X127307392Y-43814355D01*
X127194359Y-43871949D01*
X127104649Y-43961659D01*
X127047055Y-44074692D01*
X127047054Y-44074696D01*
X127027208Y-44199999D01*
X110125500Y-44199999D01*
X110125500Y-41499999D01*
X127027208Y-41499999D01*
X127027208Y-41500000D01*
X127047054Y-41625303D01*
X127047055Y-41625307D01*
X127102644Y-41734406D01*
X127104650Y-41738342D01*
X127194358Y-41828050D01*
X127307396Y-41885646D01*
X127432700Y-41905492D01*
X127558004Y-41885646D01*
X127671042Y-41828050D01*
X127760750Y-41738342D01*
X127818346Y-41625304D01*
X127838192Y-41500000D01*
X127830273Y-41449999D01*
X130357208Y-41449999D01*
X130357208Y-41450000D01*
X130377054Y-41575303D01*
X130377055Y-41575307D01*
X130402530Y-41625303D01*
X130434650Y-41688342D01*
X130524358Y-41778050D01*
X130637396Y-41835646D01*
X130762700Y-41855492D01*
X130888004Y-41835646D01*
X131001042Y-41778050D01*
X131090750Y-41688342D01*
X131148346Y-41575304D01*
X131160273Y-41499999D01*
X134647208Y-41499999D01*
X134647208Y-41500000D01*
X134667054Y-41625303D01*
X134667055Y-41625307D01*
X134722644Y-41734406D01*
X134724650Y-41738342D01*
X134814358Y-41828050D01*
X134927396Y-41885646D01*
X135052700Y-41905492D01*
X135178004Y-41885646D01*
X135291042Y-41828050D01*
X135380750Y-41738342D01*
X135438346Y-41625304D01*
X135458192Y-41500000D01*
X135457144Y-41493385D01*
X135466714Y-41432956D01*
X135484921Y-41407896D01*
X135623322Y-41269496D01*
X135677839Y-41241719D01*
X135693325Y-41240500D01*
X137114395Y-41240500D01*
X137172586Y-41259407D01*
X137208550Y-41308907D01*
X137208551Y-41370089D01*
X137207054Y-41374696D01*
X137187208Y-41499999D01*
X137187208Y-41500000D01*
X137207054Y-41625303D01*
X137207055Y-41625307D01*
X137262644Y-41734406D01*
X137264650Y-41738342D01*
X137354358Y-41828050D01*
X137467396Y-41885646D01*
X137592700Y-41905492D01*
X137718004Y-41885646D01*
X137831042Y-41828050D01*
X137862197Y-41796895D01*
X137889597Y-41769496D01*
X137944114Y-41741719D01*
X137959600Y-41740500D01*
X138826729Y-41740500D01*
X138884920Y-41759407D01*
X138896733Y-41769496D01*
X151135504Y-54008266D01*
X151163281Y-54062783D01*
X151164500Y-54078270D01*
X151164500Y-55477838D01*
X151201112Y-55566230D01*
X151201113Y-55566231D01*
X151201114Y-55566233D01*
X153488767Y-57853886D01*
X153577161Y-57890500D01*
X153577162Y-57890500D01*
X156431825Y-57890500D01*
X156490016Y-57909407D01*
X156501829Y-57919496D01*
X157485504Y-58903170D01*
X157513281Y-58957687D01*
X157514500Y-58973174D01*
X157514500Y-61267073D01*
X157495593Y-61325264D01*
X157485504Y-61337076D01*
X157391115Y-61431465D01*
X157391112Y-61431469D01*
X157361833Y-61502159D01*
X157361832Y-61502162D01*
X157354501Y-61519859D01*
X157354500Y-61519864D01*
X157354500Y-62567838D01*
X157391112Y-62656231D01*
X157391113Y-62656232D01*
X157391114Y-62656233D01*
X157523223Y-62788342D01*
X157642777Y-62907895D01*
X157670555Y-62962412D01*
X157670555Y-62993382D01*
X157669508Y-63000000D01*
X157684476Y-63094508D01*
X157689354Y-63125303D01*
X157689355Y-63125307D01*
X157713121Y-63171950D01*
X157746950Y-63238342D01*
X157836658Y-63328050D01*
X157949696Y-63385646D01*
X158075000Y-63405492D01*
X158200304Y-63385646D01*
X158313342Y-63328050D01*
X158403050Y-63238342D01*
X158460646Y-63125304D01*
X158480492Y-63000000D01*
X158460646Y-62874696D01*
X158403050Y-62761658D01*
X158313342Y-62671950D01*
X158282492Y-62656231D01*
X158200307Y-62614355D01*
X158200304Y-62614354D01*
X158131433Y-62603446D01*
X158075001Y-62594508D01*
X158075000Y-62594508D01*
X158068383Y-62595556D01*
X158007951Y-62585982D01*
X157982895Y-62567777D01*
X157928775Y-62513656D01*
X157900998Y-62459139D01*
X157910570Y-62398707D01*
X157953835Y-62355443D01*
X158014264Y-62345872D01*
X158075000Y-62355492D01*
X158200304Y-62335646D01*
X158313342Y-62278050D01*
X158403050Y-62188342D01*
X158460646Y-62075304D01*
X158480492Y-61950000D01*
X158460646Y-61824696D01*
X158403050Y-61711658D01*
X158382018Y-61690626D01*
X158344496Y-61653103D01*
X158316719Y-61598586D01*
X158315500Y-61583100D01*
X158315500Y-61500000D01*
X159819508Y-61500000D01*
X159838612Y-61620622D01*
X159839354Y-61625303D01*
X159839355Y-61625307D01*
X159853518Y-61653103D01*
X159896950Y-61738342D01*
X159986658Y-61828050D01*
X160099696Y-61885646D01*
X160225000Y-61905492D01*
X160350304Y-61885646D01*
X160463342Y-61828050D01*
X160553050Y-61738342D01*
X160610646Y-61625304D01*
X160630492Y-61500000D01*
X160610646Y-61374696D01*
X160553050Y-61261658D01*
X160463342Y-61171950D01*
X160459406Y-61169944D01*
X160350307Y-61114355D01*
X160350304Y-61114354D01*
X160225000Y-61094508D01*
X160099696Y-61114354D01*
X160099692Y-61114355D01*
X159986659Y-61171949D01*
X159896949Y-61261659D01*
X159839355Y-61374692D01*
X159839354Y-61374696D01*
X159819508Y-61500000D01*
X158315500Y-61500000D01*
X158315500Y-59899999D01*
X159819508Y-59899999D01*
X159819508Y-59900000D01*
X159839354Y-60025303D01*
X159839355Y-60025307D01*
X159894944Y-60134406D01*
X159896950Y-60138342D01*
X159986658Y-60228050D01*
X160099696Y-60285646D01*
X160225000Y-60305492D01*
X160350304Y-60285646D01*
X160463342Y-60228050D01*
X160553050Y-60138342D01*
X160610646Y-60025304D01*
X160630492Y-59900000D01*
X160610646Y-59774696D01*
X160553050Y-59661658D01*
X160463342Y-59571950D01*
X160459406Y-59569944D01*
X160350307Y-59514355D01*
X160350304Y-59514354D01*
X160225000Y-59494508D01*
X160099696Y-59514354D01*
X160099692Y-59514355D01*
X159986659Y-59571949D01*
X159896949Y-59661659D01*
X159839355Y-59774692D01*
X159839354Y-59774696D01*
X159819508Y-59899999D01*
X158315500Y-59899999D01*
X158315500Y-58652162D01*
X158278886Y-58563768D01*
X158230714Y-58515595D01*
X158202937Y-58461078D01*
X158212509Y-58400646D01*
X158255770Y-58357384D01*
X158313342Y-58328050D01*
X158403050Y-58238342D01*
X158460646Y-58125304D01*
X158480492Y-58000000D01*
X158460646Y-57874696D01*
X158403050Y-57761658D01*
X158313342Y-57671950D01*
X158309406Y-57669944D01*
X158200307Y-57614355D01*
X158200304Y-57614354D01*
X158081611Y-57595555D01*
X158075001Y-57594508D01*
X158074996Y-57594508D01*
X158068385Y-57595555D01*
X158007953Y-57585983D01*
X157982896Y-57567778D01*
X157633660Y-57218542D01*
X157211233Y-56796114D01*
X157211231Y-56796113D01*
X157211230Y-56796112D01*
X157122839Y-56759500D01*
X157122838Y-56759500D01*
X155553305Y-56759500D01*
X155495114Y-56740593D01*
X155459150Y-56691093D01*
X155459149Y-56629911D01*
X155460644Y-56625307D01*
X155460646Y-56625304D01*
X155480492Y-56500000D01*
X155460646Y-56374696D01*
X155403050Y-56261658D01*
X155377038Y-56235646D01*
X155344496Y-56203103D01*
X155316719Y-56148586D01*
X155315500Y-56133100D01*
X155315500Y-55924999D01*
X158869508Y-55924999D01*
X158869508Y-55925000D01*
X158889354Y-56050303D01*
X158889355Y-56050307D01*
X158911877Y-56094508D01*
X158946950Y-56163342D01*
X159036658Y-56253050D01*
X159149696Y-56310646D01*
X159275000Y-56330492D01*
X159400304Y-56310646D01*
X159513342Y-56253050D01*
X159603050Y-56163342D01*
X159660646Y-56050304D01*
X159680492Y-55925000D01*
X159660646Y-55799696D01*
X159603050Y-55686658D01*
X159513342Y-55596950D01*
X159453051Y-55566230D01*
X159400307Y-55539355D01*
X159400304Y-55539354D01*
X159275000Y-55519508D01*
X159149696Y-55539354D01*
X159149692Y-55539355D01*
X159036659Y-55596949D01*
X158946949Y-55686659D01*
X158889355Y-55799692D01*
X158889354Y-55799696D01*
X158869508Y-55924999D01*
X155315500Y-55924999D01*
X155315500Y-55297066D01*
X155278886Y-55208672D01*
X155211232Y-55141017D01*
X155211232Y-55141018D01*
X150220214Y-50149999D01*
X154869508Y-50149999D01*
X154869508Y-50150000D01*
X154889354Y-50275303D01*
X154889355Y-50275307D01*
X154944944Y-50384406D01*
X154946950Y-50388342D01*
X155036658Y-50478050D01*
X155062392Y-50491162D01*
X155078345Y-50499291D01*
X155121609Y-50542556D01*
X155131180Y-50602988D01*
X155103402Y-50657504D01*
X155078345Y-50675709D01*
X155036659Y-50696949D01*
X154946949Y-50786659D01*
X154889355Y-50899692D01*
X154889354Y-50899696D01*
X154869508Y-51024999D01*
X154869508Y-51025000D01*
X154889354Y-51150303D01*
X154889355Y-51150307D01*
X154944944Y-51259406D01*
X154946950Y-51263342D01*
X155036658Y-51353050D01*
X155149696Y-51410646D01*
X155275000Y-51430492D01*
X155400304Y-51410646D01*
X155513342Y-51353050D01*
X155603050Y-51263342D01*
X155660646Y-51150304D01*
X155680492Y-51025000D01*
X155660646Y-50899696D01*
X155603050Y-50786658D01*
X155513342Y-50696950D01*
X155513339Y-50696948D01*
X155471655Y-50675709D01*
X155428390Y-50632445D01*
X155418819Y-50572013D01*
X155446597Y-50517496D01*
X155471655Y-50499291D01*
X155487247Y-50491346D01*
X155513342Y-50478050D01*
X155603050Y-50388342D01*
X155660646Y-50275304D01*
X155680492Y-50150000D01*
X155660646Y-50024696D01*
X155603050Y-49911658D01*
X155513342Y-49821950D01*
X155509406Y-49819944D01*
X155400307Y-49764355D01*
X155400304Y-49764354D01*
X155275000Y-49744508D01*
X155149696Y-49764354D01*
X155149692Y-49764355D01*
X155036659Y-49821949D01*
X154946949Y-49911659D01*
X154889355Y-50024692D01*
X154889354Y-50024696D01*
X154869508Y-50149999D01*
X150220214Y-50149999D01*
X149044496Y-48974281D01*
X149016719Y-48919764D01*
X149015500Y-48904277D01*
X149015500Y-47824999D01*
X152869508Y-47824999D01*
X152869508Y-47825000D01*
X152889354Y-47950303D01*
X152889355Y-47950307D01*
X152944944Y-48059406D01*
X152946950Y-48063342D01*
X153036658Y-48153050D01*
X153149696Y-48210646D01*
X153275000Y-48230492D01*
X153400304Y-48210646D01*
X153513342Y-48153050D01*
X153603050Y-48063342D01*
X153660646Y-47950304D01*
X153680492Y-47825000D01*
X153660646Y-47699696D01*
X153603050Y-47586658D01*
X153513342Y-47496950D01*
X153509406Y-47494944D01*
X153400307Y-47439355D01*
X153400304Y-47439354D01*
X153275000Y-47419508D01*
X153149696Y-47439354D01*
X153149692Y-47439355D01*
X153036659Y-47496949D01*
X152946949Y-47586659D01*
X152889355Y-47699692D01*
X152889354Y-47699696D01*
X152869508Y-47824999D01*
X149015500Y-47824999D01*
X149015500Y-47174999D01*
X154869508Y-47174999D01*
X154869508Y-47175000D01*
X154889354Y-47300303D01*
X154889355Y-47300307D01*
X154944944Y-47409406D01*
X154946950Y-47413342D01*
X155036658Y-47503050D01*
X155149696Y-47560646D01*
X155275000Y-47580492D01*
X155400304Y-47560646D01*
X155513342Y-47503050D01*
X155603050Y-47413342D01*
X155660646Y-47300304D01*
X155680492Y-47175000D01*
X155660646Y-47049696D01*
X155603050Y-46936658D01*
X155513342Y-46846950D01*
X155509406Y-46844944D01*
X155400307Y-46789355D01*
X155400304Y-46789354D01*
X155275000Y-46769508D01*
X155149696Y-46789354D01*
X155149692Y-46789355D01*
X155036659Y-46846949D01*
X154946949Y-46936659D01*
X154889355Y-47049692D01*
X154889354Y-47049696D01*
X154869508Y-47174999D01*
X149015500Y-47174999D01*
X149015500Y-46524999D01*
X152869508Y-46524999D01*
X152869508Y-46525000D01*
X152889354Y-46650303D01*
X152889355Y-46650307D01*
X152944944Y-46759406D01*
X152946950Y-46763342D01*
X153036658Y-46853050D01*
X153149696Y-46910646D01*
X153275000Y-46930492D01*
X153400304Y-46910646D01*
X153513342Y-46853050D01*
X153603050Y-46763342D01*
X153660646Y-46650304D01*
X153680492Y-46525000D01*
X153660646Y-46399696D01*
X153603050Y-46286658D01*
X153513342Y-46196950D01*
X153509406Y-46194944D01*
X153400307Y-46139355D01*
X153400304Y-46139354D01*
X153275000Y-46119508D01*
X153149696Y-46139354D01*
X153149692Y-46139355D01*
X153036659Y-46196949D01*
X152946949Y-46286659D01*
X152889355Y-46399692D01*
X152889354Y-46399696D01*
X152869508Y-46524999D01*
X149015500Y-46524999D01*
X149015500Y-45099999D01*
X151219508Y-45099999D01*
X151219508Y-45100000D01*
X151239354Y-45225303D01*
X151239355Y-45225307D01*
X151294944Y-45334406D01*
X151296950Y-45338342D01*
X151386658Y-45428050D01*
X151499696Y-45485646D01*
X151625000Y-45505492D01*
X151750304Y-45485646D01*
X151863342Y-45428050D01*
X151953050Y-45338342D01*
X152010646Y-45225304D01*
X152030492Y-45100000D01*
X152010646Y-44974696D01*
X151953050Y-44861658D01*
X151863342Y-44771950D01*
X151859406Y-44769944D01*
X151750307Y-44714355D01*
X151750304Y-44714354D01*
X151625000Y-44694508D01*
X151499696Y-44714354D01*
X151499692Y-44714355D01*
X151386659Y-44771949D01*
X151296949Y-44861659D01*
X151239355Y-44974692D01*
X151239354Y-44974696D01*
X151219508Y-45099999D01*
X149015500Y-45099999D01*
X149015500Y-43249999D01*
X150319508Y-43249999D01*
X150319508Y-43250000D01*
X150339354Y-43375303D01*
X150339355Y-43375307D01*
X150394944Y-43484406D01*
X150396950Y-43488342D01*
X150486658Y-43578050D01*
X150599696Y-43635646D01*
X150725000Y-43655492D01*
X150850304Y-43635646D01*
X150963342Y-43578050D01*
X151053050Y-43488342D01*
X151110646Y-43375304D01*
X151130492Y-43250000D01*
X151110646Y-43124696D01*
X151053050Y-43011658D01*
X150963342Y-42921950D01*
X150959406Y-42919944D01*
X150850307Y-42864355D01*
X150850304Y-42864354D01*
X150725000Y-42844508D01*
X150599696Y-42864354D01*
X150599692Y-42864355D01*
X150486659Y-42921949D01*
X150396949Y-43011659D01*
X150339355Y-43124692D01*
X150339354Y-43124696D01*
X150319508Y-43249999D01*
X149015500Y-43249999D01*
X149015500Y-41144462D01*
X149015499Y-41144460D01*
X149012092Y-41136233D01*
X149012092Y-41136232D01*
X148978887Y-41056069D01*
X148978886Y-41056068D01*
X148978886Y-41056067D01*
X148368933Y-40446114D01*
X148368931Y-40446113D01*
X148368930Y-40446112D01*
X148280539Y-40409500D01*
X148280538Y-40409500D01*
X141030539Y-40409500D01*
X140934862Y-40409500D01*
X140846468Y-40446113D01*
X140224801Y-41067778D01*
X140170285Y-41095555D01*
X140139311Y-41095555D01*
X140132700Y-41094508D01*
X140007396Y-41114354D01*
X140007392Y-41114355D01*
X139894359Y-41171949D01*
X139804650Y-41261658D01*
X139770997Y-41327704D01*
X139727731Y-41370968D01*
X139667299Y-41380538D01*
X139612784Y-41352761D01*
X139354531Y-41094508D01*
X139056137Y-40796114D01*
X139056135Y-40796113D01*
X139056134Y-40796112D01*
X138967743Y-40759500D01*
X138967742Y-40759500D01*
X135600539Y-40759500D01*
X135504862Y-40759500D01*
X135416468Y-40796113D01*
X135144802Y-41067778D01*
X135090286Y-41095555D01*
X135059313Y-41095555D01*
X135052702Y-41094508D01*
X135052699Y-41094508D01*
X134927396Y-41114354D01*
X134927392Y-41114355D01*
X134814359Y-41171949D01*
X134724649Y-41261659D01*
X134667055Y-41374692D01*
X134667054Y-41374696D01*
X134647208Y-41499999D01*
X131160273Y-41499999D01*
X131168192Y-41450000D01*
X131148346Y-41324696D01*
X131090750Y-41211658D01*
X131001042Y-41121950D01*
X130964726Y-41103446D01*
X130888007Y-41064355D01*
X130888004Y-41064354D01*
X130762700Y-41044508D01*
X130637396Y-41064354D01*
X130637392Y-41064355D01*
X130524359Y-41121949D01*
X130434649Y-41211659D01*
X130377055Y-41324692D01*
X130377054Y-41324696D01*
X130357208Y-41449999D01*
X127830273Y-41449999D01*
X127818346Y-41374696D01*
X127816446Y-41370968D01*
X127814335Y-41366825D01*
X127760750Y-41261658D01*
X127671042Y-41171950D01*
X127617094Y-41144462D01*
X127558007Y-41114355D01*
X127558004Y-41114354D01*
X127432700Y-41094508D01*
X127307396Y-41114354D01*
X127307392Y-41114355D01*
X127194359Y-41171949D01*
X127104649Y-41261659D01*
X127047055Y-41374692D01*
X127047054Y-41374696D01*
X127027208Y-41499999D01*
X110125500Y-41499999D01*
X110125500Y-40449999D01*
X131357208Y-40449999D01*
X131357208Y-40450000D01*
X131377054Y-40575303D01*
X131377055Y-40575307D01*
X131432644Y-40684406D01*
X131434650Y-40688342D01*
X131524358Y-40778050D01*
X131637396Y-40835646D01*
X131762700Y-40855492D01*
X131888004Y-40835646D01*
X132001042Y-40778050D01*
X132090750Y-40688342D01*
X132148346Y-40575304D01*
X132168192Y-40450000D01*
X132148346Y-40324696D01*
X132090750Y-40211658D01*
X132001042Y-40121950D01*
X131957963Y-40100000D01*
X131888007Y-40064355D01*
X131888004Y-40064354D01*
X131762700Y-40044508D01*
X131637396Y-40064354D01*
X131637392Y-40064355D01*
X131524359Y-40121949D01*
X131434649Y-40211659D01*
X131377055Y-40324692D01*
X131377054Y-40324696D01*
X131357208Y-40449999D01*
X110125500Y-40449999D01*
X110125500Y-39072195D01*
X110144407Y-39014004D01*
X110193907Y-38978040D01*
X110255093Y-38978040D01*
X110294501Y-39002189D01*
X110487958Y-39195646D01*
X110487962Y-39195649D01*
X110487964Y-39195651D01*
X110567925Y-39257007D01*
X110722006Y-39375238D01*
X110977493Y-39522743D01*
X110977499Y-39522745D01*
X110977500Y-39522746D01*
X111062592Y-39557992D01*
X111250048Y-39635639D01*
X111535007Y-39711993D01*
X111827494Y-39750500D01*
X111827495Y-39750500D01*
X112122505Y-39750500D01*
X112122506Y-39750500D01*
X112414993Y-39711993D01*
X112699952Y-39635639D01*
X112972507Y-39522743D01*
X113227994Y-39375238D01*
X113462042Y-39195646D01*
X113670646Y-38987042D01*
X113850238Y-38752994D01*
X113997743Y-38497507D01*
X114022245Y-38438355D01*
X126372200Y-38438355D01*
X126372200Y-39461644D01*
X126374923Y-39496258D01*
X126374923Y-39496261D01*
X126374924Y-39496262D01*
X126415416Y-39635638D01*
X126417959Y-39644388D01*
X126417959Y-39644389D01*
X126496474Y-39777150D01*
X126496475Y-39777151D01*
X126496477Y-39777154D01*
X126605546Y-39886223D01*
X126738314Y-39964742D01*
X126886438Y-40007776D01*
X126921050Y-40010500D01*
X126921055Y-40010500D01*
X127944345Y-40010500D01*
X127944350Y-40010500D01*
X127978962Y-40007776D01*
X128127086Y-39964742D01*
X128259854Y-39886223D01*
X128368923Y-39777154D01*
X128447442Y-39644386D01*
X128490476Y-39496262D01*
X128493200Y-39461650D01*
X128493200Y-38949996D01*
X128907069Y-38949996D01*
X128907069Y-38950003D01*
X128927543Y-39157889D01*
X128927544Y-39157894D01*
X128988185Y-39357799D01*
X128988187Y-39357804D01*
X129086652Y-39542021D01*
X129086658Y-39542030D01*
X129086660Y-39542033D01*
X129141922Y-39609370D01*
X129219180Y-39703510D01*
X129219189Y-39703519D01*
X129229515Y-39711993D01*
X129380667Y-39836040D01*
X129380671Y-39836042D01*
X129380678Y-39836047D01*
X129564895Y-39934512D01*
X129564901Y-39934515D01*
X129704165Y-39976759D01*
X129764805Y-39995155D01*
X129764810Y-39995156D01*
X129972697Y-40015631D01*
X129972700Y-40015631D01*
X129972703Y-40015631D01*
X130180589Y-39995156D01*
X130180594Y-39995155D01*
X130380499Y-39934515D01*
X130446550Y-39899209D01*
X130564721Y-39836047D01*
X130564724Y-39836044D01*
X130564733Y-39836040D01*
X130726215Y-39703515D01*
X130858740Y-39542033D01*
X130858744Y-39542024D01*
X130858747Y-39542021D01*
X130926146Y-39415925D01*
X130957215Y-39357799D01*
X131017855Y-39157894D01*
X131017856Y-39157889D01*
X131038331Y-38950003D01*
X131038331Y-38949996D01*
X131447069Y-38949996D01*
X131447069Y-38950003D01*
X131467543Y-39157889D01*
X131467544Y-39157894D01*
X131528185Y-39357799D01*
X131528187Y-39357804D01*
X131626652Y-39542021D01*
X131626658Y-39542030D01*
X131626660Y-39542033D01*
X131681922Y-39609370D01*
X131759180Y-39703510D01*
X131759189Y-39703519D01*
X131769515Y-39711993D01*
X131920667Y-39836040D01*
X131920671Y-39836042D01*
X131920678Y-39836047D01*
X132104895Y-39934512D01*
X132104901Y-39934515D01*
X132244165Y-39976759D01*
X132304805Y-39995155D01*
X132304810Y-39995156D01*
X132512697Y-40015631D01*
X132512700Y-40015631D01*
X132512703Y-40015631D01*
X132720589Y-39995156D01*
X132720594Y-39995155D01*
X132920499Y-39934515D01*
X132986550Y-39899209D01*
X133104721Y-39836047D01*
X133104724Y-39836044D01*
X133104733Y-39836040D01*
X133266215Y-39703515D01*
X133398740Y-39542033D01*
X133398744Y-39542024D01*
X133398747Y-39542021D01*
X133466146Y-39415925D01*
X133497215Y-39357799D01*
X133557855Y-39157894D01*
X133557856Y-39157889D01*
X133578331Y-38950003D01*
X133578331Y-38949996D01*
X133987069Y-38949996D01*
X133987069Y-38950003D01*
X134007543Y-39157889D01*
X134007544Y-39157894D01*
X134068185Y-39357799D01*
X134068187Y-39357804D01*
X134166652Y-39542021D01*
X134166658Y-39542030D01*
X134166660Y-39542033D01*
X134221922Y-39609370D01*
X134299180Y-39703510D01*
X134299189Y-39703519D01*
X134309515Y-39711993D01*
X134460667Y-39836040D01*
X134460671Y-39836042D01*
X134460678Y-39836047D01*
X134644895Y-39934512D01*
X134644901Y-39934515D01*
X134784165Y-39976759D01*
X134844805Y-39995155D01*
X134844810Y-39995156D01*
X135052697Y-40015631D01*
X135052700Y-40015631D01*
X135052703Y-40015631D01*
X135260589Y-39995156D01*
X135260594Y-39995155D01*
X135460499Y-39934515D01*
X135526550Y-39899209D01*
X135644721Y-39836047D01*
X135644724Y-39836044D01*
X135644733Y-39836040D01*
X135806215Y-39703515D01*
X135938740Y-39542033D01*
X135938744Y-39542024D01*
X135938747Y-39542021D01*
X136006146Y-39415925D01*
X136037215Y-39357799D01*
X136097855Y-39157894D01*
X136097856Y-39157889D01*
X136118331Y-38950003D01*
X136118331Y-38949996D01*
X136527069Y-38949996D01*
X136527069Y-38950003D01*
X136547543Y-39157889D01*
X136547544Y-39157894D01*
X136608185Y-39357799D01*
X136608187Y-39357804D01*
X136706652Y-39542021D01*
X136706658Y-39542030D01*
X136706660Y-39542033D01*
X136761922Y-39609370D01*
X136839180Y-39703510D01*
X136839189Y-39703519D01*
X136849515Y-39711993D01*
X137000667Y-39836040D01*
X137000671Y-39836042D01*
X137000678Y-39836047D01*
X137184895Y-39934512D01*
X137184901Y-39934515D01*
X137324165Y-39976759D01*
X137384805Y-39995155D01*
X137384810Y-39995156D01*
X137592697Y-40015631D01*
X137592700Y-40015631D01*
X137592703Y-40015631D01*
X137800589Y-39995156D01*
X137800594Y-39995155D01*
X138000499Y-39934515D01*
X138066550Y-39899209D01*
X138184721Y-39836047D01*
X138184724Y-39836044D01*
X138184733Y-39836040D01*
X138346215Y-39703515D01*
X138478740Y-39542033D01*
X138478744Y-39542024D01*
X138478747Y-39542021D01*
X138546146Y-39415925D01*
X138577215Y-39357799D01*
X138637855Y-39157894D01*
X138637856Y-39157889D01*
X138658331Y-38950003D01*
X138658331Y-38949996D01*
X139067069Y-38949996D01*
X139067069Y-38950003D01*
X139087543Y-39157889D01*
X139087544Y-39157894D01*
X139148185Y-39357799D01*
X139148187Y-39357804D01*
X139246652Y-39542021D01*
X139246658Y-39542030D01*
X139246660Y-39542033D01*
X139301922Y-39609370D01*
X139379180Y-39703510D01*
X139379189Y-39703519D01*
X139389515Y-39711993D01*
X139540667Y-39836040D01*
X139540671Y-39836042D01*
X139540678Y-39836047D01*
X139724895Y-39934512D01*
X139724901Y-39934515D01*
X139864165Y-39976759D01*
X139924805Y-39995155D01*
X139924810Y-39995156D01*
X140132697Y-40015631D01*
X140132700Y-40015631D01*
X140132703Y-40015631D01*
X140340589Y-39995156D01*
X140340594Y-39995155D01*
X140540499Y-39934515D01*
X140606550Y-39899209D01*
X140724721Y-39836047D01*
X140724724Y-39836044D01*
X140724733Y-39836040D01*
X140886215Y-39703515D01*
X141018740Y-39542033D01*
X141018744Y-39542024D01*
X141018747Y-39542021D01*
X141086146Y-39415925D01*
X141117215Y-39357799D01*
X141177855Y-39157894D01*
X141177856Y-39157889D01*
X141198331Y-38950003D01*
X141198331Y-38949996D01*
X141607069Y-38949996D01*
X141607069Y-38950003D01*
X141627543Y-39157889D01*
X141627544Y-39157894D01*
X141688185Y-39357799D01*
X141688187Y-39357804D01*
X141786652Y-39542021D01*
X141786658Y-39542030D01*
X141786660Y-39542033D01*
X141841922Y-39609370D01*
X141919180Y-39703510D01*
X141919189Y-39703519D01*
X141929515Y-39711993D01*
X142080667Y-39836040D01*
X142080671Y-39836042D01*
X142080678Y-39836047D01*
X142264895Y-39934512D01*
X142264901Y-39934515D01*
X142404165Y-39976759D01*
X142464805Y-39995155D01*
X142464810Y-39995156D01*
X142672697Y-40015631D01*
X142672700Y-40015631D01*
X142672703Y-40015631D01*
X142880589Y-39995156D01*
X142880594Y-39995155D01*
X143080499Y-39934515D01*
X143146550Y-39899209D01*
X143264721Y-39836047D01*
X143264724Y-39836044D01*
X143264733Y-39836040D01*
X143426215Y-39703515D01*
X143558740Y-39542033D01*
X143558744Y-39542024D01*
X143558747Y-39542021D01*
X143626146Y-39415925D01*
X143657215Y-39357799D01*
X143717855Y-39157894D01*
X143717856Y-39157889D01*
X143738331Y-38950003D01*
X143738331Y-38949996D01*
X144147069Y-38949996D01*
X144147069Y-38950003D01*
X144167543Y-39157889D01*
X144167544Y-39157894D01*
X144228185Y-39357799D01*
X144228187Y-39357804D01*
X144326652Y-39542021D01*
X144326658Y-39542030D01*
X144326660Y-39542033D01*
X144381922Y-39609370D01*
X144459180Y-39703510D01*
X144459189Y-39703519D01*
X144469515Y-39711993D01*
X144620667Y-39836040D01*
X144620671Y-39836042D01*
X144620678Y-39836047D01*
X144804895Y-39934512D01*
X144804901Y-39934515D01*
X144944165Y-39976759D01*
X145004805Y-39995155D01*
X145004810Y-39995156D01*
X145212697Y-40015631D01*
X145212700Y-40015631D01*
X145212703Y-40015631D01*
X145420589Y-39995156D01*
X145420594Y-39995155D01*
X145620499Y-39934515D01*
X145686550Y-39899209D01*
X145804721Y-39836047D01*
X145804724Y-39836044D01*
X145804733Y-39836040D01*
X145966215Y-39703515D01*
X146098740Y-39542033D01*
X146098744Y-39542024D01*
X146098747Y-39542021D01*
X146166146Y-39415925D01*
X146197215Y-39357799D01*
X146257855Y-39157894D01*
X146257856Y-39157889D01*
X146278331Y-38950003D01*
X146278331Y-38949996D01*
X146687069Y-38949996D01*
X146687069Y-38950003D01*
X146707543Y-39157889D01*
X146707544Y-39157894D01*
X146768185Y-39357799D01*
X146768187Y-39357804D01*
X146866652Y-39542021D01*
X146866658Y-39542030D01*
X146866660Y-39542033D01*
X146921922Y-39609370D01*
X146999180Y-39703510D01*
X146999189Y-39703519D01*
X147009515Y-39711993D01*
X147160667Y-39836040D01*
X147160671Y-39836042D01*
X147160678Y-39836047D01*
X147344895Y-39934512D01*
X147344901Y-39934515D01*
X147484165Y-39976759D01*
X147544805Y-39995155D01*
X147544810Y-39995156D01*
X147752697Y-40015631D01*
X147752700Y-40015631D01*
X147752703Y-40015631D01*
X147960589Y-39995156D01*
X147960594Y-39995155D01*
X148160499Y-39934515D01*
X148226550Y-39899209D01*
X148344721Y-39836047D01*
X148344724Y-39836044D01*
X148344733Y-39836040D01*
X148506215Y-39703515D01*
X148638740Y-39542033D01*
X148638744Y-39542024D01*
X148638747Y-39542021D01*
X148706146Y-39415925D01*
X148737215Y-39357799D01*
X148797855Y-39157894D01*
X148797856Y-39157889D01*
X148818331Y-38950003D01*
X148818331Y-38950000D01*
X149137773Y-38950000D01*
X149157438Y-39162216D01*
X149215764Y-39367210D01*
X149310757Y-39557983D01*
X149310762Y-39557992D01*
X149395594Y-39670326D01*
X149861969Y-39203950D01*
X149892601Y-39257007D01*
X149985693Y-39350099D01*
X150038746Y-39380729D01*
X149571132Y-39848342D01*
X149571133Y-39848344D01*
X149596695Y-39871647D01*
X149596694Y-39871647D01*
X149777906Y-39983847D01*
X149976641Y-40060838D01*
X150186137Y-40100000D01*
X150399263Y-40100000D01*
X150608758Y-40060838D01*
X150807495Y-39983847D01*
X150807497Y-39983846D01*
X150988695Y-39871654D01*
X150988697Y-39871652D01*
X151014265Y-39848343D01*
X150546652Y-39380730D01*
X150599707Y-39350099D01*
X150692799Y-39257007D01*
X150723430Y-39203952D01*
X151189806Y-39670328D01*
X151274631Y-39558002D01*
X151274640Y-39557987D01*
X151369635Y-39367210D01*
X151427961Y-39162216D01*
X151447626Y-38950000D01*
X151427961Y-38737783D01*
X151369635Y-38532789D01*
X151274642Y-38342016D01*
X151274637Y-38342007D01*
X151189805Y-38229672D01*
X150723429Y-38696046D01*
X150692799Y-38642993D01*
X150599707Y-38549901D01*
X150546650Y-38519269D01*
X151014265Y-38051655D01*
X151014265Y-38051654D01*
X150988704Y-38028352D01*
X150988705Y-38028352D01*
X150807493Y-37916152D01*
X150608758Y-37839161D01*
X150399263Y-37800000D01*
X150186137Y-37800000D01*
X149976641Y-37839161D01*
X149777906Y-37916152D01*
X149596698Y-38028350D01*
X149571133Y-38051655D01*
X150038747Y-38519269D01*
X149985693Y-38549901D01*
X149892601Y-38642993D01*
X149861969Y-38696047D01*
X149395593Y-38229671D01*
X149310766Y-38342001D01*
X149310757Y-38342016D01*
X149215764Y-38532789D01*
X149157438Y-38737783D01*
X149137773Y-38950000D01*
X148818331Y-38950000D01*
X148818331Y-38949996D01*
X148797856Y-38742110D01*
X148797855Y-38742105D01*
X148779459Y-38681465D01*
X148737215Y-38542201D01*
X148713326Y-38497507D01*
X148638747Y-38357978D01*
X148638742Y-38357971D01*
X148638740Y-38357967D01*
X148533450Y-38229671D01*
X148506219Y-38196489D01*
X148506210Y-38196480D01*
X148412070Y-38119222D01*
X148344733Y-38063960D01*
X148344730Y-38063958D01*
X148344721Y-38063952D01*
X148160504Y-37965487D01*
X148160499Y-37965485D01*
X147960594Y-37904844D01*
X147960589Y-37904843D01*
X147752703Y-37884369D01*
X147752697Y-37884369D01*
X147544810Y-37904843D01*
X147544805Y-37904844D01*
X147344900Y-37965485D01*
X147344895Y-37965487D01*
X147160678Y-38063952D01*
X147160668Y-38063959D01*
X146999189Y-38196480D01*
X146999180Y-38196489D01*
X146866659Y-38357968D01*
X146866652Y-38357978D01*
X146768187Y-38542195D01*
X146768185Y-38542200D01*
X146707544Y-38742105D01*
X146707543Y-38742110D01*
X146687069Y-38949996D01*
X146278331Y-38949996D01*
X146257856Y-38742110D01*
X146257855Y-38742105D01*
X146239459Y-38681465D01*
X146197215Y-38542201D01*
X146173326Y-38497507D01*
X146098747Y-38357978D01*
X146098742Y-38357971D01*
X146098740Y-38357967D01*
X145993450Y-38229671D01*
X145966219Y-38196489D01*
X145966210Y-38196480D01*
X145872070Y-38119222D01*
X145804733Y-38063960D01*
X145804730Y-38063958D01*
X145804721Y-38063952D01*
X145620504Y-37965487D01*
X145620499Y-37965485D01*
X145420594Y-37904844D01*
X145420589Y-37904843D01*
X145212703Y-37884369D01*
X145212697Y-37884369D01*
X145004810Y-37904843D01*
X145004805Y-37904844D01*
X144804900Y-37965485D01*
X144804895Y-37965487D01*
X144620678Y-38063952D01*
X144620668Y-38063959D01*
X144459189Y-38196480D01*
X144459180Y-38196489D01*
X144326659Y-38357968D01*
X144326652Y-38357978D01*
X144228187Y-38542195D01*
X144228185Y-38542200D01*
X144167544Y-38742105D01*
X144167543Y-38742110D01*
X144147069Y-38949996D01*
X143738331Y-38949996D01*
X143717856Y-38742110D01*
X143717855Y-38742105D01*
X143699459Y-38681465D01*
X143657215Y-38542201D01*
X143633326Y-38497507D01*
X143558747Y-38357978D01*
X143558742Y-38357971D01*
X143558740Y-38357967D01*
X143453450Y-38229671D01*
X143426219Y-38196489D01*
X143426210Y-38196480D01*
X143332070Y-38119222D01*
X143264733Y-38063960D01*
X143264730Y-38063958D01*
X143264721Y-38063952D01*
X143080504Y-37965487D01*
X143080499Y-37965485D01*
X142880594Y-37904844D01*
X142880589Y-37904843D01*
X142672703Y-37884369D01*
X142672697Y-37884369D01*
X142464810Y-37904843D01*
X142464805Y-37904844D01*
X142264900Y-37965485D01*
X142264895Y-37965487D01*
X142080678Y-38063952D01*
X142080668Y-38063959D01*
X141919189Y-38196480D01*
X141919180Y-38196489D01*
X141786659Y-38357968D01*
X141786652Y-38357978D01*
X141688187Y-38542195D01*
X141688185Y-38542200D01*
X141627544Y-38742105D01*
X141627543Y-38742110D01*
X141607069Y-38949996D01*
X141198331Y-38949996D01*
X141177856Y-38742110D01*
X141177855Y-38742105D01*
X141159459Y-38681465D01*
X141117215Y-38542201D01*
X141093326Y-38497507D01*
X141018747Y-38357978D01*
X141018742Y-38357971D01*
X141018740Y-38357967D01*
X140913450Y-38229671D01*
X140886219Y-38196489D01*
X140886210Y-38196480D01*
X140792070Y-38119222D01*
X140724733Y-38063960D01*
X140724730Y-38063958D01*
X140724721Y-38063952D01*
X140540504Y-37965487D01*
X140540499Y-37965485D01*
X140340594Y-37904844D01*
X140340589Y-37904843D01*
X140132703Y-37884369D01*
X140132697Y-37884369D01*
X139924810Y-37904843D01*
X139924805Y-37904844D01*
X139724900Y-37965485D01*
X139724895Y-37965487D01*
X139540678Y-38063952D01*
X139540668Y-38063959D01*
X139379189Y-38196480D01*
X139379180Y-38196489D01*
X139246659Y-38357968D01*
X139246652Y-38357978D01*
X139148187Y-38542195D01*
X139148185Y-38542200D01*
X139087544Y-38742105D01*
X139087543Y-38742110D01*
X139067069Y-38949996D01*
X138658331Y-38949996D01*
X138637856Y-38742110D01*
X138637855Y-38742105D01*
X138619459Y-38681465D01*
X138577215Y-38542201D01*
X138553326Y-38497507D01*
X138478747Y-38357978D01*
X138478742Y-38357971D01*
X138478740Y-38357967D01*
X138373450Y-38229671D01*
X138346219Y-38196489D01*
X138346210Y-38196480D01*
X138252070Y-38119222D01*
X138184733Y-38063960D01*
X138184730Y-38063958D01*
X138184721Y-38063952D01*
X138000504Y-37965487D01*
X138000499Y-37965485D01*
X137800594Y-37904844D01*
X137800589Y-37904843D01*
X137592703Y-37884369D01*
X137592697Y-37884369D01*
X137384810Y-37904843D01*
X137384805Y-37904844D01*
X137184900Y-37965485D01*
X137184895Y-37965487D01*
X137000678Y-38063952D01*
X137000668Y-38063959D01*
X136839189Y-38196480D01*
X136839180Y-38196489D01*
X136706659Y-38357968D01*
X136706652Y-38357978D01*
X136608187Y-38542195D01*
X136608185Y-38542200D01*
X136547544Y-38742105D01*
X136547543Y-38742110D01*
X136527069Y-38949996D01*
X136118331Y-38949996D01*
X136097856Y-38742110D01*
X136097855Y-38742105D01*
X136079459Y-38681465D01*
X136037215Y-38542201D01*
X136013326Y-38497507D01*
X135938747Y-38357978D01*
X135938742Y-38357971D01*
X135938740Y-38357967D01*
X135833450Y-38229671D01*
X135806219Y-38196489D01*
X135806210Y-38196480D01*
X135712070Y-38119222D01*
X135644733Y-38063960D01*
X135644730Y-38063958D01*
X135644721Y-38063952D01*
X135460504Y-37965487D01*
X135460499Y-37965485D01*
X135260594Y-37904844D01*
X135260589Y-37904843D01*
X135052703Y-37884369D01*
X135052697Y-37884369D01*
X134844810Y-37904843D01*
X134844805Y-37904844D01*
X134644900Y-37965485D01*
X134644895Y-37965487D01*
X134460678Y-38063952D01*
X134460668Y-38063959D01*
X134299189Y-38196480D01*
X134299180Y-38196489D01*
X134166659Y-38357968D01*
X134166652Y-38357978D01*
X134068187Y-38542195D01*
X134068185Y-38542200D01*
X134007544Y-38742105D01*
X134007543Y-38742110D01*
X133987069Y-38949996D01*
X133578331Y-38949996D01*
X133557856Y-38742110D01*
X133557855Y-38742105D01*
X133539459Y-38681465D01*
X133497215Y-38542201D01*
X133473326Y-38497507D01*
X133398747Y-38357978D01*
X133398742Y-38357971D01*
X133398740Y-38357967D01*
X133293450Y-38229671D01*
X133266219Y-38196489D01*
X133266210Y-38196480D01*
X133172070Y-38119222D01*
X133104733Y-38063960D01*
X133104730Y-38063958D01*
X133104721Y-38063952D01*
X132920504Y-37965487D01*
X132920499Y-37965485D01*
X132720594Y-37904844D01*
X132720589Y-37904843D01*
X132512703Y-37884369D01*
X132512697Y-37884369D01*
X132304810Y-37904843D01*
X132304805Y-37904844D01*
X132104900Y-37965485D01*
X132104895Y-37965487D01*
X131920678Y-38063952D01*
X131920668Y-38063959D01*
X131759189Y-38196480D01*
X131759180Y-38196489D01*
X131626659Y-38357968D01*
X131626652Y-38357978D01*
X131528187Y-38542195D01*
X131528185Y-38542200D01*
X131467544Y-38742105D01*
X131467543Y-38742110D01*
X131447069Y-38949996D01*
X131038331Y-38949996D01*
X131017856Y-38742110D01*
X131017855Y-38742105D01*
X130999459Y-38681465D01*
X130957215Y-38542201D01*
X130933326Y-38497507D01*
X130858747Y-38357978D01*
X130858742Y-38357971D01*
X130858740Y-38357967D01*
X130753450Y-38229671D01*
X130726219Y-38196489D01*
X130726210Y-38196480D01*
X130632070Y-38119222D01*
X130564733Y-38063960D01*
X130564730Y-38063958D01*
X130564721Y-38063952D01*
X130380504Y-37965487D01*
X130380499Y-37965485D01*
X130180594Y-37904844D01*
X130180589Y-37904843D01*
X129972703Y-37884369D01*
X129972697Y-37884369D01*
X129764810Y-37904843D01*
X129764805Y-37904844D01*
X129564900Y-37965485D01*
X129564895Y-37965487D01*
X129380678Y-38063952D01*
X129380668Y-38063959D01*
X129219189Y-38196480D01*
X129219180Y-38196489D01*
X129086659Y-38357968D01*
X129086652Y-38357978D01*
X128988187Y-38542195D01*
X128988185Y-38542200D01*
X128927544Y-38742105D01*
X128927543Y-38742110D01*
X128907069Y-38949996D01*
X128493200Y-38949996D01*
X128493200Y-38438350D01*
X128490476Y-38403738D01*
X128447442Y-38255614D01*
X128432099Y-38229671D01*
X128368925Y-38122849D01*
X128368924Y-38122848D01*
X128368923Y-38122846D01*
X128259854Y-38013777D01*
X128259851Y-38013775D01*
X128259850Y-38013774D01*
X128127088Y-37935259D01*
X128127087Y-37935258D01*
X128127086Y-37935258D01*
X127978962Y-37892224D01*
X127978961Y-37892223D01*
X127978958Y-37892223D01*
X127956971Y-37890493D01*
X127944350Y-37889500D01*
X126921050Y-37889500D01*
X126909286Y-37890425D01*
X126886441Y-37892223D01*
X126886434Y-37892225D01*
X126738311Y-37935259D01*
X126738310Y-37935259D01*
X126605549Y-38013774D01*
X126496474Y-38122849D01*
X126417959Y-38255610D01*
X126417959Y-38255611D01*
X126374925Y-38403734D01*
X126374923Y-38403741D01*
X126372200Y-38438355D01*
X114022245Y-38438355D01*
X114110639Y-38224952D01*
X114186993Y-37939993D01*
X114225500Y-37647506D01*
X114225500Y-37352494D01*
X114186993Y-37060007D01*
X114110639Y-36775048D01*
X113997743Y-36502493D01*
X113850238Y-36247006D01*
X113850235Y-36247002D01*
X113670651Y-36012964D01*
X113670649Y-36012962D01*
X113670646Y-36012958D01*
X113477189Y-35819501D01*
X113449414Y-35764987D01*
X113458985Y-35704555D01*
X113502250Y-35661290D01*
X113547195Y-35650500D01*
X164202805Y-35650500D01*
X164260996Y-35669407D01*
G37*
%TD.AperFunction*%
%TD*%
M02*
