%TF.GenerationSoftware,KiCad,Pcbnew,8.0.2*%
%TF.CreationDate,2024-05-14T20:52:12+07:00*%
%TF.ProjectId,HW.ACIM-DBG,48572e41-4349-44d2-9d44-42472e6b6963,0.0*%
%TF.SameCoordinates,Original*%
%TF.FileFunction,Plated,1,4,PTH,Mixed*%
%TF.FilePolarity,Positive*%
%FSLAX46Y46*%
G04 Gerber Fmt 4.6, Leading zero omitted, Abs format (unit mm)*
G04 Created by KiCad (PCBNEW 8.0.2) date 2024-05-14 20:52:12*
%MOMM*%
%LPD*%
G01*
G04 APERTURE LIST*
%TA.AperFunction,ViaDrill*%
%ADD10C,0.300000*%
%TD*%
G04 aperture for slot hole*
%TA.AperFunction,ComponentDrill*%
%ADD11C,0.500000*%
%TD*%
%TA.AperFunction,ComponentDrill*%
%ADD12C,1.000000*%
%TD*%
G04 APERTURE END LIST*
D10*
X110562700Y-44450000D03*
X110562700Y-49450000D03*
X110562700Y-54450000D03*
X110562700Y-59450000D03*
X110562700Y-64450000D03*
X110562700Y-69450000D03*
X110562700Y-74450000D03*
X110562700Y-79450000D03*
X110562700Y-84450000D03*
X110562700Y-89450000D03*
X110562700Y-94450000D03*
X115562700Y-36150000D03*
X115562700Y-39450000D03*
X115562700Y-44450000D03*
X115562700Y-49450000D03*
X115562700Y-54450000D03*
X115562700Y-74450000D03*
X115975000Y-58860200D03*
X115975000Y-61400200D03*
X115975000Y-63940200D03*
X115975000Y-66480200D03*
X115975000Y-69020200D03*
X115975000Y-71560200D03*
X115975000Y-79180200D03*
X116962700Y-84450000D03*
X116962700Y-89450000D03*
X116962700Y-94450000D03*
X116962700Y-99450000D03*
X118675000Y-74100200D03*
X118675000Y-75700200D03*
X118675000Y-79180200D03*
X119750000Y-69800200D03*
X120562700Y-36150000D03*
X120562700Y-41150000D03*
X120562700Y-46150000D03*
X120562700Y-51150000D03*
X120562700Y-56150000D03*
X120562700Y-61150000D03*
X120562700Y-65650000D03*
X121375000Y-70900200D03*
X121375000Y-72500200D03*
X121375000Y-74100200D03*
X121375000Y-75700200D03*
X121962700Y-99450000D03*
X122817000Y-66450200D03*
X123067000Y-82450200D03*
X123067000Y-84450200D03*
X123067000Y-86450200D03*
X123067000Y-88450200D03*
X123362700Y-78700000D03*
X123767000Y-69600200D03*
X124012700Y-94550000D03*
X124067000Y-89450200D03*
X124962700Y-78700000D03*
X124962700Y-80425000D03*
X125062700Y-93825000D03*
X125062700Y-95450000D03*
X125067000Y-83650200D03*
X125067000Y-85650200D03*
X125067000Y-87650200D03*
X125067000Y-89450200D03*
X125225000Y-67175200D03*
X125517000Y-68600200D03*
X125562700Y-36150000D03*
X125562700Y-41150000D03*
X125562700Y-46150000D03*
X125562700Y-51150000D03*
X125562700Y-56150000D03*
X125562700Y-61750000D03*
X125967000Y-78700200D03*
X126017000Y-66450200D03*
X126067000Y-71150200D03*
X126067000Y-72600200D03*
X126067000Y-74050200D03*
X126067000Y-82650200D03*
X126517000Y-68600200D03*
X126962700Y-97825000D03*
X126962700Y-99450000D03*
X127067000Y-81400200D03*
X127432700Y-41500000D03*
X127432700Y-44200000D03*
X127517000Y-71150200D03*
X127517000Y-72600200D03*
X127517000Y-74050200D03*
X127617000Y-66450200D03*
X128067000Y-88600200D03*
X128517000Y-68600200D03*
X128562700Y-78700000D03*
X128967000Y-71150200D03*
X128967000Y-72600200D03*
X128967000Y-74050200D03*
X129217000Y-66450200D03*
X129574385Y-87150000D03*
X129574385Y-90150000D03*
X129574385Y-93150000D03*
X130162700Y-78700000D03*
X130312700Y-99450000D03*
X130425000Y-42700000D03*
X130425000Y-46600000D03*
X130425000Y-50600000D03*
X130425000Y-54600000D03*
X130425000Y-58600000D03*
X130425000Y-62600000D03*
X130425000Y-64600000D03*
X130562700Y-36150000D03*
X130762700Y-41450000D03*
X130817000Y-66450200D03*
X130817000Y-67950200D03*
X130817000Y-68850200D03*
X131517000Y-73100200D03*
X131517000Y-74100200D03*
X131574385Y-85150000D03*
X131762700Y-40450000D03*
X131762700Y-78700000D03*
X132267000Y-73600200D03*
X132267000Y-74600200D03*
X132425000Y-44600000D03*
X132425000Y-48600000D03*
X132425000Y-52600000D03*
X132425000Y-55600000D03*
X132425000Y-58600000D03*
X132425000Y-61600000D03*
X132462700Y-41450000D03*
X132562700Y-64350000D03*
X133574385Y-83150000D03*
X133667000Y-75800200D03*
X133767000Y-71600200D03*
X133867000Y-81400200D03*
X133962700Y-66650000D03*
X134762700Y-64550000D03*
X134767000Y-81400200D03*
X135052700Y-41500000D03*
X135562700Y-36150000D03*
X135562700Y-46150000D03*
X135562700Y-51150000D03*
X135562700Y-56150000D03*
X135562700Y-62750000D03*
X135562700Y-71150000D03*
X135562700Y-76150000D03*
X137562700Y-64550000D03*
X137592700Y-41500000D03*
X139574385Y-79150000D03*
X139862700Y-62750000D03*
X140132700Y-41500000D03*
X140562700Y-36150000D03*
X140562700Y-46150000D03*
X140562700Y-51150000D03*
X140562700Y-56150000D03*
X140562700Y-64550000D03*
X140975000Y-61750000D03*
X141425000Y-41500000D03*
X141775000Y-62550000D03*
X142162700Y-70150000D03*
X142162700Y-75150000D03*
X142672700Y-41500000D03*
X143574385Y-79150000D03*
X143725000Y-59000000D03*
X143725000Y-64650000D03*
X143725000Y-66250000D03*
X143725000Y-67850000D03*
X143925000Y-41500000D03*
X145225000Y-41500000D03*
X145562700Y-36150000D03*
X146025000Y-54450000D03*
X146025000Y-56050000D03*
X146425000Y-57400000D03*
X146425000Y-59000000D03*
X146425000Y-62550000D03*
X146425000Y-66250000D03*
X146425000Y-67850000D03*
X146525000Y-41500000D03*
X146525000Y-46100000D03*
X147150000Y-68800000D03*
X147162700Y-75150000D03*
X147625000Y-51750000D03*
X147625000Y-54450000D03*
X147752700Y-41500000D03*
X147975000Y-59000000D03*
X148050000Y-67850000D03*
X148575000Y-62500000D03*
X148575000Y-63500000D03*
X148575000Y-64500000D03*
X149574385Y-79150000D03*
X150562700Y-36150000D03*
X150575000Y-68075000D03*
X150725000Y-41150000D03*
X150725000Y-43250000D03*
X151075000Y-56500000D03*
X151325000Y-59300000D03*
X151325000Y-61250000D03*
X151325000Y-63250000D03*
X151625000Y-45100000D03*
X151625000Y-50300000D03*
X152162700Y-70150000D03*
X152575000Y-54450000D03*
X153275000Y-46525000D03*
X153275000Y-47825000D03*
X153275000Y-59250000D03*
X153325000Y-49125000D03*
X153325000Y-61250000D03*
X153325000Y-63250000D03*
X153574385Y-79150000D03*
X153575000Y-66650000D03*
X154075000Y-56500000D03*
X154075000Y-66000000D03*
X154475000Y-51750000D03*
X154575000Y-55850000D03*
X154575000Y-66650000D03*
X155075000Y-56500000D03*
X155075000Y-66000000D03*
X155275000Y-47175000D03*
X155275000Y-50150000D03*
X155275000Y-51025000D03*
X155325000Y-59250000D03*
X155325000Y-61250000D03*
X155325000Y-63250000D03*
X155562700Y-36150000D03*
X155562700Y-41150000D03*
X156075000Y-51750000D03*
X156875000Y-54500000D03*
X157162700Y-70150000D03*
X157562700Y-75650000D03*
X157562700Y-76550000D03*
X157562700Y-77450000D03*
X157574385Y-79150000D03*
X157962700Y-45150000D03*
X157975000Y-50150000D03*
X158075000Y-58000000D03*
X158075000Y-61950000D03*
X158075000Y-63000000D03*
X159275000Y-55925000D03*
X159774385Y-82950000D03*
X159774385Y-86550000D03*
X159774385Y-90850000D03*
X159802700Y-95350000D03*
X160225000Y-59900000D03*
X160225000Y-61500000D03*
X160562700Y-36150000D03*
X160562700Y-41150000D03*
X161087500Y-99412500D03*
X161112700Y-75900000D03*
X161502700Y-96850000D03*
X162162700Y-55150000D03*
X162162700Y-65150000D03*
X162162700Y-70150000D03*
X162162700Y-75175000D03*
X162174385Y-84350000D03*
X163212700Y-75900000D03*
X163602700Y-95350000D03*
X164174385Y-92550000D03*
X167162700Y-40150000D03*
X167162700Y-45150000D03*
X167162700Y-50150000D03*
X167162700Y-55150000D03*
X167162700Y-60150000D03*
X167162700Y-65150000D03*
X167162700Y-70150000D03*
X167162700Y-75150000D03*
X167162700Y-80150000D03*
X167162700Y-85150000D03*
X167162700Y-90150000D03*
X170924385Y-92277911D03*
X171256350Y-99243650D03*
X172524385Y-93002911D03*
X174174385Y-94850000D03*
X175624385Y-91077911D03*
X176087500Y-99412500D03*
X179275100Y-96580100D03*
X180875100Y-96580100D03*
X181087500Y-99412500D03*
X186087500Y-99412500D03*
X186887500Y-92912500D03*
X192675100Y-94830100D03*
X193287500Y-99412500D03*
X193625100Y-94830100D03*
X194087500Y-96612500D03*
X194087500Y-98412500D03*
X195787500Y-91212500D03*
X195787500Y-95312500D03*
X195787500Y-99412500D03*
X199787500Y-91212500D03*
X199787500Y-99412500D03*
X202362700Y-91250000D03*
X202362700Y-99350000D03*
X203862700Y-92750000D03*
X203862700Y-97950000D03*
X203887500Y-95312500D03*
D11*
%TO.C,J2*%
X182825100Y-92675100D02*
X182825100Y-91375100D01*
X182825100Y-96725100D02*
X182825100Y-95425100D01*
X191025100Y-92675100D02*
X191025100Y-91375100D01*
X191025100Y-96725100D02*
X191025100Y-95425100D01*
D12*
%TO.C,J3*%
X113425000Y-56320200D03*
X113425000Y-58860200D03*
X113425000Y-61400200D03*
X113425000Y-63940200D03*
X113425000Y-66480200D03*
X113425000Y-69020200D03*
X113425000Y-71560200D03*
X113425000Y-74100200D03*
X113425000Y-76640200D03*
X113425000Y-79180200D03*
%TO.C,J1*%
X127432700Y-38950000D03*
X129972700Y-38950000D03*
X132512700Y-38950000D03*
X135052700Y-38950000D03*
X137592700Y-38950000D03*
X140132700Y-38950000D03*
%TO.C,J4*%
X142552700Y-92575000D03*
%TO.C,J1*%
X142672700Y-38950000D03*
%TO.C,J4*%
X145092700Y-92575000D03*
%TO.C,J1*%
X145212700Y-38950000D03*
%TO.C,J4*%
X147632700Y-92575000D03*
%TO.C,J1*%
X147752700Y-38950000D03*
%TO.C,J4*%
X150172700Y-92575000D03*
%TO.C,J1*%
X150292700Y-38950000D03*
M02*
