%TF.GenerationSoftware,KiCad,Pcbnew,8.0.2*%
%TF.CreationDate,2024-05-14T20:52:20+07:00*%
%TF.ProjectId,HW.ACIM-DBG,48572e41-4349-44d2-9d44-42472e6b6963,0.0*%
%TF.SameCoordinates,Original*%
%TF.FileFunction,Paste,Top*%
%TF.FilePolarity,Positive*%
%FSLAX46Y46*%
G04 Gerber Fmt 4.6, Leading zero omitted, Abs format (unit mm)*
G04 Created by KiCad (PCBNEW 8.0.2) date 2024-05-14 20:52:20*
%MOMM*%
%LPD*%
G01*
G04 APERTURE LIST*
G04 Aperture macros list*
%AMRoundRect*
0 Rectangle with rounded corners*
0 $1 Rounding radius*
0 $2 $3 $4 $5 $6 $7 $8 $9 X,Y pos of 4 corners*
0 Add a 4 corners polygon primitive as box body*
4,1,4,$2,$3,$4,$5,$6,$7,$8,$9,$2,$3,0*
0 Add four circle primitives for the rounded corners*
1,1,$1+$1,$2,$3*
1,1,$1+$1,$4,$5*
1,1,$1+$1,$6,$7*
1,1,$1+$1,$8,$9*
0 Add four rect primitives between the rounded corners*
20,1,$1+$1,$2,$3,$4,$5,0*
20,1,$1+$1,$4,$5,$6,$7,0*
20,1,$1+$1,$6,$7,$8,$9,0*
20,1,$1+$1,$8,$9,$2,$3,0*%
G04 Aperture macros list end*
%ADD10R,0.650000X1.000000*%
%ADD11R,1.000000X0.650000*%
%ADD12R,2.500000X1.300000*%
%ADD13C,1.000000*%
%ADD14R,0.700000X0.300000*%
%ADD15R,0.900000X1.700000*%
%ADD16R,0.300000X0.700000*%
%ADD17R,0.800000X0.500000*%
%ADD18R,0.350000X3.250000*%
%ADD19R,0.800000X0.900000*%
%ADD20R,0.600000X1.100000*%
%ADD21R,1.450000X0.550000*%
%ADD22R,0.800000X0.800000*%
%ADD23R,0.900000X1.000000*%
%ADD24R,0.600000X0.900000*%
%ADD25R,0.600000X0.500000*%
%ADD26R,1.500000X1.000000*%
%ADD27R,6.000000X6.000000*%
%ADD28R,0.800000X1.700000*%
%ADD29R,1.000000X0.350000*%
%ADD30R,3.500000X1.600000*%
%ADD31O,0.900000X0.300000*%
%ADD32O,0.300000X0.900000*%
%ADD33RoundRect,0.185000X1.665000X1.665000X-1.665000X1.665000X-1.665000X-1.665000X1.665000X-1.665000X0*%
%ADD34R,1.300000X2.500000*%
G04 APERTURE END LIST*
D10*
%TO.C,C43*%
X145700000Y-63050000D03*
X147150000Y-63050000D03*
%TD*%
D11*
%TO.C,R33*%
X153925000Y-43975000D03*
X153925000Y-42525000D03*
%TD*%
%TO.C,C4*%
X164174385Y-93275000D03*
X164174385Y-91825000D03*
%TD*%
D10*
%TO.C,C47*%
X163650000Y-59900000D03*
X162200000Y-59900000D03*
%TD*%
%TO.C,R47*%
X145700000Y-67850000D03*
X147150000Y-67850000D03*
%TD*%
D11*
%TO.C,C23*%
X127617000Y-65725200D03*
X127617000Y-67175200D03*
%TD*%
D10*
%TO.C,C26*%
X120650000Y-70900200D03*
X122100000Y-70900200D03*
%TD*%
D12*
%TO.C,C1*%
X155162700Y-85750000D03*
X155162700Y-82950000D03*
%TD*%
D10*
%TO.C,C38*%
X144450000Y-59000000D03*
X143000000Y-59000000D03*
%TD*%
D11*
%TO.C,R15*%
X146025000Y-52475000D03*
X146025000Y-51025000D03*
%TD*%
D10*
%TO.C,R6*%
X115250000Y-75700200D03*
X116700000Y-75700200D03*
%TD*%
%TO.C,R2*%
X116700000Y-79180200D03*
X115250000Y-79180200D03*
%TD*%
D11*
%TO.C,R34*%
X155525000Y-43975000D03*
X155525000Y-42525000D03*
%TD*%
%TO.C,R26*%
X140132700Y-40775000D03*
X140132700Y-42225000D03*
%TD*%
%TO.C,R48*%
X174124385Y-92277911D03*
X174124385Y-93727911D03*
%TD*%
D10*
%TO.C,R35*%
X162200000Y-43300000D03*
X163650000Y-43300000D03*
%TD*%
%TO.C,C48*%
X160950000Y-59900000D03*
X159500000Y-59900000D03*
%TD*%
D11*
%TO.C,C29*%
X130817000Y-65725200D03*
X130817000Y-67175200D03*
%TD*%
%TO.C,C45*%
X157675000Y-53725000D03*
X157675000Y-55175000D03*
%TD*%
D10*
%TO.C,R42*%
X162200000Y-56700000D03*
X163650000Y-56700000D03*
%TD*%
%TO.C,R16*%
X144450000Y-66250000D03*
X143000000Y-66250000D03*
%TD*%
D11*
%TO.C,C46*%
X156075000Y-53725000D03*
X156075000Y-55175000D03*
%TD*%
D13*
%TO.C,TP3*%
X169862700Y-92850000D03*
%TD*%
D10*
%TO.C,R41*%
X162200000Y-58300000D03*
X163650000Y-58300000D03*
%TD*%
D11*
%TO.C,C36*%
X159275000Y-53725000D03*
X159275000Y-55175000D03*
%TD*%
D10*
%TO.C,R49*%
X117950000Y-79180200D03*
X119400000Y-79180200D03*
%TD*%
D14*
%TO.C,FT6*%
X147100000Y-61500000D03*
X145850000Y-61500000D03*
X145850000Y-61000000D03*
X147100000Y-61000000D03*
%TD*%
D15*
%TO.C,C5*%
X156862700Y-97850000D03*
X159862700Y-97850000D03*
%TD*%
D11*
%TO.C,R12*%
X123362700Y-79425000D03*
X123362700Y-77975000D03*
%TD*%
D10*
%TO.C,R40*%
X162200000Y-51700000D03*
X163650000Y-51700000D03*
%TD*%
D11*
%TO.C,C9*%
X180875100Y-95855100D03*
X180875100Y-97305100D03*
%TD*%
%TO.C,R3*%
X177474385Y-93727911D03*
X177474385Y-92277911D03*
%TD*%
D10*
%TO.C,C28*%
X134392000Y-72600200D03*
X132942000Y-72600200D03*
%TD*%
D16*
%TO.C,FT11*%
X192925100Y-97205100D03*
X192925100Y-95955100D03*
X193425100Y-95955100D03*
X193425100Y-97205100D03*
%TD*%
D10*
%TO.C,C41*%
X143000000Y-64650000D03*
X144450000Y-64650000D03*
%TD*%
%TO.C,R22*%
X116700000Y-61400200D03*
X115250000Y-61400200D03*
%TD*%
D13*
%TO.C,TP4*%
X154012700Y-76550000D03*
%TD*%
D11*
%TO.C,C11*%
X175724385Y-92277911D03*
X175724385Y-93727911D03*
%TD*%
D10*
%TO.C,C3*%
X151037700Y-89750000D03*
X152487700Y-89750000D03*
%TD*%
%TO.C,R5*%
X117950000Y-74100200D03*
X119400000Y-74100200D03*
%TD*%
D17*
%TO.C,D2*%
X166575000Y-57050000D03*
X164975000Y-57050000D03*
X164975000Y-57950000D03*
X166575000Y-57950000D03*
%TD*%
D11*
%TO.C,C50*%
X152575000Y-53725000D03*
X152575000Y-55175000D03*
%TD*%
D18*
%TO.C,J2*%
X185625100Y-96580100D03*
X186275100Y-96580100D03*
X186925100Y-96580100D03*
X187575100Y-96580100D03*
X188225100Y-96580100D03*
%TD*%
D19*
%TO.C,Q2*%
X181025100Y-92280100D03*
X179124385Y-92277911D03*
X180075100Y-94480100D03*
%TD*%
D11*
%TO.C,C51*%
X150725000Y-42525000D03*
X150725000Y-43975000D03*
%TD*%
%TO.C,C53*%
X163212700Y-75175000D03*
X163212700Y-76625000D03*
%TD*%
D10*
%TO.C,R13*%
X117950000Y-70900200D03*
X119400000Y-70900200D03*
%TD*%
D11*
%TO.C,C49*%
X150575000Y-68800000D03*
X150575000Y-67350000D03*
%TD*%
%TO.C,R23*%
X137592700Y-40775000D03*
X137592700Y-42225000D03*
%TD*%
D12*
%TO.C,C2*%
X162162700Y-85750000D03*
X162162700Y-82950000D03*
%TD*%
D11*
%TO.C,R28*%
X145225000Y-40775000D03*
X145225000Y-42225000D03*
%TD*%
D10*
%TO.C,C31*%
X134392000Y-75800200D03*
X132942000Y-75800200D03*
%TD*%
%TO.C,FT8*%
X147150000Y-64650000D03*
X145700000Y-64650000D03*
%TD*%
D20*
%TO.C,U1*%
X161212700Y-80900000D03*
X162162700Y-80900000D03*
X163112700Y-80900000D03*
X163112700Y-78100000D03*
X161212700Y-78100000D03*
%TD*%
D11*
%TO.C,R9*%
X133362700Y-77975000D03*
X133362700Y-79425000D03*
%TD*%
D10*
%TO.C,R7*%
X119400000Y-75700200D03*
X117950000Y-75700200D03*
%TD*%
D11*
%TO.C,C13*%
X125062700Y-94550000D03*
X125062700Y-93100000D03*
%TD*%
%TO.C,C33*%
X147625000Y-52475000D03*
X147625000Y-51025000D03*
%TD*%
D10*
%TO.C,C37*%
X160950000Y-61500000D03*
X159500000Y-61500000D03*
%TD*%
%TO.C,R37*%
X162200000Y-48300000D03*
X163650000Y-48300000D03*
%TD*%
D11*
%TO.C,R46*%
X127432700Y-43475000D03*
X127432700Y-44925000D03*
%TD*%
D21*
%TO.C,U3*%
X136662700Y-95550000D03*
X136662700Y-94280000D03*
X136662700Y-93010000D03*
X136662700Y-91740000D03*
X136662700Y-90470000D03*
X136662700Y-89200000D03*
X136662700Y-87930000D03*
X136662700Y-86660000D03*
X126962700Y-86660000D03*
X126962700Y-87930000D03*
X126962700Y-89200000D03*
X126962700Y-90470000D03*
X126962700Y-91740000D03*
X126962700Y-93010000D03*
X126962700Y-94280000D03*
X126962700Y-95550000D03*
%TD*%
D22*
%TO.C,D6*%
X136712700Y-97075000D03*
X136712700Y-98575000D03*
%TD*%
D17*
%TO.C,D3*%
X166575000Y-52050000D03*
X164975000Y-52050000D03*
X164975000Y-52950000D03*
X166575000Y-52950000D03*
%TD*%
D11*
%TO.C,C30*%
X124962700Y-79425000D03*
X124962700Y-77975000D03*
%TD*%
%TO.C,C15*%
X126962700Y-98550000D03*
X126962700Y-97100000D03*
%TD*%
%TO.C,R30*%
X152325000Y-43975000D03*
X152325000Y-42525000D03*
%TD*%
D10*
%TO.C,R44*%
X143000000Y-67850000D03*
X144450000Y-67850000D03*
%TD*%
%TO.C,C42*%
X143000000Y-63050000D03*
X144450000Y-63050000D03*
%TD*%
D19*
%TO.C,Q1*%
X177625100Y-95105100D03*
X175724385Y-95102911D03*
X176675100Y-97305100D03*
%TD*%
D10*
%TO.C,C39*%
X145700000Y-57400000D03*
X147150000Y-57400000D03*
%TD*%
D11*
%TO.C,C19*%
X133867000Y-80675200D03*
X133867000Y-82125200D03*
%TD*%
%TO.C,R27*%
X147752700Y-40775000D03*
X147752700Y-42225000D03*
%TD*%
D10*
%TO.C,R36*%
X162200000Y-41700000D03*
X163650000Y-41700000D03*
%TD*%
D13*
%TO.C,TP5*%
X169862700Y-97850000D03*
%TD*%
D10*
%TO.C,R17*%
X116700000Y-69020200D03*
X115250000Y-69020200D03*
%TD*%
D11*
%TO.C,C10*%
X179275100Y-95855100D03*
X179275100Y-97305100D03*
%TD*%
D10*
%TO.C,FT1*%
X151037700Y-87550000D03*
X152487700Y-87550000D03*
%TD*%
D23*
%TO.C,U8*%
X147875000Y-47700000D03*
X145775000Y-47700000D03*
X145775000Y-49600000D03*
X147875000Y-49600000D03*
%TD*%
D17*
%TO.C,D4*%
X166575000Y-47050000D03*
X164975000Y-47050000D03*
X164975000Y-47950000D03*
X166575000Y-47950000D03*
%TD*%
D11*
%TO.C,R43*%
X172524385Y-93727911D03*
X172524385Y-92277911D03*
%TD*%
D10*
%TO.C,R14*%
X120650000Y-72500200D03*
X122100000Y-72500200D03*
%TD*%
D16*
%TO.C,FT2*%
X127017000Y-78075200D03*
X127017000Y-79325200D03*
X126517000Y-79325200D03*
X126517000Y-78075200D03*
%TD*%
D10*
%TO.C,R11*%
X119400000Y-72500200D03*
X117950000Y-72500200D03*
%TD*%
%TO.C,FT7*%
X143000000Y-57400000D03*
X144450000Y-57400000D03*
%TD*%
D23*
%TO.C,U4*%
X132262700Y-80850000D03*
X130162700Y-80850000D03*
X130162700Y-82750000D03*
X132262700Y-82750000D03*
%TD*%
D10*
%TO.C,R38*%
X162200000Y-46700000D03*
X163650000Y-46700000D03*
%TD*%
D13*
%TO.C,TP1*%
X142552700Y-83125000D03*
%TD*%
D11*
%TO.C,R32*%
X152575000Y-51025000D03*
X152575000Y-52475000D03*
%TD*%
%TO.C,R4*%
X125062700Y-90400000D03*
X125062700Y-91850000D03*
%TD*%
D10*
%TO.C,R29*%
X144450000Y-60600000D03*
X143000000Y-60600000D03*
%TD*%
%TO.C,R18*%
X116700000Y-71560200D03*
X115250000Y-71560200D03*
%TD*%
D13*
%TO.C,TP2*%
X142552700Y-87575000D03*
%TD*%
D11*
%TO.C,R1*%
X138562700Y-98550000D03*
X138562700Y-97100000D03*
%TD*%
D24*
%TO.C,D1*%
X145362700Y-87900000D03*
D25*
X145362700Y-89600000D03*
X147362700Y-89600000D03*
X147362700Y-87700000D03*
%TD*%
D26*
%TO.C,F1*%
X149262700Y-89750000D03*
X149262700Y-87550000D03*
%TD*%
D15*
%TO.C,C6*%
X133312700Y-97850000D03*
X130312700Y-97850000D03*
%TD*%
D11*
%TO.C,R45*%
X127432700Y-42225000D03*
X127432700Y-40775000D03*
%TD*%
D14*
%TO.C,U5*%
X149425000Y-58000000D03*
X149425000Y-58500000D03*
X149425000Y-59000000D03*
X149425000Y-59500000D03*
X149425000Y-60000000D03*
X149425000Y-60500000D03*
X149425000Y-61000000D03*
X149425000Y-61500000D03*
X149425000Y-62000000D03*
X149425000Y-62500000D03*
X149425000Y-63000000D03*
X149425000Y-63500000D03*
X149425000Y-64000000D03*
X149425000Y-64500000D03*
D16*
X150075000Y-65150000D03*
X150575000Y-65150000D03*
X151075000Y-65150000D03*
X151575000Y-65150000D03*
X152075000Y-65150000D03*
X152575000Y-65150000D03*
X153075000Y-65150000D03*
X153575000Y-65150000D03*
X154075000Y-65150000D03*
X154575000Y-65150000D03*
X155075000Y-65150000D03*
X155575000Y-65150000D03*
X156075000Y-65150000D03*
X156575000Y-65150000D03*
D14*
X157225000Y-64500000D03*
X157225000Y-64000000D03*
X157225000Y-63500000D03*
X157225000Y-63000000D03*
X157225000Y-62500000D03*
X157225000Y-62000000D03*
X157225000Y-61500000D03*
X157225000Y-61000000D03*
X157225000Y-60500000D03*
X157225000Y-60000000D03*
X157225000Y-59500000D03*
X157225000Y-59000000D03*
X157225000Y-58500000D03*
X157225000Y-58000000D03*
D16*
X156575000Y-57350000D03*
X156075000Y-57350000D03*
X155575000Y-57350000D03*
X155075000Y-57350000D03*
X154575000Y-57350000D03*
X154075000Y-57350000D03*
X153575000Y-57350000D03*
X153075000Y-57350000D03*
X152575000Y-57350000D03*
X152075000Y-57350000D03*
X151575000Y-57350000D03*
X151075000Y-57350000D03*
X150575000Y-57350000D03*
X150075000Y-57350000D03*
D27*
X153325000Y-61250000D03*
%TD*%
D11*
%TO.C,C44*%
X156075000Y-52475000D03*
X156075000Y-51025000D03*
%TD*%
D28*
%TO.C,MD1*%
X154552700Y-95350000D03*
X155822700Y-95350000D03*
X160902700Y-95350000D03*
X162172700Y-95350000D03*
X162172700Y-89750000D03*
X155822700Y-89750000D03*
X154552700Y-89750000D03*
%TD*%
D10*
%TO.C,R19*%
X116700000Y-63940200D03*
X115250000Y-63940200D03*
%TD*%
D29*
%TO.C,U7*%
X160275000Y-49775000D03*
X160275000Y-49125000D03*
X160275000Y-48475000D03*
X160275000Y-47825000D03*
X160275000Y-47175000D03*
X160275000Y-46525000D03*
X160275000Y-45875000D03*
X160275000Y-45225000D03*
X154275000Y-45225000D03*
X154275000Y-45875000D03*
X154275000Y-46525000D03*
X154275000Y-47175000D03*
X154275000Y-47825000D03*
X154275000Y-48475000D03*
X154275000Y-49125000D03*
X154275000Y-49775000D03*
%TD*%
D11*
%TO.C,C8*%
X161112700Y-75175000D03*
X161112700Y-76625000D03*
%TD*%
%TO.C,C16*%
X138562700Y-92850000D03*
X138562700Y-91400000D03*
%TD*%
%TO.C,R24*%
X135052700Y-40775000D03*
X135052700Y-42225000D03*
%TD*%
%TO.C,C18*%
X128562700Y-79425000D03*
X128562700Y-77975000D03*
%TD*%
D10*
%TO.C,C14*%
X120650000Y-75700200D03*
X122100000Y-75700200D03*
%TD*%
%TO.C,C34*%
X145700000Y-66250000D03*
X147150000Y-66250000D03*
%TD*%
D20*
%TO.C,U6*%
X150675000Y-48900000D03*
X151625000Y-48900000D03*
X152575000Y-48900000D03*
X152575000Y-46100000D03*
X151625000Y-46100000D03*
X150675000Y-46100000D03*
%TD*%
D11*
%TO.C,FT4*%
X124417000Y-65725200D03*
X124417000Y-67175200D03*
%TD*%
%TO.C,C12*%
X138562700Y-94100000D03*
X138562700Y-95550000D03*
%TD*%
D17*
%TO.C,D5*%
X166575000Y-42050000D03*
X164975000Y-42050000D03*
X164975000Y-42950000D03*
X166575000Y-42950000D03*
%TD*%
D11*
%TO.C,C24*%
X122817000Y-67175200D03*
X122817000Y-65725200D03*
%TD*%
%TO.C,R8*%
X128562700Y-80675000D03*
X128562700Y-82125000D03*
%TD*%
D10*
%TO.C,R21*%
X116700000Y-58860200D03*
X115250000Y-58860200D03*
%TD*%
%TO.C,R10*%
X122100000Y-69300200D03*
X120650000Y-69300200D03*
%TD*%
%TO.C,C25*%
X135642000Y-74200200D03*
X137092000Y-74200200D03*
%TD*%
%TO.C,FT10*%
X160950000Y-58300000D03*
X159500000Y-58300000D03*
%TD*%
D30*
%TO.C,L1*%
X150662700Y-85550000D03*
X150662700Y-83150000D03*
%TD*%
D11*
%TO.C,R25*%
X142672700Y-40775000D03*
X142672700Y-42225000D03*
%TD*%
D14*
%TO.C,FT3*%
X138577700Y-88315000D03*
X139827700Y-88315000D03*
X139827700Y-88815000D03*
X138577700Y-88815000D03*
%TD*%
D11*
%TO.C,C35*%
X147625000Y-53725000D03*
X147625000Y-55175000D03*
%TD*%
D10*
%TO.C,C40*%
X145700000Y-59000000D03*
X147150000Y-59000000D03*
%TD*%
%TO.C,R20*%
X116700000Y-66480200D03*
X115250000Y-66480200D03*
%TD*%
D11*
%TO.C,C21*%
X131762700Y-79425000D03*
X131762700Y-77975000D03*
%TD*%
D10*
%TO.C,C17*%
X120650000Y-74100200D03*
X122100000Y-74100200D03*
%TD*%
D11*
%TO.C,FT9*%
X157675000Y-51025000D03*
X157675000Y-52475000D03*
%TD*%
%TO.C,C32*%
X146025000Y-53725000D03*
X146025000Y-55175000D03*
%TD*%
%TO.C,C22*%
X129217000Y-65725200D03*
X129217000Y-67175200D03*
%TD*%
%TO.C,C20*%
X130162700Y-79425000D03*
X130162700Y-77975000D03*
%TD*%
D10*
%TO.C,R39*%
X162200000Y-53300000D03*
X163650000Y-53300000D03*
%TD*%
D11*
%TO.C,C27*%
X126017000Y-65725200D03*
X126017000Y-67175200D03*
%TD*%
D31*
%TO.C,U2*%
X130517000Y-74600200D03*
X130517000Y-74100200D03*
X130517000Y-73600200D03*
X130517000Y-73100200D03*
X130517000Y-72600200D03*
X130517000Y-72100200D03*
X130517000Y-71600200D03*
X130517000Y-71100200D03*
X130517000Y-70600200D03*
D32*
X129517000Y-69600200D03*
X129017000Y-69600200D03*
X128517000Y-69600200D03*
X128017000Y-69600200D03*
X127517000Y-69600200D03*
X127017000Y-69600200D03*
X126517000Y-69600200D03*
X126017000Y-69600200D03*
X125517000Y-69600200D03*
D31*
X124517000Y-70600200D03*
X124517000Y-71100200D03*
X124517000Y-71600200D03*
X124517000Y-72100200D03*
X124517000Y-72600200D03*
X124517000Y-73100200D03*
X124517000Y-73600200D03*
X124517000Y-74100200D03*
X124517000Y-74600200D03*
D32*
X125517000Y-75600200D03*
X126017000Y-75600200D03*
X126517000Y-75600200D03*
X127017000Y-75600200D03*
X127517000Y-75600200D03*
X128017000Y-75600200D03*
X128517000Y-75600200D03*
X129017000Y-75600200D03*
X129517000Y-75600200D03*
D33*
X127517000Y-72600200D03*
%TD*%
D10*
%TO.C,FT5*%
X137092000Y-72600200D03*
X135642000Y-72600200D03*
%TD*%
D34*
%TO.C,C7*%
X159112700Y-76550000D03*
X156312700Y-76550000D03*
%TD*%
D11*
%TO.C,C52*%
X154475000Y-52475000D03*
X154475000Y-51025000D03*
%TD*%
%TO.C,R31*%
X150675000Y-51025000D03*
X150675000Y-52475000D03*
%TD*%
M02*
