%TF.GenerationSoftware,KiCad,Pcbnew,8.0.8*%
%TF.CreationDate,2025-02-06T15:55:56+07:00*%
%TF.ProjectId,HW.ACIM-DBG,48572e41-4349-44d2-9d44-42472e6b6963,0.1*%
%TF.SameCoordinates,Original*%
%TF.FileFunction,Drillmap*%
%TF.FilePolarity,Positive*%
%FSLAX45Y45*%
G04 Gerber Fmt 4.5, Leading zero omitted, Abs format (unit mm)*
G04 Created by KiCad (PCBNEW 8.0.8) date 2025-02-06 15:55:56*
%MOMM*%
%LPD*%
G01*
G04 APERTURE LIST*
%ADD10C,0.050000*%
%ADD11C,0.200000*%
%ADD12C,0.100000*%
%ADD13C,0.250000*%
G04 APERTURE END LIST*
D10*
X9822500Y-5640000D02*
X9522500Y-5640000D01*
X9722500Y-9525000D02*
X9722500Y-9470000D01*
X6197500Y-11650000D02*
X6197500Y-14075000D01*
X6722500Y-5640000D02*
X6422500Y-5640000D01*
X9472500Y-7790000D02*
G75*
G02*
X9522500Y-7740000I50000J0D01*
G01*
X6922500Y-11425000D02*
G75*
G02*
X6922500Y-11325000I0J50000D01*
G01*
X6667500Y-5740000D02*
X6722500Y-5740000D01*
X6522500Y-5885000D02*
G75*
G02*
X6667500Y-5740000I145000J0D01*
G01*
X6197500Y-5415000D02*
X6197500Y-5025000D01*
X9522500Y-5740000D02*
G75*
G02*
X9522500Y-5640000I0J50000D01*
G01*
X10047500Y-11200000D02*
G75*
G02*
X9822500Y-11425000I-225000J0D01*
G01*
X6922500Y-11425000D02*
X9322500Y-11425000D01*
X10047500Y-9525000D02*
G75*
G02*
X9997500Y-9575000I-50000J0D01*
G01*
X10047500Y-9525000D02*
X10047500Y-7540000D01*
X9772500Y-7390000D02*
G75*
G02*
X9722500Y-7340000I0J50000D01*
G01*
X9772500Y-9575000D02*
G75*
G02*
X9722500Y-9525000I0J50000D01*
G01*
X6667500Y-7740000D02*
G75*
G02*
X6522500Y-7595000I0J145000D01*
G01*
X6197500Y-5025000D02*
G75*
G02*
X6422500Y-4800000I225000J0D01*
G01*
X6922500Y-5740000D02*
G75*
G02*
X6922500Y-5640000I0J50000D01*
G01*
X9997500Y-9675000D02*
G75*
G02*
X10047500Y-9725000I0J-50000D01*
G01*
X6197500Y-11650000D02*
G75*
G02*
X6422500Y-11425000I225000J0D01*
G01*
X6922500Y-7740000D02*
X9322500Y-7740000D01*
X6667500Y-9325000D02*
X6722500Y-9325000D01*
X10047500Y-7340000D02*
X10047500Y-5865000D01*
X9322500Y-5640000D02*
X6922500Y-5640000D01*
X9722500Y-7540000D02*
G75*
G02*
X9772500Y-7490000I50000J0D01*
G01*
X11972500Y-4800000D02*
G75*
G02*
X12197500Y-5025000I0J-225000D01*
G01*
X6522500Y-7595000D02*
X6522500Y-5885000D01*
X9372500Y-9275000D02*
X9372500Y-7790000D01*
X9722500Y-9725000D02*
G75*
G02*
X9772500Y-9675000I50000J0D01*
G01*
X9577500Y-9325000D02*
G75*
G02*
X9722500Y-9470000I0J-145000D01*
G01*
X6422500Y-14300000D02*
G75*
G02*
X6197500Y-14075000I0J225000D01*
G01*
X9522500Y-9325000D02*
G75*
G02*
X9472500Y-9275000I0J50000D01*
G01*
X9322500Y-11325000D02*
G75*
G02*
X9322500Y-11425000I0J-50000D01*
G01*
X9522500Y-11425000D02*
G75*
G02*
X9522500Y-11325000I0J50000D01*
G01*
X6772500Y-9275000D02*
X6772500Y-7790000D01*
X9577500Y-5740000D02*
G75*
G02*
X9722500Y-5885000I0J-145000D01*
G01*
X6722500Y-11325000D02*
X6667500Y-11325000D01*
X6722500Y-7740000D02*
G75*
G02*
X6772500Y-7790000I0J-50000D01*
G01*
X9722500Y-7595000D02*
G75*
G02*
X9577500Y-7740000I-145000J0D01*
G01*
X6922500Y-9325000D02*
G75*
G02*
X6872500Y-9275000I0J50000D01*
G01*
X9522500Y-5740000D02*
X9577500Y-5740000D01*
X9577500Y-11325000D02*
X9522500Y-11325000D01*
X6422500Y-14300000D02*
X11972500Y-14300000D01*
X9322500Y-5640000D02*
G75*
G02*
X9322500Y-5740000I0J-50000D01*
G01*
X9722500Y-11180000D02*
G75*
G02*
X9577500Y-11325000I-145000J0D01*
G01*
X6722500Y-11325000D02*
G75*
G02*
X6722500Y-11425000I0J-50000D01*
G01*
X9722500Y-9725000D02*
X9722500Y-11180000D01*
X9772500Y-7490000D02*
X9997500Y-7490000D01*
X9822500Y-11425000D02*
X9522500Y-11425000D01*
X9772500Y-7390000D02*
X9997500Y-7390000D01*
X6667500Y-11325000D02*
G75*
G02*
X6522500Y-11180000I0J145000D01*
G01*
X10047500Y-7340000D02*
G75*
G02*
X9997500Y-7390000I-50000J0D01*
G01*
X9322500Y-9325000D02*
X6922500Y-9325000D01*
X9322500Y-7740000D02*
G75*
G02*
X9372500Y-7790000I0J-50000D01*
G01*
X12197500Y-14075000D02*
X12197500Y-5025000D01*
X6922500Y-11325000D02*
X9322500Y-11325000D01*
X6772500Y-9275000D02*
G75*
G02*
X6722500Y-9325000I-50000J0D01*
G01*
X9522500Y-9325000D02*
X9577500Y-9325000D01*
X9822500Y-5640000D02*
G75*
G02*
X10047500Y-5865000I0J-225000D01*
G01*
X10047500Y-11200000D02*
X10047500Y-9725000D01*
X9997500Y-9575000D02*
X9772500Y-9575000D01*
X6522500Y-9470000D02*
X6522500Y-11180000D01*
X9322500Y-5740000D02*
X6922500Y-5740000D01*
X9997500Y-9675000D02*
X9772500Y-9675000D01*
X12197500Y-14075000D02*
G75*
G02*
X11972500Y-14300000I-225000J0D01*
G01*
X9997500Y-7490000D02*
G75*
G02*
X10047500Y-7540000I0J-50000D01*
G01*
X6872500Y-7790000D02*
G75*
G02*
X6922500Y-7740000I50000J0D01*
G01*
X6522500Y-9470000D02*
G75*
G02*
X6667500Y-9325000I145000J0D01*
G01*
X9472500Y-7790000D02*
X9472500Y-9275000D01*
X6722500Y-5640000D02*
G75*
G02*
X6722500Y-5740000I0J-50000D01*
G01*
X9577500Y-7740000D02*
X9522500Y-7740000D01*
X9722500Y-7595000D02*
X9722500Y-7540000D01*
X6422500Y-5640000D02*
G75*
G02*
X6197500Y-5415000I0J225000D01*
G01*
X6872500Y-7790000D02*
X6872500Y-9275000D01*
X6722500Y-11425000D02*
X6422500Y-11425000D01*
X9722500Y-7340000D02*
X9722500Y-5885000D01*
X11972500Y-4800000D02*
X6422500Y-4800000D01*
X6722500Y-7740000D02*
X6667500Y-7740000D01*
X9372500Y-9275000D02*
G75*
G02*
X9322500Y-9325000I-50000J0D01*
G01*
D11*
D12*
X10676000Y-5288750D02*
X10741000Y-5353750D01*
X10741000Y-5288750D02*
X10676000Y-5353750D01*
X11254000Y-5288750D02*
X11319000Y-5353750D01*
X11319000Y-5288750D02*
X11254000Y-5353750D01*
D13*
X6547500Y-11650000D02*
G75*
G02*
X6297500Y-11650000I-125000J0D01*
G01*
X6297500Y-11650000D02*
G75*
G02*
X6547500Y-11650000I125000J0D01*
G01*
X6547500Y-5220000D02*
G75*
G02*
X6297500Y-5220000I-125000J0D01*
G01*
X6297500Y-5220000D02*
G75*
G02*
X6547500Y-5220000I125000J0D01*
G01*
X6547500Y-14075000D02*
G75*
G02*
X6297500Y-14075000I-125000J0D01*
G01*
X6297500Y-14075000D02*
G75*
G02*
X6547500Y-14075000I125000J0D01*
G01*
X10397500Y-8532500D02*
G75*
G02*
X10147500Y-8532500I-125000J0D01*
G01*
X10147500Y-8532500D02*
G75*
G02*
X10397500Y-8532500I125000J0D01*
G01*
X12097500Y-5025000D02*
G75*
G02*
X11847500Y-5025000I-125000J0D01*
G01*
X11847500Y-5025000D02*
G75*
G02*
X12097500Y-5025000I125000J0D01*
G01*
X12097500Y-11650000D02*
G75*
G02*
X11847500Y-11650000I-125000J0D01*
G01*
X11847500Y-11650000D02*
G75*
G02*
X12097500Y-11650000I125000J0D01*
G01*
X12097500Y-14075000D02*
G75*
G02*
X11847500Y-14075000I-125000J0D01*
G01*
X11847500Y-14075000D02*
G75*
G02*
X12097500Y-14075000I125000J0D01*
G01*
D11*
X6455777Y-14613984D02*
X6455777Y-14413984D01*
X6455777Y-14413984D02*
X6503396Y-14413984D01*
X6503396Y-14413984D02*
X6531967Y-14423508D01*
X6531967Y-14423508D02*
X6551015Y-14442555D01*
X6551015Y-14442555D02*
X6560538Y-14461603D01*
X6560538Y-14461603D02*
X6570062Y-14499698D01*
X6570062Y-14499698D02*
X6570062Y-14528269D01*
X6570062Y-14528269D02*
X6560538Y-14566365D01*
X6560538Y-14566365D02*
X6551015Y-14585412D01*
X6551015Y-14585412D02*
X6531967Y-14604460D01*
X6531967Y-14604460D02*
X6503396Y-14613984D01*
X6503396Y-14613984D02*
X6455777Y-14613984D01*
X6655777Y-14613984D02*
X6655777Y-14480650D01*
X6655777Y-14518746D02*
X6665300Y-14499698D01*
X6665300Y-14499698D02*
X6674824Y-14490174D01*
X6674824Y-14490174D02*
X6693872Y-14480650D01*
X6693872Y-14480650D02*
X6712919Y-14480650D01*
X6779586Y-14613984D02*
X6779586Y-14480650D01*
X6779586Y-14413984D02*
X6770062Y-14423508D01*
X6770062Y-14423508D02*
X6779586Y-14433031D01*
X6779586Y-14433031D02*
X6789110Y-14423508D01*
X6789110Y-14423508D02*
X6779586Y-14413984D01*
X6779586Y-14413984D02*
X6779586Y-14433031D01*
X6903396Y-14613984D02*
X6884348Y-14604460D01*
X6884348Y-14604460D02*
X6874824Y-14585412D01*
X6874824Y-14585412D02*
X6874824Y-14413984D01*
X7008157Y-14613984D02*
X6989110Y-14604460D01*
X6989110Y-14604460D02*
X6979586Y-14585412D01*
X6979586Y-14585412D02*
X6979586Y-14413984D01*
X7236729Y-14613984D02*
X7236729Y-14413984D01*
X7236729Y-14413984D02*
X7303396Y-14556841D01*
X7303396Y-14556841D02*
X7370062Y-14413984D01*
X7370062Y-14413984D02*
X7370062Y-14613984D01*
X7551015Y-14613984D02*
X7551015Y-14509222D01*
X7551015Y-14509222D02*
X7541491Y-14490174D01*
X7541491Y-14490174D02*
X7522443Y-14480650D01*
X7522443Y-14480650D02*
X7484348Y-14480650D01*
X7484348Y-14480650D02*
X7465300Y-14490174D01*
X7551015Y-14604460D02*
X7531967Y-14613984D01*
X7531967Y-14613984D02*
X7484348Y-14613984D01*
X7484348Y-14613984D02*
X7465300Y-14604460D01*
X7465300Y-14604460D02*
X7455777Y-14585412D01*
X7455777Y-14585412D02*
X7455777Y-14566365D01*
X7455777Y-14566365D02*
X7465300Y-14547317D01*
X7465300Y-14547317D02*
X7484348Y-14537793D01*
X7484348Y-14537793D02*
X7531967Y-14537793D01*
X7531967Y-14537793D02*
X7551015Y-14528269D01*
X7646253Y-14480650D02*
X7646253Y-14680650D01*
X7646253Y-14490174D02*
X7665300Y-14480650D01*
X7665300Y-14480650D02*
X7703396Y-14480650D01*
X7703396Y-14480650D02*
X7722443Y-14490174D01*
X7722443Y-14490174D02*
X7731967Y-14499698D01*
X7731967Y-14499698D02*
X7741491Y-14518746D01*
X7741491Y-14518746D02*
X7741491Y-14575888D01*
X7741491Y-14575888D02*
X7731967Y-14594936D01*
X7731967Y-14594936D02*
X7722443Y-14604460D01*
X7722443Y-14604460D02*
X7703396Y-14613984D01*
X7703396Y-14613984D02*
X7665300Y-14613984D01*
X7665300Y-14613984D02*
X7646253Y-14604460D01*
X7827205Y-14594936D02*
X7836729Y-14604460D01*
X7836729Y-14604460D02*
X7827205Y-14613984D01*
X7827205Y-14613984D02*
X7817681Y-14604460D01*
X7817681Y-14604460D02*
X7827205Y-14594936D01*
X7827205Y-14594936D02*
X7827205Y-14613984D01*
X7827205Y-14490174D02*
X7836729Y-14499698D01*
X7836729Y-14499698D02*
X7827205Y-14509222D01*
X7827205Y-14509222D02*
X7817681Y-14499698D01*
X7817681Y-14499698D02*
X7827205Y-14490174D01*
X7827205Y-14490174D02*
X7827205Y-14509222D01*
D12*
X6130000Y-14910000D02*
X6195000Y-14975000D01*
X6195000Y-14910000D02*
X6130000Y-14975000D01*
D11*
X6493872Y-14833984D02*
X6512919Y-14833984D01*
X6512919Y-14833984D02*
X6531967Y-14843508D01*
X6531967Y-14843508D02*
X6541491Y-14853031D01*
X6541491Y-14853031D02*
X6551015Y-14872079D01*
X6551015Y-14872079D02*
X6560538Y-14910174D01*
X6560538Y-14910174D02*
X6560538Y-14957793D01*
X6560538Y-14957793D02*
X6551015Y-14995888D01*
X6551015Y-14995888D02*
X6541491Y-15014936D01*
X6541491Y-15014936D02*
X6531967Y-15024460D01*
X6531967Y-15024460D02*
X6512919Y-15033984D01*
X6512919Y-15033984D02*
X6493872Y-15033984D01*
X6493872Y-15033984D02*
X6474824Y-15024460D01*
X6474824Y-15024460D02*
X6465300Y-15014936D01*
X6465300Y-15014936D02*
X6455777Y-14995888D01*
X6455777Y-14995888D02*
X6446253Y-14957793D01*
X6446253Y-14957793D02*
X6446253Y-14910174D01*
X6446253Y-14910174D02*
X6455777Y-14872079D01*
X6455777Y-14872079D02*
X6465300Y-14853031D01*
X6465300Y-14853031D02*
X6474824Y-14843508D01*
X6474824Y-14843508D02*
X6493872Y-14833984D01*
X6646253Y-15014936D02*
X6655777Y-15024460D01*
X6655777Y-15024460D02*
X6646253Y-15033984D01*
X6646253Y-15033984D02*
X6636729Y-15024460D01*
X6636729Y-15024460D02*
X6646253Y-15014936D01*
X6646253Y-15014936D02*
X6646253Y-15033984D01*
X6827205Y-14833984D02*
X6789110Y-14833984D01*
X6789110Y-14833984D02*
X6770062Y-14843508D01*
X6770062Y-14843508D02*
X6760538Y-14853031D01*
X6760538Y-14853031D02*
X6741491Y-14881603D01*
X6741491Y-14881603D02*
X6731967Y-14919698D01*
X6731967Y-14919698D02*
X6731967Y-14995888D01*
X6731967Y-14995888D02*
X6741491Y-15014936D01*
X6741491Y-15014936D02*
X6751015Y-15024460D01*
X6751015Y-15024460D02*
X6770062Y-15033984D01*
X6770062Y-15033984D02*
X6808158Y-15033984D01*
X6808158Y-15033984D02*
X6827205Y-15024460D01*
X6827205Y-15024460D02*
X6836729Y-15014936D01*
X6836729Y-15014936D02*
X6846253Y-14995888D01*
X6846253Y-14995888D02*
X6846253Y-14948269D01*
X6846253Y-14948269D02*
X6836729Y-14929222D01*
X6836729Y-14929222D02*
X6827205Y-14919698D01*
X6827205Y-14919698D02*
X6808158Y-14910174D01*
X6808158Y-14910174D02*
X6770062Y-14910174D01*
X6770062Y-14910174D02*
X6751015Y-14919698D01*
X6751015Y-14919698D02*
X6741491Y-14929222D01*
X6741491Y-14929222D02*
X6731967Y-14948269D01*
X7027205Y-14833984D02*
X6931967Y-14833984D01*
X6931967Y-14833984D02*
X6922443Y-14929222D01*
X6922443Y-14929222D02*
X6931967Y-14919698D01*
X6931967Y-14919698D02*
X6951015Y-14910174D01*
X6951015Y-14910174D02*
X6998634Y-14910174D01*
X6998634Y-14910174D02*
X7017681Y-14919698D01*
X7017681Y-14919698D02*
X7027205Y-14929222D01*
X7027205Y-14929222D02*
X7036729Y-14948269D01*
X7036729Y-14948269D02*
X7036729Y-14995888D01*
X7036729Y-14995888D02*
X7027205Y-15014936D01*
X7027205Y-15014936D02*
X7017681Y-15024460D01*
X7017681Y-15024460D02*
X6998634Y-15033984D01*
X6998634Y-15033984D02*
X6951015Y-15033984D01*
X6951015Y-15033984D02*
X6931967Y-15024460D01*
X6931967Y-15024460D02*
X6922443Y-15014936D01*
X7160538Y-14833984D02*
X7179586Y-14833984D01*
X7179586Y-14833984D02*
X7198634Y-14843508D01*
X7198634Y-14843508D02*
X7208158Y-14853031D01*
X7208158Y-14853031D02*
X7217681Y-14872079D01*
X7217681Y-14872079D02*
X7227205Y-14910174D01*
X7227205Y-14910174D02*
X7227205Y-14957793D01*
X7227205Y-14957793D02*
X7217681Y-14995888D01*
X7217681Y-14995888D02*
X7208158Y-15014936D01*
X7208158Y-15014936D02*
X7198634Y-15024460D01*
X7198634Y-15024460D02*
X7179586Y-15033984D01*
X7179586Y-15033984D02*
X7160538Y-15033984D01*
X7160538Y-15033984D02*
X7141491Y-15024460D01*
X7141491Y-15024460D02*
X7131967Y-15014936D01*
X7131967Y-15014936D02*
X7122443Y-14995888D01*
X7122443Y-14995888D02*
X7112919Y-14957793D01*
X7112919Y-14957793D02*
X7112919Y-14910174D01*
X7112919Y-14910174D02*
X7122443Y-14872079D01*
X7122443Y-14872079D02*
X7131967Y-14853031D01*
X7131967Y-14853031D02*
X7141491Y-14843508D01*
X7141491Y-14843508D02*
X7160538Y-14833984D01*
X7312919Y-15033984D02*
X7312919Y-14900650D01*
X7312919Y-14919698D02*
X7322443Y-14910174D01*
X7322443Y-14910174D02*
X7341491Y-14900650D01*
X7341491Y-14900650D02*
X7370062Y-14900650D01*
X7370062Y-14900650D02*
X7389110Y-14910174D01*
X7389110Y-14910174D02*
X7398634Y-14929222D01*
X7398634Y-14929222D02*
X7398634Y-15033984D01*
X7398634Y-14929222D02*
X7408158Y-14910174D01*
X7408158Y-14910174D02*
X7427205Y-14900650D01*
X7427205Y-14900650D02*
X7455777Y-14900650D01*
X7455777Y-14900650D02*
X7474824Y-14910174D01*
X7474824Y-14910174D02*
X7484348Y-14929222D01*
X7484348Y-14929222D02*
X7484348Y-15033984D01*
X7579586Y-15033984D02*
X7579586Y-14900650D01*
X7579586Y-14919698D02*
X7589110Y-14910174D01*
X7589110Y-14910174D02*
X7608158Y-14900650D01*
X7608158Y-14900650D02*
X7636729Y-14900650D01*
X7636729Y-14900650D02*
X7655777Y-14910174D01*
X7655777Y-14910174D02*
X7665300Y-14929222D01*
X7665300Y-14929222D02*
X7665300Y-15033984D01*
X7665300Y-14929222D02*
X7674824Y-14910174D01*
X7674824Y-14910174D02*
X7693872Y-14900650D01*
X7693872Y-14900650D02*
X7722443Y-14900650D01*
X7722443Y-14900650D02*
X7741491Y-14910174D01*
X7741491Y-14910174D02*
X7751015Y-14929222D01*
X7751015Y-14929222D02*
X7751015Y-15033984D01*
X8141491Y-14824460D02*
X7970062Y-15081603D01*
X8398634Y-14833984D02*
X8417682Y-14833984D01*
X8417682Y-14833984D02*
X8436729Y-14843508D01*
X8436729Y-14843508D02*
X8446253Y-14853031D01*
X8446253Y-14853031D02*
X8455777Y-14872079D01*
X8455777Y-14872079D02*
X8465301Y-14910174D01*
X8465301Y-14910174D02*
X8465301Y-14957793D01*
X8465301Y-14957793D02*
X8455777Y-14995888D01*
X8455777Y-14995888D02*
X8446253Y-15014936D01*
X8446253Y-15014936D02*
X8436729Y-15024460D01*
X8436729Y-15024460D02*
X8417682Y-15033984D01*
X8417682Y-15033984D02*
X8398634Y-15033984D01*
X8398634Y-15033984D02*
X8379586Y-15024460D01*
X8379586Y-15024460D02*
X8370062Y-15014936D01*
X8370062Y-15014936D02*
X8360539Y-14995888D01*
X8360539Y-14995888D02*
X8351015Y-14957793D01*
X8351015Y-14957793D02*
X8351015Y-14910174D01*
X8351015Y-14910174D02*
X8360539Y-14872079D01*
X8360539Y-14872079D02*
X8370062Y-14853031D01*
X8370062Y-14853031D02*
X8379586Y-14843508D01*
X8379586Y-14843508D02*
X8398634Y-14833984D01*
X8551015Y-15014936D02*
X8560539Y-15024460D01*
X8560539Y-15024460D02*
X8551015Y-15033984D01*
X8551015Y-15033984D02*
X8541491Y-15024460D01*
X8541491Y-15024460D02*
X8551015Y-15014936D01*
X8551015Y-15014936D02*
X8551015Y-15033984D01*
X8684348Y-14833984D02*
X8703396Y-14833984D01*
X8703396Y-14833984D02*
X8722444Y-14843508D01*
X8722444Y-14843508D02*
X8731967Y-14853031D01*
X8731967Y-14853031D02*
X8741491Y-14872079D01*
X8741491Y-14872079D02*
X8751015Y-14910174D01*
X8751015Y-14910174D02*
X8751015Y-14957793D01*
X8751015Y-14957793D02*
X8741491Y-14995888D01*
X8741491Y-14995888D02*
X8731967Y-15014936D01*
X8731967Y-15014936D02*
X8722444Y-15024460D01*
X8722444Y-15024460D02*
X8703396Y-15033984D01*
X8703396Y-15033984D02*
X8684348Y-15033984D01*
X8684348Y-15033984D02*
X8665301Y-15024460D01*
X8665301Y-15024460D02*
X8655777Y-15014936D01*
X8655777Y-15014936D02*
X8646253Y-14995888D01*
X8646253Y-14995888D02*
X8636729Y-14957793D01*
X8636729Y-14957793D02*
X8636729Y-14910174D01*
X8636729Y-14910174D02*
X8646253Y-14872079D01*
X8646253Y-14872079D02*
X8655777Y-14853031D01*
X8655777Y-14853031D02*
X8665301Y-14843508D01*
X8665301Y-14843508D02*
X8684348Y-14833984D01*
X8827205Y-14853031D02*
X8836729Y-14843508D01*
X8836729Y-14843508D02*
X8855777Y-14833984D01*
X8855777Y-14833984D02*
X8903396Y-14833984D01*
X8903396Y-14833984D02*
X8922444Y-14843508D01*
X8922444Y-14843508D02*
X8931967Y-14853031D01*
X8931967Y-14853031D02*
X8941491Y-14872079D01*
X8941491Y-14872079D02*
X8941491Y-14891127D01*
X8941491Y-14891127D02*
X8931967Y-14919698D01*
X8931967Y-14919698D02*
X8817682Y-15033984D01*
X8817682Y-15033984D02*
X8941491Y-15033984D01*
X9122444Y-14833984D02*
X9027205Y-14833984D01*
X9027205Y-14833984D02*
X9017682Y-14929222D01*
X9017682Y-14929222D02*
X9027205Y-14919698D01*
X9027205Y-14919698D02*
X9046253Y-14910174D01*
X9046253Y-14910174D02*
X9093872Y-14910174D01*
X9093872Y-14910174D02*
X9112920Y-14919698D01*
X9112920Y-14919698D02*
X9122444Y-14929222D01*
X9122444Y-14929222D02*
X9131967Y-14948269D01*
X9131967Y-14948269D02*
X9131967Y-14995888D01*
X9131967Y-14995888D02*
X9122444Y-15014936D01*
X9122444Y-15014936D02*
X9112920Y-15024460D01*
X9112920Y-15024460D02*
X9093872Y-15033984D01*
X9093872Y-15033984D02*
X9046253Y-15033984D01*
X9046253Y-15033984D02*
X9027205Y-15024460D01*
X9027205Y-15024460D02*
X9017682Y-15014936D01*
X9303396Y-14833984D02*
X9265301Y-14833984D01*
X9265301Y-14833984D02*
X9246253Y-14843508D01*
X9246253Y-14843508D02*
X9236729Y-14853031D01*
X9236729Y-14853031D02*
X9217682Y-14881603D01*
X9217682Y-14881603D02*
X9208158Y-14919698D01*
X9208158Y-14919698D02*
X9208158Y-14995888D01*
X9208158Y-14995888D02*
X9217682Y-15014936D01*
X9217682Y-15014936D02*
X9227205Y-15024460D01*
X9227205Y-15024460D02*
X9246253Y-15033984D01*
X9246253Y-15033984D02*
X9284348Y-15033984D01*
X9284348Y-15033984D02*
X9303396Y-15024460D01*
X9303396Y-15024460D02*
X9312920Y-15014936D01*
X9312920Y-15014936D02*
X9322444Y-14995888D01*
X9322444Y-14995888D02*
X9322444Y-14948269D01*
X9322444Y-14948269D02*
X9312920Y-14929222D01*
X9312920Y-14929222D02*
X9303396Y-14919698D01*
X9303396Y-14919698D02*
X9284348Y-14910174D01*
X9284348Y-14910174D02*
X9246253Y-14910174D01*
X9246253Y-14910174D02*
X9227205Y-14919698D01*
X9227205Y-14919698D02*
X9217682Y-14929222D01*
X9217682Y-14929222D02*
X9208158Y-14948269D01*
X9398634Y-14833984D02*
X9398634Y-14872079D01*
X9474825Y-14833984D02*
X9474825Y-14872079D01*
X9770063Y-15110174D02*
X9760539Y-15100650D01*
X9760539Y-15100650D02*
X9741491Y-15072079D01*
X9741491Y-15072079D02*
X9731967Y-15053031D01*
X9731967Y-15053031D02*
X9722444Y-15024460D01*
X9722444Y-15024460D02*
X9712920Y-14976841D01*
X9712920Y-14976841D02*
X9712920Y-14938746D01*
X9712920Y-14938746D02*
X9722444Y-14891127D01*
X9722444Y-14891127D02*
X9731967Y-14862555D01*
X9731967Y-14862555D02*
X9741491Y-14843508D01*
X9741491Y-14843508D02*
X9760539Y-14814936D01*
X9760539Y-14814936D02*
X9770063Y-14805412D01*
X9836729Y-14853031D02*
X9846253Y-14843508D01*
X9846253Y-14843508D02*
X9865301Y-14833984D01*
X9865301Y-14833984D02*
X9912920Y-14833984D01*
X9912920Y-14833984D02*
X9931967Y-14843508D01*
X9931967Y-14843508D02*
X9941491Y-14853031D01*
X9941491Y-14853031D02*
X9951015Y-14872079D01*
X9951015Y-14872079D02*
X9951015Y-14891127D01*
X9951015Y-14891127D02*
X9941491Y-14919698D01*
X9941491Y-14919698D02*
X9827206Y-15033984D01*
X9827206Y-15033984D02*
X9951015Y-15033984D01*
X10189110Y-15033984D02*
X10189110Y-14833984D01*
X10274825Y-15033984D02*
X10274825Y-14929222D01*
X10274825Y-14929222D02*
X10265301Y-14910174D01*
X10265301Y-14910174D02*
X10246253Y-14900650D01*
X10246253Y-14900650D02*
X10217682Y-14900650D01*
X10217682Y-14900650D02*
X10198634Y-14910174D01*
X10198634Y-14910174D02*
X10189110Y-14919698D01*
X10398634Y-15033984D02*
X10379587Y-15024460D01*
X10379587Y-15024460D02*
X10370063Y-15014936D01*
X10370063Y-15014936D02*
X10360539Y-14995888D01*
X10360539Y-14995888D02*
X10360539Y-14938746D01*
X10360539Y-14938746D02*
X10370063Y-14919698D01*
X10370063Y-14919698D02*
X10379587Y-14910174D01*
X10379587Y-14910174D02*
X10398634Y-14900650D01*
X10398634Y-14900650D02*
X10427206Y-14900650D01*
X10427206Y-14900650D02*
X10446253Y-14910174D01*
X10446253Y-14910174D02*
X10455777Y-14919698D01*
X10455777Y-14919698D02*
X10465301Y-14938746D01*
X10465301Y-14938746D02*
X10465301Y-14995888D01*
X10465301Y-14995888D02*
X10455777Y-15014936D01*
X10455777Y-15014936D02*
X10446253Y-15024460D01*
X10446253Y-15024460D02*
X10427206Y-15033984D01*
X10427206Y-15033984D02*
X10398634Y-15033984D01*
X10579587Y-15033984D02*
X10560539Y-15024460D01*
X10560539Y-15024460D02*
X10551015Y-15005412D01*
X10551015Y-15005412D02*
X10551015Y-14833984D01*
X10731968Y-15024460D02*
X10712920Y-15033984D01*
X10712920Y-15033984D02*
X10674825Y-15033984D01*
X10674825Y-15033984D02*
X10655777Y-15024460D01*
X10655777Y-15024460D02*
X10646253Y-15005412D01*
X10646253Y-15005412D02*
X10646253Y-14929222D01*
X10646253Y-14929222D02*
X10655777Y-14910174D01*
X10655777Y-14910174D02*
X10674825Y-14900650D01*
X10674825Y-14900650D02*
X10712920Y-14900650D01*
X10712920Y-14900650D02*
X10731968Y-14910174D01*
X10731968Y-14910174D02*
X10741491Y-14929222D01*
X10741491Y-14929222D02*
X10741491Y-14948269D01*
X10741491Y-14948269D02*
X10646253Y-14967317D01*
X10817682Y-15024460D02*
X10836729Y-15033984D01*
X10836729Y-15033984D02*
X10874825Y-15033984D01*
X10874825Y-15033984D02*
X10893872Y-15024460D01*
X10893872Y-15024460D02*
X10903396Y-15005412D01*
X10903396Y-15005412D02*
X10903396Y-14995888D01*
X10903396Y-14995888D02*
X10893872Y-14976841D01*
X10893872Y-14976841D02*
X10874825Y-14967317D01*
X10874825Y-14967317D02*
X10846253Y-14967317D01*
X10846253Y-14967317D02*
X10827206Y-14957793D01*
X10827206Y-14957793D02*
X10817682Y-14938746D01*
X10817682Y-14938746D02*
X10817682Y-14929222D01*
X10817682Y-14929222D02*
X10827206Y-14910174D01*
X10827206Y-14910174D02*
X10846253Y-14900650D01*
X10846253Y-14900650D02*
X10874825Y-14900650D01*
X10874825Y-14900650D02*
X10893872Y-14910174D01*
X10970063Y-15110174D02*
X10979587Y-15100650D01*
X10979587Y-15100650D02*
X10998634Y-15072079D01*
X10998634Y-15072079D02*
X11008158Y-15053031D01*
X11008158Y-15053031D02*
X11017682Y-15024460D01*
X11017682Y-15024460D02*
X11027206Y-14976841D01*
X11027206Y-14976841D02*
X11027206Y-14938746D01*
X11027206Y-14938746D02*
X11017682Y-14891127D01*
X11017682Y-14891127D02*
X11008158Y-14862555D01*
X11008158Y-14862555D02*
X10998634Y-14843508D01*
X10998634Y-14843508D02*
X10979587Y-14814936D01*
X10979587Y-14814936D02*
X10970063Y-14805412D01*
X11331968Y-15110174D02*
X11322444Y-15100650D01*
X11322444Y-15100650D02*
X11303396Y-15072079D01*
X11303396Y-15072079D02*
X11293872Y-15053031D01*
X11293872Y-15053031D02*
X11284348Y-15024460D01*
X11284348Y-15024460D02*
X11274825Y-14976841D01*
X11274825Y-14976841D02*
X11274825Y-14938746D01*
X11274825Y-14938746D02*
X11284348Y-14891127D01*
X11284348Y-14891127D02*
X11293872Y-14862555D01*
X11293872Y-14862555D02*
X11303396Y-14843508D01*
X11303396Y-14843508D02*
X11322444Y-14814936D01*
X11322444Y-14814936D02*
X11331968Y-14805412D01*
X11408158Y-14900650D02*
X11408158Y-15033984D01*
X11408158Y-14919698D02*
X11417682Y-14910174D01*
X11417682Y-14910174D02*
X11436729Y-14900650D01*
X11436729Y-14900650D02*
X11465301Y-14900650D01*
X11465301Y-14900650D02*
X11484348Y-14910174D01*
X11484348Y-14910174D02*
X11493872Y-14929222D01*
X11493872Y-14929222D02*
X11493872Y-15033984D01*
X11617682Y-15033984D02*
X11598634Y-15024460D01*
X11598634Y-15024460D02*
X11589110Y-15014936D01*
X11589110Y-15014936D02*
X11579587Y-14995888D01*
X11579587Y-14995888D02*
X11579587Y-14938746D01*
X11579587Y-14938746D02*
X11589110Y-14919698D01*
X11589110Y-14919698D02*
X11598634Y-14910174D01*
X11598634Y-14910174D02*
X11617682Y-14900650D01*
X11617682Y-14900650D02*
X11646253Y-14900650D01*
X11646253Y-14900650D02*
X11665301Y-14910174D01*
X11665301Y-14910174D02*
X11674825Y-14919698D01*
X11674825Y-14919698D02*
X11684348Y-14938746D01*
X11684348Y-14938746D02*
X11684348Y-14995888D01*
X11684348Y-14995888D02*
X11674825Y-15014936D01*
X11674825Y-15014936D02*
X11665301Y-15024460D01*
X11665301Y-15024460D02*
X11646253Y-15033984D01*
X11646253Y-15033984D02*
X11617682Y-15033984D01*
X11741491Y-14900650D02*
X11817682Y-14900650D01*
X11770063Y-14833984D02*
X11770063Y-15005412D01*
X11770063Y-15005412D02*
X11779587Y-15024460D01*
X11779587Y-15024460D02*
X11798634Y-15033984D01*
X11798634Y-15033984D02*
X11817682Y-15033984D01*
X12036729Y-14900650D02*
X12036729Y-15100650D01*
X12036729Y-14910174D02*
X12055777Y-14900650D01*
X12055777Y-14900650D02*
X12093872Y-14900650D01*
X12093872Y-14900650D02*
X12112920Y-14910174D01*
X12112920Y-14910174D02*
X12122444Y-14919698D01*
X12122444Y-14919698D02*
X12131968Y-14938746D01*
X12131968Y-14938746D02*
X12131968Y-14995888D01*
X12131968Y-14995888D02*
X12122444Y-15014936D01*
X12122444Y-15014936D02*
X12112920Y-15024460D01*
X12112920Y-15024460D02*
X12093872Y-15033984D01*
X12093872Y-15033984D02*
X12055777Y-15033984D01*
X12055777Y-15033984D02*
X12036729Y-15024460D01*
X12246253Y-15033984D02*
X12227206Y-15024460D01*
X12227206Y-15024460D02*
X12217682Y-15005412D01*
X12217682Y-15005412D02*
X12217682Y-14833984D01*
X12408158Y-15033984D02*
X12408158Y-14929222D01*
X12408158Y-14929222D02*
X12398634Y-14910174D01*
X12398634Y-14910174D02*
X12379587Y-14900650D01*
X12379587Y-14900650D02*
X12341491Y-14900650D01*
X12341491Y-14900650D02*
X12322444Y-14910174D01*
X12408158Y-15024460D02*
X12389110Y-15033984D01*
X12389110Y-15033984D02*
X12341491Y-15033984D01*
X12341491Y-15033984D02*
X12322444Y-15024460D01*
X12322444Y-15024460D02*
X12312920Y-15005412D01*
X12312920Y-15005412D02*
X12312920Y-14986365D01*
X12312920Y-14986365D02*
X12322444Y-14967317D01*
X12322444Y-14967317D02*
X12341491Y-14957793D01*
X12341491Y-14957793D02*
X12389110Y-14957793D01*
X12389110Y-14957793D02*
X12408158Y-14948269D01*
X12474825Y-14900650D02*
X12551015Y-14900650D01*
X12503396Y-14833984D02*
X12503396Y-15005412D01*
X12503396Y-15005412D02*
X12512920Y-15024460D01*
X12512920Y-15024460D02*
X12531968Y-15033984D01*
X12531968Y-15033984D02*
X12551015Y-15033984D01*
X12693872Y-15024460D02*
X12674825Y-15033984D01*
X12674825Y-15033984D02*
X12636729Y-15033984D01*
X12636729Y-15033984D02*
X12617682Y-15024460D01*
X12617682Y-15024460D02*
X12608158Y-15005412D01*
X12608158Y-15005412D02*
X12608158Y-14929222D01*
X12608158Y-14929222D02*
X12617682Y-14910174D01*
X12617682Y-14910174D02*
X12636729Y-14900650D01*
X12636729Y-14900650D02*
X12674825Y-14900650D01*
X12674825Y-14900650D02*
X12693872Y-14910174D01*
X12693872Y-14910174D02*
X12703396Y-14929222D01*
X12703396Y-14929222D02*
X12703396Y-14948269D01*
X12703396Y-14948269D02*
X12608158Y-14967317D01*
X12874825Y-15033984D02*
X12874825Y-14833984D01*
X12874825Y-15024460D02*
X12855777Y-15033984D01*
X12855777Y-15033984D02*
X12817682Y-15033984D01*
X12817682Y-15033984D02*
X12798634Y-15024460D01*
X12798634Y-15024460D02*
X12789110Y-15014936D01*
X12789110Y-15014936D02*
X12779587Y-14995888D01*
X12779587Y-14995888D02*
X12779587Y-14938746D01*
X12779587Y-14938746D02*
X12789110Y-14919698D01*
X12789110Y-14919698D02*
X12798634Y-14910174D01*
X12798634Y-14910174D02*
X12817682Y-14900650D01*
X12817682Y-14900650D02*
X12855777Y-14900650D01*
X12855777Y-14900650D02*
X12874825Y-14910174D01*
X12951015Y-15110174D02*
X12960539Y-15100650D01*
X12960539Y-15100650D02*
X12979587Y-15072079D01*
X12979587Y-15072079D02*
X12989110Y-15053031D01*
X12989110Y-15053031D02*
X12998634Y-15024460D01*
X12998634Y-15024460D02*
X13008158Y-14976841D01*
X13008158Y-14976841D02*
X13008158Y-14938746D01*
X13008158Y-14938746D02*
X12998634Y-14891127D01*
X12998634Y-14891127D02*
X12989110Y-14862555D01*
X12989110Y-14862555D02*
X12979587Y-14843508D01*
X12979587Y-14843508D02*
X12960539Y-14814936D01*
X12960539Y-14814936D02*
X12951015Y-14805412D01*
X6195000Y-15206500D02*
G75*
G02*
X5995000Y-15206500I-100000J0D01*
G01*
X5995000Y-15206500D02*
G75*
G02*
X6195000Y-15206500I100000J0D01*
G01*
X6446253Y-15117031D02*
X6455777Y-15107508D01*
X6455777Y-15107508D02*
X6474824Y-15097984D01*
X6474824Y-15097984D02*
X6522443Y-15097984D01*
X6522443Y-15097984D02*
X6541491Y-15107508D01*
X6541491Y-15107508D02*
X6551015Y-15117031D01*
X6551015Y-15117031D02*
X6560538Y-15136079D01*
X6560538Y-15136079D02*
X6560538Y-15155127D01*
X6560538Y-15155127D02*
X6551015Y-15183698D01*
X6551015Y-15183698D02*
X6436729Y-15297984D01*
X6436729Y-15297984D02*
X6560538Y-15297984D01*
X6646253Y-15278936D02*
X6655777Y-15288460D01*
X6655777Y-15288460D02*
X6646253Y-15297984D01*
X6646253Y-15297984D02*
X6636729Y-15288460D01*
X6636729Y-15288460D02*
X6646253Y-15278936D01*
X6646253Y-15278936D02*
X6646253Y-15297984D01*
X6836729Y-15097984D02*
X6741491Y-15097984D01*
X6741491Y-15097984D02*
X6731967Y-15193222D01*
X6731967Y-15193222D02*
X6741491Y-15183698D01*
X6741491Y-15183698D02*
X6760538Y-15174174D01*
X6760538Y-15174174D02*
X6808158Y-15174174D01*
X6808158Y-15174174D02*
X6827205Y-15183698D01*
X6827205Y-15183698D02*
X6836729Y-15193222D01*
X6836729Y-15193222D02*
X6846253Y-15212269D01*
X6846253Y-15212269D02*
X6846253Y-15259888D01*
X6846253Y-15259888D02*
X6836729Y-15278936D01*
X6836729Y-15278936D02*
X6827205Y-15288460D01*
X6827205Y-15288460D02*
X6808158Y-15297984D01*
X6808158Y-15297984D02*
X6760538Y-15297984D01*
X6760538Y-15297984D02*
X6741491Y-15288460D01*
X6741491Y-15288460D02*
X6731967Y-15278936D01*
X6970062Y-15097984D02*
X6989110Y-15097984D01*
X6989110Y-15097984D02*
X7008158Y-15107508D01*
X7008158Y-15107508D02*
X7017681Y-15117031D01*
X7017681Y-15117031D02*
X7027205Y-15136079D01*
X7027205Y-15136079D02*
X7036729Y-15174174D01*
X7036729Y-15174174D02*
X7036729Y-15221793D01*
X7036729Y-15221793D02*
X7027205Y-15259888D01*
X7027205Y-15259888D02*
X7017681Y-15278936D01*
X7017681Y-15278936D02*
X7008158Y-15288460D01*
X7008158Y-15288460D02*
X6989110Y-15297984D01*
X6989110Y-15297984D02*
X6970062Y-15297984D01*
X6970062Y-15297984D02*
X6951015Y-15288460D01*
X6951015Y-15288460D02*
X6941491Y-15278936D01*
X6941491Y-15278936D02*
X6931967Y-15259888D01*
X6931967Y-15259888D02*
X6922443Y-15221793D01*
X6922443Y-15221793D02*
X6922443Y-15174174D01*
X6922443Y-15174174D02*
X6931967Y-15136079D01*
X6931967Y-15136079D02*
X6941491Y-15117031D01*
X6941491Y-15117031D02*
X6951015Y-15107508D01*
X6951015Y-15107508D02*
X6970062Y-15097984D01*
X7160538Y-15097984D02*
X7179586Y-15097984D01*
X7179586Y-15097984D02*
X7198634Y-15107508D01*
X7198634Y-15107508D02*
X7208158Y-15117031D01*
X7208158Y-15117031D02*
X7217681Y-15136079D01*
X7217681Y-15136079D02*
X7227205Y-15174174D01*
X7227205Y-15174174D02*
X7227205Y-15221793D01*
X7227205Y-15221793D02*
X7217681Y-15259888D01*
X7217681Y-15259888D02*
X7208158Y-15278936D01*
X7208158Y-15278936D02*
X7198634Y-15288460D01*
X7198634Y-15288460D02*
X7179586Y-15297984D01*
X7179586Y-15297984D02*
X7160538Y-15297984D01*
X7160538Y-15297984D02*
X7141491Y-15288460D01*
X7141491Y-15288460D02*
X7131967Y-15278936D01*
X7131967Y-15278936D02*
X7122443Y-15259888D01*
X7122443Y-15259888D02*
X7112919Y-15221793D01*
X7112919Y-15221793D02*
X7112919Y-15174174D01*
X7112919Y-15174174D02*
X7122443Y-15136079D01*
X7122443Y-15136079D02*
X7131967Y-15117031D01*
X7131967Y-15117031D02*
X7141491Y-15107508D01*
X7141491Y-15107508D02*
X7160538Y-15097984D01*
X7312919Y-15297984D02*
X7312919Y-15164650D01*
X7312919Y-15183698D02*
X7322443Y-15174174D01*
X7322443Y-15174174D02*
X7341491Y-15164650D01*
X7341491Y-15164650D02*
X7370062Y-15164650D01*
X7370062Y-15164650D02*
X7389110Y-15174174D01*
X7389110Y-15174174D02*
X7398634Y-15193222D01*
X7398634Y-15193222D02*
X7398634Y-15297984D01*
X7398634Y-15193222D02*
X7408158Y-15174174D01*
X7408158Y-15174174D02*
X7427205Y-15164650D01*
X7427205Y-15164650D02*
X7455777Y-15164650D01*
X7455777Y-15164650D02*
X7474824Y-15174174D01*
X7474824Y-15174174D02*
X7484348Y-15193222D01*
X7484348Y-15193222D02*
X7484348Y-15297984D01*
X7579586Y-15297984D02*
X7579586Y-15164650D01*
X7579586Y-15183698D02*
X7589110Y-15174174D01*
X7589110Y-15174174D02*
X7608158Y-15164650D01*
X7608158Y-15164650D02*
X7636729Y-15164650D01*
X7636729Y-15164650D02*
X7655777Y-15174174D01*
X7655777Y-15174174D02*
X7665300Y-15193222D01*
X7665300Y-15193222D02*
X7665300Y-15297984D01*
X7665300Y-15193222D02*
X7674824Y-15174174D01*
X7674824Y-15174174D02*
X7693872Y-15164650D01*
X7693872Y-15164650D02*
X7722443Y-15164650D01*
X7722443Y-15164650D02*
X7741491Y-15174174D01*
X7741491Y-15174174D02*
X7751015Y-15193222D01*
X7751015Y-15193222D02*
X7751015Y-15297984D01*
X8141491Y-15088460D02*
X7970062Y-15345603D01*
X8398634Y-15097984D02*
X8417682Y-15097984D01*
X8417682Y-15097984D02*
X8436729Y-15107508D01*
X8436729Y-15107508D02*
X8446253Y-15117031D01*
X8446253Y-15117031D02*
X8455777Y-15136079D01*
X8455777Y-15136079D02*
X8465301Y-15174174D01*
X8465301Y-15174174D02*
X8465301Y-15221793D01*
X8465301Y-15221793D02*
X8455777Y-15259888D01*
X8455777Y-15259888D02*
X8446253Y-15278936D01*
X8446253Y-15278936D02*
X8436729Y-15288460D01*
X8436729Y-15288460D02*
X8417682Y-15297984D01*
X8417682Y-15297984D02*
X8398634Y-15297984D01*
X8398634Y-15297984D02*
X8379586Y-15288460D01*
X8379586Y-15288460D02*
X8370062Y-15278936D01*
X8370062Y-15278936D02*
X8360539Y-15259888D01*
X8360539Y-15259888D02*
X8351015Y-15221793D01*
X8351015Y-15221793D02*
X8351015Y-15174174D01*
X8351015Y-15174174D02*
X8360539Y-15136079D01*
X8360539Y-15136079D02*
X8370062Y-15117031D01*
X8370062Y-15117031D02*
X8379586Y-15107508D01*
X8379586Y-15107508D02*
X8398634Y-15097984D01*
X8551015Y-15278936D02*
X8560539Y-15288460D01*
X8560539Y-15288460D02*
X8551015Y-15297984D01*
X8551015Y-15297984D02*
X8541491Y-15288460D01*
X8541491Y-15288460D02*
X8551015Y-15278936D01*
X8551015Y-15278936D02*
X8551015Y-15297984D01*
X8684348Y-15097984D02*
X8703396Y-15097984D01*
X8703396Y-15097984D02*
X8722444Y-15107508D01*
X8722444Y-15107508D02*
X8731967Y-15117031D01*
X8731967Y-15117031D02*
X8741491Y-15136079D01*
X8741491Y-15136079D02*
X8751015Y-15174174D01*
X8751015Y-15174174D02*
X8751015Y-15221793D01*
X8751015Y-15221793D02*
X8741491Y-15259888D01*
X8741491Y-15259888D02*
X8731967Y-15278936D01*
X8731967Y-15278936D02*
X8722444Y-15288460D01*
X8722444Y-15288460D02*
X8703396Y-15297984D01*
X8703396Y-15297984D02*
X8684348Y-15297984D01*
X8684348Y-15297984D02*
X8665301Y-15288460D01*
X8665301Y-15288460D02*
X8655777Y-15278936D01*
X8655777Y-15278936D02*
X8646253Y-15259888D01*
X8646253Y-15259888D02*
X8636729Y-15221793D01*
X8636729Y-15221793D02*
X8636729Y-15174174D01*
X8636729Y-15174174D02*
X8646253Y-15136079D01*
X8646253Y-15136079D02*
X8655777Y-15117031D01*
X8655777Y-15117031D02*
X8665301Y-15107508D01*
X8665301Y-15107508D02*
X8684348Y-15097984D01*
X8846253Y-15297984D02*
X8884348Y-15297984D01*
X8884348Y-15297984D02*
X8903396Y-15288460D01*
X8903396Y-15288460D02*
X8912920Y-15278936D01*
X8912920Y-15278936D02*
X8931967Y-15250365D01*
X8931967Y-15250365D02*
X8941491Y-15212269D01*
X8941491Y-15212269D02*
X8941491Y-15136079D01*
X8941491Y-15136079D02*
X8931967Y-15117031D01*
X8931967Y-15117031D02*
X8922444Y-15107508D01*
X8922444Y-15107508D02*
X8903396Y-15097984D01*
X8903396Y-15097984D02*
X8865301Y-15097984D01*
X8865301Y-15097984D02*
X8846253Y-15107508D01*
X8846253Y-15107508D02*
X8836729Y-15117031D01*
X8836729Y-15117031D02*
X8827205Y-15136079D01*
X8827205Y-15136079D02*
X8827205Y-15183698D01*
X8827205Y-15183698D02*
X8836729Y-15202746D01*
X8836729Y-15202746D02*
X8846253Y-15212269D01*
X8846253Y-15212269D02*
X8865301Y-15221793D01*
X8865301Y-15221793D02*
X8903396Y-15221793D01*
X8903396Y-15221793D02*
X8922444Y-15212269D01*
X8922444Y-15212269D02*
X8931967Y-15202746D01*
X8931967Y-15202746D02*
X8941491Y-15183698D01*
X9055777Y-15183698D02*
X9036729Y-15174174D01*
X9036729Y-15174174D02*
X9027205Y-15164650D01*
X9027205Y-15164650D02*
X9017682Y-15145603D01*
X9017682Y-15145603D02*
X9017682Y-15136079D01*
X9017682Y-15136079D02*
X9027205Y-15117031D01*
X9027205Y-15117031D02*
X9036729Y-15107508D01*
X9036729Y-15107508D02*
X9055777Y-15097984D01*
X9055777Y-15097984D02*
X9093872Y-15097984D01*
X9093872Y-15097984D02*
X9112920Y-15107508D01*
X9112920Y-15107508D02*
X9122444Y-15117031D01*
X9122444Y-15117031D02*
X9131967Y-15136079D01*
X9131967Y-15136079D02*
X9131967Y-15145603D01*
X9131967Y-15145603D02*
X9122444Y-15164650D01*
X9122444Y-15164650D02*
X9112920Y-15174174D01*
X9112920Y-15174174D02*
X9093872Y-15183698D01*
X9093872Y-15183698D02*
X9055777Y-15183698D01*
X9055777Y-15183698D02*
X9036729Y-15193222D01*
X9036729Y-15193222D02*
X9027205Y-15202746D01*
X9027205Y-15202746D02*
X9017682Y-15221793D01*
X9017682Y-15221793D02*
X9017682Y-15259888D01*
X9017682Y-15259888D02*
X9027205Y-15278936D01*
X9027205Y-15278936D02*
X9036729Y-15288460D01*
X9036729Y-15288460D02*
X9055777Y-15297984D01*
X9055777Y-15297984D02*
X9093872Y-15297984D01*
X9093872Y-15297984D02*
X9112920Y-15288460D01*
X9112920Y-15288460D02*
X9122444Y-15278936D01*
X9122444Y-15278936D02*
X9131967Y-15259888D01*
X9131967Y-15259888D02*
X9131967Y-15221793D01*
X9131967Y-15221793D02*
X9122444Y-15202746D01*
X9122444Y-15202746D02*
X9112920Y-15193222D01*
X9112920Y-15193222D02*
X9093872Y-15183698D01*
X9303396Y-15164650D02*
X9303396Y-15297984D01*
X9255777Y-15088460D02*
X9208158Y-15231317D01*
X9208158Y-15231317D02*
X9331967Y-15231317D01*
X9398634Y-15097984D02*
X9398634Y-15136079D01*
X9474825Y-15097984D02*
X9474825Y-15136079D01*
X9770063Y-15374174D02*
X9760539Y-15364650D01*
X9760539Y-15364650D02*
X9741491Y-15336079D01*
X9741491Y-15336079D02*
X9731967Y-15317031D01*
X9731967Y-15317031D02*
X9722444Y-15288460D01*
X9722444Y-15288460D02*
X9712920Y-15240841D01*
X9712920Y-15240841D02*
X9712920Y-15202746D01*
X9712920Y-15202746D02*
X9722444Y-15155127D01*
X9722444Y-15155127D02*
X9731967Y-15126555D01*
X9731967Y-15126555D02*
X9741491Y-15107508D01*
X9741491Y-15107508D02*
X9760539Y-15078936D01*
X9760539Y-15078936D02*
X9770063Y-15069412D01*
X9827206Y-15097984D02*
X9960539Y-15097984D01*
X9960539Y-15097984D02*
X9874825Y-15297984D01*
X10189110Y-15297984D02*
X10189110Y-15097984D01*
X10274825Y-15297984D02*
X10274825Y-15193222D01*
X10274825Y-15193222D02*
X10265301Y-15174174D01*
X10265301Y-15174174D02*
X10246253Y-15164650D01*
X10246253Y-15164650D02*
X10217682Y-15164650D01*
X10217682Y-15164650D02*
X10198634Y-15174174D01*
X10198634Y-15174174D02*
X10189110Y-15183698D01*
X10398634Y-15297984D02*
X10379587Y-15288460D01*
X10379587Y-15288460D02*
X10370063Y-15278936D01*
X10370063Y-15278936D02*
X10360539Y-15259888D01*
X10360539Y-15259888D02*
X10360539Y-15202746D01*
X10360539Y-15202746D02*
X10370063Y-15183698D01*
X10370063Y-15183698D02*
X10379587Y-15174174D01*
X10379587Y-15174174D02*
X10398634Y-15164650D01*
X10398634Y-15164650D02*
X10427206Y-15164650D01*
X10427206Y-15164650D02*
X10446253Y-15174174D01*
X10446253Y-15174174D02*
X10455777Y-15183698D01*
X10455777Y-15183698D02*
X10465301Y-15202746D01*
X10465301Y-15202746D02*
X10465301Y-15259888D01*
X10465301Y-15259888D02*
X10455777Y-15278936D01*
X10455777Y-15278936D02*
X10446253Y-15288460D01*
X10446253Y-15288460D02*
X10427206Y-15297984D01*
X10427206Y-15297984D02*
X10398634Y-15297984D01*
X10579587Y-15297984D02*
X10560539Y-15288460D01*
X10560539Y-15288460D02*
X10551015Y-15269412D01*
X10551015Y-15269412D02*
X10551015Y-15097984D01*
X10731968Y-15288460D02*
X10712920Y-15297984D01*
X10712920Y-15297984D02*
X10674825Y-15297984D01*
X10674825Y-15297984D02*
X10655777Y-15288460D01*
X10655777Y-15288460D02*
X10646253Y-15269412D01*
X10646253Y-15269412D02*
X10646253Y-15193222D01*
X10646253Y-15193222D02*
X10655777Y-15174174D01*
X10655777Y-15174174D02*
X10674825Y-15164650D01*
X10674825Y-15164650D02*
X10712920Y-15164650D01*
X10712920Y-15164650D02*
X10731968Y-15174174D01*
X10731968Y-15174174D02*
X10741491Y-15193222D01*
X10741491Y-15193222D02*
X10741491Y-15212269D01*
X10741491Y-15212269D02*
X10646253Y-15231317D01*
X10817682Y-15288460D02*
X10836729Y-15297984D01*
X10836729Y-15297984D02*
X10874825Y-15297984D01*
X10874825Y-15297984D02*
X10893872Y-15288460D01*
X10893872Y-15288460D02*
X10903396Y-15269412D01*
X10903396Y-15269412D02*
X10903396Y-15259888D01*
X10903396Y-15259888D02*
X10893872Y-15240841D01*
X10893872Y-15240841D02*
X10874825Y-15231317D01*
X10874825Y-15231317D02*
X10846253Y-15231317D01*
X10846253Y-15231317D02*
X10827206Y-15221793D01*
X10827206Y-15221793D02*
X10817682Y-15202746D01*
X10817682Y-15202746D02*
X10817682Y-15193222D01*
X10817682Y-15193222D02*
X10827206Y-15174174D01*
X10827206Y-15174174D02*
X10846253Y-15164650D01*
X10846253Y-15164650D02*
X10874825Y-15164650D01*
X10874825Y-15164650D02*
X10893872Y-15174174D01*
X10970063Y-15374174D02*
X10979587Y-15364650D01*
X10979587Y-15364650D02*
X10998634Y-15336079D01*
X10998634Y-15336079D02*
X11008158Y-15317031D01*
X11008158Y-15317031D02*
X11017682Y-15288460D01*
X11017682Y-15288460D02*
X11027206Y-15240841D01*
X11027206Y-15240841D02*
X11027206Y-15202746D01*
X11027206Y-15202746D02*
X11017682Y-15155127D01*
X11017682Y-15155127D02*
X11008158Y-15126555D01*
X11008158Y-15126555D02*
X10998634Y-15107508D01*
X10998634Y-15107508D02*
X10979587Y-15078936D01*
X10979587Y-15078936D02*
X10970063Y-15069412D01*
X11331968Y-15374174D02*
X11322444Y-15364650D01*
X11322444Y-15364650D02*
X11303396Y-15336079D01*
X11303396Y-15336079D02*
X11293872Y-15317031D01*
X11293872Y-15317031D02*
X11284348Y-15288460D01*
X11284348Y-15288460D02*
X11274825Y-15240841D01*
X11274825Y-15240841D02*
X11274825Y-15202746D01*
X11274825Y-15202746D02*
X11284348Y-15155127D01*
X11284348Y-15155127D02*
X11293872Y-15126555D01*
X11293872Y-15126555D02*
X11303396Y-15107508D01*
X11303396Y-15107508D02*
X11322444Y-15078936D01*
X11322444Y-15078936D02*
X11331968Y-15069412D01*
X11408158Y-15164650D02*
X11408158Y-15297984D01*
X11408158Y-15183698D02*
X11417682Y-15174174D01*
X11417682Y-15174174D02*
X11436729Y-15164650D01*
X11436729Y-15164650D02*
X11465301Y-15164650D01*
X11465301Y-15164650D02*
X11484348Y-15174174D01*
X11484348Y-15174174D02*
X11493872Y-15193222D01*
X11493872Y-15193222D02*
X11493872Y-15297984D01*
X11617682Y-15297984D02*
X11598634Y-15288460D01*
X11598634Y-15288460D02*
X11589110Y-15278936D01*
X11589110Y-15278936D02*
X11579587Y-15259888D01*
X11579587Y-15259888D02*
X11579587Y-15202746D01*
X11579587Y-15202746D02*
X11589110Y-15183698D01*
X11589110Y-15183698D02*
X11598634Y-15174174D01*
X11598634Y-15174174D02*
X11617682Y-15164650D01*
X11617682Y-15164650D02*
X11646253Y-15164650D01*
X11646253Y-15164650D02*
X11665301Y-15174174D01*
X11665301Y-15174174D02*
X11674825Y-15183698D01*
X11674825Y-15183698D02*
X11684348Y-15202746D01*
X11684348Y-15202746D02*
X11684348Y-15259888D01*
X11684348Y-15259888D02*
X11674825Y-15278936D01*
X11674825Y-15278936D02*
X11665301Y-15288460D01*
X11665301Y-15288460D02*
X11646253Y-15297984D01*
X11646253Y-15297984D02*
X11617682Y-15297984D01*
X11741491Y-15164650D02*
X11817682Y-15164650D01*
X11770063Y-15097984D02*
X11770063Y-15269412D01*
X11770063Y-15269412D02*
X11779587Y-15288460D01*
X11779587Y-15288460D02*
X11798634Y-15297984D01*
X11798634Y-15297984D02*
X11817682Y-15297984D01*
X12036729Y-15164650D02*
X12036729Y-15364650D01*
X12036729Y-15174174D02*
X12055777Y-15164650D01*
X12055777Y-15164650D02*
X12093872Y-15164650D01*
X12093872Y-15164650D02*
X12112920Y-15174174D01*
X12112920Y-15174174D02*
X12122444Y-15183698D01*
X12122444Y-15183698D02*
X12131968Y-15202746D01*
X12131968Y-15202746D02*
X12131968Y-15259888D01*
X12131968Y-15259888D02*
X12122444Y-15278936D01*
X12122444Y-15278936D02*
X12112920Y-15288460D01*
X12112920Y-15288460D02*
X12093872Y-15297984D01*
X12093872Y-15297984D02*
X12055777Y-15297984D01*
X12055777Y-15297984D02*
X12036729Y-15288460D01*
X12246253Y-15297984D02*
X12227206Y-15288460D01*
X12227206Y-15288460D02*
X12217682Y-15269412D01*
X12217682Y-15269412D02*
X12217682Y-15097984D01*
X12408158Y-15297984D02*
X12408158Y-15193222D01*
X12408158Y-15193222D02*
X12398634Y-15174174D01*
X12398634Y-15174174D02*
X12379587Y-15164650D01*
X12379587Y-15164650D02*
X12341491Y-15164650D01*
X12341491Y-15164650D02*
X12322444Y-15174174D01*
X12408158Y-15288460D02*
X12389110Y-15297984D01*
X12389110Y-15297984D02*
X12341491Y-15297984D01*
X12341491Y-15297984D02*
X12322444Y-15288460D01*
X12322444Y-15288460D02*
X12312920Y-15269412D01*
X12312920Y-15269412D02*
X12312920Y-15250365D01*
X12312920Y-15250365D02*
X12322444Y-15231317D01*
X12322444Y-15231317D02*
X12341491Y-15221793D01*
X12341491Y-15221793D02*
X12389110Y-15221793D01*
X12389110Y-15221793D02*
X12408158Y-15212269D01*
X12474825Y-15164650D02*
X12551015Y-15164650D01*
X12503396Y-15097984D02*
X12503396Y-15269412D01*
X12503396Y-15269412D02*
X12512920Y-15288460D01*
X12512920Y-15288460D02*
X12531968Y-15297984D01*
X12531968Y-15297984D02*
X12551015Y-15297984D01*
X12693872Y-15288460D02*
X12674825Y-15297984D01*
X12674825Y-15297984D02*
X12636729Y-15297984D01*
X12636729Y-15297984D02*
X12617682Y-15288460D01*
X12617682Y-15288460D02*
X12608158Y-15269412D01*
X12608158Y-15269412D02*
X12608158Y-15193222D01*
X12608158Y-15193222D02*
X12617682Y-15174174D01*
X12617682Y-15174174D02*
X12636729Y-15164650D01*
X12636729Y-15164650D02*
X12674825Y-15164650D01*
X12674825Y-15164650D02*
X12693872Y-15174174D01*
X12693872Y-15174174D02*
X12703396Y-15193222D01*
X12703396Y-15193222D02*
X12703396Y-15212269D01*
X12703396Y-15212269D02*
X12608158Y-15231317D01*
X12874825Y-15297984D02*
X12874825Y-15097984D01*
X12874825Y-15288460D02*
X12855777Y-15297984D01*
X12855777Y-15297984D02*
X12817682Y-15297984D01*
X12817682Y-15297984D02*
X12798634Y-15288460D01*
X12798634Y-15288460D02*
X12789110Y-15278936D01*
X12789110Y-15278936D02*
X12779587Y-15259888D01*
X12779587Y-15259888D02*
X12779587Y-15202746D01*
X12779587Y-15202746D02*
X12789110Y-15183698D01*
X12789110Y-15183698D02*
X12798634Y-15174174D01*
X12798634Y-15174174D02*
X12817682Y-15164650D01*
X12817682Y-15164650D02*
X12855777Y-15164650D01*
X12855777Y-15164650D02*
X12874825Y-15174174D01*
X12951015Y-15374174D02*
X12960539Y-15364650D01*
X12960539Y-15364650D02*
X12979587Y-15336079D01*
X12979587Y-15336079D02*
X12989110Y-15317031D01*
X12989110Y-15317031D02*
X12998634Y-15288460D01*
X12998634Y-15288460D02*
X13008158Y-15240841D01*
X13008158Y-15240841D02*
X13008158Y-15202746D01*
X13008158Y-15202746D02*
X12998634Y-15155127D01*
X12998634Y-15155127D02*
X12989110Y-15126555D01*
X12989110Y-15126555D02*
X12979587Y-15107508D01*
X12979587Y-15107508D02*
X12960539Y-15078936D01*
X12960539Y-15078936D02*
X12951015Y-15069412D01*
M02*
