%TF.GenerationSoftware,KiCad,Pcbnew,8.0.8*%
%TF.CreationDate,2025-02-06T15:55:43+07:00*%
%TF.ProjectId,HW.ACIM-DBG,48572e41-4349-44d2-9d44-42472e6b6963,0.1*%
%TF.SameCoordinates,Original*%
%TF.FileFunction,Profile,NP*%
%FSLAX46Y46*%
G04 Gerber Fmt 4.6, Leading zero omitted, Abs format (unit mm)*
G04 Created by KiCad (PCBNEW 8.0.8) date 2025-02-06 15:55:43*
%MOMM*%
%LPD*%
G01*
G04 APERTURE LIST*
%TA.AperFunction,Profile*%
%ADD10C,0.050000*%
%TD*%
G04 APERTURE END LIST*
D10*
X98224999Y-56400001D02*
X95224999Y-56400001D01*
X97224999Y-95250000D02*
X97224999Y-94700002D01*
X61974998Y-116500000D02*
X61975000Y-140750000D01*
X67224999Y-56400001D02*
X64224999Y-56400001D01*
X94724999Y-77899999D02*
G75*
G02*
X95224999Y-77399999I500001J-1D01*
G01*
X69224998Y-114250000D02*
G75*
G02*
X69224999Y-113250000I2J500000D01*
G01*
X66675000Y-57400001D02*
X67224999Y-57400001D01*
X65225000Y-58850001D02*
G75*
G02*
X66675000Y-57400000I1450000J1D01*
G01*
X61974999Y-54150001D02*
X61974999Y-50250001D01*
X95224999Y-57400001D02*
G75*
G02*
X95224999Y-56399999I1J500001D01*
G01*
X100475000Y-112000002D02*
G75*
G02*
X98225000Y-114250000I-2250000J2D01*
G01*
X69224998Y-114250000D02*
X93224998Y-114250000D01*
X100475000Y-95249999D02*
G75*
G02*
X99974999Y-95750000I-500000J-1D01*
G01*
X100475000Y-95249999D02*
X100474999Y-75400001D01*
X97725000Y-73900002D02*
G75*
G02*
X97224998Y-73400001I0J500002D01*
G01*
X97725000Y-95750000D02*
G75*
G02*
X97225000Y-95250000I0J500000D01*
G01*
X66674999Y-77400000D02*
G75*
G02*
X65225000Y-75950000I1J1450000D01*
G01*
X61975000Y-50250000D02*
G75*
G02*
X64225000Y-48000000I2250000J0D01*
G01*
X69224999Y-57400001D02*
G75*
G02*
X69224999Y-56399999I1J500001D01*
G01*
X99975000Y-96749998D02*
G75*
G02*
X100475002Y-97249999I0J-500002D01*
G01*
X61974998Y-116500000D02*
G75*
G02*
X64224998Y-114249998I2250002J0D01*
G01*
X69224999Y-77399999D02*
X93224999Y-77399999D01*
X66674999Y-93250000D02*
X67224998Y-93250000D01*
X100475001Y-73400001D02*
X100475001Y-58650001D01*
X93224999Y-56400001D02*
X69224999Y-56400001D01*
X97224998Y-75400001D02*
G75*
G02*
X97724999Y-74899998I500002J1D01*
G01*
X119725000Y-48000000D02*
G75*
G02*
X121975000Y-50250000I0J-2250000D01*
G01*
X65224999Y-75950000D02*
X65225000Y-58850001D01*
X93724998Y-92750000D02*
X93724999Y-77899999D01*
X97224997Y-97250000D02*
G75*
G02*
X97724999Y-96749997I500003J0D01*
G01*
X95774997Y-93250000D02*
G75*
G02*
X97225000Y-94700001I3J-1450000D01*
G01*
X64225000Y-143000000D02*
G75*
G02*
X61975000Y-140750000I0J2250000D01*
G01*
X95224998Y-93250000D02*
G75*
G02*
X94725000Y-92750000I2J500000D01*
G01*
X93224997Y-113250000D02*
G75*
G02*
X93224998Y-114250000I3J-500000D01*
G01*
X95224998Y-114250000D02*
G75*
G02*
X95224998Y-113250000I2J500000D01*
G01*
X67724998Y-92750000D02*
X67724998Y-77899999D01*
X95774998Y-57400001D02*
G75*
G02*
X97224999Y-58850001I2J-1449999D01*
G01*
X67224998Y-113250000D02*
X66674999Y-113250000D01*
X67224998Y-77399999D02*
G75*
G02*
X67725001Y-77899999I2J-500001D01*
G01*
X97224998Y-75949999D02*
G75*
G02*
X95774998Y-77399998I-1449998J-1D01*
G01*
X69224998Y-93250000D02*
G75*
G02*
X68725000Y-92750000I2J500000D01*
G01*
X95224999Y-57400001D02*
X95774998Y-57400001D01*
X95774997Y-113250000D02*
X95224998Y-113250000D01*
X64225000Y-143000000D02*
X119725000Y-143000000D01*
X93224999Y-56400001D02*
G75*
G02*
X93224999Y-57399999I1J-499999D01*
G01*
X97224997Y-111800000D02*
G75*
G02*
X95774997Y-113249997I-1449997J0D01*
G01*
X67224998Y-113250000D02*
G75*
G02*
X67224998Y-114250000I2J-500000D01*
G01*
X97224997Y-97250000D02*
X97224997Y-111800000D01*
X97724999Y-74900000D02*
X99974999Y-74900000D01*
X98224998Y-114250000D02*
X95224998Y-114250000D01*
X97725000Y-73900002D02*
X99975000Y-73900002D01*
X66674999Y-113250000D02*
G75*
G02*
X65225000Y-111800000I1J1450000D01*
G01*
X100475001Y-73400001D02*
G75*
G02*
X99975000Y-73900001I-500001J1D01*
G01*
X93224998Y-93250000D02*
X69224998Y-93250000D01*
X93224999Y-77399999D02*
G75*
G02*
X93725001Y-77899999I1J-500001D01*
G01*
X121975000Y-140750000D02*
X121975000Y-50250000D01*
X69224999Y-113250000D02*
X93224997Y-113250000D01*
X67724998Y-92750000D02*
G75*
G02*
X67224998Y-93249998I-499998J0D01*
G01*
X95224998Y-93250000D02*
X95774997Y-93250000D01*
X98224999Y-56400001D02*
G75*
G02*
X100474999Y-58650001I1J-2249999D01*
G01*
X100475000Y-112000002D02*
X100475001Y-97249999D01*
X99974999Y-95750000D02*
X97725000Y-95750001D01*
X65224999Y-94700002D02*
X65224999Y-111800001D01*
X93224999Y-57400001D02*
X69224999Y-57400001D01*
X99975000Y-96749998D02*
X97724999Y-96749998D01*
X121975000Y-140750000D02*
G75*
G02*
X119725000Y-143000000I-2250000J0D01*
G01*
X99974998Y-74900000D02*
G75*
G02*
X100475000Y-75400001I2J-500000D01*
G01*
X68724999Y-77899999D02*
G75*
G02*
X69224999Y-77399999I500001J-1D01*
G01*
X65224999Y-94700002D02*
G75*
G02*
X66674999Y-93249999I1450001J2D01*
G01*
X94724999Y-77899999D02*
X94724998Y-92750000D01*
X67224999Y-56400001D02*
G75*
G02*
X67224999Y-57399999I1J-499999D01*
G01*
X95774998Y-77399999D02*
X95224999Y-77399999D01*
X97224998Y-75949999D02*
X97224998Y-75400001D01*
X64224999Y-56400001D02*
G75*
G02*
X61974999Y-54150001I1J2250001D01*
G01*
X68724999Y-77899999D02*
X68724998Y-92750000D01*
X67224998Y-114250000D02*
X64224998Y-114250000D01*
X97224998Y-73400001D02*
X97224998Y-58850001D01*
X119725000Y-48000000D02*
X64225000Y-48000000D01*
X67224998Y-77399999D02*
X66674999Y-77399999D01*
X93724998Y-92750000D02*
G75*
G02*
X93224998Y-93249998I-499998J0D01*
G01*
M02*
