%TF.GenerationSoftware,KiCad,Pcbnew,8.0.8*%
%TF.CreationDate,2025-02-06T15:55:43+07:00*%
%TF.ProjectId,HW.ACIM-DBG,48572e41-4349-44d2-9d44-42472e6b6963,0.1*%
%TF.SameCoordinates,Original*%
%TF.FileFunction,Legend,Bot*%
%TF.FilePolarity,Positive*%
%FSLAX46Y46*%
G04 Gerber Fmt 4.6, Leading zero omitted, Abs format (unit mm)*
G04 Created by KiCad (PCBNEW 8.0.8) date 2025-02-06 15:55:43*
%MOMM*%
%LPD*%
G01*
G04 APERTURE LIST*
%ADD10C,0.150000*%
%ADD11C,0.100000*%
%ADD12C,0.154000*%
G04 APERTURE END LIST*
D10*
G36*
X88814943Y-76471937D02*
G01*
X88814943Y-76622000D01*
X89356380Y-76622000D01*
X89349786Y-76582188D01*
X89338795Y-76543451D01*
X89323407Y-76505789D01*
X89303624Y-76469201D01*
X89280285Y-76435318D01*
X89253746Y-76402689D01*
X89227024Y-76372969D01*
X89196113Y-76340949D01*
X89161013Y-76306630D01*
X89129918Y-76277519D01*
X89099226Y-76248877D01*
X89067608Y-76218524D01*
X89037910Y-76188651D01*
X89011103Y-76159008D01*
X89001740Y-76146801D01*
X88982331Y-76111355D01*
X88971414Y-76073327D01*
X88969890Y-76053011D01*
X88975201Y-76012743D01*
X88994276Y-75977804D01*
X88997636Y-75974267D01*
X89033072Y-75952770D01*
X89074231Y-75946717D01*
X89115281Y-75953071D01*
X89149414Y-75973856D01*
X89151216Y-75975635D01*
X89172680Y-76011161D01*
X89182247Y-76051699D01*
X89184238Y-76071769D01*
X89338208Y-76056528D01*
X89332498Y-76017017D01*
X89321855Y-75974428D01*
X89307077Y-75937100D01*
X89284609Y-75900201D01*
X89256513Y-75870464D01*
X89252040Y-75866801D01*
X89218509Y-75844341D01*
X89181520Y-75827397D01*
X89141071Y-75815970D01*
X89097162Y-75810060D01*
X89070518Y-75809159D01*
X89027615Y-75811412D01*
X88988297Y-75818172D01*
X88946958Y-75831753D01*
X88910500Y-75851468D01*
X88883135Y-75873249D01*
X88856564Y-75902708D01*
X88834188Y-75940061D01*
X88820337Y-75981348D01*
X88815209Y-76020699D01*
X88814943Y-76032495D01*
X88817690Y-76072374D01*
X88825934Y-76110824D01*
X88834482Y-76135663D01*
X88852324Y-76172987D01*
X88874279Y-76208406D01*
X88896227Y-76238245D01*
X88923649Y-76269313D01*
X88952510Y-76298384D01*
X88984134Y-76328377D01*
X88997441Y-76340632D01*
X89026850Y-76367650D01*
X89057134Y-76396124D01*
X89085924Y-76424809D01*
X89090058Y-76429341D01*
X89114310Y-76460194D01*
X89121712Y-76471937D01*
X88814943Y-76471937D01*
G37*
G36*
X88698292Y-76409411D02*
G01*
X88698292Y-76271853D01*
X88394845Y-76271853D01*
X88394845Y-76409411D01*
X88698292Y-76409411D01*
G37*
G36*
X87945633Y-76622000D02*
G01*
X88099995Y-76622000D01*
X88099995Y-76033863D01*
X88132787Y-76064111D01*
X88167708Y-76091254D01*
X88204759Y-76115292D01*
X88243939Y-76136225D01*
X88285249Y-76154053D01*
X88299492Y-76159306D01*
X88299492Y-76009243D01*
X88260727Y-75993757D01*
X88224075Y-75974011D01*
X88190095Y-75951839D01*
X88168188Y-75935775D01*
X88135508Y-75907491D01*
X88108397Y-75876961D01*
X88086855Y-75844184D01*
X88070881Y-75809159D01*
X87945633Y-75809159D01*
X87945633Y-76622000D01*
G37*
G36*
X89364838Y-94511239D02*
G01*
X89215361Y-94491895D01*
X89207551Y-94530302D01*
X89190998Y-94567000D01*
X89176869Y-94584903D01*
X89144640Y-94607903D01*
X89106573Y-94616822D01*
X89101056Y-94616947D01*
X89062219Y-94609953D01*
X89029141Y-94588972D01*
X89020749Y-94580408D01*
X88999495Y-94546496D01*
X88989493Y-94507694D01*
X88987922Y-94481734D01*
X88992346Y-94441178D01*
X89007123Y-94404931D01*
X89019381Y-94388727D01*
X89051695Y-94364043D01*
X89090020Y-94354472D01*
X89095585Y-94354337D01*
X89134917Y-94358401D01*
X89166513Y-94365866D01*
X89149513Y-94241790D01*
X89109925Y-94239586D01*
X89072247Y-94228528D01*
X89053966Y-94217170D01*
X89029199Y-94186689D01*
X89020944Y-94147610D01*
X89029486Y-94109060D01*
X89045173Y-94088796D01*
X89081550Y-94069822D01*
X89109458Y-94066717D01*
X89148196Y-94073941D01*
X89177064Y-94092314D01*
X89200575Y-94125975D01*
X89211063Y-94166759D01*
X89353310Y-94144288D01*
X89343766Y-94104683D01*
X89330371Y-94066261D01*
X89312243Y-94030784D01*
X89308564Y-94025098D01*
X89282818Y-93994232D01*
X89250422Y-93968751D01*
X89225131Y-93954756D01*
X89186689Y-93940183D01*
X89145245Y-93931659D01*
X89104964Y-93929159D01*
X89063906Y-93931653D01*
X89020016Y-93940865D01*
X88980445Y-93956866D01*
X88945195Y-93979654D01*
X88922661Y-94000087D01*
X88895269Y-94033936D01*
X88876842Y-94070196D01*
X88867380Y-94108867D01*
X88865996Y-94131392D01*
X88871541Y-94174775D01*
X88888174Y-94214137D01*
X88915897Y-94249478D01*
X88948485Y-94276571D01*
X88981865Y-94296891D01*
X88941344Y-94310100D01*
X88906241Y-94330673D01*
X88876558Y-94358612D01*
X88871272Y-94365084D01*
X88849324Y-94400213D01*
X88835506Y-94439654D01*
X88830019Y-94478839D01*
X88829653Y-94492676D01*
X88832380Y-94532290D01*
X88842455Y-94575657D01*
X88859954Y-94615958D01*
X88884877Y-94653192D01*
X88907225Y-94677910D01*
X88937580Y-94703940D01*
X88976381Y-94727502D01*
X89018828Y-94743734D01*
X89058114Y-94751812D01*
X89100079Y-94754505D01*
X89139733Y-94752142D01*
X89182697Y-94743412D01*
X89222109Y-94728249D01*
X89257967Y-94706653D01*
X89281405Y-94687289D01*
X89309974Y-94655824D01*
X89332765Y-94620413D01*
X89349778Y-94581057D01*
X89361012Y-94537754D01*
X89364838Y-94511239D01*
G37*
G36*
X88510719Y-93931177D02*
G01*
X88549774Y-93938926D01*
X88590753Y-93955311D01*
X88626796Y-93979606D01*
X88657901Y-94011811D01*
X88680699Y-94046316D01*
X88699633Y-94087061D01*
X88711997Y-94124149D01*
X88721889Y-94165231D01*
X88729308Y-94210306D01*
X88734254Y-94259374D01*
X88736341Y-94298796D01*
X88737036Y-94340464D01*
X88736966Y-94354870D01*
X88735913Y-94396423D01*
X88732542Y-94447943D01*
X88726924Y-94495024D01*
X88719060Y-94537666D01*
X88706069Y-94584726D01*
X88689568Y-94624849D01*
X88665131Y-94663842D01*
X88655941Y-94674821D01*
X88626235Y-94703507D01*
X88593329Y-94725818D01*
X88557221Y-94741755D01*
X88517913Y-94751317D01*
X88475403Y-94754505D01*
X88440143Y-94752487D01*
X88401144Y-94744738D01*
X88360211Y-94728353D01*
X88324197Y-94704058D01*
X88293100Y-94671853D01*
X88270303Y-94637319D01*
X88251369Y-94596489D01*
X88239004Y-94559291D01*
X88229113Y-94518062D01*
X88221694Y-94472804D01*
X88216748Y-94423516D01*
X88214661Y-94383905D01*
X88213966Y-94342027D01*
X88375361Y-94342027D01*
X88375612Y-94375214D01*
X88376926Y-94420300D01*
X88379367Y-94459752D01*
X88383638Y-94498661D01*
X88391384Y-94537422D01*
X88401752Y-94567134D01*
X88425382Y-94599557D01*
X88436788Y-94607165D01*
X88475403Y-94616947D01*
X88488995Y-94615885D01*
X88525229Y-94599948D01*
X88547279Y-94569785D01*
X88561181Y-94531364D01*
X88566029Y-94508991D01*
X88570932Y-94469735D01*
X88573760Y-94426551D01*
X88575097Y-94382971D01*
X88575445Y-94342027D01*
X88575195Y-94308878D01*
X88573880Y-94263801D01*
X88571439Y-94224302D01*
X88567168Y-94185270D01*
X88559423Y-94146242D01*
X88549055Y-94116530D01*
X88525424Y-94084107D01*
X88514018Y-94076499D01*
X88475403Y-94066717D01*
X88461823Y-94067804D01*
X88425773Y-94084107D01*
X88403564Y-94114490D01*
X88389625Y-94153081D01*
X88384778Y-94175381D01*
X88379874Y-94214540D01*
X88377047Y-94257639D01*
X88375710Y-94301144D01*
X88375361Y-94342027D01*
X88213966Y-94342027D01*
X88214272Y-94313814D01*
X88215883Y-94273407D01*
X88220179Y-94223099D01*
X88226929Y-94176870D01*
X88236134Y-94134719D01*
X88251092Y-94087768D01*
X88269885Y-94047189D01*
X88292514Y-94012983D01*
X88319066Y-93984496D01*
X88354559Y-93958711D01*
X88394913Y-93940947D01*
X88433372Y-93932106D01*
X88475403Y-93929159D01*
X88510719Y-93931177D01*
G37*
G36*
X88098292Y-94529411D02*
G01*
X88098292Y-94391853D01*
X87794845Y-94391853D01*
X87794845Y-94529411D01*
X88098292Y-94529411D01*
G37*
G36*
X87219213Y-94591937D02*
G01*
X87219213Y-94742000D01*
X87760651Y-94742000D01*
X87754056Y-94702188D01*
X87743065Y-94663451D01*
X87727678Y-94625789D01*
X87707894Y-94589201D01*
X87684556Y-94555318D01*
X87658017Y-94522689D01*
X87631295Y-94492969D01*
X87600384Y-94460949D01*
X87565284Y-94426630D01*
X87534189Y-94397519D01*
X87503496Y-94368877D01*
X87471879Y-94338524D01*
X87442181Y-94308651D01*
X87415374Y-94279008D01*
X87406010Y-94266801D01*
X87386602Y-94231355D01*
X87375685Y-94193327D01*
X87374161Y-94173011D01*
X87379472Y-94132743D01*
X87398547Y-94097804D01*
X87401907Y-94094267D01*
X87437343Y-94072770D01*
X87478502Y-94066717D01*
X87519552Y-94073071D01*
X87553684Y-94093856D01*
X87555487Y-94095635D01*
X87576951Y-94131161D01*
X87586517Y-94171699D01*
X87588509Y-94191769D01*
X87742479Y-94176528D01*
X87736769Y-94137017D01*
X87726126Y-94094428D01*
X87711348Y-94057100D01*
X87688880Y-94020201D01*
X87660784Y-93990464D01*
X87656310Y-93986801D01*
X87622780Y-93964341D01*
X87585791Y-93947397D01*
X87545342Y-93935970D01*
X87501433Y-93930060D01*
X87474789Y-93929159D01*
X87431886Y-93931412D01*
X87392568Y-93938172D01*
X87351229Y-93951753D01*
X87314771Y-93971468D01*
X87287406Y-93993249D01*
X87260835Y-94022708D01*
X87238459Y-94060061D01*
X87224608Y-94101348D01*
X87219480Y-94140699D01*
X87219213Y-94152495D01*
X87221961Y-94192374D01*
X87230204Y-94230824D01*
X87238753Y-94255663D01*
X87256595Y-94292987D01*
X87278550Y-94328406D01*
X87300497Y-94358245D01*
X87327920Y-94389313D01*
X87356781Y-94418384D01*
X87388405Y-94448377D01*
X87401712Y-94460632D01*
X87431121Y-94487650D01*
X87461405Y-94516124D01*
X87490194Y-94544809D01*
X87494329Y-94549341D01*
X87518581Y-94580194D01*
X87525982Y-94591937D01*
X87219213Y-94591937D01*
G37*
G36*
X86905866Y-93930953D02*
G01*
X86944407Y-93937841D01*
X86985830Y-93952405D01*
X87023438Y-93974001D01*
X87057232Y-94002628D01*
X87081934Y-94031747D01*
X87104293Y-94069869D01*
X87119697Y-94112461D01*
X87127363Y-94152525D01*
X87129918Y-94195872D01*
X87128234Y-94230727D01*
X87121768Y-94269781D01*
X87108094Y-94311525D01*
X87087820Y-94349154D01*
X87060944Y-94382669D01*
X87043291Y-94399476D01*
X87010430Y-94423496D01*
X86975064Y-94440653D01*
X86937191Y-94450948D01*
X86896813Y-94454379D01*
X86854962Y-94450154D01*
X86816750Y-94437478D01*
X86782177Y-94416351D01*
X86751244Y-94386773D01*
X86752511Y-94403914D01*
X86757448Y-94450886D01*
X86764088Y-94491182D01*
X86775592Y-94534523D01*
X86794231Y-94572006D01*
X86805025Y-94584953D01*
X86836395Y-94608345D01*
X86875515Y-94616947D01*
X86901856Y-94613925D01*
X86936478Y-94595454D01*
X86955138Y-94568196D01*
X86965005Y-94529411D01*
X87114482Y-94545433D01*
X87112267Y-94558272D01*
X87101942Y-94600013D01*
X87087615Y-94636780D01*
X87066342Y-94672708D01*
X87039841Y-94702139D01*
X87004214Y-94727453D01*
X86967718Y-94742999D01*
X86926679Y-94751999D01*
X86887043Y-94754505D01*
X86870823Y-94754122D01*
X86824480Y-94748374D01*
X86781613Y-94735730D01*
X86742222Y-94716189D01*
X86706307Y-94689751D01*
X86673868Y-94656417D01*
X86659237Y-94636942D01*
X86638050Y-94599667D01*
X86620860Y-94556372D01*
X86609987Y-94517402D01*
X86601672Y-94474578D01*
X86595915Y-94427902D01*
X86592717Y-94377373D01*
X86591998Y-94336947D01*
X86592074Y-94323463D01*
X86593915Y-94271921D01*
X86598211Y-94224215D01*
X86602000Y-94199585D01*
X86765117Y-94199585D01*
X86765593Y-94213562D01*
X86773720Y-94252998D01*
X86795599Y-94287122D01*
X86797517Y-94288949D01*
X86831956Y-94310296D01*
X86870630Y-94316822D01*
X86876335Y-94316701D01*
X86915324Y-94308109D01*
X86947615Y-94285949D01*
X86961036Y-94268315D01*
X86974667Y-94230282D01*
X86978292Y-94189034D01*
X86977601Y-94169593D01*
X86970296Y-94130213D01*
X86949960Y-94095440D01*
X86918013Y-94073898D01*
X86878837Y-94066717D01*
X86870470Y-94067024D01*
X86831521Y-94077783D01*
X86799506Y-94101692D01*
X86784461Y-94120853D01*
X86769181Y-94159543D01*
X86765117Y-94199585D01*
X86602000Y-94199585D01*
X86604961Y-94180342D01*
X86614166Y-94140305D01*
X86629124Y-94095650D01*
X86647918Y-94056988D01*
X86670546Y-94024316D01*
X86680537Y-94012793D01*
X86712568Y-93982685D01*
X86747691Y-93959268D01*
X86785905Y-93942541D01*
X86827210Y-93932505D01*
X86871607Y-93929159D01*
X86905866Y-93930953D01*
G37*
G36*
X75864838Y-94511239D02*
G01*
X75715361Y-94491895D01*
X75707551Y-94530302D01*
X75690998Y-94567000D01*
X75676869Y-94584903D01*
X75644640Y-94607903D01*
X75606573Y-94616822D01*
X75601056Y-94616947D01*
X75562219Y-94609953D01*
X75529141Y-94588972D01*
X75520749Y-94580408D01*
X75499495Y-94546496D01*
X75489493Y-94507694D01*
X75487922Y-94481734D01*
X75492346Y-94441178D01*
X75507123Y-94404931D01*
X75519381Y-94388727D01*
X75551695Y-94364043D01*
X75590020Y-94354472D01*
X75595585Y-94354337D01*
X75634917Y-94358401D01*
X75666513Y-94365866D01*
X75649513Y-94241790D01*
X75609925Y-94239586D01*
X75572247Y-94228528D01*
X75553966Y-94217170D01*
X75529199Y-94186689D01*
X75520944Y-94147610D01*
X75529486Y-94109060D01*
X75545173Y-94088796D01*
X75581550Y-94069822D01*
X75609458Y-94066717D01*
X75648196Y-94073941D01*
X75677064Y-94092314D01*
X75700575Y-94125975D01*
X75711063Y-94166759D01*
X75853310Y-94144288D01*
X75843766Y-94104683D01*
X75830371Y-94066261D01*
X75812243Y-94030784D01*
X75808564Y-94025098D01*
X75782818Y-93994232D01*
X75750422Y-93968751D01*
X75725131Y-93954756D01*
X75686689Y-93940183D01*
X75645245Y-93931659D01*
X75604964Y-93929159D01*
X75563906Y-93931653D01*
X75520016Y-93940865D01*
X75480445Y-93956866D01*
X75445195Y-93979654D01*
X75422661Y-94000087D01*
X75395269Y-94033936D01*
X75376842Y-94070196D01*
X75367380Y-94108867D01*
X75365996Y-94131392D01*
X75371541Y-94174775D01*
X75388174Y-94214137D01*
X75415897Y-94249478D01*
X75448485Y-94276571D01*
X75481865Y-94296891D01*
X75441344Y-94310100D01*
X75406241Y-94330673D01*
X75376558Y-94358612D01*
X75371272Y-94365084D01*
X75349324Y-94400213D01*
X75335506Y-94439654D01*
X75330019Y-94478839D01*
X75329653Y-94492676D01*
X75332380Y-94532290D01*
X75342455Y-94575657D01*
X75359954Y-94615958D01*
X75384877Y-94653192D01*
X75407225Y-94677910D01*
X75437580Y-94703940D01*
X75476381Y-94727502D01*
X75518828Y-94743734D01*
X75558114Y-94751812D01*
X75600079Y-94754505D01*
X75639733Y-94752142D01*
X75682697Y-94743412D01*
X75722109Y-94728249D01*
X75757967Y-94706653D01*
X75781405Y-94687289D01*
X75809974Y-94655824D01*
X75832765Y-94620413D01*
X75849778Y-94581057D01*
X75861012Y-94537754D01*
X75864838Y-94511239D01*
G37*
G36*
X75010719Y-93931177D02*
G01*
X75049774Y-93938926D01*
X75090753Y-93955311D01*
X75126796Y-93979606D01*
X75157901Y-94011811D01*
X75180699Y-94046316D01*
X75199633Y-94087061D01*
X75211997Y-94124149D01*
X75221889Y-94165231D01*
X75229308Y-94210306D01*
X75234254Y-94259374D01*
X75236341Y-94298796D01*
X75237036Y-94340464D01*
X75236966Y-94354870D01*
X75235913Y-94396423D01*
X75232542Y-94447943D01*
X75226924Y-94495024D01*
X75219060Y-94537666D01*
X75206069Y-94584726D01*
X75189568Y-94624849D01*
X75165131Y-94663842D01*
X75155941Y-94674821D01*
X75126235Y-94703507D01*
X75093329Y-94725818D01*
X75057221Y-94741755D01*
X75017913Y-94751317D01*
X74975403Y-94754505D01*
X74940143Y-94752487D01*
X74901144Y-94744738D01*
X74860211Y-94728353D01*
X74824197Y-94704058D01*
X74793100Y-94671853D01*
X74770303Y-94637319D01*
X74751369Y-94596489D01*
X74739004Y-94559291D01*
X74729113Y-94518062D01*
X74721694Y-94472804D01*
X74716748Y-94423516D01*
X74714661Y-94383905D01*
X74713966Y-94342027D01*
X74875361Y-94342027D01*
X74875612Y-94375214D01*
X74876926Y-94420300D01*
X74879367Y-94459752D01*
X74883638Y-94498661D01*
X74891384Y-94537422D01*
X74901752Y-94567134D01*
X74925382Y-94599557D01*
X74936788Y-94607165D01*
X74975403Y-94616947D01*
X74988995Y-94615885D01*
X75025229Y-94599948D01*
X75047279Y-94569785D01*
X75061181Y-94531364D01*
X75066029Y-94508991D01*
X75070932Y-94469735D01*
X75073760Y-94426551D01*
X75075097Y-94382971D01*
X75075445Y-94342027D01*
X75075195Y-94308878D01*
X75073880Y-94263801D01*
X75071439Y-94224302D01*
X75067168Y-94185270D01*
X75059423Y-94146242D01*
X75049055Y-94116530D01*
X75025424Y-94084107D01*
X75014018Y-94076499D01*
X74975403Y-94066717D01*
X74961823Y-94067804D01*
X74925773Y-94084107D01*
X74903564Y-94114490D01*
X74889625Y-94153081D01*
X74884778Y-94175381D01*
X74879874Y-94214540D01*
X74877047Y-94257639D01*
X74875710Y-94301144D01*
X74875361Y-94342027D01*
X74713966Y-94342027D01*
X74714272Y-94313814D01*
X74715883Y-94273407D01*
X74720179Y-94223099D01*
X74726929Y-94176870D01*
X74736134Y-94134719D01*
X74751092Y-94087768D01*
X74769885Y-94047189D01*
X74792514Y-94012983D01*
X74819066Y-93984496D01*
X74854559Y-93958711D01*
X74894913Y-93940947D01*
X74933372Y-93932106D01*
X74975403Y-93929159D01*
X75010719Y-93931177D01*
G37*
G36*
X74598292Y-94529411D02*
G01*
X74598292Y-94391853D01*
X74294845Y-94391853D01*
X74294845Y-94529411D01*
X74598292Y-94529411D01*
G37*
G36*
X73719213Y-94591937D02*
G01*
X73719213Y-94742000D01*
X74260651Y-94742000D01*
X74254056Y-94702188D01*
X74243065Y-94663451D01*
X74227678Y-94625789D01*
X74207894Y-94589201D01*
X74184556Y-94555318D01*
X74158017Y-94522689D01*
X74131295Y-94492969D01*
X74100384Y-94460949D01*
X74065284Y-94426630D01*
X74034189Y-94397519D01*
X74003496Y-94368877D01*
X73971879Y-94338524D01*
X73942181Y-94308651D01*
X73915374Y-94279008D01*
X73906010Y-94266801D01*
X73886602Y-94231355D01*
X73875685Y-94193327D01*
X73874161Y-94173011D01*
X73879472Y-94132743D01*
X73898547Y-94097804D01*
X73901907Y-94094267D01*
X73937343Y-94072770D01*
X73978502Y-94066717D01*
X74019552Y-94073071D01*
X74053684Y-94093856D01*
X74055487Y-94095635D01*
X74076951Y-94131161D01*
X74086517Y-94171699D01*
X74088509Y-94191769D01*
X74242479Y-94176528D01*
X74236769Y-94137017D01*
X74226126Y-94094428D01*
X74211348Y-94057100D01*
X74188880Y-94020201D01*
X74160784Y-93990464D01*
X74156310Y-93986801D01*
X74122780Y-93964341D01*
X74085791Y-93947397D01*
X74045342Y-93935970D01*
X74001433Y-93930060D01*
X73974789Y-93929159D01*
X73931886Y-93931412D01*
X73892568Y-93938172D01*
X73851229Y-93951753D01*
X73814771Y-93971468D01*
X73787406Y-93993249D01*
X73760835Y-94022708D01*
X73738459Y-94060061D01*
X73724608Y-94101348D01*
X73719480Y-94140699D01*
X73719213Y-94152495D01*
X73721961Y-94192374D01*
X73730204Y-94230824D01*
X73738753Y-94255663D01*
X73756595Y-94292987D01*
X73778550Y-94328406D01*
X73800497Y-94358245D01*
X73827920Y-94389313D01*
X73856781Y-94418384D01*
X73888405Y-94448377D01*
X73901712Y-94460632D01*
X73931121Y-94487650D01*
X73961405Y-94516124D01*
X73990194Y-94544809D01*
X73994329Y-94549341D01*
X74018581Y-94580194D01*
X74025982Y-94591937D01*
X73719213Y-94591937D01*
G37*
G36*
X73405866Y-93930953D02*
G01*
X73444407Y-93937841D01*
X73485830Y-93952405D01*
X73523438Y-93974001D01*
X73557232Y-94002628D01*
X73581934Y-94031747D01*
X73604293Y-94069869D01*
X73619697Y-94112461D01*
X73627363Y-94152525D01*
X73629918Y-94195872D01*
X73628234Y-94230727D01*
X73621768Y-94269781D01*
X73608094Y-94311525D01*
X73587820Y-94349154D01*
X73560944Y-94382669D01*
X73543291Y-94399476D01*
X73510430Y-94423496D01*
X73475064Y-94440653D01*
X73437191Y-94450948D01*
X73396813Y-94454379D01*
X73354962Y-94450154D01*
X73316750Y-94437478D01*
X73282177Y-94416351D01*
X73251244Y-94386773D01*
X73252511Y-94403914D01*
X73257448Y-94450886D01*
X73264088Y-94491182D01*
X73275592Y-94534523D01*
X73294231Y-94572006D01*
X73305025Y-94584953D01*
X73336395Y-94608345D01*
X73375515Y-94616947D01*
X73401856Y-94613925D01*
X73436478Y-94595454D01*
X73455138Y-94568196D01*
X73465005Y-94529411D01*
X73614482Y-94545433D01*
X73612267Y-94558272D01*
X73601942Y-94600013D01*
X73587615Y-94636780D01*
X73566342Y-94672708D01*
X73539841Y-94702139D01*
X73504214Y-94727453D01*
X73467718Y-94742999D01*
X73426679Y-94751999D01*
X73387043Y-94754505D01*
X73370823Y-94754122D01*
X73324480Y-94748374D01*
X73281613Y-94735730D01*
X73242222Y-94716189D01*
X73206307Y-94689751D01*
X73173868Y-94656417D01*
X73159237Y-94636942D01*
X73138050Y-94599667D01*
X73120860Y-94556372D01*
X73109987Y-94517402D01*
X73101672Y-94474578D01*
X73095915Y-94427902D01*
X73092717Y-94377373D01*
X73091998Y-94336947D01*
X73092074Y-94323463D01*
X73093915Y-94271921D01*
X73098211Y-94224215D01*
X73102000Y-94199585D01*
X73265117Y-94199585D01*
X73265593Y-94213562D01*
X73273720Y-94252998D01*
X73295599Y-94287122D01*
X73297517Y-94288949D01*
X73331956Y-94310296D01*
X73370630Y-94316822D01*
X73376335Y-94316701D01*
X73415324Y-94308109D01*
X73447615Y-94285949D01*
X73461036Y-94268315D01*
X73474667Y-94230282D01*
X73478292Y-94189034D01*
X73477601Y-94169593D01*
X73470296Y-94130213D01*
X73449960Y-94095440D01*
X73418013Y-94073898D01*
X73378837Y-94066717D01*
X73370470Y-94067024D01*
X73331521Y-94077783D01*
X73299506Y-94101692D01*
X73284461Y-94120853D01*
X73269181Y-94159543D01*
X73265117Y-94199585D01*
X73102000Y-94199585D01*
X73104961Y-94180342D01*
X73114166Y-94140305D01*
X73129124Y-94095650D01*
X73147918Y-94056988D01*
X73170546Y-94024316D01*
X73180537Y-94012793D01*
X73212568Y-93982685D01*
X73247691Y-93959268D01*
X73285905Y-93942541D01*
X73327210Y-93932505D01*
X73371607Y-93929159D01*
X73405866Y-93930953D01*
G37*
G36*
X75864838Y-58611239D02*
G01*
X75715361Y-58591895D01*
X75707551Y-58630302D01*
X75690998Y-58667000D01*
X75676869Y-58684903D01*
X75644640Y-58707903D01*
X75606573Y-58716822D01*
X75601056Y-58716947D01*
X75562219Y-58709953D01*
X75529141Y-58688972D01*
X75520749Y-58680408D01*
X75499495Y-58646496D01*
X75489493Y-58607694D01*
X75487922Y-58581734D01*
X75492346Y-58541178D01*
X75507123Y-58504931D01*
X75519381Y-58488727D01*
X75551695Y-58464043D01*
X75590020Y-58454472D01*
X75595585Y-58454337D01*
X75634917Y-58458401D01*
X75666513Y-58465866D01*
X75649513Y-58341790D01*
X75609925Y-58339586D01*
X75572247Y-58328528D01*
X75553966Y-58317170D01*
X75529199Y-58286689D01*
X75520944Y-58247610D01*
X75529486Y-58209060D01*
X75545173Y-58188796D01*
X75581550Y-58169822D01*
X75609458Y-58166717D01*
X75648196Y-58173941D01*
X75677064Y-58192314D01*
X75700575Y-58225975D01*
X75711063Y-58266759D01*
X75853310Y-58244288D01*
X75843766Y-58204683D01*
X75830371Y-58166261D01*
X75812243Y-58130784D01*
X75808564Y-58125098D01*
X75782818Y-58094232D01*
X75750422Y-58068751D01*
X75725131Y-58054756D01*
X75686689Y-58040183D01*
X75645245Y-58031659D01*
X75604964Y-58029159D01*
X75563906Y-58031653D01*
X75520016Y-58040865D01*
X75480445Y-58056866D01*
X75445195Y-58079654D01*
X75422661Y-58100087D01*
X75395269Y-58133936D01*
X75376842Y-58170196D01*
X75367380Y-58208867D01*
X75365996Y-58231392D01*
X75371541Y-58274775D01*
X75388174Y-58314137D01*
X75415897Y-58349478D01*
X75448485Y-58376571D01*
X75481865Y-58396891D01*
X75441344Y-58410100D01*
X75406241Y-58430673D01*
X75376558Y-58458612D01*
X75371272Y-58465084D01*
X75349324Y-58500213D01*
X75335506Y-58539654D01*
X75330019Y-58578839D01*
X75329653Y-58592676D01*
X75332380Y-58632290D01*
X75342455Y-58675657D01*
X75359954Y-58715958D01*
X75384877Y-58753192D01*
X75407225Y-58777910D01*
X75437580Y-58803940D01*
X75476381Y-58827502D01*
X75518828Y-58843734D01*
X75558114Y-58851812D01*
X75600079Y-58854505D01*
X75639733Y-58852142D01*
X75682697Y-58843412D01*
X75722109Y-58828249D01*
X75757967Y-58806653D01*
X75781405Y-58787289D01*
X75809974Y-58755824D01*
X75832765Y-58720413D01*
X75849778Y-58681057D01*
X75861012Y-58637754D01*
X75864838Y-58611239D01*
G37*
G36*
X75010719Y-58031177D02*
G01*
X75049774Y-58038926D01*
X75090753Y-58055311D01*
X75126796Y-58079606D01*
X75157901Y-58111811D01*
X75180699Y-58146316D01*
X75199633Y-58187061D01*
X75211997Y-58224149D01*
X75221889Y-58265231D01*
X75229308Y-58310306D01*
X75234254Y-58359374D01*
X75236341Y-58398796D01*
X75237036Y-58440464D01*
X75236966Y-58454870D01*
X75235913Y-58496423D01*
X75232542Y-58547943D01*
X75226924Y-58595024D01*
X75219060Y-58637666D01*
X75206069Y-58684726D01*
X75189568Y-58724849D01*
X75165131Y-58763842D01*
X75155941Y-58774821D01*
X75126235Y-58803507D01*
X75093329Y-58825818D01*
X75057221Y-58841755D01*
X75017913Y-58851317D01*
X74975403Y-58854505D01*
X74940143Y-58852487D01*
X74901144Y-58844738D01*
X74860211Y-58828353D01*
X74824197Y-58804058D01*
X74793100Y-58771853D01*
X74770303Y-58737319D01*
X74751369Y-58696489D01*
X74739004Y-58659291D01*
X74729113Y-58618062D01*
X74721694Y-58572804D01*
X74716748Y-58523516D01*
X74714661Y-58483905D01*
X74713966Y-58442027D01*
X74875361Y-58442027D01*
X74875612Y-58475214D01*
X74876926Y-58520300D01*
X74879367Y-58559752D01*
X74883638Y-58598661D01*
X74891384Y-58637422D01*
X74901752Y-58667134D01*
X74925382Y-58699557D01*
X74936788Y-58707165D01*
X74975403Y-58716947D01*
X74988995Y-58715885D01*
X75025229Y-58699948D01*
X75047279Y-58669785D01*
X75061181Y-58631364D01*
X75066029Y-58608991D01*
X75070932Y-58569735D01*
X75073760Y-58526551D01*
X75075097Y-58482971D01*
X75075445Y-58442027D01*
X75075195Y-58408878D01*
X75073880Y-58363801D01*
X75071439Y-58324302D01*
X75067168Y-58285270D01*
X75059423Y-58246242D01*
X75049055Y-58216530D01*
X75025424Y-58184107D01*
X75014018Y-58176499D01*
X74975403Y-58166717D01*
X74961823Y-58167804D01*
X74925773Y-58184107D01*
X74903564Y-58214490D01*
X74889625Y-58253081D01*
X74884778Y-58275381D01*
X74879874Y-58314540D01*
X74877047Y-58357639D01*
X74875710Y-58401144D01*
X74875361Y-58442027D01*
X74713966Y-58442027D01*
X74714272Y-58413814D01*
X74715883Y-58373407D01*
X74720179Y-58323099D01*
X74726929Y-58276870D01*
X74736134Y-58234719D01*
X74751092Y-58187768D01*
X74769885Y-58147189D01*
X74792514Y-58112983D01*
X74819066Y-58084496D01*
X74854559Y-58058711D01*
X74894913Y-58040947D01*
X74933372Y-58032106D01*
X74975403Y-58029159D01*
X75010719Y-58031177D01*
G37*
G36*
X74598292Y-58629411D02*
G01*
X74598292Y-58491853D01*
X74294845Y-58491853D01*
X74294845Y-58629411D01*
X74598292Y-58629411D01*
G37*
G36*
X73719213Y-58691937D02*
G01*
X73719213Y-58842000D01*
X74260651Y-58842000D01*
X74254056Y-58802188D01*
X74243065Y-58763451D01*
X74227678Y-58725789D01*
X74207894Y-58689201D01*
X74184556Y-58655318D01*
X74158017Y-58622689D01*
X74131295Y-58592969D01*
X74100384Y-58560949D01*
X74065284Y-58526630D01*
X74034189Y-58497519D01*
X74003496Y-58468877D01*
X73971879Y-58438524D01*
X73942181Y-58408651D01*
X73915374Y-58379008D01*
X73906010Y-58366801D01*
X73886602Y-58331355D01*
X73875685Y-58293327D01*
X73874161Y-58273011D01*
X73879472Y-58232743D01*
X73898547Y-58197804D01*
X73901907Y-58194267D01*
X73937343Y-58172770D01*
X73978502Y-58166717D01*
X74019552Y-58173071D01*
X74053684Y-58193856D01*
X74055487Y-58195635D01*
X74076951Y-58231161D01*
X74086517Y-58271699D01*
X74088509Y-58291769D01*
X74242479Y-58276528D01*
X74236769Y-58237017D01*
X74226126Y-58194428D01*
X74211348Y-58157100D01*
X74188880Y-58120201D01*
X74160784Y-58090464D01*
X74156310Y-58086801D01*
X74122780Y-58064341D01*
X74085791Y-58047397D01*
X74045342Y-58035970D01*
X74001433Y-58030060D01*
X73974789Y-58029159D01*
X73931886Y-58031412D01*
X73892568Y-58038172D01*
X73851229Y-58051753D01*
X73814771Y-58071468D01*
X73787406Y-58093249D01*
X73760835Y-58122708D01*
X73738459Y-58160061D01*
X73724608Y-58201348D01*
X73719480Y-58240699D01*
X73719213Y-58252495D01*
X73721961Y-58292374D01*
X73730204Y-58330824D01*
X73738753Y-58355663D01*
X73756595Y-58392987D01*
X73778550Y-58428406D01*
X73800497Y-58458245D01*
X73827920Y-58489313D01*
X73856781Y-58518384D01*
X73888405Y-58548377D01*
X73901712Y-58560632D01*
X73931121Y-58587650D01*
X73961405Y-58616124D01*
X73990194Y-58644809D01*
X73994329Y-58649341D01*
X74018581Y-58680194D01*
X74025982Y-58691937D01*
X73719213Y-58691937D01*
G37*
G36*
X73405866Y-58030953D02*
G01*
X73444407Y-58037841D01*
X73485830Y-58052405D01*
X73523438Y-58074001D01*
X73557232Y-58102628D01*
X73581934Y-58131747D01*
X73604293Y-58169869D01*
X73619697Y-58212461D01*
X73627363Y-58252525D01*
X73629918Y-58295872D01*
X73628234Y-58330727D01*
X73621768Y-58369781D01*
X73608094Y-58411525D01*
X73587820Y-58449154D01*
X73560944Y-58482669D01*
X73543291Y-58499476D01*
X73510430Y-58523496D01*
X73475064Y-58540653D01*
X73437191Y-58550948D01*
X73396813Y-58554379D01*
X73354962Y-58550154D01*
X73316750Y-58537478D01*
X73282177Y-58516351D01*
X73251244Y-58486773D01*
X73252511Y-58503914D01*
X73257448Y-58550886D01*
X73264088Y-58591182D01*
X73275592Y-58634523D01*
X73294231Y-58672006D01*
X73305025Y-58684953D01*
X73336395Y-58708345D01*
X73375515Y-58716947D01*
X73401856Y-58713925D01*
X73436478Y-58695454D01*
X73455138Y-58668196D01*
X73465005Y-58629411D01*
X73614482Y-58645433D01*
X73612267Y-58658272D01*
X73601942Y-58700013D01*
X73587615Y-58736780D01*
X73566342Y-58772708D01*
X73539841Y-58802139D01*
X73504214Y-58827453D01*
X73467718Y-58842999D01*
X73426679Y-58851999D01*
X73387043Y-58854505D01*
X73370823Y-58854122D01*
X73324480Y-58848374D01*
X73281613Y-58835730D01*
X73242222Y-58816189D01*
X73206307Y-58789751D01*
X73173868Y-58756417D01*
X73159237Y-58736942D01*
X73138050Y-58699667D01*
X73120860Y-58656372D01*
X73109987Y-58617402D01*
X73101672Y-58574578D01*
X73095915Y-58527902D01*
X73092717Y-58477373D01*
X73091998Y-58436947D01*
X73092074Y-58423463D01*
X73093915Y-58371921D01*
X73098211Y-58324215D01*
X73102000Y-58299585D01*
X73265117Y-58299585D01*
X73265593Y-58313562D01*
X73273720Y-58352998D01*
X73295599Y-58387122D01*
X73297517Y-58388949D01*
X73331956Y-58410296D01*
X73370630Y-58416822D01*
X73376335Y-58416701D01*
X73415324Y-58408109D01*
X73447615Y-58385949D01*
X73461036Y-58368315D01*
X73474667Y-58330282D01*
X73478292Y-58289034D01*
X73477601Y-58269593D01*
X73470296Y-58230213D01*
X73449960Y-58195440D01*
X73418013Y-58173898D01*
X73378837Y-58166717D01*
X73370470Y-58167024D01*
X73331521Y-58177783D01*
X73299506Y-58201692D01*
X73284461Y-58220853D01*
X73269181Y-58259543D01*
X73265117Y-58299585D01*
X73102000Y-58299585D01*
X73104961Y-58280342D01*
X73114166Y-58240305D01*
X73129124Y-58195650D01*
X73147918Y-58156988D01*
X73170546Y-58124316D01*
X73180537Y-58112793D01*
X73212568Y-58082685D01*
X73247691Y-58059268D01*
X73285905Y-58042541D01*
X73327210Y-58032505D01*
X73371607Y-58029159D01*
X73405866Y-58030953D01*
G37*
G36*
X88914943Y-112371937D02*
G01*
X88914943Y-112522000D01*
X89456380Y-112522000D01*
X89449786Y-112482188D01*
X89438795Y-112443451D01*
X89423407Y-112405789D01*
X89403624Y-112369201D01*
X89380285Y-112335318D01*
X89353746Y-112302689D01*
X89327024Y-112272969D01*
X89296113Y-112240949D01*
X89261013Y-112206630D01*
X89229918Y-112177519D01*
X89199226Y-112148877D01*
X89167608Y-112118524D01*
X89137910Y-112088651D01*
X89111103Y-112059008D01*
X89101740Y-112046801D01*
X89082331Y-112011355D01*
X89071414Y-111973327D01*
X89069890Y-111953011D01*
X89075201Y-111912743D01*
X89094276Y-111877804D01*
X89097636Y-111874267D01*
X89133072Y-111852770D01*
X89174231Y-111846717D01*
X89215281Y-111853071D01*
X89249414Y-111873856D01*
X89251216Y-111875635D01*
X89272680Y-111911161D01*
X89282247Y-111951699D01*
X89284238Y-111971769D01*
X89438208Y-111956528D01*
X89432498Y-111917017D01*
X89421855Y-111874428D01*
X89407077Y-111837100D01*
X89384609Y-111800201D01*
X89356513Y-111770464D01*
X89352040Y-111766801D01*
X89318509Y-111744341D01*
X89281520Y-111727397D01*
X89241071Y-111715970D01*
X89197162Y-111710060D01*
X89170518Y-111709159D01*
X89127615Y-111711412D01*
X89088297Y-111718172D01*
X89046958Y-111731753D01*
X89010500Y-111751468D01*
X88983135Y-111773249D01*
X88956564Y-111802708D01*
X88934188Y-111840061D01*
X88920337Y-111881348D01*
X88915209Y-111920699D01*
X88914943Y-111932495D01*
X88917690Y-111972374D01*
X88925934Y-112010824D01*
X88934482Y-112035663D01*
X88952324Y-112072987D01*
X88974279Y-112108406D01*
X88996227Y-112138245D01*
X89023649Y-112169313D01*
X89052510Y-112198384D01*
X89084134Y-112228377D01*
X89097441Y-112240632D01*
X89126850Y-112267650D01*
X89157134Y-112296124D01*
X89185924Y-112324809D01*
X89190058Y-112329341D01*
X89214310Y-112360194D01*
X89221712Y-112371937D01*
X88914943Y-112371937D01*
G37*
G36*
X88798292Y-112309411D02*
G01*
X88798292Y-112171853D01*
X88494845Y-112171853D01*
X88494845Y-112309411D01*
X88798292Y-112309411D01*
G37*
G36*
X88045633Y-112522000D02*
G01*
X88199995Y-112522000D01*
X88199995Y-111933863D01*
X88232787Y-111964111D01*
X88267708Y-111991254D01*
X88304759Y-112015292D01*
X88343939Y-112036225D01*
X88385249Y-112054053D01*
X88399492Y-112059306D01*
X88399492Y-111909243D01*
X88360727Y-111893757D01*
X88324075Y-111874011D01*
X88290095Y-111851839D01*
X88268188Y-111835775D01*
X88235508Y-111807491D01*
X88208397Y-111776961D01*
X88186855Y-111744184D01*
X88170881Y-111709159D01*
X88045633Y-111709159D01*
X88045633Y-112522000D01*
G37*
G36*
X74015943Y-112371937D02*
G01*
X74015943Y-112522000D01*
X74557380Y-112522000D01*
X74550786Y-112482188D01*
X74539795Y-112443451D01*
X74524407Y-112405789D01*
X74504624Y-112369201D01*
X74481285Y-112335318D01*
X74454746Y-112302689D01*
X74428024Y-112272969D01*
X74397113Y-112240949D01*
X74362013Y-112206630D01*
X74330918Y-112177519D01*
X74300226Y-112148877D01*
X74268608Y-112118524D01*
X74238910Y-112088651D01*
X74212103Y-112059008D01*
X74202740Y-112046801D01*
X74183331Y-112011355D01*
X74172414Y-111973327D01*
X74170890Y-111953011D01*
X74176201Y-111912743D01*
X74195276Y-111877804D01*
X74198636Y-111874267D01*
X74234072Y-111852770D01*
X74275231Y-111846717D01*
X74316281Y-111853071D01*
X74350414Y-111873856D01*
X74352216Y-111875635D01*
X74373680Y-111911161D01*
X74383247Y-111951699D01*
X74385238Y-111971769D01*
X74539208Y-111956528D01*
X74533498Y-111917017D01*
X74522855Y-111874428D01*
X74508077Y-111837100D01*
X74485609Y-111800201D01*
X74457513Y-111770464D01*
X74453040Y-111766801D01*
X74419509Y-111744341D01*
X74382520Y-111727397D01*
X74342071Y-111715970D01*
X74298162Y-111710060D01*
X74271518Y-111709159D01*
X74228615Y-111711412D01*
X74189297Y-111718172D01*
X74147958Y-111731753D01*
X74111500Y-111751468D01*
X74084135Y-111773249D01*
X74057564Y-111802708D01*
X74035188Y-111840061D01*
X74021337Y-111881348D01*
X74016209Y-111920699D01*
X74015943Y-111932495D01*
X74018690Y-111972374D01*
X74026934Y-112010824D01*
X74035482Y-112035663D01*
X74053324Y-112072987D01*
X74075279Y-112108406D01*
X74097227Y-112138245D01*
X74124649Y-112169313D01*
X74153510Y-112198384D01*
X74185134Y-112228377D01*
X74198441Y-112240632D01*
X74227850Y-112267650D01*
X74258134Y-112296124D01*
X74286924Y-112324809D01*
X74291058Y-112329341D01*
X74315310Y-112360194D01*
X74322712Y-112371937D01*
X74015943Y-112371937D01*
G37*
G36*
X73899292Y-112309411D02*
G01*
X73899292Y-112171853D01*
X73595845Y-112171853D01*
X73595845Y-112309411D01*
X73899292Y-112309411D01*
G37*
G36*
X73146633Y-112522000D02*
G01*
X73300995Y-112522000D01*
X73300995Y-111933863D01*
X73333787Y-111964111D01*
X73368708Y-111991254D01*
X73405759Y-112015292D01*
X73444939Y-112036225D01*
X73486249Y-112054053D01*
X73500492Y-112059306D01*
X73500492Y-111909243D01*
X73461727Y-111893757D01*
X73425075Y-111874011D01*
X73391095Y-111851839D01*
X73369188Y-111835775D01*
X73336508Y-111807491D01*
X73309397Y-111776961D01*
X73287855Y-111744184D01*
X73271881Y-111709159D01*
X73146633Y-111709159D01*
X73146633Y-112522000D01*
G37*
G36*
X73915943Y-76471937D02*
G01*
X73915943Y-76622000D01*
X74457380Y-76622000D01*
X74450786Y-76582188D01*
X74439795Y-76543451D01*
X74424407Y-76505789D01*
X74404624Y-76469201D01*
X74381285Y-76435318D01*
X74354746Y-76402689D01*
X74328024Y-76372969D01*
X74297113Y-76340949D01*
X74262013Y-76306630D01*
X74230918Y-76277519D01*
X74200226Y-76248877D01*
X74168608Y-76218524D01*
X74138910Y-76188651D01*
X74112103Y-76159008D01*
X74102740Y-76146801D01*
X74083331Y-76111355D01*
X74072414Y-76073327D01*
X74070890Y-76053011D01*
X74076201Y-76012743D01*
X74095276Y-75977804D01*
X74098636Y-75974267D01*
X74134072Y-75952770D01*
X74175231Y-75946717D01*
X74216281Y-75953071D01*
X74250414Y-75973856D01*
X74252216Y-75975635D01*
X74273680Y-76011161D01*
X74283247Y-76051699D01*
X74285238Y-76071769D01*
X74439208Y-76056528D01*
X74433498Y-76017017D01*
X74422855Y-75974428D01*
X74408077Y-75937100D01*
X74385609Y-75900201D01*
X74357513Y-75870464D01*
X74353040Y-75866801D01*
X74319509Y-75844341D01*
X74282520Y-75827397D01*
X74242071Y-75815970D01*
X74198162Y-75810060D01*
X74171518Y-75809159D01*
X74128615Y-75811412D01*
X74089297Y-75818172D01*
X74047958Y-75831753D01*
X74011500Y-75851468D01*
X73984135Y-75873249D01*
X73957564Y-75902708D01*
X73935188Y-75940061D01*
X73921337Y-75981348D01*
X73916209Y-76020699D01*
X73915943Y-76032495D01*
X73918690Y-76072374D01*
X73926934Y-76110824D01*
X73935482Y-76135663D01*
X73953324Y-76172987D01*
X73975279Y-76208406D01*
X73997227Y-76238245D01*
X74024649Y-76269313D01*
X74053510Y-76298384D01*
X74085134Y-76328377D01*
X74098441Y-76340632D01*
X74127850Y-76367650D01*
X74158134Y-76396124D01*
X74186924Y-76424809D01*
X74191058Y-76429341D01*
X74215310Y-76460194D01*
X74222712Y-76471937D01*
X73915943Y-76471937D01*
G37*
G36*
X73799292Y-76409411D02*
G01*
X73799292Y-76271853D01*
X73495845Y-76271853D01*
X73495845Y-76409411D01*
X73799292Y-76409411D01*
G37*
G36*
X73046633Y-76622000D02*
G01*
X73200995Y-76622000D01*
X73200995Y-76033863D01*
X73233787Y-76064111D01*
X73268708Y-76091254D01*
X73305759Y-76115292D01*
X73344939Y-76136225D01*
X73386249Y-76154053D01*
X73400492Y-76159306D01*
X73400492Y-76009243D01*
X73361727Y-75993757D01*
X73325075Y-75974011D01*
X73291095Y-75951839D01*
X73269188Y-75935775D01*
X73236508Y-75907491D01*
X73209397Y-75876961D01*
X73187855Y-75844184D01*
X73171881Y-75809159D01*
X73046633Y-75809159D01*
X73046633Y-76622000D01*
G37*
G36*
X89364838Y-58611239D02*
G01*
X89215361Y-58591895D01*
X89207551Y-58630302D01*
X89190998Y-58667000D01*
X89176869Y-58684903D01*
X89144640Y-58707903D01*
X89106573Y-58716822D01*
X89101056Y-58716947D01*
X89062219Y-58709953D01*
X89029141Y-58688972D01*
X89020749Y-58680408D01*
X88999495Y-58646496D01*
X88989493Y-58607694D01*
X88987922Y-58581734D01*
X88992346Y-58541178D01*
X89007123Y-58504931D01*
X89019381Y-58488727D01*
X89051695Y-58464043D01*
X89090020Y-58454472D01*
X89095585Y-58454337D01*
X89134917Y-58458401D01*
X89166513Y-58465866D01*
X89149513Y-58341790D01*
X89109925Y-58339586D01*
X89072247Y-58328528D01*
X89053966Y-58317170D01*
X89029199Y-58286689D01*
X89020944Y-58247610D01*
X89029486Y-58209060D01*
X89045173Y-58188796D01*
X89081550Y-58169822D01*
X89109458Y-58166717D01*
X89148196Y-58173941D01*
X89177064Y-58192314D01*
X89200575Y-58225975D01*
X89211063Y-58266759D01*
X89353310Y-58244288D01*
X89343766Y-58204683D01*
X89330371Y-58166261D01*
X89312243Y-58130784D01*
X89308564Y-58125098D01*
X89282818Y-58094232D01*
X89250422Y-58068751D01*
X89225131Y-58054756D01*
X89186689Y-58040183D01*
X89145245Y-58031659D01*
X89104964Y-58029159D01*
X89063906Y-58031653D01*
X89020016Y-58040865D01*
X88980445Y-58056866D01*
X88945195Y-58079654D01*
X88922661Y-58100087D01*
X88895269Y-58133936D01*
X88876842Y-58170196D01*
X88867380Y-58208867D01*
X88865996Y-58231392D01*
X88871541Y-58274775D01*
X88888174Y-58314137D01*
X88915897Y-58349478D01*
X88948485Y-58376571D01*
X88981865Y-58396891D01*
X88941344Y-58410100D01*
X88906241Y-58430673D01*
X88876558Y-58458612D01*
X88871272Y-58465084D01*
X88849324Y-58500213D01*
X88835506Y-58539654D01*
X88830019Y-58578839D01*
X88829653Y-58592676D01*
X88832380Y-58632290D01*
X88842455Y-58675657D01*
X88859954Y-58715958D01*
X88884877Y-58753192D01*
X88907225Y-58777910D01*
X88937580Y-58803940D01*
X88976381Y-58827502D01*
X89018828Y-58843734D01*
X89058114Y-58851812D01*
X89100079Y-58854505D01*
X89139733Y-58852142D01*
X89182697Y-58843412D01*
X89222109Y-58828249D01*
X89257967Y-58806653D01*
X89281405Y-58787289D01*
X89309974Y-58755824D01*
X89332765Y-58720413D01*
X89349778Y-58681057D01*
X89361012Y-58637754D01*
X89364838Y-58611239D01*
G37*
G36*
X88510719Y-58031177D02*
G01*
X88549774Y-58038926D01*
X88590753Y-58055311D01*
X88626796Y-58079606D01*
X88657901Y-58111811D01*
X88680699Y-58146316D01*
X88699633Y-58187061D01*
X88711997Y-58224149D01*
X88721889Y-58265231D01*
X88729308Y-58310306D01*
X88734254Y-58359374D01*
X88736341Y-58398796D01*
X88737036Y-58440464D01*
X88736966Y-58454870D01*
X88735913Y-58496423D01*
X88732542Y-58547943D01*
X88726924Y-58595024D01*
X88719060Y-58637666D01*
X88706069Y-58684726D01*
X88689568Y-58724849D01*
X88665131Y-58763842D01*
X88655941Y-58774821D01*
X88626235Y-58803507D01*
X88593329Y-58825818D01*
X88557221Y-58841755D01*
X88517913Y-58851317D01*
X88475403Y-58854505D01*
X88440143Y-58852487D01*
X88401144Y-58844738D01*
X88360211Y-58828353D01*
X88324197Y-58804058D01*
X88293100Y-58771853D01*
X88270303Y-58737319D01*
X88251369Y-58696489D01*
X88239004Y-58659291D01*
X88229113Y-58618062D01*
X88221694Y-58572804D01*
X88216748Y-58523516D01*
X88214661Y-58483905D01*
X88213966Y-58442027D01*
X88375361Y-58442027D01*
X88375612Y-58475214D01*
X88376926Y-58520300D01*
X88379367Y-58559752D01*
X88383638Y-58598661D01*
X88391384Y-58637422D01*
X88401752Y-58667134D01*
X88425382Y-58699557D01*
X88436788Y-58707165D01*
X88475403Y-58716947D01*
X88488995Y-58715885D01*
X88525229Y-58699948D01*
X88547279Y-58669785D01*
X88561181Y-58631364D01*
X88566029Y-58608991D01*
X88570932Y-58569735D01*
X88573760Y-58526551D01*
X88575097Y-58482971D01*
X88575445Y-58442027D01*
X88575195Y-58408878D01*
X88573880Y-58363801D01*
X88571439Y-58324302D01*
X88567168Y-58285270D01*
X88559423Y-58246242D01*
X88549055Y-58216530D01*
X88525424Y-58184107D01*
X88514018Y-58176499D01*
X88475403Y-58166717D01*
X88461823Y-58167804D01*
X88425773Y-58184107D01*
X88403564Y-58214490D01*
X88389625Y-58253081D01*
X88384778Y-58275381D01*
X88379874Y-58314540D01*
X88377047Y-58357639D01*
X88375710Y-58401144D01*
X88375361Y-58442027D01*
X88213966Y-58442027D01*
X88214272Y-58413814D01*
X88215883Y-58373407D01*
X88220179Y-58323099D01*
X88226929Y-58276870D01*
X88236134Y-58234719D01*
X88251092Y-58187768D01*
X88269885Y-58147189D01*
X88292514Y-58112983D01*
X88319066Y-58084496D01*
X88354559Y-58058711D01*
X88394913Y-58040947D01*
X88433372Y-58032106D01*
X88475403Y-58029159D01*
X88510719Y-58031177D01*
G37*
G36*
X88098292Y-58629411D02*
G01*
X88098292Y-58491853D01*
X87794845Y-58491853D01*
X87794845Y-58629411D01*
X88098292Y-58629411D01*
G37*
G36*
X87219213Y-58691937D02*
G01*
X87219213Y-58842000D01*
X87760651Y-58842000D01*
X87754056Y-58802188D01*
X87743065Y-58763451D01*
X87727678Y-58725789D01*
X87707894Y-58689201D01*
X87684556Y-58655318D01*
X87658017Y-58622689D01*
X87631295Y-58592969D01*
X87600384Y-58560949D01*
X87565284Y-58526630D01*
X87534189Y-58497519D01*
X87503496Y-58468877D01*
X87471879Y-58438524D01*
X87442181Y-58408651D01*
X87415374Y-58379008D01*
X87406010Y-58366801D01*
X87386602Y-58331355D01*
X87375685Y-58293327D01*
X87374161Y-58273011D01*
X87379472Y-58232743D01*
X87398547Y-58197804D01*
X87401907Y-58194267D01*
X87437343Y-58172770D01*
X87478502Y-58166717D01*
X87519552Y-58173071D01*
X87553684Y-58193856D01*
X87555487Y-58195635D01*
X87576951Y-58231161D01*
X87586517Y-58271699D01*
X87588509Y-58291769D01*
X87742479Y-58276528D01*
X87736769Y-58237017D01*
X87726126Y-58194428D01*
X87711348Y-58157100D01*
X87688880Y-58120201D01*
X87660784Y-58090464D01*
X87656310Y-58086801D01*
X87622780Y-58064341D01*
X87585791Y-58047397D01*
X87545342Y-58035970D01*
X87501433Y-58030060D01*
X87474789Y-58029159D01*
X87431886Y-58031412D01*
X87392568Y-58038172D01*
X87351229Y-58051753D01*
X87314771Y-58071468D01*
X87287406Y-58093249D01*
X87260835Y-58122708D01*
X87238459Y-58160061D01*
X87224608Y-58201348D01*
X87219480Y-58240699D01*
X87219213Y-58252495D01*
X87221961Y-58292374D01*
X87230204Y-58330824D01*
X87238753Y-58355663D01*
X87256595Y-58392987D01*
X87278550Y-58428406D01*
X87300497Y-58458245D01*
X87327920Y-58489313D01*
X87356781Y-58518384D01*
X87388405Y-58548377D01*
X87401712Y-58560632D01*
X87431121Y-58587650D01*
X87461405Y-58616124D01*
X87490194Y-58644809D01*
X87494329Y-58649341D01*
X87518581Y-58680194D01*
X87525982Y-58691937D01*
X87219213Y-58691937D01*
G37*
G36*
X86905866Y-58030953D02*
G01*
X86944407Y-58037841D01*
X86985830Y-58052405D01*
X87023438Y-58074001D01*
X87057232Y-58102628D01*
X87081934Y-58131747D01*
X87104293Y-58169869D01*
X87119697Y-58212461D01*
X87127363Y-58252525D01*
X87129918Y-58295872D01*
X87128234Y-58330727D01*
X87121768Y-58369781D01*
X87108094Y-58411525D01*
X87087820Y-58449154D01*
X87060944Y-58482669D01*
X87043291Y-58499476D01*
X87010430Y-58523496D01*
X86975064Y-58540653D01*
X86937191Y-58550948D01*
X86896813Y-58554379D01*
X86854962Y-58550154D01*
X86816750Y-58537478D01*
X86782177Y-58516351D01*
X86751244Y-58486773D01*
X86752511Y-58503914D01*
X86757448Y-58550886D01*
X86764088Y-58591182D01*
X86775592Y-58634523D01*
X86794231Y-58672006D01*
X86805025Y-58684953D01*
X86836395Y-58708345D01*
X86875515Y-58716947D01*
X86901856Y-58713925D01*
X86936478Y-58695454D01*
X86955138Y-58668196D01*
X86965005Y-58629411D01*
X87114482Y-58645433D01*
X87112267Y-58658272D01*
X87101942Y-58700013D01*
X87087615Y-58736780D01*
X87066342Y-58772708D01*
X87039841Y-58802139D01*
X87004214Y-58827453D01*
X86967718Y-58842999D01*
X86926679Y-58851999D01*
X86887043Y-58854505D01*
X86870823Y-58854122D01*
X86824480Y-58848374D01*
X86781613Y-58835730D01*
X86742222Y-58816189D01*
X86706307Y-58789751D01*
X86673868Y-58756417D01*
X86659237Y-58736942D01*
X86638050Y-58699667D01*
X86620860Y-58656372D01*
X86609987Y-58617402D01*
X86601672Y-58574578D01*
X86595915Y-58527902D01*
X86592717Y-58477373D01*
X86591998Y-58436947D01*
X86592074Y-58423463D01*
X86593915Y-58371921D01*
X86598211Y-58324215D01*
X86602000Y-58299585D01*
X86765117Y-58299585D01*
X86765593Y-58313562D01*
X86773720Y-58352998D01*
X86795599Y-58387122D01*
X86797517Y-58388949D01*
X86831956Y-58410296D01*
X86870630Y-58416822D01*
X86876335Y-58416701D01*
X86915324Y-58408109D01*
X86947615Y-58385949D01*
X86961036Y-58368315D01*
X86974667Y-58330282D01*
X86978292Y-58289034D01*
X86977601Y-58269593D01*
X86970296Y-58230213D01*
X86949960Y-58195440D01*
X86918013Y-58173898D01*
X86878837Y-58166717D01*
X86870470Y-58167024D01*
X86831521Y-58177783D01*
X86799506Y-58201692D01*
X86784461Y-58220853D01*
X86769181Y-58259543D01*
X86765117Y-58299585D01*
X86602000Y-58299585D01*
X86604961Y-58280342D01*
X86614166Y-58240305D01*
X86629124Y-58195650D01*
X86647918Y-58156988D01*
X86670546Y-58124316D01*
X86680537Y-58112793D01*
X86712568Y-58082685D01*
X86747691Y-58059268D01*
X86785905Y-58042541D01*
X86827210Y-58032505D01*
X86871607Y-58029159D01*
X86905866Y-58030953D01*
G37*
D11*
%TO.C,C124*%
X84693807Y-74827996D02*
X85047361Y-75181550D01*
X85542335Y-73979468D02*
X84693807Y-74827996D01*
X85754467Y-75888656D02*
X86108021Y-76242210D01*
X85895889Y-74333022D02*
X85542335Y-73979468D01*
X86108021Y-76242210D02*
X86956549Y-75393682D01*
X86602995Y-75040128D02*
X86956549Y-75393682D01*
D12*
%TO.C,J6*%
X92424999Y-112850001D02*
X91524999Y-112850001D01*
X94924999Y-93649999D02*
X91524999Y-93649999D01*
X94924999Y-112850001D02*
X93524999Y-112850000D01*
D11*
%TO.C,FT8*%
X85336700Y-111692212D02*
X84983146Y-111338658D01*
X85831674Y-110490130D02*
X84983146Y-111338658D01*
X86043806Y-112399318D02*
X86397360Y-112752872D01*
X86185228Y-110843684D02*
X85831674Y-110490130D01*
X86397360Y-112752872D02*
X87245888Y-111904344D01*
X87245888Y-111904344D02*
X86892334Y-111550790D01*
%TO.C,C123*%
X85543807Y-73977996D02*
X85897361Y-74331550D01*
X86392335Y-73129468D02*
X85543807Y-73977996D01*
X86604467Y-75038656D02*
X86958021Y-75392210D01*
X86745889Y-73483022D02*
X86392335Y-73129468D01*
X86958021Y-75392210D02*
X87806549Y-74543682D01*
X87452995Y-74190128D02*
X87806549Y-74543682D01*
D12*
%TO.C,J101*%
X68424999Y-77000000D02*
X67524999Y-77000000D01*
X70924999Y-57800000D02*
X67524999Y-57800000D01*
X70924999Y-77000000D02*
X69524999Y-77000000D01*
D11*
%TO.C,C59*%
X85833146Y-110488658D02*
X86186700Y-110842212D01*
X86681674Y-109640130D02*
X85833146Y-110488658D01*
X86893806Y-111549318D02*
X87247360Y-111902872D01*
X87035228Y-109993684D02*
X86681674Y-109640130D01*
X87247360Y-111902872D02*
X88095888Y-111054344D01*
X87742334Y-110700790D02*
X88095888Y-111054344D01*
%TO.C,C110*%
X83843807Y-75677996D02*
X84197361Y-76031550D01*
X84692335Y-74829468D02*
X83843807Y-75677996D01*
X84904467Y-76738656D02*
X85258021Y-77092210D01*
X85045889Y-75183022D02*
X84692335Y-74829468D01*
X85258021Y-77092210D02*
X86106549Y-76243682D01*
X85752995Y-75890128D02*
X86106549Y-76243682D01*
%TO.C,C29*%
X84668502Y-108874014D02*
X84314948Y-108520460D01*
X85163476Y-107671932D02*
X84314948Y-108520460D01*
X85375608Y-109581120D02*
X85729162Y-109934674D01*
X85517030Y-108025486D02*
X85163476Y-107671932D01*
X85729162Y-109934674D02*
X86577690Y-109086146D01*
X86577690Y-109086146D02*
X86224136Y-108732592D01*
D12*
%TO.C,J2*%
X68424999Y-112850001D02*
X67524999Y-112850001D01*
X70924999Y-93649999D02*
X67524999Y-93649999D01*
X70924999Y-112850001D02*
X69524999Y-112850000D01*
%TO.C,J102*%
X92424999Y-77000000D02*
X91524999Y-77000000D01*
X94924999Y-57800000D02*
X91524999Y-57800000D01*
X94924999Y-77000000D02*
X93524999Y-77000000D01*
%TD*%
M02*
