%TF.GenerationSoftware,KiCad,Pcbnew,8.0.5*%
%TF.CreationDate,2024-09-26T23:10:04+07:00*%
%TF.ProjectId,HW.ACIM-DBG,48572e41-4349-44d2-9d44-42472e6b6963,0.1*%
%TF.SameCoordinates,Original*%
%TF.FileFunction,Plated,1,4,PTH,Mixed*%
%TF.FilePolarity,Positive*%
%FSLAX46Y46*%
G04 Gerber Fmt 4.6, Leading zero omitted, Abs format (unit mm)*
G04 Created by KiCad (PCBNEW 8.0.5) date 2024-09-26 23:10:04*
%MOMM*%
%LPD*%
G01*
G04 APERTURE LIST*
%TA.AperFunction,ViaDrill*%
%ADD10C,0.300000*%
%TD*%
%TA.AperFunction,ViaDrill*%
%ADD11C,0.400000*%
%TD*%
G04 aperture for slot hole*
%TA.AperFunction,ComponentDrill*%
%ADD12C,0.500000*%
%TD*%
%TA.AperFunction,ComponentDrill*%
%ADD13C,1.000000*%
%TD*%
%TA.AperFunction,ComponentDrill*%
%ADD14C,1.300000*%
%TD*%
G04 APERTURE END LIST*
D10*
X110562700Y-44450000D03*
X110562700Y-49450000D03*
X110562700Y-54450000D03*
X110562700Y-59450000D03*
X110562700Y-64450000D03*
X110562700Y-69450000D03*
X110562700Y-74450000D03*
X110562700Y-79450000D03*
X110562700Y-84450000D03*
X110562700Y-89450000D03*
X110562700Y-94450000D03*
X115562700Y-36150000D03*
X115562700Y-39450000D03*
X115562700Y-44450000D03*
X115562700Y-49450000D03*
X115562700Y-54450000D03*
X115562700Y-74450000D03*
X115975000Y-58860200D03*
X115975000Y-61400200D03*
X115975000Y-63940200D03*
X115975000Y-66480200D03*
X115975000Y-69020200D03*
X115975000Y-71560200D03*
X115975000Y-79180200D03*
X116962700Y-84450000D03*
X116962700Y-89450000D03*
X116962700Y-94450000D03*
X116962700Y-99450000D03*
X118675000Y-74100200D03*
X118675000Y-75700200D03*
X118675000Y-79180200D03*
X119750000Y-69800200D03*
X120562700Y-36150000D03*
X120562700Y-41150000D03*
X120562700Y-46150000D03*
X120562700Y-51150000D03*
X120562700Y-56150000D03*
X120562700Y-61150000D03*
X120562700Y-65650000D03*
X121375000Y-70900200D03*
X121375000Y-72500200D03*
X121375000Y-74100200D03*
X121375000Y-75700200D03*
X121962700Y-99450000D03*
X122817000Y-66450200D03*
X123067000Y-82450200D03*
X123067000Y-84450200D03*
X123067000Y-86450200D03*
X123067000Y-88450200D03*
X123362700Y-78700000D03*
X123767000Y-69600200D03*
X124012700Y-94550000D03*
X124067000Y-89450200D03*
X124962700Y-78700000D03*
X124962700Y-80425000D03*
X125062700Y-93825000D03*
X125062700Y-95450000D03*
X125067000Y-83650200D03*
X125067000Y-85650200D03*
X125067000Y-87650200D03*
X125067000Y-89450200D03*
X125225000Y-67175200D03*
X125517000Y-68600200D03*
X125562700Y-36150000D03*
X125562700Y-41150000D03*
X125562700Y-46150000D03*
X125562700Y-51150000D03*
X125562700Y-56150000D03*
X125562700Y-61750000D03*
X125967000Y-78700200D03*
X126017000Y-66450200D03*
X126067000Y-71150200D03*
X126067000Y-72600200D03*
X126067000Y-74050200D03*
X126067000Y-82650200D03*
X126517000Y-68600200D03*
X126962700Y-97825000D03*
X126962700Y-99450000D03*
X127432700Y-41500000D03*
X127432700Y-44200000D03*
X127517000Y-71150200D03*
X127517000Y-72600200D03*
X127517000Y-74050200D03*
X127617000Y-66450200D03*
X128067000Y-88600200D03*
X128517000Y-68600200D03*
X128562700Y-78700000D03*
X128967000Y-71150200D03*
X128967000Y-72600200D03*
X128967000Y-74050200D03*
X129217000Y-66450200D03*
X129574385Y-87150000D03*
X129574385Y-90150000D03*
X129574385Y-93150000D03*
X130162700Y-78700000D03*
X130312700Y-99450000D03*
X130425000Y-42700000D03*
X130425000Y-46600000D03*
X130425000Y-50600000D03*
X130425000Y-54600000D03*
X130425000Y-58600000D03*
X130425000Y-62600000D03*
X130425000Y-64600000D03*
X130562700Y-36150000D03*
X130762700Y-41450000D03*
X130817000Y-66450200D03*
X130817000Y-67950200D03*
X130817000Y-68850200D03*
X131517000Y-73100200D03*
X131517000Y-74100200D03*
X131574385Y-85150000D03*
X131762700Y-40450000D03*
X131762700Y-78700000D03*
X132267000Y-73600200D03*
X132267000Y-74600200D03*
X132425000Y-44600000D03*
X132425000Y-48600000D03*
X132425000Y-52600000D03*
X132425000Y-55600000D03*
X132425000Y-58600000D03*
X132425000Y-61600000D03*
X132462700Y-41450000D03*
X132562700Y-64350000D03*
X132759700Y-87747000D03*
X132759700Y-91247000D03*
X132759700Y-95747000D03*
X132762700Y-99450000D03*
X133574385Y-83150000D03*
X133667000Y-75800200D03*
X133767000Y-71600200D03*
X133867000Y-81400200D03*
X133962700Y-66650000D03*
X134762700Y-64550000D03*
X134767000Y-81400200D03*
X135052700Y-41500000D03*
X135259700Y-85247000D03*
X135462700Y-91750000D03*
X135562700Y-36150000D03*
X135562700Y-46150000D03*
X135562700Y-51150000D03*
X135562700Y-56150000D03*
X135562700Y-62750000D03*
X135562700Y-71150000D03*
X135562700Y-76150000D03*
X137562700Y-64550000D03*
X137592700Y-41500000D03*
X137762700Y-99450000D03*
X138012700Y-78450000D03*
X138562700Y-92125000D03*
X138562700Y-94825000D03*
X139212700Y-87250000D03*
X139509700Y-80997000D03*
X139862700Y-62750000D03*
X140132700Y-41500000D03*
X140562700Y-36150000D03*
X140562700Y-46150000D03*
X140562700Y-51150000D03*
X140562700Y-56150000D03*
X140562700Y-64550000D03*
X141425000Y-41500000D03*
X141883858Y-62478858D03*
X142162700Y-70150000D03*
X142672700Y-41500000D03*
X142762700Y-99450000D03*
X143725000Y-59000000D03*
X143725000Y-64650000D03*
X143725000Y-66250000D03*
X143725000Y-67850000D03*
X143733858Y-61500000D03*
X143925000Y-41500000D03*
X143987500Y-76062501D03*
X145225000Y-41500000D03*
X145562700Y-36150000D03*
X146009700Y-80997000D03*
X146362700Y-88650000D03*
X146425000Y-57400000D03*
X146425000Y-59000000D03*
X146425000Y-62550000D03*
X146425000Y-66250000D03*
X146425000Y-67850000D03*
X146525000Y-41500000D03*
X146525000Y-46100000D03*
X147150000Y-68800000D03*
X147752700Y-41500000D03*
X147762700Y-95300000D03*
X147762700Y-99450000D03*
X147825000Y-51750000D03*
X147837500Y-84512500D03*
X148050000Y-67850000D03*
X148262700Y-76200000D03*
X148575000Y-62500000D03*
X148575000Y-63500000D03*
X148575000Y-64500000D03*
X150562700Y-36150000D03*
X150575000Y-68075000D03*
X150725000Y-41150000D03*
X150725000Y-43250000D03*
X151009700Y-83497000D03*
X151075000Y-56500000D03*
X151325000Y-59300000D03*
X151325000Y-61250000D03*
X151325000Y-63250000D03*
X151625000Y-45100000D03*
X151625000Y-50300000D03*
X152162700Y-70150000D03*
X152575000Y-54450000D03*
X152762700Y-95300000D03*
X152762700Y-99450000D03*
X153275000Y-46525000D03*
X153275000Y-47825000D03*
X153275000Y-59250000D03*
X153325000Y-49125000D03*
X153325000Y-61250000D03*
X153325000Y-63250000D03*
X153575000Y-66650000D03*
X154075000Y-56500000D03*
X154075000Y-66000000D03*
X154475000Y-51750000D03*
X154575000Y-55850000D03*
X154575000Y-66650000D03*
X155075000Y-56500000D03*
X155075000Y-66000000D03*
X155275000Y-47175000D03*
X155275000Y-50150000D03*
X155275000Y-51025000D03*
X155325000Y-59250000D03*
X155325000Y-61250000D03*
X155325000Y-63250000D03*
X155562700Y-36150000D03*
X155562700Y-41150000D03*
X156075000Y-51750000D03*
X156875000Y-54500000D03*
X157009700Y-84997000D03*
X157262700Y-71650000D03*
X157262700Y-74450000D03*
X157262700Y-77950000D03*
X157762700Y-90150000D03*
X157762700Y-95250000D03*
X157762700Y-99450000D03*
X157962700Y-45150000D03*
X157975000Y-50150000D03*
X158075000Y-58000000D03*
X158075000Y-61950000D03*
X158075000Y-63000000D03*
X159275000Y-55925000D03*
X160225000Y-59900000D03*
X160225000Y-61500000D03*
X160562700Y-36150000D03*
X160562700Y-41150000D03*
X162012700Y-95250000D03*
X162012700Y-99450000D03*
X162162700Y-55150000D03*
X162762700Y-71650000D03*
X162762700Y-76450000D03*
X164009700Y-85147000D03*
X164009700Y-90147000D03*
X164009700Y-95247000D03*
X167162700Y-40150000D03*
X167162700Y-45150000D03*
X167162700Y-50150000D03*
X167162700Y-55150000D03*
X167162700Y-60150000D03*
X167162700Y-65150000D03*
X167162700Y-70150000D03*
X167162700Y-75150000D03*
X167162700Y-80150000D03*
X167162700Y-85150000D03*
X167162700Y-90150000D03*
X170924385Y-92277911D03*
X171256350Y-99243650D03*
X174475100Y-96580100D03*
X175624385Y-91077911D03*
X176875100Y-96580100D03*
X176875100Y-98780100D03*
X178500100Y-93654385D03*
X178500100Y-94454385D03*
X178525000Y-36400001D03*
X178525000Y-40400001D03*
X178525000Y-45400001D03*
X178525000Y-60400001D03*
X178525000Y-65400001D03*
X178525000Y-70400001D03*
X178525000Y-75400001D03*
X178525000Y-80400001D03*
X179275100Y-96580100D03*
X180875100Y-96580100D03*
X181087500Y-99412500D03*
X183525000Y-36400001D03*
X183525000Y-45400001D03*
X183525000Y-55400001D03*
X183525000Y-60400001D03*
X183525000Y-65400001D03*
X183525000Y-70400001D03*
X183525000Y-75400001D03*
X183525000Y-80400001D03*
X183624998Y-42590000D03*
X186087500Y-99412500D03*
X186887500Y-92912500D03*
X188525000Y-36400001D03*
X188525000Y-60400001D03*
X188525000Y-65400001D03*
X188525000Y-70400001D03*
X188525000Y-75400001D03*
X188525000Y-80400001D03*
X188625000Y-42590000D03*
X189525000Y-53900001D03*
X191125000Y-42590000D03*
X192990000Y-48065001D03*
X192990000Y-49065001D03*
X192990000Y-50065001D03*
X193275000Y-43365001D03*
X193287500Y-99412500D03*
X193525000Y-36400001D03*
X193525000Y-40400001D03*
X193525000Y-60400001D03*
X193525000Y-65400001D03*
X193525000Y-70400001D03*
X193525000Y-75400001D03*
X193525000Y-80400001D03*
X193855000Y-54765001D03*
X194087500Y-96612500D03*
X194087500Y-98412500D03*
X194490000Y-48065001D03*
X194490000Y-49065001D03*
X194490000Y-50065001D03*
X195787500Y-91212500D03*
X195787500Y-95312500D03*
X195787500Y-99412500D03*
X195957499Y-48032500D03*
X195990000Y-49065001D03*
X195990000Y-50065001D03*
X198525000Y-36400001D03*
X198525000Y-40400001D03*
X198525000Y-45400001D03*
X198525000Y-50400001D03*
X198525000Y-60400001D03*
X198525000Y-65400001D03*
X198525000Y-70400001D03*
X198525000Y-75400001D03*
X198525000Y-80400001D03*
X199787500Y-91212500D03*
X199787500Y-99412500D03*
X202362700Y-91250000D03*
X202362700Y-99350000D03*
X203525000Y-36400001D03*
X203525000Y-40400001D03*
X203525000Y-45400001D03*
X203525000Y-50400001D03*
X203525000Y-55400001D03*
X203525000Y-60400001D03*
X203525000Y-65400001D03*
X203525000Y-70400001D03*
X203525000Y-75400001D03*
X203525000Y-80400001D03*
X203862700Y-92750000D03*
X203862700Y-97950000D03*
X203887500Y-95312500D03*
D11*
X185039998Y-58065001D03*
X186239998Y-58065001D03*
X187389998Y-58065001D03*
X188540000Y-58065001D03*
D12*
%TO.C,J2*%
X182825100Y-92675100D02*
X182825100Y-91375100D01*
X182825100Y-96725100D02*
X182825100Y-95425100D01*
X191025100Y-92675100D02*
X191025100Y-91375100D01*
X191025100Y-96725100D02*
X191025100Y-95425100D01*
D13*
%TO.C,J3*%
X113425000Y-56320200D03*
X113425000Y-58860200D03*
X113425000Y-61400200D03*
X113425000Y-63940200D03*
X113425000Y-66480200D03*
X113425000Y-69020200D03*
X113425000Y-71560200D03*
X113425000Y-74100200D03*
X113425000Y-76640200D03*
X113425000Y-79180200D03*
%TO.C,J1*%
X127432700Y-38950000D03*
X129972700Y-38950000D03*
X132512700Y-38950000D03*
X135052700Y-38950000D03*
X137592700Y-38950000D03*
X140132700Y-38950000D03*
%TO.C,J4*%
X142552700Y-92575000D03*
%TO.C,J1*%
X142672700Y-38950000D03*
%TO.C,J4*%
X145092700Y-92575000D03*
%TO.C,J1*%
X145212700Y-38950000D03*
%TO.C,J4*%
X147632700Y-92575000D03*
%TO.C,J1*%
X147752700Y-38950000D03*
%TO.C,J4*%
X150172700Y-92575000D03*
%TO.C,J1*%
X150292700Y-38950000D03*
%TO.C,MD1*%
X152987500Y-76162500D03*
X152987500Y-78702500D03*
X152987500Y-81242499D03*
X152987500Y-86322500D03*
X152987500Y-88862500D03*
X160987500Y-76162500D03*
X160987500Y-78702500D03*
X160987500Y-81242500D03*
X160987500Y-86322500D03*
X160987500Y-88862500D03*
%TO.C,MD3*%
X179725000Y-42900000D03*
X187225000Y-85400001D03*
X195025000Y-85400001D03*
X202525000Y-42900000D03*
D14*
%TO.C,MD4*%
X180965000Y-38590000D03*
X180965000Y-84310000D03*
X191125000Y-38590000D03*
X201285000Y-38590000D03*
X201285000Y-84310000D03*
M02*
