%TF.GenerationSoftware,KiCad,Pcbnew,8.0.5*%
%TF.CreationDate,2024-09-26T23:10:05+07:00*%
%TF.ProjectId,HW.ACIM-DBG,48572e41-4349-44d2-9d44-42472e6b6963,0.1*%
%TF.SameCoordinates,Original*%
%TF.FileFunction,Drillmap*%
%TF.FilePolarity,Positive*%
%FSLAX45Y45*%
G04 Gerber Fmt 4.5, Leading zero omitted, Abs format (unit mm)*
G04 Created by KiCad (PCBNEW 8.0.5) date 2024-09-26 23:10:05*
%MOMM*%
%LPD*%
G01*
G04 APERTURE LIST*
%ADD10C,0.100000*%
%ADD11C,0.200000*%
%ADD12C,0.130000*%
G04 APERTURE END LIST*
D10*
X16577500Y-3525000D02*
X11197500Y-3525000D01*
X17711250Y-8093125D02*
G75*
G02*
X17651250Y-8093125I-30000J0D01*
G01*
X17651250Y-8093125D02*
G75*
G02*
X17711250Y-8093125I30000J0D01*
G01*
X17752500Y-7965000D02*
G75*
G02*
X17692500Y-8025000I-60000J0D01*
G01*
X20035000Y-9037500D02*
G75*
G02*
X19975000Y-8977500I0J60000D01*
G01*
X16903750Y-8229375D02*
G75*
G02*
X16843750Y-8229375I-30000J0D01*
G01*
X16843750Y-8229375D02*
G75*
G02*
X16903750Y-8229375I30000J0D01*
G01*
X11197500Y-10025000D02*
G75*
G02*
X10972500Y-9800000I0J225000D01*
G01*
X16802500Y-4355000D02*
X16802500Y-7965000D01*
X17711250Y-4226875D02*
G75*
G02*
X17651250Y-4226875I-30000J0D01*
G01*
X17651250Y-4226875D02*
G75*
G02*
X17711250Y-4226875I30000J0D01*
G01*
X20035000Y-8765000D02*
X20412500Y-8765000D01*
X18185000Y-9037500D02*
X17027500Y-9037500D01*
X17752500Y-8705000D02*
X17752500Y-8357500D01*
X17692500Y-8297500D02*
X16862500Y-8297500D01*
X17812500Y-8765000D02*
G75*
G02*
X17752500Y-8705000I0J60000D01*
G01*
X19702500Y-8825000D02*
X19702500Y-8977500D01*
X18577500Y-9037500D02*
G75*
G02*
X18517500Y-8977500I0J60000D01*
G01*
X16862500Y-4022500D02*
X17692500Y-4022500D01*
X16577500Y-3525000D02*
G75*
G02*
X16802500Y-3750000I0J-225000D01*
G01*
X16903750Y-8093125D02*
G75*
G02*
X16843750Y-8093125I-30000J0D01*
G01*
X16843750Y-8093125D02*
G75*
G02*
X16903750Y-8093125I30000J0D01*
G01*
X19642500Y-8765000D02*
G75*
G02*
X19702500Y-8825000I0J-60000D01*
G01*
X17752500Y-3962500D02*
X17752500Y-3585000D01*
X19642500Y-9037500D02*
X18577500Y-9037500D01*
X19975000Y-8825000D02*
G75*
G02*
X20035000Y-8765000I60000J0D01*
G01*
X11197500Y-10025000D02*
X20247500Y-10025000D01*
X17692500Y-4295000D02*
X16862500Y-4295000D01*
X17812500Y-8765000D02*
X18185000Y-8765000D01*
X16802500Y-3750000D02*
X16802500Y-3962500D01*
X17711250Y-4090625D02*
G75*
G02*
X17651250Y-4090625I-30000J0D01*
G01*
X17651250Y-4090625D02*
G75*
G02*
X17711250Y-4090625I30000J0D01*
G01*
X17692500Y-4295000D02*
G75*
G02*
X17752500Y-4355000I0J-60000D01*
G01*
X20247500Y-9037500D02*
G75*
G02*
X20472500Y-9262500I0J-225000D01*
G01*
X18245000Y-8825000D02*
X18245000Y-8977500D01*
X19936875Y-8966250D02*
G75*
G02*
X19876875Y-8966250I-30000J0D01*
G01*
X19876875Y-8966250D02*
G75*
G02*
X19936875Y-8966250I30000J0D01*
G01*
X20472500Y-9800000D02*
G75*
G02*
X20247500Y-10025000I-225000J0D01*
G01*
X20472500Y-9800000D02*
X20472500Y-9262500D01*
X19800625Y-8836250D02*
G75*
G02*
X19740625Y-8836250I-30000J0D01*
G01*
X19740625Y-8836250D02*
G75*
G02*
X19800625Y-8836250I30000J0D01*
G01*
X18517500Y-8825000D02*
G75*
G02*
X18577500Y-8765000I60000J0D01*
G01*
X16802500Y-8357500D02*
G75*
G02*
X16862500Y-8297500I60000J0D01*
G01*
X16903750Y-4226875D02*
G75*
G02*
X16843750Y-4226875I-30000J0D01*
G01*
X16843750Y-4226875D02*
G75*
G02*
X16903750Y-4226875I30000J0D01*
G01*
X17752500Y-3962500D02*
G75*
G02*
X17692500Y-4022500I-60000J0D01*
G01*
X16862500Y-8025000D02*
X17692500Y-8025000D01*
X18479375Y-8966250D02*
G75*
G02*
X18419375Y-8966250I-30000J0D01*
G01*
X18419375Y-8966250D02*
G75*
G02*
X18479375Y-8966250I30000J0D01*
G01*
X16802500Y-8357500D02*
X16802500Y-8812500D01*
X17711250Y-8229375D02*
G75*
G02*
X17651250Y-8229375I-30000J0D01*
G01*
X17651250Y-8229375D02*
G75*
G02*
X17711250Y-8229375I30000J0D01*
G01*
X18343125Y-8836250D02*
G75*
G02*
X18283125Y-8836250I-30000J0D01*
G01*
X18283125Y-8836250D02*
G75*
G02*
X18343125Y-8836250I30000J0D01*
G01*
X20247500Y-9037500D02*
X20035000Y-9037500D01*
X17752500Y-7965000D02*
X17752500Y-4355000D01*
X19936875Y-8836250D02*
G75*
G02*
X19876875Y-8836250I-30000J0D01*
G01*
X19876875Y-8836250D02*
G75*
G02*
X19936875Y-8836250I30000J0D01*
G01*
X10972500Y-3750000D02*
X10972500Y-9800000D01*
X18245000Y-8977500D02*
G75*
G02*
X18185000Y-9037500I-60000J0D01*
G01*
X18479375Y-8836250D02*
G75*
G02*
X18419375Y-8836250I-30000J0D01*
G01*
X18419375Y-8836250D02*
G75*
G02*
X18479375Y-8836250I30000J0D01*
G01*
X20412500Y-3525000D02*
G75*
G02*
X20472500Y-3585000I0J-60000D01*
G01*
X10972500Y-3750000D02*
G75*
G02*
X11197500Y-3525000I225000J0D01*
G01*
X18343125Y-8966250D02*
G75*
G02*
X18283125Y-8966250I-30000J0D01*
G01*
X18283125Y-8966250D02*
G75*
G02*
X18343125Y-8966250I30000J0D01*
G01*
X16862500Y-8025000D02*
G75*
G02*
X16802500Y-7965000I0J60000D01*
G01*
X18185000Y-8765000D02*
G75*
G02*
X18245000Y-8825000I0J-60000D01*
G01*
X18577500Y-8765000D02*
X19642500Y-8765000D01*
X19975000Y-8825000D02*
X19975000Y-8977500D01*
X20472500Y-8705000D02*
X20472500Y-3585000D01*
X19702500Y-8977500D02*
G75*
G02*
X19642500Y-9037500I-60000J0D01*
G01*
X20412500Y-3525000D02*
X17812500Y-3525000D01*
X16802500Y-4355000D02*
G75*
G02*
X16862500Y-4295000I60000J0D01*
G01*
X17027500Y-9037500D02*
G75*
G02*
X16802500Y-8812500I0J225000D01*
G01*
X16862500Y-4022500D02*
G75*
G02*
X16802500Y-3962500I0J60000D01*
G01*
X20472500Y-8705000D02*
G75*
G02*
X20412500Y-8765000I-60000J0D01*
G01*
X17692500Y-8297500D02*
G75*
G02*
X17752500Y-8357500I0J-60000D01*
G01*
X17752500Y-3585000D02*
G75*
G02*
X17812500Y-3525000I60000J0D01*
G01*
X18517500Y-8825000D02*
X18517500Y-8977500D01*
X19800625Y-8966250D02*
G75*
G02*
X19740625Y-8966250I-30000J0D01*
G01*
X19740625Y-8966250D02*
G75*
G02*
X19800625Y-8966250I30000J0D01*
G01*
X16903750Y-4090625D02*
G75*
G02*
X16843750Y-4090625I-30000J0D01*
G01*
X16843750Y-4090625D02*
G75*
G02*
X16903750Y-4090625I30000J0D01*
G01*
D11*
D10*
X11041270Y-4430000D02*
X11071270Y-4460000D01*
X11071270Y-4430000D02*
X11041270Y-4460000D01*
X11041270Y-4930000D02*
X11071270Y-4960000D01*
X11071270Y-4930000D02*
X11041270Y-4960000D01*
X11041270Y-5430000D02*
X11071270Y-5460000D01*
X11071270Y-5430000D02*
X11041270Y-5460000D01*
X11041270Y-5930000D02*
X11071270Y-5960000D01*
X11071270Y-5930000D02*
X11041270Y-5960000D01*
X11041270Y-6430000D02*
X11071270Y-6460000D01*
X11071270Y-6430000D02*
X11041270Y-6460000D01*
X11041270Y-6930000D02*
X11071270Y-6960000D01*
X11071270Y-6930000D02*
X11041270Y-6960000D01*
X11041270Y-7430000D02*
X11071270Y-7460000D01*
X11071270Y-7430000D02*
X11041270Y-7460000D01*
X11041270Y-7930000D02*
X11071270Y-7960000D01*
X11071270Y-7930000D02*
X11041270Y-7960000D01*
X11041270Y-8430000D02*
X11071270Y-8460000D01*
X11071270Y-8430000D02*
X11041270Y-8460000D01*
X11041270Y-8930000D02*
X11071270Y-8960000D01*
X11071270Y-8930000D02*
X11041270Y-8960000D01*
X11041270Y-9430000D02*
X11071270Y-9460000D01*
X11071270Y-9430000D02*
X11041270Y-9460000D01*
X11541270Y-3600000D02*
X11571270Y-3630000D01*
X11571270Y-3600000D02*
X11541270Y-3630000D01*
X11541270Y-3930000D02*
X11571270Y-3960000D01*
X11571270Y-3930000D02*
X11541270Y-3960000D01*
X11541270Y-4430000D02*
X11571270Y-4460000D01*
X11571270Y-4430000D02*
X11541270Y-4460000D01*
X11541270Y-4930000D02*
X11571270Y-4960000D01*
X11571270Y-4930000D02*
X11541270Y-4960000D01*
X11541270Y-5430000D02*
X11571270Y-5460000D01*
X11571270Y-5430000D02*
X11541270Y-5460000D01*
X11541270Y-7430000D02*
X11571270Y-7460000D01*
X11571270Y-7430000D02*
X11541270Y-7460000D01*
X11582500Y-5871020D02*
X11612500Y-5901020D01*
X11612500Y-5871020D02*
X11582500Y-5901020D01*
X11582500Y-6125020D02*
X11612500Y-6155020D01*
X11612500Y-6125020D02*
X11582500Y-6155020D01*
X11582500Y-6379020D02*
X11612500Y-6409020D01*
X11612500Y-6379020D02*
X11582500Y-6409020D01*
X11582500Y-6633020D02*
X11612500Y-6663020D01*
X11612500Y-6633020D02*
X11582500Y-6663020D01*
X11582500Y-6887020D02*
X11612500Y-6917020D01*
X11612500Y-6887020D02*
X11582500Y-6917020D01*
X11582500Y-7141020D02*
X11612500Y-7171020D01*
X11612500Y-7141020D02*
X11582500Y-7171020D01*
X11582500Y-7903020D02*
X11612500Y-7933020D01*
X11612500Y-7903020D02*
X11582500Y-7933020D01*
X11681270Y-8430000D02*
X11711270Y-8460000D01*
X11711270Y-8430000D02*
X11681270Y-8460000D01*
X11681270Y-8930000D02*
X11711270Y-8960000D01*
X11711270Y-8930000D02*
X11681270Y-8960000D01*
X11681270Y-9430000D02*
X11711270Y-9460000D01*
X11711270Y-9430000D02*
X11681270Y-9460000D01*
X11681270Y-9930000D02*
X11711270Y-9960000D01*
X11711270Y-9930000D02*
X11681270Y-9960000D01*
X11852500Y-7395020D02*
X11882500Y-7425020D01*
X11882500Y-7395020D02*
X11852500Y-7425020D01*
X11852500Y-7555020D02*
X11882500Y-7585020D01*
X11882500Y-7555020D02*
X11852500Y-7585020D01*
X11852500Y-7903020D02*
X11882500Y-7933020D01*
X11882500Y-7903020D02*
X11852500Y-7933020D01*
X11960000Y-6965020D02*
X11990000Y-6995020D01*
X11990000Y-6965020D02*
X11960000Y-6995020D01*
X12041270Y-3600000D02*
X12071270Y-3630000D01*
X12071270Y-3600000D02*
X12041270Y-3630000D01*
X12041270Y-4100000D02*
X12071270Y-4130000D01*
X12071270Y-4100000D02*
X12041270Y-4130000D01*
X12041270Y-4600000D02*
X12071270Y-4630000D01*
X12071270Y-4600000D02*
X12041270Y-4630000D01*
X12041270Y-5100000D02*
X12071270Y-5130000D01*
X12071270Y-5100000D02*
X12041270Y-5130000D01*
X12041270Y-5600000D02*
X12071270Y-5630000D01*
X12071270Y-5600000D02*
X12041270Y-5630000D01*
X12041270Y-6100000D02*
X12071270Y-6130000D01*
X12071270Y-6100000D02*
X12041270Y-6130000D01*
X12041270Y-6550000D02*
X12071270Y-6580000D01*
X12071270Y-6550000D02*
X12041270Y-6580000D01*
X12122500Y-7075020D02*
X12152500Y-7105020D01*
X12152500Y-7075020D02*
X12122500Y-7105020D01*
X12122500Y-7235020D02*
X12152500Y-7265020D01*
X12152500Y-7235020D02*
X12122500Y-7265020D01*
X12122500Y-7395020D02*
X12152500Y-7425020D01*
X12152500Y-7395020D02*
X12122500Y-7425020D01*
X12122500Y-7555020D02*
X12152500Y-7585020D01*
X12152500Y-7555020D02*
X12122500Y-7585020D01*
X12181270Y-9930000D02*
X12211270Y-9960000D01*
X12211270Y-9930000D02*
X12181270Y-9960000D01*
X12266700Y-6630020D02*
X12296700Y-6660020D01*
X12296700Y-6630020D02*
X12266700Y-6660020D01*
X12291700Y-8230020D02*
X12321700Y-8260020D01*
X12321700Y-8230020D02*
X12291700Y-8260020D01*
X12291700Y-8430020D02*
X12321700Y-8460020D01*
X12321700Y-8430020D02*
X12291700Y-8460020D01*
X12291700Y-8630020D02*
X12321700Y-8660020D01*
X12321700Y-8630020D02*
X12291700Y-8660020D01*
X12291700Y-8830020D02*
X12321700Y-8860020D01*
X12321700Y-8830020D02*
X12291700Y-8860020D01*
X12321270Y-7855000D02*
X12351270Y-7885000D01*
X12351270Y-7855000D02*
X12321270Y-7885000D01*
X12361700Y-6945020D02*
X12391700Y-6975020D01*
X12391700Y-6945020D02*
X12361700Y-6975020D01*
X12386270Y-9440000D02*
X12416270Y-9470000D01*
X12416270Y-9440000D02*
X12386270Y-9470000D01*
X12391700Y-8930020D02*
X12421700Y-8960020D01*
X12421700Y-8930020D02*
X12391700Y-8960020D01*
X12481270Y-7855000D02*
X12511270Y-7885000D01*
X12511270Y-7855000D02*
X12481270Y-7885000D01*
X12481270Y-8027500D02*
X12511270Y-8057500D01*
X12511270Y-8027500D02*
X12481270Y-8057500D01*
X12491270Y-9367500D02*
X12521270Y-9397500D01*
X12521270Y-9367500D02*
X12491270Y-9397500D01*
X12491270Y-9530000D02*
X12521270Y-9560000D01*
X12521270Y-9530000D02*
X12491270Y-9560000D01*
X12491700Y-8350020D02*
X12521700Y-8380020D01*
X12521700Y-8350020D02*
X12491700Y-8380020D01*
X12491700Y-8550020D02*
X12521700Y-8580020D01*
X12521700Y-8550020D02*
X12491700Y-8580020D01*
X12491700Y-8750020D02*
X12521700Y-8780020D01*
X12521700Y-8750020D02*
X12491700Y-8780020D01*
X12491700Y-8930020D02*
X12521700Y-8960020D01*
X12521700Y-8930020D02*
X12491700Y-8960020D01*
X12507500Y-6702520D02*
X12537500Y-6732520D01*
X12537500Y-6702520D02*
X12507500Y-6732520D01*
X12536700Y-6845020D02*
X12566700Y-6875020D01*
X12566700Y-6845020D02*
X12536700Y-6875020D01*
X12541270Y-3600000D02*
X12571270Y-3630000D01*
X12571270Y-3600000D02*
X12541270Y-3630000D01*
X12541270Y-4100000D02*
X12571270Y-4130000D01*
X12571270Y-4100000D02*
X12541270Y-4130000D01*
X12541270Y-4600000D02*
X12571270Y-4630000D01*
X12571270Y-4600000D02*
X12541270Y-4630000D01*
X12541270Y-5100000D02*
X12571270Y-5130000D01*
X12571270Y-5100000D02*
X12541270Y-5130000D01*
X12541270Y-5600000D02*
X12571270Y-5630000D01*
X12571270Y-5600000D02*
X12541270Y-5630000D01*
X12541270Y-6160000D02*
X12571270Y-6190000D01*
X12571270Y-6160000D02*
X12541270Y-6190000D01*
X12581700Y-7855020D02*
X12611700Y-7885020D01*
X12611700Y-7855020D02*
X12581700Y-7885020D01*
X12586700Y-6630020D02*
X12616700Y-6660020D01*
X12616700Y-6630020D02*
X12586700Y-6660020D01*
X12591700Y-7100020D02*
X12621700Y-7130020D01*
X12621700Y-7100020D02*
X12591700Y-7130020D01*
X12591700Y-7245020D02*
X12621700Y-7275020D01*
X12621700Y-7245020D02*
X12591700Y-7275020D01*
X12591700Y-7390020D02*
X12621700Y-7420020D01*
X12621700Y-7390020D02*
X12591700Y-7420020D01*
X12591700Y-8250020D02*
X12621700Y-8280020D01*
X12621700Y-8250020D02*
X12591700Y-8280020D01*
X12636700Y-6845020D02*
X12666700Y-6875020D01*
X12666700Y-6845020D02*
X12636700Y-6875020D01*
X12681270Y-9767500D02*
X12711270Y-9797500D01*
X12711270Y-9767500D02*
X12681270Y-9797500D01*
X12681270Y-9930000D02*
X12711270Y-9960000D01*
X12711270Y-9930000D02*
X12681270Y-9960000D01*
X12728270Y-4135000D02*
X12758270Y-4165000D01*
X12758270Y-4135000D02*
X12728270Y-4165000D01*
X12728270Y-4405000D02*
X12758270Y-4435000D01*
X12758270Y-4405000D02*
X12728270Y-4435000D01*
X12736700Y-7100020D02*
X12766700Y-7130020D01*
X12766700Y-7100020D02*
X12736700Y-7130020D01*
X12736700Y-7245020D02*
X12766700Y-7275020D01*
X12766700Y-7245020D02*
X12736700Y-7275020D01*
X12736700Y-7390020D02*
X12766700Y-7420020D01*
X12766700Y-7390020D02*
X12736700Y-7420020D01*
X12746700Y-6630020D02*
X12776700Y-6660020D01*
X12776700Y-6630020D02*
X12746700Y-6660020D01*
X12791700Y-8845020D02*
X12821700Y-8875020D01*
X12821700Y-8845020D02*
X12791700Y-8875020D01*
X12836700Y-6845020D02*
X12866700Y-6875020D01*
X12866700Y-6845020D02*
X12836700Y-6875020D01*
X12841270Y-7855000D02*
X12871270Y-7885000D01*
X12871270Y-7855000D02*
X12841270Y-7885000D01*
X12881700Y-7100020D02*
X12911700Y-7130020D01*
X12911700Y-7100020D02*
X12881700Y-7130020D01*
X12881700Y-7245020D02*
X12911700Y-7275020D01*
X12911700Y-7245020D02*
X12881700Y-7275020D01*
X12881700Y-7390020D02*
X12911700Y-7420020D01*
X12911700Y-7390020D02*
X12881700Y-7420020D01*
X12906700Y-6630020D02*
X12936700Y-6660020D01*
X12936700Y-6630020D02*
X12906700Y-6660020D01*
X12942438Y-8700000D02*
X12972438Y-8730000D01*
X12972438Y-8700000D02*
X12942438Y-8730000D01*
X12942438Y-9000000D02*
X12972438Y-9030000D01*
X12972438Y-9000000D02*
X12942438Y-9030000D01*
X12942438Y-9300000D02*
X12972438Y-9330000D01*
X12972438Y-9300000D02*
X12942438Y-9330000D01*
X13001270Y-7855000D02*
X13031270Y-7885000D01*
X13031270Y-7855000D02*
X13001270Y-7885000D01*
X13016270Y-9930000D02*
X13046270Y-9960000D01*
X13046270Y-9930000D02*
X13016270Y-9960000D01*
X13027500Y-4255000D02*
X13057500Y-4285000D01*
X13057500Y-4255000D02*
X13027500Y-4285000D01*
X13027500Y-4645000D02*
X13057500Y-4675000D01*
X13057500Y-4645000D02*
X13027500Y-4675000D01*
X13027500Y-5045000D02*
X13057500Y-5075000D01*
X13057500Y-5045000D02*
X13027500Y-5075000D01*
X13027500Y-5445000D02*
X13057500Y-5475000D01*
X13057500Y-5445000D02*
X13027500Y-5475000D01*
X13027500Y-5845000D02*
X13057500Y-5875000D01*
X13057500Y-5845000D02*
X13027500Y-5875000D01*
X13027500Y-6245000D02*
X13057500Y-6275000D01*
X13057500Y-6245000D02*
X13027500Y-6275000D01*
X13027500Y-6445000D02*
X13057500Y-6475000D01*
X13057500Y-6445000D02*
X13027500Y-6475000D01*
X13041270Y-3600000D02*
X13071270Y-3630000D01*
X13071270Y-3600000D02*
X13041270Y-3630000D01*
X13061270Y-4130000D02*
X13091270Y-4160000D01*
X13091270Y-4130000D02*
X13061270Y-4160000D01*
X13066700Y-6630020D02*
X13096700Y-6660020D01*
X13096700Y-6630020D02*
X13066700Y-6660020D01*
X13066700Y-6780020D02*
X13096700Y-6810020D01*
X13096700Y-6780020D02*
X13066700Y-6810020D01*
X13066700Y-6870020D02*
X13096700Y-6900020D01*
X13096700Y-6870020D02*
X13066700Y-6900020D01*
X13136700Y-7295020D02*
X13166700Y-7325020D01*
X13166700Y-7295020D02*
X13136700Y-7325020D01*
X13136700Y-7395020D02*
X13166700Y-7425020D01*
X13166700Y-7395020D02*
X13136700Y-7425020D01*
X13142438Y-8500000D02*
X13172438Y-8530000D01*
X13172438Y-8500000D02*
X13142438Y-8530000D01*
X13161270Y-4030000D02*
X13191270Y-4060000D01*
X13191270Y-4030000D02*
X13161270Y-4060000D01*
X13161270Y-7855000D02*
X13191270Y-7885000D01*
X13191270Y-7855000D02*
X13161270Y-7885000D01*
X13211700Y-7345020D02*
X13241700Y-7375020D01*
X13241700Y-7345020D02*
X13211700Y-7375020D01*
X13211700Y-7445020D02*
X13241700Y-7475020D01*
X13241700Y-7445020D02*
X13211700Y-7475020D01*
X13227500Y-4445000D02*
X13257500Y-4475000D01*
X13257500Y-4445000D02*
X13227500Y-4475000D01*
X13227500Y-4845000D02*
X13257500Y-4875000D01*
X13257500Y-4845000D02*
X13227500Y-4875000D01*
X13227500Y-5245000D02*
X13257500Y-5275000D01*
X13257500Y-5245000D02*
X13227500Y-5275000D01*
X13227500Y-5545000D02*
X13257500Y-5575000D01*
X13257500Y-5545000D02*
X13227500Y-5575000D01*
X13227500Y-5845000D02*
X13257500Y-5875000D01*
X13257500Y-5845000D02*
X13227500Y-5875000D01*
X13227500Y-6145000D02*
X13257500Y-6175000D01*
X13257500Y-6145000D02*
X13227500Y-6175000D01*
X13231270Y-4130000D02*
X13261270Y-4160000D01*
X13261270Y-4130000D02*
X13231270Y-4160000D01*
X13241270Y-6420000D02*
X13271270Y-6450000D01*
X13271270Y-6420000D02*
X13241270Y-6450000D01*
X13260970Y-8759700D02*
X13290970Y-8789700D01*
X13290970Y-8759700D02*
X13260970Y-8789700D01*
X13260970Y-9109700D02*
X13290970Y-9139700D01*
X13290970Y-9109700D02*
X13260970Y-9139700D01*
X13260970Y-9559700D02*
X13290970Y-9589700D01*
X13290970Y-9559700D02*
X13260970Y-9589700D01*
X13261270Y-9930000D02*
X13291270Y-9960000D01*
X13291270Y-9930000D02*
X13261270Y-9960000D01*
X13342438Y-8300000D02*
X13372438Y-8330000D01*
X13372438Y-8300000D02*
X13342438Y-8330000D01*
X13351700Y-7565020D02*
X13381700Y-7595020D01*
X13381700Y-7565020D02*
X13351700Y-7595020D01*
X13361700Y-7145020D02*
X13391700Y-7175020D01*
X13391700Y-7145020D02*
X13361700Y-7175020D01*
X13371700Y-8125020D02*
X13401700Y-8155020D01*
X13401700Y-8125020D02*
X13371700Y-8155020D01*
X13381270Y-6650000D02*
X13411270Y-6680000D01*
X13411270Y-6650000D02*
X13381270Y-6680000D01*
X13461270Y-6440000D02*
X13491270Y-6470000D01*
X13491270Y-6440000D02*
X13461270Y-6470000D01*
X13461700Y-8125020D02*
X13491700Y-8155020D01*
X13491700Y-8125020D02*
X13461700Y-8155020D01*
X13490270Y-4135000D02*
X13520270Y-4165000D01*
X13520270Y-4135000D02*
X13490270Y-4165000D01*
X13510970Y-8509700D02*
X13540970Y-8539700D01*
X13540970Y-8509700D02*
X13510970Y-8539700D01*
X13531270Y-9160000D02*
X13561270Y-9190000D01*
X13561270Y-9160000D02*
X13531270Y-9190000D01*
X13541270Y-3600000D02*
X13571270Y-3630000D01*
X13571270Y-3600000D02*
X13541270Y-3630000D01*
X13541270Y-4600000D02*
X13571270Y-4630000D01*
X13571270Y-4600000D02*
X13541270Y-4630000D01*
X13541270Y-5100000D02*
X13571270Y-5130000D01*
X13571270Y-5100000D02*
X13541270Y-5130000D01*
X13541270Y-5600000D02*
X13571270Y-5630000D01*
X13571270Y-5600000D02*
X13541270Y-5630000D01*
X13541270Y-6260000D02*
X13571270Y-6290000D01*
X13571270Y-6260000D02*
X13541270Y-6290000D01*
X13541270Y-7100000D02*
X13571270Y-7130000D01*
X13571270Y-7100000D02*
X13541270Y-7130000D01*
X13541270Y-7600000D02*
X13571270Y-7630000D01*
X13571270Y-7600000D02*
X13541270Y-7630000D01*
X13741270Y-6440000D02*
X13771270Y-6470000D01*
X13771270Y-6440000D02*
X13741270Y-6470000D01*
X13744270Y-4135000D02*
X13774270Y-4165000D01*
X13774270Y-4135000D02*
X13744270Y-4165000D01*
X13761270Y-9930000D02*
X13791270Y-9960000D01*
X13791270Y-9930000D02*
X13761270Y-9960000D01*
X13786270Y-7830000D02*
X13816270Y-7860000D01*
X13816270Y-7830000D02*
X13786270Y-7860000D01*
X13841270Y-9197500D02*
X13871270Y-9227500D01*
X13871270Y-9197500D02*
X13841270Y-9227500D01*
X13841270Y-9467500D02*
X13871270Y-9497500D01*
X13871270Y-9467500D02*
X13841270Y-9497500D01*
X13906270Y-8710000D02*
X13936270Y-8740000D01*
X13936270Y-8710000D02*
X13906270Y-8740000D01*
X13935970Y-8084700D02*
X13965970Y-8114700D01*
X13965970Y-8084700D02*
X13935970Y-8114700D01*
X13971270Y-6260000D02*
X14001270Y-6290000D01*
X14001270Y-6260000D02*
X13971270Y-6290000D01*
X13998270Y-4135000D02*
X14028270Y-4165000D01*
X14028270Y-4135000D02*
X13998270Y-4165000D01*
X14041270Y-3600000D02*
X14071270Y-3630000D01*
X14071270Y-3600000D02*
X14041270Y-3630000D01*
X14041270Y-4600000D02*
X14071270Y-4630000D01*
X14071270Y-4600000D02*
X14041270Y-4630000D01*
X14041270Y-5100000D02*
X14071270Y-5130000D01*
X14071270Y-5100000D02*
X14041270Y-5130000D01*
X14041270Y-5600000D02*
X14071270Y-5630000D01*
X14071270Y-5600000D02*
X14041270Y-5630000D01*
X14041270Y-6440000D02*
X14071270Y-6470000D01*
X14071270Y-6440000D02*
X14041270Y-6470000D01*
X14127500Y-4135000D02*
X14157500Y-4165000D01*
X14157500Y-4135000D02*
X14127500Y-4165000D01*
X14173386Y-6232886D02*
X14203386Y-6262886D01*
X14203386Y-6232886D02*
X14173386Y-6262886D01*
X14201270Y-7000000D02*
X14231270Y-7030000D01*
X14231270Y-7000000D02*
X14201270Y-7030000D01*
X14252270Y-4135000D02*
X14282270Y-4165000D01*
X14282270Y-4135000D02*
X14252270Y-4165000D01*
X14261270Y-9930000D02*
X14291270Y-9960000D01*
X14291270Y-9930000D02*
X14261270Y-9960000D01*
X14357500Y-5885000D02*
X14387500Y-5915000D01*
X14387500Y-5885000D02*
X14357500Y-5915000D01*
X14357500Y-6450000D02*
X14387500Y-6480000D01*
X14387500Y-6450000D02*
X14357500Y-6480000D01*
X14357500Y-6610000D02*
X14387500Y-6640000D01*
X14387500Y-6610000D02*
X14357500Y-6640000D01*
X14357500Y-6770000D02*
X14387500Y-6800000D01*
X14387500Y-6770000D02*
X14357500Y-6800000D01*
X14358386Y-6135000D02*
X14388386Y-6165000D01*
X14388386Y-6135000D02*
X14358386Y-6165000D01*
X14377500Y-4135000D02*
X14407500Y-4165000D01*
X14407500Y-4135000D02*
X14377500Y-4165000D01*
X14383750Y-7591250D02*
X14413750Y-7621250D01*
X14413750Y-7591250D02*
X14383750Y-7621250D01*
X14507500Y-4135000D02*
X14537500Y-4165000D01*
X14537500Y-4135000D02*
X14507500Y-4165000D01*
X14541270Y-3600000D02*
X14571270Y-3630000D01*
X14571270Y-3600000D02*
X14541270Y-3630000D01*
X14585970Y-8084700D02*
X14615970Y-8114700D01*
X14615970Y-8084700D02*
X14585970Y-8114700D01*
X14621270Y-8850000D02*
X14651270Y-8880000D01*
X14651270Y-8850000D02*
X14621270Y-8880000D01*
X14627500Y-5725000D02*
X14657500Y-5755000D01*
X14657500Y-5725000D02*
X14627500Y-5755000D01*
X14627500Y-5885000D02*
X14657500Y-5915000D01*
X14657500Y-5885000D02*
X14627500Y-5915000D01*
X14627500Y-6240000D02*
X14657500Y-6270000D01*
X14657500Y-6240000D02*
X14627500Y-6270000D01*
X14627500Y-6610000D02*
X14657500Y-6640000D01*
X14657500Y-6610000D02*
X14627500Y-6640000D01*
X14627500Y-6770000D02*
X14657500Y-6800000D01*
X14657500Y-6770000D02*
X14627500Y-6800000D01*
X14637500Y-4135000D02*
X14667500Y-4165000D01*
X14667500Y-4135000D02*
X14637500Y-4165000D01*
X14637500Y-4595000D02*
X14667500Y-4625000D01*
X14667500Y-4595000D02*
X14637500Y-4625000D01*
X14700000Y-6865000D02*
X14730000Y-6895000D01*
X14730000Y-6865000D02*
X14700000Y-6895000D01*
X14760270Y-4135000D02*
X14790270Y-4165000D01*
X14790270Y-4135000D02*
X14760270Y-4165000D01*
X14761270Y-9515000D02*
X14791270Y-9545000D01*
X14791270Y-9515000D02*
X14761270Y-9545000D01*
X14761270Y-9930000D02*
X14791270Y-9960000D01*
X14791270Y-9930000D02*
X14761270Y-9960000D01*
X14767500Y-5160000D02*
X14797500Y-5190000D01*
X14797500Y-5160000D02*
X14767500Y-5190000D01*
X14768750Y-8436250D02*
X14798750Y-8466250D01*
X14798750Y-8436250D02*
X14768750Y-8466250D01*
X14790000Y-6770000D02*
X14820000Y-6800000D01*
X14820000Y-6770000D02*
X14790000Y-6800000D01*
X14811270Y-7605000D02*
X14841270Y-7635000D01*
X14841270Y-7605000D02*
X14811270Y-7635000D01*
X14842500Y-6235000D02*
X14872500Y-6265000D01*
X14872500Y-6235000D02*
X14842500Y-6265000D01*
X14842500Y-6335000D02*
X14872500Y-6365000D01*
X14872500Y-6335000D02*
X14842500Y-6365000D01*
X14842500Y-6435000D02*
X14872500Y-6465000D01*
X14872500Y-6435000D02*
X14842500Y-6465000D01*
X15041270Y-3600000D02*
X15071270Y-3630000D01*
X15071270Y-3600000D02*
X15041270Y-3630000D01*
X15042500Y-6792500D02*
X15072500Y-6822500D01*
X15072500Y-6792500D02*
X15042500Y-6822500D01*
X15057500Y-4100000D02*
X15087500Y-4130000D01*
X15087500Y-4100000D02*
X15057500Y-4130000D01*
X15057500Y-4310000D02*
X15087500Y-4340000D01*
X15087500Y-4310000D02*
X15057500Y-4340000D01*
X15085970Y-8334700D02*
X15115970Y-8364700D01*
X15115970Y-8334700D02*
X15085970Y-8364700D01*
X15092500Y-5635000D02*
X15122500Y-5665000D01*
X15122500Y-5635000D02*
X15092500Y-5665000D01*
X15117500Y-5915000D02*
X15147500Y-5945000D01*
X15147500Y-5915000D02*
X15117500Y-5945000D01*
X15117500Y-6110000D02*
X15147500Y-6140000D01*
X15147500Y-6110000D02*
X15117500Y-6140000D01*
X15117500Y-6310000D02*
X15147500Y-6340000D01*
X15147500Y-6310000D02*
X15117500Y-6340000D01*
X15147500Y-4495000D02*
X15177500Y-4525000D01*
X15177500Y-4495000D02*
X15147500Y-4525000D01*
X15147500Y-5015000D02*
X15177500Y-5045000D01*
X15177500Y-5015000D02*
X15147500Y-5045000D01*
X15201270Y-7000000D02*
X15231270Y-7030000D01*
X15231270Y-7000000D02*
X15201270Y-7030000D01*
X15242500Y-5430000D02*
X15272500Y-5460000D01*
X15272500Y-5430000D02*
X15242500Y-5460000D01*
X15261270Y-9515000D02*
X15291270Y-9545000D01*
X15291270Y-9515000D02*
X15261270Y-9545000D01*
X15261270Y-9930000D02*
X15291270Y-9960000D01*
X15291270Y-9930000D02*
X15261270Y-9960000D01*
X15312500Y-4637500D02*
X15342500Y-4667500D01*
X15342500Y-4637500D02*
X15312500Y-4667500D01*
X15312500Y-4767500D02*
X15342500Y-4797500D01*
X15342500Y-4767500D02*
X15312500Y-4797500D01*
X15312500Y-5910000D02*
X15342500Y-5940000D01*
X15342500Y-5910000D02*
X15312500Y-5940000D01*
X15317500Y-4897500D02*
X15347500Y-4927500D01*
X15347500Y-4897500D02*
X15317500Y-4927500D01*
X15317500Y-6110000D02*
X15347500Y-6140000D01*
X15347500Y-6110000D02*
X15317500Y-6140000D01*
X15317500Y-6310000D02*
X15347500Y-6340000D01*
X15347500Y-6310000D02*
X15317500Y-6340000D01*
X15342500Y-6650000D02*
X15372500Y-6680000D01*
X15372500Y-6650000D02*
X15342500Y-6680000D01*
X15392500Y-5635000D02*
X15422500Y-5665000D01*
X15422500Y-5635000D02*
X15392500Y-5665000D01*
X15392500Y-6585000D02*
X15422500Y-6615000D01*
X15422500Y-6585000D02*
X15392500Y-6615000D01*
X15432500Y-5160000D02*
X15462500Y-5190000D01*
X15462500Y-5160000D02*
X15432500Y-5190000D01*
X15442500Y-5570000D02*
X15472500Y-5600000D01*
X15472500Y-5570000D02*
X15442500Y-5600000D01*
X15442500Y-6650000D02*
X15472500Y-6680000D01*
X15472500Y-6650000D02*
X15442500Y-6680000D01*
X15492500Y-5635000D02*
X15522500Y-5665000D01*
X15522500Y-5635000D02*
X15492500Y-5665000D01*
X15492500Y-6585000D02*
X15522500Y-6615000D01*
X15522500Y-6585000D02*
X15492500Y-6615000D01*
X15512500Y-4702500D02*
X15542500Y-4732500D01*
X15542500Y-4702500D02*
X15512500Y-4732500D01*
X15512500Y-5000000D02*
X15542500Y-5030000D01*
X15542500Y-5000000D02*
X15512500Y-5030000D01*
X15512500Y-5087500D02*
X15542500Y-5117500D01*
X15542500Y-5087500D02*
X15512500Y-5117500D01*
X15517500Y-5910000D02*
X15547500Y-5940000D01*
X15547500Y-5910000D02*
X15517500Y-5940000D01*
X15517500Y-6110000D02*
X15547500Y-6140000D01*
X15547500Y-6110000D02*
X15517500Y-6140000D01*
X15517500Y-6310000D02*
X15547500Y-6340000D01*
X15547500Y-6310000D02*
X15517500Y-6340000D01*
X15541270Y-3600000D02*
X15571270Y-3630000D01*
X15571270Y-3600000D02*
X15541270Y-3630000D01*
X15541270Y-4100000D02*
X15571270Y-4130000D01*
X15571270Y-4100000D02*
X15541270Y-4130000D01*
X15592500Y-5160000D02*
X15622500Y-5190000D01*
X15622500Y-5160000D02*
X15592500Y-5190000D01*
X15672500Y-5435000D02*
X15702500Y-5465000D01*
X15702500Y-5435000D02*
X15672500Y-5465000D01*
X15685970Y-8484700D02*
X15715970Y-8514700D01*
X15715970Y-8484700D02*
X15685970Y-8514700D01*
X15711270Y-7150000D02*
X15741270Y-7180000D01*
X15741270Y-7150000D02*
X15711270Y-7180000D01*
X15711270Y-7430000D02*
X15741270Y-7460000D01*
X15741270Y-7430000D02*
X15711270Y-7460000D01*
X15711270Y-7780000D02*
X15741270Y-7810000D01*
X15741270Y-7780000D02*
X15711270Y-7810000D01*
X15761270Y-9000000D02*
X15791270Y-9030000D01*
X15791270Y-9000000D02*
X15761270Y-9030000D01*
X15761270Y-9510000D02*
X15791270Y-9540000D01*
X15791270Y-9510000D02*
X15761270Y-9540000D01*
X15761270Y-9930000D02*
X15791270Y-9960000D01*
X15791270Y-9930000D02*
X15761270Y-9960000D01*
X15781270Y-4500000D02*
X15811270Y-4530000D01*
X15811270Y-4500000D02*
X15781270Y-4530000D01*
X15782500Y-5000000D02*
X15812500Y-5030000D01*
X15812500Y-5000000D02*
X15782500Y-5030000D01*
X15792500Y-5785000D02*
X15822500Y-5815000D01*
X15822500Y-5785000D02*
X15792500Y-5815000D01*
X15792500Y-6180000D02*
X15822500Y-6210000D01*
X15822500Y-6180000D02*
X15792500Y-6210000D01*
X15792500Y-6285000D02*
X15822500Y-6315000D01*
X15822500Y-6285000D02*
X15792500Y-6315000D01*
X15912500Y-5577500D02*
X15942500Y-5607500D01*
X15942500Y-5577500D02*
X15912500Y-5607500D01*
X16007500Y-5975000D02*
X16037500Y-6005000D01*
X16037500Y-5975000D02*
X16007500Y-6005000D01*
X16007500Y-6135000D02*
X16037500Y-6165000D01*
X16037500Y-6135000D02*
X16007500Y-6165000D01*
X16041270Y-3600000D02*
X16071270Y-3630000D01*
X16071270Y-3600000D02*
X16041270Y-3630000D01*
X16041270Y-4100000D02*
X16071270Y-4130000D01*
X16071270Y-4100000D02*
X16041270Y-4130000D01*
X16186270Y-9510000D02*
X16216270Y-9540000D01*
X16216270Y-9510000D02*
X16186270Y-9540000D01*
X16186270Y-9930000D02*
X16216270Y-9960000D01*
X16216270Y-9930000D02*
X16186270Y-9960000D01*
X16201270Y-5500000D02*
X16231270Y-5530000D01*
X16231270Y-5500000D02*
X16201270Y-5530000D01*
X16261270Y-7150000D02*
X16291270Y-7180000D01*
X16291270Y-7150000D02*
X16261270Y-7180000D01*
X16261270Y-7630000D02*
X16291270Y-7660000D01*
X16291270Y-7630000D02*
X16261270Y-7660000D01*
X16385970Y-8499700D02*
X16415970Y-8529700D01*
X16415970Y-8499700D02*
X16385970Y-8529700D01*
X16385970Y-8999700D02*
X16415970Y-9029700D01*
X16415970Y-8999700D02*
X16385970Y-9029700D01*
X16385970Y-9509700D02*
X16415970Y-9539700D01*
X16415970Y-9509700D02*
X16385970Y-9539700D01*
X16701270Y-4000000D02*
X16731270Y-4030000D01*
X16731270Y-4000000D02*
X16701270Y-4030000D01*
X16701270Y-4500000D02*
X16731270Y-4530000D01*
X16731270Y-4500000D02*
X16701270Y-4530000D01*
X16701270Y-5000000D02*
X16731270Y-5030000D01*
X16731270Y-5000000D02*
X16701270Y-5030000D01*
X16701270Y-5500000D02*
X16731270Y-5530000D01*
X16731270Y-5500000D02*
X16701270Y-5530000D01*
X16701270Y-6000000D02*
X16731270Y-6030000D01*
X16731270Y-6000000D02*
X16701270Y-6030000D01*
X16701270Y-6500000D02*
X16731270Y-6530000D01*
X16731270Y-6500000D02*
X16701270Y-6530000D01*
X16701270Y-7000000D02*
X16731270Y-7030000D01*
X16731270Y-7000000D02*
X16701270Y-7030000D01*
X16701270Y-7500000D02*
X16731270Y-7530000D01*
X16731270Y-7500000D02*
X16701270Y-7530000D01*
X16701270Y-8000000D02*
X16731270Y-8030000D01*
X16731270Y-8000000D02*
X16701270Y-8030000D01*
X16701270Y-8500000D02*
X16731270Y-8530000D01*
X16731270Y-8500000D02*
X16701270Y-8530000D01*
X16701270Y-9000000D02*
X16731270Y-9030000D01*
X16731270Y-9000000D02*
X16701270Y-9030000D01*
X17077439Y-9212791D02*
X17107439Y-9242791D01*
X17107439Y-9212791D02*
X17077439Y-9242791D01*
X17110635Y-9909365D02*
X17140635Y-9939365D01*
X17140635Y-9909365D02*
X17110635Y-9939365D01*
X17432510Y-9643010D02*
X17462510Y-9673010D01*
X17462510Y-9643010D02*
X17432510Y-9673010D01*
X17547439Y-9092791D02*
X17577439Y-9122791D01*
X17577439Y-9092791D02*
X17547439Y-9122791D01*
X17672510Y-9643010D02*
X17702510Y-9673010D01*
X17702510Y-9643010D02*
X17672510Y-9673010D01*
X17672510Y-9863010D02*
X17702510Y-9893010D01*
X17702510Y-9863010D02*
X17672510Y-9893010D01*
X17835010Y-9350439D02*
X17865010Y-9380439D01*
X17865010Y-9350439D02*
X17835010Y-9380439D01*
X17835010Y-9430439D02*
X17865010Y-9460439D01*
X17865010Y-9430439D02*
X17835010Y-9460439D01*
X17837500Y-3625000D02*
X17867500Y-3655000D01*
X17867500Y-3625000D02*
X17837500Y-3655000D01*
X17837500Y-4025000D02*
X17867500Y-4055000D01*
X17867500Y-4025000D02*
X17837500Y-4055000D01*
X17837500Y-4525000D02*
X17867500Y-4555000D01*
X17867500Y-4525000D02*
X17837500Y-4555000D01*
X17837500Y-6025000D02*
X17867500Y-6055000D01*
X17867500Y-6025000D02*
X17837500Y-6055000D01*
X17837500Y-6525000D02*
X17867500Y-6555000D01*
X17867500Y-6525000D02*
X17837500Y-6555000D01*
X17837500Y-7025000D02*
X17867500Y-7055000D01*
X17867500Y-7025000D02*
X17837500Y-7055000D01*
X17837500Y-7525000D02*
X17867500Y-7555000D01*
X17867500Y-7525000D02*
X17837500Y-7555000D01*
X17837500Y-8025000D02*
X17867500Y-8055000D01*
X17867500Y-8025000D02*
X17837500Y-8055000D01*
X17912510Y-9643010D02*
X17942510Y-9673010D01*
X17942510Y-9643010D02*
X17912510Y-9673010D01*
X18072510Y-9643010D02*
X18102510Y-9673010D01*
X18102510Y-9643010D02*
X18072510Y-9673010D01*
X18093750Y-9926250D02*
X18123750Y-9956250D01*
X18123750Y-9926250D02*
X18093750Y-9956250D01*
X18337500Y-3625000D02*
X18367500Y-3655000D01*
X18367500Y-3625000D02*
X18337500Y-3655000D01*
X18337500Y-4525000D02*
X18367500Y-4555000D01*
X18367500Y-4525000D02*
X18337500Y-4555000D01*
X18337500Y-5525000D02*
X18367500Y-5555000D01*
X18367500Y-5525000D02*
X18337500Y-5555000D01*
X18337500Y-6025000D02*
X18367500Y-6055000D01*
X18367500Y-6025000D02*
X18337500Y-6055000D01*
X18337500Y-6525000D02*
X18367500Y-6555000D01*
X18367500Y-6525000D02*
X18337500Y-6555000D01*
X18337500Y-7025000D02*
X18367500Y-7055000D01*
X18367500Y-7025000D02*
X18337500Y-7055000D01*
X18337500Y-7525000D02*
X18367500Y-7555000D01*
X18367500Y-7525000D02*
X18337500Y-7555000D01*
X18337500Y-8025000D02*
X18367500Y-8055000D01*
X18367500Y-8025000D02*
X18337500Y-8055000D01*
X18347500Y-4244000D02*
X18377500Y-4274000D01*
X18377500Y-4244000D02*
X18347500Y-4274000D01*
X18593750Y-9926250D02*
X18623750Y-9956250D01*
X18623750Y-9926250D02*
X18593750Y-9956250D01*
X18673750Y-9276250D02*
X18703750Y-9306250D01*
X18703750Y-9276250D02*
X18673750Y-9306250D01*
X18837500Y-3625000D02*
X18867500Y-3655000D01*
X18867500Y-3625000D02*
X18837500Y-3655000D01*
X18837500Y-6025000D02*
X18867500Y-6055000D01*
X18867500Y-6025000D02*
X18837500Y-6055000D01*
X18837500Y-6525000D02*
X18867500Y-6555000D01*
X18867500Y-6525000D02*
X18837500Y-6555000D01*
X18837500Y-7025000D02*
X18867500Y-7055000D01*
X18867500Y-7025000D02*
X18837500Y-7055000D01*
X18837500Y-7525000D02*
X18867500Y-7555000D01*
X18867500Y-7525000D02*
X18837500Y-7555000D01*
X18837500Y-8025000D02*
X18867500Y-8055000D01*
X18867500Y-8025000D02*
X18837500Y-8055000D01*
X18847500Y-4244000D02*
X18877500Y-4274000D01*
X18877500Y-4244000D02*
X18847500Y-4274000D01*
X18937500Y-5375000D02*
X18967500Y-5405000D01*
X18967500Y-5375000D02*
X18937500Y-5405000D01*
X19097500Y-4244000D02*
X19127500Y-4274000D01*
X19127500Y-4244000D02*
X19097500Y-4274000D01*
X19284000Y-4791500D02*
X19314000Y-4821500D01*
X19314000Y-4791500D02*
X19284000Y-4821500D01*
X19284000Y-4891500D02*
X19314000Y-4921500D01*
X19314000Y-4891500D02*
X19284000Y-4921500D01*
X19284000Y-4991500D02*
X19314000Y-5021500D01*
X19314000Y-4991500D02*
X19284000Y-5021500D01*
X19312500Y-4321500D02*
X19342500Y-4351500D01*
X19342500Y-4321500D02*
X19312500Y-4351500D01*
X19313750Y-9926250D02*
X19343750Y-9956250D01*
X19343750Y-9926250D02*
X19313750Y-9956250D01*
X19337500Y-3625000D02*
X19367500Y-3655000D01*
X19367500Y-3625000D02*
X19337500Y-3655000D01*
X19337500Y-4025000D02*
X19367500Y-4055000D01*
X19367500Y-4025000D02*
X19337500Y-4055000D01*
X19337500Y-6025000D02*
X19367500Y-6055000D01*
X19367500Y-6025000D02*
X19337500Y-6055000D01*
X19337500Y-6525000D02*
X19367500Y-6555000D01*
X19367500Y-6525000D02*
X19337500Y-6555000D01*
X19337500Y-7025000D02*
X19367500Y-7055000D01*
X19367500Y-7025000D02*
X19337500Y-7055000D01*
X19337500Y-7525000D02*
X19367500Y-7555000D01*
X19367500Y-7525000D02*
X19337500Y-7555000D01*
X19337500Y-8025000D02*
X19367500Y-8055000D01*
X19367500Y-8025000D02*
X19337500Y-8055000D01*
X19370500Y-5461500D02*
X19400500Y-5491500D01*
X19400500Y-5461500D02*
X19370500Y-5491500D01*
X19393750Y-9646250D02*
X19423750Y-9676250D01*
X19423750Y-9646250D02*
X19393750Y-9676250D01*
X19393750Y-9826250D02*
X19423750Y-9856250D01*
X19423750Y-9826250D02*
X19393750Y-9856250D01*
X19434000Y-4791500D02*
X19464000Y-4821500D01*
X19464000Y-4791500D02*
X19434000Y-4821500D01*
X19434000Y-4891500D02*
X19464000Y-4921500D01*
X19464000Y-4891500D02*
X19434000Y-4921500D01*
X19434000Y-4991500D02*
X19464000Y-5021500D01*
X19464000Y-4991500D02*
X19434000Y-5021500D01*
X19563750Y-9106250D02*
X19593750Y-9136250D01*
X19593750Y-9106250D02*
X19563750Y-9136250D01*
X19563750Y-9516250D02*
X19593750Y-9546250D01*
X19593750Y-9516250D02*
X19563750Y-9546250D01*
X19563750Y-9926250D02*
X19593750Y-9956250D01*
X19593750Y-9926250D02*
X19563750Y-9956250D01*
X19580750Y-4788250D02*
X19610750Y-4818250D01*
X19610750Y-4788250D02*
X19580750Y-4818250D01*
X19584000Y-4891500D02*
X19614000Y-4921500D01*
X19614000Y-4891500D02*
X19584000Y-4921500D01*
X19584000Y-4991500D02*
X19614000Y-5021500D01*
X19614000Y-4991500D02*
X19584000Y-5021500D01*
X19837500Y-3625000D02*
X19867500Y-3655000D01*
X19867500Y-3625000D02*
X19837500Y-3655000D01*
X19837500Y-4025000D02*
X19867500Y-4055000D01*
X19867500Y-4025000D02*
X19837500Y-4055000D01*
X19837500Y-4525000D02*
X19867500Y-4555000D01*
X19867500Y-4525000D02*
X19837500Y-4555000D01*
X19837500Y-5025000D02*
X19867500Y-5055000D01*
X19867500Y-5025000D02*
X19837500Y-5055000D01*
X19837500Y-6025000D02*
X19867500Y-6055000D01*
X19867500Y-6025000D02*
X19837500Y-6055000D01*
X19837500Y-6525000D02*
X19867500Y-6555000D01*
X19867500Y-6525000D02*
X19837500Y-6555000D01*
X19837500Y-7025000D02*
X19867500Y-7055000D01*
X19867500Y-7025000D02*
X19837500Y-7055000D01*
X19837500Y-7525000D02*
X19867500Y-7555000D01*
X19867500Y-7525000D02*
X19837500Y-7555000D01*
X19837500Y-8025000D02*
X19867500Y-8055000D01*
X19867500Y-8025000D02*
X19837500Y-8055000D01*
X19963750Y-9106250D02*
X19993750Y-9136250D01*
X19993750Y-9106250D02*
X19963750Y-9136250D01*
X19963750Y-9926250D02*
X19993750Y-9956250D01*
X19993750Y-9926250D02*
X19963750Y-9956250D01*
X20221270Y-9110000D02*
X20251270Y-9140000D01*
X20251270Y-9110000D02*
X20221270Y-9140000D01*
X20221270Y-9920000D02*
X20251270Y-9950000D01*
X20251270Y-9920000D02*
X20221270Y-9950000D01*
X20337500Y-3625000D02*
X20367500Y-3655000D01*
X20367500Y-3625000D02*
X20337500Y-3655000D01*
X20337500Y-4025000D02*
X20367500Y-4055000D01*
X20367500Y-4025000D02*
X20337500Y-4055000D01*
X20337500Y-4525000D02*
X20367500Y-4555000D01*
X20367500Y-4525000D02*
X20337500Y-4555000D01*
X20337500Y-5025000D02*
X20367500Y-5055000D01*
X20367500Y-5025000D02*
X20337500Y-5055000D01*
X20337500Y-5525000D02*
X20367500Y-5555000D01*
X20367500Y-5525000D02*
X20337500Y-5555000D01*
X20337500Y-6025000D02*
X20367500Y-6055000D01*
X20367500Y-6025000D02*
X20337500Y-6055000D01*
X20337500Y-6525000D02*
X20367500Y-6555000D01*
X20367500Y-6525000D02*
X20337500Y-6555000D01*
X20337500Y-7025000D02*
X20367500Y-7055000D01*
X20367500Y-7025000D02*
X20337500Y-7055000D01*
X20337500Y-7525000D02*
X20367500Y-7555000D01*
X20367500Y-7525000D02*
X20337500Y-7555000D01*
X20337500Y-8025000D02*
X20367500Y-8055000D01*
X20367500Y-8025000D02*
X20337500Y-8055000D01*
X20371270Y-9260000D02*
X20401270Y-9290000D01*
X20401270Y-9260000D02*
X20371270Y-9290000D01*
X20371270Y-9780000D02*
X20401270Y-9810000D01*
X20401270Y-9780000D02*
X20371270Y-9810000D01*
X20373750Y-9516250D02*
X20403750Y-9546250D01*
X20403750Y-9516250D02*
X20373750Y-9546250D01*
X18524000Y-5806500D02*
G75*
G02*
X18484000Y-5806500I-20000J0D01*
G01*
X18484000Y-5806500D02*
G75*
G02*
X18524000Y-5806500I20000J0D01*
G01*
X18644000Y-5806500D02*
G75*
G02*
X18604000Y-5806500I-20000J0D01*
G01*
X18604000Y-5806500D02*
G75*
G02*
X18644000Y-5806500I20000J0D01*
G01*
X18759000Y-5806500D02*
G75*
G02*
X18719000Y-5806500I-20000J0D01*
G01*
X18719000Y-5806500D02*
G75*
G02*
X18759000Y-5806500I20000J0D01*
G01*
X18874000Y-5806500D02*
G75*
G02*
X18834000Y-5806500I-20000J0D01*
G01*
X18834000Y-5806500D02*
G75*
G02*
X18874000Y-5806500I20000J0D01*
G01*
X18282510Y-9177510D02*
X18282510Y-9227510D01*
X18257510Y-9202510D02*
X18307510Y-9202510D01*
X18257510Y-9137510D02*
X18257510Y-9267510D01*
X18307510Y-9267510D02*
G75*
G02*
X18257510Y-9267510I-25000J0D01*
G01*
X18307510Y-9267510D02*
X18307510Y-9137510D01*
X18307510Y-9137510D02*
G75*
G03*
X18257510Y-9137510I-25000J0D01*
G01*
X18282510Y-9582510D02*
X18282510Y-9632510D01*
X18257510Y-9607510D02*
X18307510Y-9607510D01*
X18257510Y-9542510D02*
X18257510Y-9672510D01*
X18307510Y-9672510D02*
G75*
G02*
X18257510Y-9672510I-25000J0D01*
G01*
X18307510Y-9672510D02*
X18307510Y-9542510D01*
X18307510Y-9542510D02*
G75*
G03*
X18257510Y-9542510I-25000J0D01*
G01*
X19102510Y-9177510D02*
X19102510Y-9227510D01*
X19077510Y-9202510D02*
X19127510Y-9202510D01*
X19077510Y-9137510D02*
X19077510Y-9267510D01*
X19127510Y-9267510D02*
G75*
G02*
X19077510Y-9267510I-25000J0D01*
G01*
X19127510Y-9267510D02*
X19127510Y-9137510D01*
X19127510Y-9137510D02*
G75*
G03*
X19077510Y-9137510I-25000J0D01*
G01*
X19102510Y-9582510D02*
X19102510Y-9632510D01*
X19077510Y-9607510D02*
X19127510Y-9607510D01*
X19077510Y-9542510D02*
X19077510Y-9672510D01*
X19127510Y-9672510D02*
G75*
G02*
X19077510Y-9672510I-25000J0D01*
G01*
X19127510Y-9672510D02*
X19127510Y-9542510D01*
X19127510Y-9542510D02*
G75*
G03*
X19077510Y-9542510I-25000J0D01*
G01*
X11377856Y-5667376D02*
X11377856Y-5596664D01*
X11307144Y-5596664D01*
X11307144Y-5667376D01*
X11377856Y-5667376D01*
X11377856Y-5921376D02*
X11377856Y-5850664D01*
X11307144Y-5850664D01*
X11307144Y-5921376D01*
X11377856Y-5921376D01*
X11377856Y-6175376D02*
X11377856Y-6104664D01*
X11307144Y-6104664D01*
X11307144Y-6175376D01*
X11377856Y-6175376D01*
X11377856Y-6429376D02*
X11377856Y-6358664D01*
X11307144Y-6358664D01*
X11307144Y-6429376D01*
X11377856Y-6429376D01*
X11377856Y-6683376D02*
X11377856Y-6612664D01*
X11307144Y-6612664D01*
X11307144Y-6683376D01*
X11377856Y-6683376D01*
X11377856Y-6937376D02*
X11377856Y-6866664D01*
X11307144Y-6866664D01*
X11307144Y-6937376D01*
X11377856Y-6937376D01*
X11377856Y-7191376D02*
X11377856Y-7120664D01*
X11307144Y-7120664D01*
X11307144Y-7191376D01*
X11377856Y-7191376D01*
X11377856Y-7445376D02*
X11377856Y-7374664D01*
X11307144Y-7374664D01*
X11307144Y-7445376D01*
X11377856Y-7445376D01*
X11377856Y-7699376D02*
X11377856Y-7628664D01*
X11307144Y-7628664D01*
X11307144Y-7699376D01*
X11377856Y-7699376D01*
X11377856Y-7953376D02*
X11377856Y-7882664D01*
X11307144Y-7882664D01*
X11307144Y-7953376D01*
X11377856Y-7953376D01*
X12778626Y-3930356D02*
X12778626Y-3859644D01*
X12707914Y-3859644D01*
X12707914Y-3930356D01*
X12778626Y-3930356D01*
X13032626Y-3930356D02*
X13032626Y-3859644D01*
X12961914Y-3859644D01*
X12961914Y-3930356D01*
X13032626Y-3930356D01*
X13286626Y-3930356D02*
X13286626Y-3859644D01*
X13215914Y-3859644D01*
X13215914Y-3930356D01*
X13286626Y-3930356D01*
X13540626Y-3930356D02*
X13540626Y-3859644D01*
X13469914Y-3859644D01*
X13469914Y-3930356D01*
X13540626Y-3930356D01*
X13794626Y-3930356D02*
X13794626Y-3859644D01*
X13723914Y-3859644D01*
X13723914Y-3930356D01*
X13794626Y-3930356D01*
X14048626Y-3930356D02*
X14048626Y-3859644D01*
X13977914Y-3859644D01*
X13977914Y-3930356D01*
X14048626Y-3930356D01*
X14290626Y-9292856D02*
X14290626Y-9222144D01*
X14219914Y-9222144D01*
X14219914Y-9292856D01*
X14290626Y-9292856D01*
X14302626Y-3930356D02*
X14302626Y-3859644D01*
X14231914Y-3859644D01*
X14231914Y-3930356D01*
X14302626Y-3930356D01*
X14544626Y-9292856D02*
X14544626Y-9222144D01*
X14473914Y-9222144D01*
X14473914Y-9292856D01*
X14544626Y-9292856D01*
X14556626Y-3930356D02*
X14556626Y-3859644D01*
X14485914Y-3859644D01*
X14485914Y-3930356D01*
X14556626Y-3930356D01*
X14798626Y-9292856D02*
X14798626Y-9222144D01*
X14727914Y-9222144D01*
X14727914Y-9292856D01*
X14798626Y-9292856D01*
X14810626Y-3930356D02*
X14810626Y-3859644D01*
X14739914Y-3859644D01*
X14739914Y-3930356D01*
X14810626Y-3930356D01*
X15052626Y-9292856D02*
X15052626Y-9222144D01*
X14981914Y-9222144D01*
X14981914Y-9292856D01*
X15052626Y-9292856D01*
X15064626Y-3930356D02*
X15064626Y-3859644D01*
X14993914Y-3859644D01*
X14993914Y-3930356D01*
X15064626Y-3930356D01*
X15334106Y-7651606D02*
X15334106Y-7580894D01*
X15263394Y-7580894D01*
X15263394Y-7651606D01*
X15334106Y-7651606D01*
X15334106Y-7905606D02*
X15334106Y-7834894D01*
X15263394Y-7834894D01*
X15263394Y-7905606D01*
X15334106Y-7905606D01*
X15334106Y-8159606D02*
X15334106Y-8088894D01*
X15263394Y-8088894D01*
X15263394Y-8159606D01*
X15334106Y-8159606D01*
X15334106Y-8667606D02*
X15334106Y-8596894D01*
X15263394Y-8596894D01*
X15263394Y-8667606D01*
X15334106Y-8667606D01*
X15334106Y-8921606D02*
X15334106Y-8850894D01*
X15263394Y-8850894D01*
X15263394Y-8921606D01*
X15334106Y-8921606D01*
X16134106Y-7651606D02*
X16134106Y-7580894D01*
X16063394Y-7580894D01*
X16063394Y-7651606D01*
X16134106Y-7651606D01*
X16134106Y-7905606D02*
X16134106Y-7834894D01*
X16063394Y-7834894D01*
X16063394Y-7905606D01*
X16134106Y-7905606D01*
X16134106Y-8159606D02*
X16134106Y-8088894D01*
X16063394Y-8088894D01*
X16063394Y-8159606D01*
X16134106Y-8159606D01*
X16134106Y-8667606D02*
X16134106Y-8596894D01*
X16063394Y-8596894D01*
X16063394Y-8667606D01*
X16134106Y-8667606D01*
X16134106Y-8921606D02*
X16134106Y-8850894D01*
X16063394Y-8850894D01*
X16063394Y-8921606D01*
X16134106Y-8921606D01*
X18007856Y-4325356D02*
X18007856Y-4254644D01*
X17937144Y-4254644D01*
X17937144Y-4325356D01*
X18007856Y-4325356D01*
X18757856Y-8575356D02*
X18757856Y-8504644D01*
X18687144Y-8504644D01*
X18687144Y-8575356D01*
X18757856Y-8575356D01*
X19537856Y-8575356D02*
X19537856Y-8504644D01*
X19467144Y-8504644D01*
X19467144Y-8575356D01*
X19537856Y-8575356D01*
X20287856Y-4325356D02*
X20287856Y-4254644D01*
X20217144Y-4254644D01*
X20217144Y-4325356D01*
X20287856Y-4325356D01*
D12*
X18096500Y-3924000D02*
X18161500Y-3859000D01*
X18096500Y-3794000D01*
X18031500Y-3859000D01*
X18096500Y-3924000D01*
X18096500Y-8496000D02*
X18161500Y-8431000D01*
X18096500Y-8366000D01*
X18031500Y-8431000D01*
X18096500Y-8496000D01*
X19112500Y-3924000D02*
X19177500Y-3859000D01*
X19112500Y-3794000D01*
X19047500Y-3859000D01*
X19112500Y-3924000D01*
X20128500Y-3924000D02*
X20193500Y-3859000D01*
X20128500Y-3794000D01*
X20063500Y-3859000D01*
X20128500Y-3924000D01*
X20128500Y-8496000D02*
X20193500Y-8431000D01*
X20128500Y-8366000D01*
X20063500Y-8431000D01*
X20128500Y-8496000D01*
D11*
X11228277Y-10341484D02*
X11228277Y-10141484D01*
X11228277Y-10141484D02*
X11275896Y-10141484D01*
X11275896Y-10141484D02*
X11304467Y-10151008D01*
X11304467Y-10151008D02*
X11323515Y-10170055D01*
X11323515Y-10170055D02*
X11333039Y-10189103D01*
X11333039Y-10189103D02*
X11342562Y-10227198D01*
X11342562Y-10227198D02*
X11342562Y-10255770D01*
X11342562Y-10255770D02*
X11333039Y-10293865D01*
X11333039Y-10293865D02*
X11323515Y-10312912D01*
X11323515Y-10312912D02*
X11304467Y-10331960D01*
X11304467Y-10331960D02*
X11275896Y-10341484D01*
X11275896Y-10341484D02*
X11228277Y-10341484D01*
X11428277Y-10341484D02*
X11428277Y-10208150D01*
X11428277Y-10246246D02*
X11437801Y-10227198D01*
X11437801Y-10227198D02*
X11447324Y-10217674D01*
X11447324Y-10217674D02*
X11466372Y-10208150D01*
X11466372Y-10208150D02*
X11485420Y-10208150D01*
X11552086Y-10341484D02*
X11552086Y-10208150D01*
X11552086Y-10141484D02*
X11542562Y-10151008D01*
X11542562Y-10151008D02*
X11552086Y-10160531D01*
X11552086Y-10160531D02*
X11561610Y-10151008D01*
X11561610Y-10151008D02*
X11552086Y-10141484D01*
X11552086Y-10141484D02*
X11552086Y-10160531D01*
X11675896Y-10341484D02*
X11656848Y-10331960D01*
X11656848Y-10331960D02*
X11647324Y-10312912D01*
X11647324Y-10312912D02*
X11647324Y-10141484D01*
X11780658Y-10341484D02*
X11761610Y-10331960D01*
X11761610Y-10331960D02*
X11752086Y-10312912D01*
X11752086Y-10312912D02*
X11752086Y-10141484D01*
X12009229Y-10341484D02*
X12009229Y-10141484D01*
X12009229Y-10141484D02*
X12075896Y-10284341D01*
X12075896Y-10284341D02*
X12142562Y-10141484D01*
X12142562Y-10141484D02*
X12142562Y-10341484D01*
X12323515Y-10341484D02*
X12323515Y-10236722D01*
X12323515Y-10236722D02*
X12313991Y-10217674D01*
X12313991Y-10217674D02*
X12294943Y-10208150D01*
X12294943Y-10208150D02*
X12256848Y-10208150D01*
X12256848Y-10208150D02*
X12237801Y-10217674D01*
X12323515Y-10331960D02*
X12304467Y-10341484D01*
X12304467Y-10341484D02*
X12256848Y-10341484D01*
X12256848Y-10341484D02*
X12237801Y-10331960D01*
X12237801Y-10331960D02*
X12228277Y-10312912D01*
X12228277Y-10312912D02*
X12228277Y-10293865D01*
X12228277Y-10293865D02*
X12237801Y-10274817D01*
X12237801Y-10274817D02*
X12256848Y-10265293D01*
X12256848Y-10265293D02*
X12304467Y-10265293D01*
X12304467Y-10265293D02*
X12323515Y-10255770D01*
X12418753Y-10208150D02*
X12418753Y-10408150D01*
X12418753Y-10217674D02*
X12437801Y-10208150D01*
X12437801Y-10208150D02*
X12475896Y-10208150D01*
X12475896Y-10208150D02*
X12494943Y-10217674D01*
X12494943Y-10217674D02*
X12504467Y-10227198D01*
X12504467Y-10227198D02*
X12513991Y-10246246D01*
X12513991Y-10246246D02*
X12513991Y-10303389D01*
X12513991Y-10303389D02*
X12504467Y-10322436D01*
X12504467Y-10322436D02*
X12494943Y-10331960D01*
X12494943Y-10331960D02*
X12475896Y-10341484D01*
X12475896Y-10341484D02*
X12437801Y-10341484D01*
X12437801Y-10341484D02*
X12418753Y-10331960D01*
X12599705Y-10322436D02*
X12609229Y-10331960D01*
X12609229Y-10331960D02*
X12599705Y-10341484D01*
X12599705Y-10341484D02*
X12590182Y-10331960D01*
X12590182Y-10331960D02*
X12599705Y-10322436D01*
X12599705Y-10322436D02*
X12599705Y-10341484D01*
X12599705Y-10217674D02*
X12609229Y-10227198D01*
X12609229Y-10227198D02*
X12599705Y-10236722D01*
X12599705Y-10236722D02*
X12590182Y-10227198D01*
X12590182Y-10227198D02*
X12599705Y-10217674D01*
X12599705Y-10217674D02*
X12599705Y-10236722D01*
D10*
X10937500Y-10655000D02*
X10967500Y-10685000D01*
X10967500Y-10655000D02*
X10937500Y-10685000D01*
D11*
X11266372Y-10561484D02*
X11285420Y-10561484D01*
X11285420Y-10561484D02*
X11304467Y-10571008D01*
X11304467Y-10571008D02*
X11313991Y-10580531D01*
X11313991Y-10580531D02*
X11323515Y-10599579D01*
X11323515Y-10599579D02*
X11333039Y-10637674D01*
X11333039Y-10637674D02*
X11333039Y-10685293D01*
X11333039Y-10685293D02*
X11323515Y-10723389D01*
X11323515Y-10723389D02*
X11313991Y-10742436D01*
X11313991Y-10742436D02*
X11304467Y-10751960D01*
X11304467Y-10751960D02*
X11285420Y-10761484D01*
X11285420Y-10761484D02*
X11266372Y-10761484D01*
X11266372Y-10761484D02*
X11247324Y-10751960D01*
X11247324Y-10751960D02*
X11237801Y-10742436D01*
X11237801Y-10742436D02*
X11228277Y-10723389D01*
X11228277Y-10723389D02*
X11218753Y-10685293D01*
X11218753Y-10685293D02*
X11218753Y-10637674D01*
X11218753Y-10637674D02*
X11228277Y-10599579D01*
X11228277Y-10599579D02*
X11237801Y-10580531D01*
X11237801Y-10580531D02*
X11247324Y-10571008D01*
X11247324Y-10571008D02*
X11266372Y-10561484D01*
X11418753Y-10742436D02*
X11428277Y-10751960D01*
X11428277Y-10751960D02*
X11418753Y-10761484D01*
X11418753Y-10761484D02*
X11409229Y-10751960D01*
X11409229Y-10751960D02*
X11418753Y-10742436D01*
X11418753Y-10742436D02*
X11418753Y-10761484D01*
X11494943Y-10561484D02*
X11618753Y-10561484D01*
X11618753Y-10561484D02*
X11552086Y-10637674D01*
X11552086Y-10637674D02*
X11580658Y-10637674D01*
X11580658Y-10637674D02*
X11599705Y-10647198D01*
X11599705Y-10647198D02*
X11609229Y-10656722D01*
X11609229Y-10656722D02*
X11618753Y-10675770D01*
X11618753Y-10675770D02*
X11618753Y-10723389D01*
X11618753Y-10723389D02*
X11609229Y-10742436D01*
X11609229Y-10742436D02*
X11599705Y-10751960D01*
X11599705Y-10751960D02*
X11580658Y-10761484D01*
X11580658Y-10761484D02*
X11523515Y-10761484D01*
X11523515Y-10761484D02*
X11504467Y-10751960D01*
X11504467Y-10751960D02*
X11494943Y-10742436D01*
X11742562Y-10561484D02*
X11761610Y-10561484D01*
X11761610Y-10561484D02*
X11780658Y-10571008D01*
X11780658Y-10571008D02*
X11790182Y-10580531D01*
X11790182Y-10580531D02*
X11799705Y-10599579D01*
X11799705Y-10599579D02*
X11809229Y-10637674D01*
X11809229Y-10637674D02*
X11809229Y-10685293D01*
X11809229Y-10685293D02*
X11799705Y-10723389D01*
X11799705Y-10723389D02*
X11790182Y-10742436D01*
X11790182Y-10742436D02*
X11780658Y-10751960D01*
X11780658Y-10751960D02*
X11761610Y-10761484D01*
X11761610Y-10761484D02*
X11742562Y-10761484D01*
X11742562Y-10761484D02*
X11723515Y-10751960D01*
X11723515Y-10751960D02*
X11713991Y-10742436D01*
X11713991Y-10742436D02*
X11704467Y-10723389D01*
X11704467Y-10723389D02*
X11694943Y-10685293D01*
X11694943Y-10685293D02*
X11694943Y-10637674D01*
X11694943Y-10637674D02*
X11704467Y-10599579D01*
X11704467Y-10599579D02*
X11713991Y-10580531D01*
X11713991Y-10580531D02*
X11723515Y-10571008D01*
X11723515Y-10571008D02*
X11742562Y-10561484D01*
X11933039Y-10561484D02*
X11952086Y-10561484D01*
X11952086Y-10561484D02*
X11971134Y-10571008D01*
X11971134Y-10571008D02*
X11980658Y-10580531D01*
X11980658Y-10580531D02*
X11990182Y-10599579D01*
X11990182Y-10599579D02*
X11999705Y-10637674D01*
X11999705Y-10637674D02*
X11999705Y-10685293D01*
X11999705Y-10685293D02*
X11990182Y-10723389D01*
X11990182Y-10723389D02*
X11980658Y-10742436D01*
X11980658Y-10742436D02*
X11971134Y-10751960D01*
X11971134Y-10751960D02*
X11952086Y-10761484D01*
X11952086Y-10761484D02*
X11933039Y-10761484D01*
X11933039Y-10761484D02*
X11913991Y-10751960D01*
X11913991Y-10751960D02*
X11904467Y-10742436D01*
X11904467Y-10742436D02*
X11894943Y-10723389D01*
X11894943Y-10723389D02*
X11885420Y-10685293D01*
X11885420Y-10685293D02*
X11885420Y-10637674D01*
X11885420Y-10637674D02*
X11894943Y-10599579D01*
X11894943Y-10599579D02*
X11904467Y-10580531D01*
X11904467Y-10580531D02*
X11913991Y-10571008D01*
X11913991Y-10571008D02*
X11933039Y-10561484D01*
X12085420Y-10761484D02*
X12085420Y-10628150D01*
X12085420Y-10647198D02*
X12094943Y-10637674D01*
X12094943Y-10637674D02*
X12113991Y-10628150D01*
X12113991Y-10628150D02*
X12142563Y-10628150D01*
X12142563Y-10628150D02*
X12161610Y-10637674D01*
X12161610Y-10637674D02*
X12171134Y-10656722D01*
X12171134Y-10656722D02*
X12171134Y-10761484D01*
X12171134Y-10656722D02*
X12180658Y-10637674D01*
X12180658Y-10637674D02*
X12199705Y-10628150D01*
X12199705Y-10628150D02*
X12228277Y-10628150D01*
X12228277Y-10628150D02*
X12247324Y-10637674D01*
X12247324Y-10637674D02*
X12256848Y-10656722D01*
X12256848Y-10656722D02*
X12256848Y-10761484D01*
X12352086Y-10761484D02*
X12352086Y-10628150D01*
X12352086Y-10647198D02*
X12361610Y-10637674D01*
X12361610Y-10637674D02*
X12380658Y-10628150D01*
X12380658Y-10628150D02*
X12409229Y-10628150D01*
X12409229Y-10628150D02*
X12428277Y-10637674D01*
X12428277Y-10637674D02*
X12437801Y-10656722D01*
X12437801Y-10656722D02*
X12437801Y-10761484D01*
X12437801Y-10656722D02*
X12447324Y-10637674D01*
X12447324Y-10637674D02*
X12466372Y-10628150D01*
X12466372Y-10628150D02*
X12494943Y-10628150D01*
X12494943Y-10628150D02*
X12513991Y-10637674D01*
X12513991Y-10637674D02*
X12523515Y-10656722D01*
X12523515Y-10656722D02*
X12523515Y-10761484D01*
X12913991Y-10551960D02*
X12742563Y-10809103D01*
X13171134Y-10561484D02*
X13190182Y-10561484D01*
X13190182Y-10561484D02*
X13209229Y-10571008D01*
X13209229Y-10571008D02*
X13218753Y-10580531D01*
X13218753Y-10580531D02*
X13228277Y-10599579D01*
X13228277Y-10599579D02*
X13237801Y-10637674D01*
X13237801Y-10637674D02*
X13237801Y-10685293D01*
X13237801Y-10685293D02*
X13228277Y-10723389D01*
X13228277Y-10723389D02*
X13218753Y-10742436D01*
X13218753Y-10742436D02*
X13209229Y-10751960D01*
X13209229Y-10751960D02*
X13190182Y-10761484D01*
X13190182Y-10761484D02*
X13171134Y-10761484D01*
X13171134Y-10761484D02*
X13152086Y-10751960D01*
X13152086Y-10751960D02*
X13142563Y-10742436D01*
X13142563Y-10742436D02*
X13133039Y-10723389D01*
X13133039Y-10723389D02*
X13123515Y-10685293D01*
X13123515Y-10685293D02*
X13123515Y-10637674D01*
X13123515Y-10637674D02*
X13133039Y-10599579D01*
X13133039Y-10599579D02*
X13142563Y-10580531D01*
X13142563Y-10580531D02*
X13152086Y-10571008D01*
X13152086Y-10571008D02*
X13171134Y-10561484D01*
X13323515Y-10742436D02*
X13333039Y-10751960D01*
X13333039Y-10751960D02*
X13323515Y-10761484D01*
X13323515Y-10761484D02*
X13313991Y-10751960D01*
X13313991Y-10751960D02*
X13323515Y-10742436D01*
X13323515Y-10742436D02*
X13323515Y-10761484D01*
X13456848Y-10561484D02*
X13475896Y-10561484D01*
X13475896Y-10561484D02*
X13494944Y-10571008D01*
X13494944Y-10571008D02*
X13504467Y-10580531D01*
X13504467Y-10580531D02*
X13513991Y-10599579D01*
X13513991Y-10599579D02*
X13523515Y-10637674D01*
X13523515Y-10637674D02*
X13523515Y-10685293D01*
X13523515Y-10685293D02*
X13513991Y-10723389D01*
X13513991Y-10723389D02*
X13504467Y-10742436D01*
X13504467Y-10742436D02*
X13494944Y-10751960D01*
X13494944Y-10751960D02*
X13475896Y-10761484D01*
X13475896Y-10761484D02*
X13456848Y-10761484D01*
X13456848Y-10761484D02*
X13437801Y-10751960D01*
X13437801Y-10751960D02*
X13428277Y-10742436D01*
X13428277Y-10742436D02*
X13418753Y-10723389D01*
X13418753Y-10723389D02*
X13409229Y-10685293D01*
X13409229Y-10685293D02*
X13409229Y-10637674D01*
X13409229Y-10637674D02*
X13418753Y-10599579D01*
X13418753Y-10599579D02*
X13428277Y-10580531D01*
X13428277Y-10580531D02*
X13437801Y-10571008D01*
X13437801Y-10571008D02*
X13456848Y-10561484D01*
X13713991Y-10761484D02*
X13599706Y-10761484D01*
X13656848Y-10761484D02*
X13656848Y-10561484D01*
X13656848Y-10561484D02*
X13637801Y-10590055D01*
X13637801Y-10590055D02*
X13618753Y-10609103D01*
X13618753Y-10609103D02*
X13599706Y-10618627D01*
X13904467Y-10761484D02*
X13790182Y-10761484D01*
X13847325Y-10761484D02*
X13847325Y-10561484D01*
X13847325Y-10561484D02*
X13828277Y-10590055D01*
X13828277Y-10590055D02*
X13809229Y-10609103D01*
X13809229Y-10609103D02*
X13790182Y-10618627D01*
X14018753Y-10647198D02*
X13999706Y-10637674D01*
X13999706Y-10637674D02*
X13990182Y-10628150D01*
X13990182Y-10628150D02*
X13980658Y-10609103D01*
X13980658Y-10609103D02*
X13980658Y-10599579D01*
X13980658Y-10599579D02*
X13990182Y-10580531D01*
X13990182Y-10580531D02*
X13999706Y-10571008D01*
X13999706Y-10571008D02*
X14018753Y-10561484D01*
X14018753Y-10561484D02*
X14056848Y-10561484D01*
X14056848Y-10561484D02*
X14075896Y-10571008D01*
X14075896Y-10571008D02*
X14085420Y-10580531D01*
X14085420Y-10580531D02*
X14094944Y-10599579D01*
X14094944Y-10599579D02*
X14094944Y-10609103D01*
X14094944Y-10609103D02*
X14085420Y-10628150D01*
X14085420Y-10628150D02*
X14075896Y-10637674D01*
X14075896Y-10637674D02*
X14056848Y-10647198D01*
X14056848Y-10647198D02*
X14018753Y-10647198D01*
X14018753Y-10647198D02*
X13999706Y-10656722D01*
X13999706Y-10656722D02*
X13990182Y-10666246D01*
X13990182Y-10666246D02*
X13980658Y-10685293D01*
X13980658Y-10685293D02*
X13980658Y-10723389D01*
X13980658Y-10723389D02*
X13990182Y-10742436D01*
X13990182Y-10742436D02*
X13999706Y-10751960D01*
X13999706Y-10751960D02*
X14018753Y-10761484D01*
X14018753Y-10761484D02*
X14056848Y-10761484D01*
X14056848Y-10761484D02*
X14075896Y-10751960D01*
X14075896Y-10751960D02*
X14085420Y-10742436D01*
X14085420Y-10742436D02*
X14094944Y-10723389D01*
X14094944Y-10723389D02*
X14094944Y-10685293D01*
X14094944Y-10685293D02*
X14085420Y-10666246D01*
X14085420Y-10666246D02*
X14075896Y-10656722D01*
X14075896Y-10656722D02*
X14056848Y-10647198D01*
X14171134Y-10561484D02*
X14171134Y-10599579D01*
X14247325Y-10561484D02*
X14247325Y-10599579D01*
X14542563Y-10837674D02*
X14533039Y-10828150D01*
X14533039Y-10828150D02*
X14513991Y-10799579D01*
X14513991Y-10799579D02*
X14504468Y-10780531D01*
X14504468Y-10780531D02*
X14494944Y-10751960D01*
X14494944Y-10751960D02*
X14485420Y-10704341D01*
X14485420Y-10704341D02*
X14485420Y-10666246D01*
X14485420Y-10666246D02*
X14494944Y-10618627D01*
X14494944Y-10618627D02*
X14504468Y-10590055D01*
X14504468Y-10590055D02*
X14513991Y-10571008D01*
X14513991Y-10571008D02*
X14533039Y-10542436D01*
X14533039Y-10542436D02*
X14542563Y-10532912D01*
X14599706Y-10561484D02*
X14723515Y-10561484D01*
X14723515Y-10561484D02*
X14656848Y-10637674D01*
X14656848Y-10637674D02*
X14685420Y-10637674D01*
X14685420Y-10637674D02*
X14704468Y-10647198D01*
X14704468Y-10647198D02*
X14713991Y-10656722D01*
X14713991Y-10656722D02*
X14723515Y-10675770D01*
X14723515Y-10675770D02*
X14723515Y-10723389D01*
X14723515Y-10723389D02*
X14713991Y-10742436D01*
X14713991Y-10742436D02*
X14704468Y-10751960D01*
X14704468Y-10751960D02*
X14685420Y-10761484D01*
X14685420Y-10761484D02*
X14628277Y-10761484D01*
X14628277Y-10761484D02*
X14609229Y-10751960D01*
X14609229Y-10751960D02*
X14599706Y-10742436D01*
X14904468Y-10561484D02*
X14809229Y-10561484D01*
X14809229Y-10561484D02*
X14799706Y-10656722D01*
X14799706Y-10656722D02*
X14809229Y-10647198D01*
X14809229Y-10647198D02*
X14828277Y-10637674D01*
X14828277Y-10637674D02*
X14875896Y-10637674D01*
X14875896Y-10637674D02*
X14894944Y-10647198D01*
X14894944Y-10647198D02*
X14904468Y-10656722D01*
X14904468Y-10656722D02*
X14913991Y-10675770D01*
X14913991Y-10675770D02*
X14913991Y-10723389D01*
X14913991Y-10723389D02*
X14904468Y-10742436D01*
X14904468Y-10742436D02*
X14894944Y-10751960D01*
X14894944Y-10751960D02*
X14875896Y-10761484D01*
X14875896Y-10761484D02*
X14828277Y-10761484D01*
X14828277Y-10761484D02*
X14809229Y-10751960D01*
X14809229Y-10751960D02*
X14799706Y-10742436D01*
X14980658Y-10561484D02*
X15113991Y-10561484D01*
X15113991Y-10561484D02*
X15028277Y-10761484D01*
X15342563Y-10761484D02*
X15342563Y-10561484D01*
X15428277Y-10761484D02*
X15428277Y-10656722D01*
X15428277Y-10656722D02*
X15418753Y-10637674D01*
X15418753Y-10637674D02*
X15399706Y-10628150D01*
X15399706Y-10628150D02*
X15371134Y-10628150D01*
X15371134Y-10628150D02*
X15352087Y-10637674D01*
X15352087Y-10637674D02*
X15342563Y-10647198D01*
X15552087Y-10761484D02*
X15533039Y-10751960D01*
X15533039Y-10751960D02*
X15523515Y-10742436D01*
X15523515Y-10742436D02*
X15513991Y-10723389D01*
X15513991Y-10723389D02*
X15513991Y-10666246D01*
X15513991Y-10666246D02*
X15523515Y-10647198D01*
X15523515Y-10647198D02*
X15533039Y-10637674D01*
X15533039Y-10637674D02*
X15552087Y-10628150D01*
X15552087Y-10628150D02*
X15580658Y-10628150D01*
X15580658Y-10628150D02*
X15599706Y-10637674D01*
X15599706Y-10637674D02*
X15609230Y-10647198D01*
X15609230Y-10647198D02*
X15618753Y-10666246D01*
X15618753Y-10666246D02*
X15618753Y-10723389D01*
X15618753Y-10723389D02*
X15609230Y-10742436D01*
X15609230Y-10742436D02*
X15599706Y-10751960D01*
X15599706Y-10751960D02*
X15580658Y-10761484D01*
X15580658Y-10761484D02*
X15552087Y-10761484D01*
X15733039Y-10761484D02*
X15713991Y-10751960D01*
X15713991Y-10751960D02*
X15704468Y-10732912D01*
X15704468Y-10732912D02*
X15704468Y-10561484D01*
X15885420Y-10751960D02*
X15866372Y-10761484D01*
X15866372Y-10761484D02*
X15828277Y-10761484D01*
X15828277Y-10761484D02*
X15809230Y-10751960D01*
X15809230Y-10751960D02*
X15799706Y-10732912D01*
X15799706Y-10732912D02*
X15799706Y-10656722D01*
X15799706Y-10656722D02*
X15809230Y-10637674D01*
X15809230Y-10637674D02*
X15828277Y-10628150D01*
X15828277Y-10628150D02*
X15866372Y-10628150D01*
X15866372Y-10628150D02*
X15885420Y-10637674D01*
X15885420Y-10637674D02*
X15894944Y-10656722D01*
X15894944Y-10656722D02*
X15894944Y-10675770D01*
X15894944Y-10675770D02*
X15799706Y-10694817D01*
X15971134Y-10751960D02*
X15990182Y-10761484D01*
X15990182Y-10761484D02*
X16028277Y-10761484D01*
X16028277Y-10761484D02*
X16047325Y-10751960D01*
X16047325Y-10751960D02*
X16056849Y-10732912D01*
X16056849Y-10732912D02*
X16056849Y-10723389D01*
X16056849Y-10723389D02*
X16047325Y-10704341D01*
X16047325Y-10704341D02*
X16028277Y-10694817D01*
X16028277Y-10694817D02*
X15999706Y-10694817D01*
X15999706Y-10694817D02*
X15980658Y-10685293D01*
X15980658Y-10685293D02*
X15971134Y-10666246D01*
X15971134Y-10666246D02*
X15971134Y-10656722D01*
X15971134Y-10656722D02*
X15980658Y-10637674D01*
X15980658Y-10637674D02*
X15999706Y-10628150D01*
X15999706Y-10628150D02*
X16028277Y-10628150D01*
X16028277Y-10628150D02*
X16047325Y-10637674D01*
X16123515Y-10837674D02*
X16133039Y-10828150D01*
X16133039Y-10828150D02*
X16152087Y-10799579D01*
X16152087Y-10799579D02*
X16161611Y-10780531D01*
X16161611Y-10780531D02*
X16171134Y-10751960D01*
X16171134Y-10751960D02*
X16180658Y-10704341D01*
X16180658Y-10704341D02*
X16180658Y-10666246D01*
X16180658Y-10666246D02*
X16171134Y-10618627D01*
X16171134Y-10618627D02*
X16161611Y-10590055D01*
X16161611Y-10590055D02*
X16152087Y-10571008D01*
X16152087Y-10571008D02*
X16133039Y-10542436D01*
X16133039Y-10542436D02*
X16123515Y-10532912D01*
D10*
X10967500Y-10934000D02*
G75*
G02*
X10927500Y-10934000I-20000J0D01*
G01*
X10927500Y-10934000D02*
G75*
G02*
X10967500Y-10934000I20000J0D01*
G01*
D11*
X11266372Y-10825484D02*
X11285420Y-10825484D01*
X11285420Y-10825484D02*
X11304467Y-10835008D01*
X11304467Y-10835008D02*
X11313991Y-10844531D01*
X11313991Y-10844531D02*
X11323515Y-10863579D01*
X11323515Y-10863579D02*
X11333039Y-10901674D01*
X11333039Y-10901674D02*
X11333039Y-10949293D01*
X11333039Y-10949293D02*
X11323515Y-10987389D01*
X11323515Y-10987389D02*
X11313991Y-11006436D01*
X11313991Y-11006436D02*
X11304467Y-11015960D01*
X11304467Y-11015960D02*
X11285420Y-11025484D01*
X11285420Y-11025484D02*
X11266372Y-11025484D01*
X11266372Y-11025484D02*
X11247324Y-11015960D01*
X11247324Y-11015960D02*
X11237801Y-11006436D01*
X11237801Y-11006436D02*
X11228277Y-10987389D01*
X11228277Y-10987389D02*
X11218753Y-10949293D01*
X11218753Y-10949293D02*
X11218753Y-10901674D01*
X11218753Y-10901674D02*
X11228277Y-10863579D01*
X11228277Y-10863579D02*
X11237801Y-10844531D01*
X11237801Y-10844531D02*
X11247324Y-10835008D01*
X11247324Y-10835008D02*
X11266372Y-10825484D01*
X11418753Y-11006436D02*
X11428277Y-11015960D01*
X11428277Y-11015960D02*
X11418753Y-11025484D01*
X11418753Y-11025484D02*
X11409229Y-11015960D01*
X11409229Y-11015960D02*
X11418753Y-11006436D01*
X11418753Y-11006436D02*
X11418753Y-11025484D01*
X11599705Y-10892150D02*
X11599705Y-11025484D01*
X11552086Y-10815960D02*
X11504467Y-10958817D01*
X11504467Y-10958817D02*
X11628277Y-10958817D01*
X11742562Y-10825484D02*
X11761610Y-10825484D01*
X11761610Y-10825484D02*
X11780658Y-10835008D01*
X11780658Y-10835008D02*
X11790182Y-10844531D01*
X11790182Y-10844531D02*
X11799705Y-10863579D01*
X11799705Y-10863579D02*
X11809229Y-10901674D01*
X11809229Y-10901674D02*
X11809229Y-10949293D01*
X11809229Y-10949293D02*
X11799705Y-10987389D01*
X11799705Y-10987389D02*
X11790182Y-11006436D01*
X11790182Y-11006436D02*
X11780658Y-11015960D01*
X11780658Y-11015960D02*
X11761610Y-11025484D01*
X11761610Y-11025484D02*
X11742562Y-11025484D01*
X11742562Y-11025484D02*
X11723515Y-11015960D01*
X11723515Y-11015960D02*
X11713991Y-11006436D01*
X11713991Y-11006436D02*
X11704467Y-10987389D01*
X11704467Y-10987389D02*
X11694943Y-10949293D01*
X11694943Y-10949293D02*
X11694943Y-10901674D01*
X11694943Y-10901674D02*
X11704467Y-10863579D01*
X11704467Y-10863579D02*
X11713991Y-10844531D01*
X11713991Y-10844531D02*
X11723515Y-10835008D01*
X11723515Y-10835008D02*
X11742562Y-10825484D01*
X11933039Y-10825484D02*
X11952086Y-10825484D01*
X11952086Y-10825484D02*
X11971134Y-10835008D01*
X11971134Y-10835008D02*
X11980658Y-10844531D01*
X11980658Y-10844531D02*
X11990182Y-10863579D01*
X11990182Y-10863579D02*
X11999705Y-10901674D01*
X11999705Y-10901674D02*
X11999705Y-10949293D01*
X11999705Y-10949293D02*
X11990182Y-10987389D01*
X11990182Y-10987389D02*
X11980658Y-11006436D01*
X11980658Y-11006436D02*
X11971134Y-11015960D01*
X11971134Y-11015960D02*
X11952086Y-11025484D01*
X11952086Y-11025484D02*
X11933039Y-11025484D01*
X11933039Y-11025484D02*
X11913991Y-11015960D01*
X11913991Y-11015960D02*
X11904467Y-11006436D01*
X11904467Y-11006436D02*
X11894943Y-10987389D01*
X11894943Y-10987389D02*
X11885420Y-10949293D01*
X11885420Y-10949293D02*
X11885420Y-10901674D01*
X11885420Y-10901674D02*
X11894943Y-10863579D01*
X11894943Y-10863579D02*
X11904467Y-10844531D01*
X11904467Y-10844531D02*
X11913991Y-10835008D01*
X11913991Y-10835008D02*
X11933039Y-10825484D01*
X12085420Y-11025484D02*
X12085420Y-10892150D01*
X12085420Y-10911198D02*
X12094943Y-10901674D01*
X12094943Y-10901674D02*
X12113991Y-10892150D01*
X12113991Y-10892150D02*
X12142563Y-10892150D01*
X12142563Y-10892150D02*
X12161610Y-10901674D01*
X12161610Y-10901674D02*
X12171134Y-10920722D01*
X12171134Y-10920722D02*
X12171134Y-11025484D01*
X12171134Y-10920722D02*
X12180658Y-10901674D01*
X12180658Y-10901674D02*
X12199705Y-10892150D01*
X12199705Y-10892150D02*
X12228277Y-10892150D01*
X12228277Y-10892150D02*
X12247324Y-10901674D01*
X12247324Y-10901674D02*
X12256848Y-10920722D01*
X12256848Y-10920722D02*
X12256848Y-11025484D01*
X12352086Y-11025484D02*
X12352086Y-10892150D01*
X12352086Y-10911198D02*
X12361610Y-10901674D01*
X12361610Y-10901674D02*
X12380658Y-10892150D01*
X12380658Y-10892150D02*
X12409229Y-10892150D01*
X12409229Y-10892150D02*
X12428277Y-10901674D01*
X12428277Y-10901674D02*
X12437801Y-10920722D01*
X12437801Y-10920722D02*
X12437801Y-11025484D01*
X12437801Y-10920722D02*
X12447324Y-10901674D01*
X12447324Y-10901674D02*
X12466372Y-10892150D01*
X12466372Y-10892150D02*
X12494943Y-10892150D01*
X12494943Y-10892150D02*
X12513991Y-10901674D01*
X12513991Y-10901674D02*
X12523515Y-10920722D01*
X12523515Y-10920722D02*
X12523515Y-11025484D01*
X12913991Y-10815960D02*
X12742563Y-11073103D01*
X13171134Y-10825484D02*
X13190182Y-10825484D01*
X13190182Y-10825484D02*
X13209229Y-10835008D01*
X13209229Y-10835008D02*
X13218753Y-10844531D01*
X13218753Y-10844531D02*
X13228277Y-10863579D01*
X13228277Y-10863579D02*
X13237801Y-10901674D01*
X13237801Y-10901674D02*
X13237801Y-10949293D01*
X13237801Y-10949293D02*
X13228277Y-10987389D01*
X13228277Y-10987389D02*
X13218753Y-11006436D01*
X13218753Y-11006436D02*
X13209229Y-11015960D01*
X13209229Y-11015960D02*
X13190182Y-11025484D01*
X13190182Y-11025484D02*
X13171134Y-11025484D01*
X13171134Y-11025484D02*
X13152086Y-11015960D01*
X13152086Y-11015960D02*
X13142563Y-11006436D01*
X13142563Y-11006436D02*
X13133039Y-10987389D01*
X13133039Y-10987389D02*
X13123515Y-10949293D01*
X13123515Y-10949293D02*
X13123515Y-10901674D01*
X13123515Y-10901674D02*
X13133039Y-10863579D01*
X13133039Y-10863579D02*
X13142563Y-10844531D01*
X13142563Y-10844531D02*
X13152086Y-10835008D01*
X13152086Y-10835008D02*
X13171134Y-10825484D01*
X13323515Y-11006436D02*
X13333039Y-11015960D01*
X13333039Y-11015960D02*
X13323515Y-11025484D01*
X13323515Y-11025484D02*
X13313991Y-11015960D01*
X13313991Y-11015960D02*
X13323515Y-11006436D01*
X13323515Y-11006436D02*
X13323515Y-11025484D01*
X13456848Y-10825484D02*
X13475896Y-10825484D01*
X13475896Y-10825484D02*
X13494944Y-10835008D01*
X13494944Y-10835008D02*
X13504467Y-10844531D01*
X13504467Y-10844531D02*
X13513991Y-10863579D01*
X13513991Y-10863579D02*
X13523515Y-10901674D01*
X13523515Y-10901674D02*
X13523515Y-10949293D01*
X13523515Y-10949293D02*
X13513991Y-10987389D01*
X13513991Y-10987389D02*
X13504467Y-11006436D01*
X13504467Y-11006436D02*
X13494944Y-11015960D01*
X13494944Y-11015960D02*
X13475896Y-11025484D01*
X13475896Y-11025484D02*
X13456848Y-11025484D01*
X13456848Y-11025484D02*
X13437801Y-11015960D01*
X13437801Y-11015960D02*
X13428277Y-11006436D01*
X13428277Y-11006436D02*
X13418753Y-10987389D01*
X13418753Y-10987389D02*
X13409229Y-10949293D01*
X13409229Y-10949293D02*
X13409229Y-10901674D01*
X13409229Y-10901674D02*
X13418753Y-10863579D01*
X13418753Y-10863579D02*
X13428277Y-10844531D01*
X13428277Y-10844531D02*
X13437801Y-10835008D01*
X13437801Y-10835008D02*
X13456848Y-10825484D01*
X13713991Y-11025484D02*
X13599706Y-11025484D01*
X13656848Y-11025484D02*
X13656848Y-10825484D01*
X13656848Y-10825484D02*
X13637801Y-10854055D01*
X13637801Y-10854055D02*
X13618753Y-10873103D01*
X13618753Y-10873103D02*
X13599706Y-10882627D01*
X13894944Y-10825484D02*
X13799706Y-10825484D01*
X13799706Y-10825484D02*
X13790182Y-10920722D01*
X13790182Y-10920722D02*
X13799706Y-10911198D01*
X13799706Y-10911198D02*
X13818753Y-10901674D01*
X13818753Y-10901674D02*
X13866372Y-10901674D01*
X13866372Y-10901674D02*
X13885420Y-10911198D01*
X13885420Y-10911198D02*
X13894944Y-10920722D01*
X13894944Y-10920722D02*
X13904467Y-10939770D01*
X13904467Y-10939770D02*
X13904467Y-10987389D01*
X13904467Y-10987389D02*
X13894944Y-11006436D01*
X13894944Y-11006436D02*
X13885420Y-11015960D01*
X13885420Y-11015960D02*
X13866372Y-11025484D01*
X13866372Y-11025484D02*
X13818753Y-11025484D01*
X13818753Y-11025484D02*
X13799706Y-11015960D01*
X13799706Y-11015960D02*
X13790182Y-11006436D01*
X13971134Y-10825484D02*
X14104467Y-10825484D01*
X14104467Y-10825484D02*
X14018753Y-11025484D01*
X14171134Y-10825484D02*
X14171134Y-10863579D01*
X14247325Y-10825484D02*
X14247325Y-10863579D01*
X14542563Y-11101674D02*
X14533039Y-11092150D01*
X14533039Y-11092150D02*
X14513991Y-11063579D01*
X14513991Y-11063579D02*
X14504468Y-11044531D01*
X14504468Y-11044531D02*
X14494944Y-11015960D01*
X14494944Y-11015960D02*
X14485420Y-10968341D01*
X14485420Y-10968341D02*
X14485420Y-10930246D01*
X14485420Y-10930246D02*
X14494944Y-10882627D01*
X14494944Y-10882627D02*
X14504468Y-10854055D01*
X14504468Y-10854055D02*
X14513991Y-10835008D01*
X14513991Y-10835008D02*
X14533039Y-10806436D01*
X14533039Y-10806436D02*
X14542563Y-10796912D01*
X14704468Y-10892150D02*
X14704468Y-11025484D01*
X14656848Y-10815960D02*
X14609229Y-10958817D01*
X14609229Y-10958817D02*
X14733039Y-10958817D01*
X14961610Y-11025484D02*
X14961610Y-10825484D01*
X15047325Y-11025484D02*
X15047325Y-10920722D01*
X15047325Y-10920722D02*
X15037801Y-10901674D01*
X15037801Y-10901674D02*
X15018753Y-10892150D01*
X15018753Y-10892150D02*
X14990182Y-10892150D01*
X14990182Y-10892150D02*
X14971134Y-10901674D01*
X14971134Y-10901674D02*
X14961610Y-10911198D01*
X15171134Y-11025484D02*
X15152087Y-11015960D01*
X15152087Y-11015960D02*
X15142563Y-11006436D01*
X15142563Y-11006436D02*
X15133039Y-10987389D01*
X15133039Y-10987389D02*
X15133039Y-10930246D01*
X15133039Y-10930246D02*
X15142563Y-10911198D01*
X15142563Y-10911198D02*
X15152087Y-10901674D01*
X15152087Y-10901674D02*
X15171134Y-10892150D01*
X15171134Y-10892150D02*
X15199706Y-10892150D01*
X15199706Y-10892150D02*
X15218753Y-10901674D01*
X15218753Y-10901674D02*
X15228277Y-10911198D01*
X15228277Y-10911198D02*
X15237801Y-10930246D01*
X15237801Y-10930246D02*
X15237801Y-10987389D01*
X15237801Y-10987389D02*
X15228277Y-11006436D01*
X15228277Y-11006436D02*
X15218753Y-11015960D01*
X15218753Y-11015960D02*
X15199706Y-11025484D01*
X15199706Y-11025484D02*
X15171134Y-11025484D01*
X15352087Y-11025484D02*
X15333039Y-11015960D01*
X15333039Y-11015960D02*
X15323515Y-10996912D01*
X15323515Y-10996912D02*
X15323515Y-10825484D01*
X15504468Y-11015960D02*
X15485420Y-11025484D01*
X15485420Y-11025484D02*
X15447325Y-11025484D01*
X15447325Y-11025484D02*
X15428277Y-11015960D01*
X15428277Y-11015960D02*
X15418753Y-10996912D01*
X15418753Y-10996912D02*
X15418753Y-10920722D01*
X15418753Y-10920722D02*
X15428277Y-10901674D01*
X15428277Y-10901674D02*
X15447325Y-10892150D01*
X15447325Y-10892150D02*
X15485420Y-10892150D01*
X15485420Y-10892150D02*
X15504468Y-10901674D01*
X15504468Y-10901674D02*
X15513991Y-10920722D01*
X15513991Y-10920722D02*
X15513991Y-10939770D01*
X15513991Y-10939770D02*
X15418753Y-10958817D01*
X15590182Y-11015960D02*
X15609230Y-11025484D01*
X15609230Y-11025484D02*
X15647325Y-11025484D01*
X15647325Y-11025484D02*
X15666372Y-11015960D01*
X15666372Y-11015960D02*
X15675896Y-10996912D01*
X15675896Y-10996912D02*
X15675896Y-10987389D01*
X15675896Y-10987389D02*
X15666372Y-10968341D01*
X15666372Y-10968341D02*
X15647325Y-10958817D01*
X15647325Y-10958817D02*
X15618753Y-10958817D01*
X15618753Y-10958817D02*
X15599706Y-10949293D01*
X15599706Y-10949293D02*
X15590182Y-10930246D01*
X15590182Y-10930246D02*
X15590182Y-10920722D01*
X15590182Y-10920722D02*
X15599706Y-10901674D01*
X15599706Y-10901674D02*
X15618753Y-10892150D01*
X15618753Y-10892150D02*
X15647325Y-10892150D01*
X15647325Y-10892150D02*
X15666372Y-10901674D01*
X15742563Y-11101674D02*
X15752087Y-11092150D01*
X15752087Y-11092150D02*
X15771134Y-11063579D01*
X15771134Y-11063579D02*
X15780658Y-11044531D01*
X15780658Y-11044531D02*
X15790182Y-11015960D01*
X15790182Y-11015960D02*
X15799706Y-10968341D01*
X15799706Y-10968341D02*
X15799706Y-10930246D01*
X15799706Y-10930246D02*
X15790182Y-10882627D01*
X15790182Y-10882627D02*
X15780658Y-10854055D01*
X15780658Y-10854055D02*
X15771134Y-10835008D01*
X15771134Y-10835008D02*
X15752087Y-10806436D01*
X15752087Y-10806436D02*
X15742563Y-10796912D01*
D10*
X10942500Y-11173000D02*
X10942500Y-11223000D01*
X10917500Y-11198000D02*
X10967500Y-11198000D01*
D11*
X11266372Y-11089484D02*
X11285420Y-11089484D01*
X11285420Y-11089484D02*
X11304467Y-11099008D01*
X11304467Y-11099008D02*
X11313991Y-11108531D01*
X11313991Y-11108531D02*
X11323515Y-11127579D01*
X11323515Y-11127579D02*
X11333039Y-11165674D01*
X11333039Y-11165674D02*
X11333039Y-11213293D01*
X11333039Y-11213293D02*
X11323515Y-11251388D01*
X11323515Y-11251388D02*
X11313991Y-11270436D01*
X11313991Y-11270436D02*
X11304467Y-11279960D01*
X11304467Y-11279960D02*
X11285420Y-11289484D01*
X11285420Y-11289484D02*
X11266372Y-11289484D01*
X11266372Y-11289484D02*
X11247324Y-11279960D01*
X11247324Y-11279960D02*
X11237801Y-11270436D01*
X11237801Y-11270436D02*
X11228277Y-11251388D01*
X11228277Y-11251388D02*
X11218753Y-11213293D01*
X11218753Y-11213293D02*
X11218753Y-11165674D01*
X11218753Y-11165674D02*
X11228277Y-11127579D01*
X11228277Y-11127579D02*
X11237801Y-11108531D01*
X11237801Y-11108531D02*
X11247324Y-11099008D01*
X11247324Y-11099008D02*
X11266372Y-11089484D01*
X11418753Y-11270436D02*
X11428277Y-11279960D01*
X11428277Y-11279960D02*
X11418753Y-11289484D01*
X11418753Y-11289484D02*
X11409229Y-11279960D01*
X11409229Y-11279960D02*
X11418753Y-11270436D01*
X11418753Y-11270436D02*
X11418753Y-11289484D01*
X11609229Y-11089484D02*
X11513991Y-11089484D01*
X11513991Y-11089484D02*
X11504467Y-11184722D01*
X11504467Y-11184722D02*
X11513991Y-11175198D01*
X11513991Y-11175198D02*
X11533039Y-11165674D01*
X11533039Y-11165674D02*
X11580658Y-11165674D01*
X11580658Y-11165674D02*
X11599705Y-11175198D01*
X11599705Y-11175198D02*
X11609229Y-11184722D01*
X11609229Y-11184722D02*
X11618753Y-11203769D01*
X11618753Y-11203769D02*
X11618753Y-11251388D01*
X11618753Y-11251388D02*
X11609229Y-11270436D01*
X11609229Y-11270436D02*
X11599705Y-11279960D01*
X11599705Y-11279960D02*
X11580658Y-11289484D01*
X11580658Y-11289484D02*
X11533039Y-11289484D01*
X11533039Y-11289484D02*
X11513991Y-11279960D01*
X11513991Y-11279960D02*
X11504467Y-11270436D01*
X11742562Y-11089484D02*
X11761610Y-11089484D01*
X11761610Y-11089484D02*
X11780658Y-11099008D01*
X11780658Y-11099008D02*
X11790182Y-11108531D01*
X11790182Y-11108531D02*
X11799705Y-11127579D01*
X11799705Y-11127579D02*
X11809229Y-11165674D01*
X11809229Y-11165674D02*
X11809229Y-11213293D01*
X11809229Y-11213293D02*
X11799705Y-11251388D01*
X11799705Y-11251388D02*
X11790182Y-11270436D01*
X11790182Y-11270436D02*
X11780658Y-11279960D01*
X11780658Y-11279960D02*
X11761610Y-11289484D01*
X11761610Y-11289484D02*
X11742562Y-11289484D01*
X11742562Y-11289484D02*
X11723515Y-11279960D01*
X11723515Y-11279960D02*
X11713991Y-11270436D01*
X11713991Y-11270436D02*
X11704467Y-11251388D01*
X11704467Y-11251388D02*
X11694943Y-11213293D01*
X11694943Y-11213293D02*
X11694943Y-11165674D01*
X11694943Y-11165674D02*
X11704467Y-11127579D01*
X11704467Y-11127579D02*
X11713991Y-11108531D01*
X11713991Y-11108531D02*
X11723515Y-11099008D01*
X11723515Y-11099008D02*
X11742562Y-11089484D01*
X11933039Y-11089484D02*
X11952086Y-11089484D01*
X11952086Y-11089484D02*
X11971134Y-11099008D01*
X11971134Y-11099008D02*
X11980658Y-11108531D01*
X11980658Y-11108531D02*
X11990182Y-11127579D01*
X11990182Y-11127579D02*
X11999705Y-11165674D01*
X11999705Y-11165674D02*
X11999705Y-11213293D01*
X11999705Y-11213293D02*
X11990182Y-11251388D01*
X11990182Y-11251388D02*
X11980658Y-11270436D01*
X11980658Y-11270436D02*
X11971134Y-11279960D01*
X11971134Y-11279960D02*
X11952086Y-11289484D01*
X11952086Y-11289484D02*
X11933039Y-11289484D01*
X11933039Y-11289484D02*
X11913991Y-11279960D01*
X11913991Y-11279960D02*
X11904467Y-11270436D01*
X11904467Y-11270436D02*
X11894943Y-11251388D01*
X11894943Y-11251388D02*
X11885420Y-11213293D01*
X11885420Y-11213293D02*
X11885420Y-11165674D01*
X11885420Y-11165674D02*
X11894943Y-11127579D01*
X11894943Y-11127579D02*
X11904467Y-11108531D01*
X11904467Y-11108531D02*
X11913991Y-11099008D01*
X11913991Y-11099008D02*
X11933039Y-11089484D01*
X12085420Y-11289484D02*
X12085420Y-11156150D01*
X12085420Y-11175198D02*
X12094943Y-11165674D01*
X12094943Y-11165674D02*
X12113991Y-11156150D01*
X12113991Y-11156150D02*
X12142563Y-11156150D01*
X12142563Y-11156150D02*
X12161610Y-11165674D01*
X12161610Y-11165674D02*
X12171134Y-11184722D01*
X12171134Y-11184722D02*
X12171134Y-11289484D01*
X12171134Y-11184722D02*
X12180658Y-11165674D01*
X12180658Y-11165674D02*
X12199705Y-11156150D01*
X12199705Y-11156150D02*
X12228277Y-11156150D01*
X12228277Y-11156150D02*
X12247324Y-11165674D01*
X12247324Y-11165674D02*
X12256848Y-11184722D01*
X12256848Y-11184722D02*
X12256848Y-11289484D01*
X12352086Y-11289484D02*
X12352086Y-11156150D01*
X12352086Y-11175198D02*
X12361610Y-11165674D01*
X12361610Y-11165674D02*
X12380658Y-11156150D01*
X12380658Y-11156150D02*
X12409229Y-11156150D01*
X12409229Y-11156150D02*
X12428277Y-11165674D01*
X12428277Y-11165674D02*
X12437801Y-11184722D01*
X12437801Y-11184722D02*
X12437801Y-11289484D01*
X12437801Y-11184722D02*
X12447324Y-11165674D01*
X12447324Y-11165674D02*
X12466372Y-11156150D01*
X12466372Y-11156150D02*
X12494943Y-11156150D01*
X12494943Y-11156150D02*
X12513991Y-11165674D01*
X12513991Y-11165674D02*
X12523515Y-11184722D01*
X12523515Y-11184722D02*
X12523515Y-11289484D01*
X12913991Y-11079960D02*
X12742563Y-11337103D01*
X13171134Y-11089484D02*
X13190182Y-11089484D01*
X13190182Y-11089484D02*
X13209229Y-11099008D01*
X13209229Y-11099008D02*
X13218753Y-11108531D01*
X13218753Y-11108531D02*
X13228277Y-11127579D01*
X13228277Y-11127579D02*
X13237801Y-11165674D01*
X13237801Y-11165674D02*
X13237801Y-11213293D01*
X13237801Y-11213293D02*
X13228277Y-11251388D01*
X13228277Y-11251388D02*
X13218753Y-11270436D01*
X13218753Y-11270436D02*
X13209229Y-11279960D01*
X13209229Y-11279960D02*
X13190182Y-11289484D01*
X13190182Y-11289484D02*
X13171134Y-11289484D01*
X13171134Y-11289484D02*
X13152086Y-11279960D01*
X13152086Y-11279960D02*
X13142563Y-11270436D01*
X13142563Y-11270436D02*
X13133039Y-11251388D01*
X13133039Y-11251388D02*
X13123515Y-11213293D01*
X13123515Y-11213293D02*
X13123515Y-11165674D01*
X13123515Y-11165674D02*
X13133039Y-11127579D01*
X13133039Y-11127579D02*
X13142563Y-11108531D01*
X13142563Y-11108531D02*
X13152086Y-11099008D01*
X13152086Y-11099008D02*
X13171134Y-11089484D01*
X13323515Y-11270436D02*
X13333039Y-11279960D01*
X13333039Y-11279960D02*
X13323515Y-11289484D01*
X13323515Y-11289484D02*
X13313991Y-11279960D01*
X13313991Y-11279960D02*
X13323515Y-11270436D01*
X13323515Y-11270436D02*
X13323515Y-11289484D01*
X13456848Y-11089484D02*
X13475896Y-11089484D01*
X13475896Y-11089484D02*
X13494944Y-11099008D01*
X13494944Y-11099008D02*
X13504467Y-11108531D01*
X13504467Y-11108531D02*
X13513991Y-11127579D01*
X13513991Y-11127579D02*
X13523515Y-11165674D01*
X13523515Y-11165674D02*
X13523515Y-11213293D01*
X13523515Y-11213293D02*
X13513991Y-11251388D01*
X13513991Y-11251388D02*
X13504467Y-11270436D01*
X13504467Y-11270436D02*
X13494944Y-11279960D01*
X13494944Y-11279960D02*
X13475896Y-11289484D01*
X13475896Y-11289484D02*
X13456848Y-11289484D01*
X13456848Y-11289484D02*
X13437801Y-11279960D01*
X13437801Y-11279960D02*
X13428277Y-11270436D01*
X13428277Y-11270436D02*
X13418753Y-11251388D01*
X13418753Y-11251388D02*
X13409229Y-11213293D01*
X13409229Y-11213293D02*
X13409229Y-11165674D01*
X13409229Y-11165674D02*
X13418753Y-11127579D01*
X13418753Y-11127579D02*
X13428277Y-11108531D01*
X13428277Y-11108531D02*
X13437801Y-11099008D01*
X13437801Y-11099008D02*
X13456848Y-11089484D01*
X13713991Y-11289484D02*
X13599706Y-11289484D01*
X13656848Y-11289484D02*
X13656848Y-11089484D01*
X13656848Y-11089484D02*
X13637801Y-11118055D01*
X13637801Y-11118055D02*
X13618753Y-11137103D01*
X13618753Y-11137103D02*
X13599706Y-11146627D01*
X13809229Y-11289484D02*
X13847325Y-11289484D01*
X13847325Y-11289484D02*
X13866372Y-11279960D01*
X13866372Y-11279960D02*
X13875896Y-11270436D01*
X13875896Y-11270436D02*
X13894944Y-11241865D01*
X13894944Y-11241865D02*
X13904467Y-11203769D01*
X13904467Y-11203769D02*
X13904467Y-11127579D01*
X13904467Y-11127579D02*
X13894944Y-11108531D01*
X13894944Y-11108531D02*
X13885420Y-11099008D01*
X13885420Y-11099008D02*
X13866372Y-11089484D01*
X13866372Y-11089484D02*
X13828277Y-11089484D01*
X13828277Y-11089484D02*
X13809229Y-11099008D01*
X13809229Y-11099008D02*
X13799706Y-11108531D01*
X13799706Y-11108531D02*
X13790182Y-11127579D01*
X13790182Y-11127579D02*
X13790182Y-11175198D01*
X13790182Y-11175198D02*
X13799706Y-11194246D01*
X13799706Y-11194246D02*
X13809229Y-11203769D01*
X13809229Y-11203769D02*
X13828277Y-11213293D01*
X13828277Y-11213293D02*
X13866372Y-11213293D01*
X13866372Y-11213293D02*
X13885420Y-11203769D01*
X13885420Y-11203769D02*
X13894944Y-11194246D01*
X13894944Y-11194246D02*
X13904467Y-11175198D01*
X13971134Y-11089484D02*
X14104467Y-11089484D01*
X14104467Y-11089484D02*
X14018753Y-11289484D01*
X14171134Y-11089484D02*
X14171134Y-11127579D01*
X14247325Y-11089484D02*
X14247325Y-11127579D01*
X14542563Y-11365674D02*
X14533039Y-11356150D01*
X14533039Y-11356150D02*
X14513991Y-11327579D01*
X14513991Y-11327579D02*
X14504468Y-11308531D01*
X14504468Y-11308531D02*
X14494944Y-11279960D01*
X14494944Y-11279960D02*
X14485420Y-11232341D01*
X14485420Y-11232341D02*
X14485420Y-11194246D01*
X14485420Y-11194246D02*
X14494944Y-11146627D01*
X14494944Y-11146627D02*
X14504468Y-11118055D01*
X14504468Y-11118055D02*
X14513991Y-11099008D01*
X14513991Y-11099008D02*
X14533039Y-11070436D01*
X14533039Y-11070436D02*
X14542563Y-11060912D01*
X14656848Y-11089484D02*
X14675896Y-11089484D01*
X14675896Y-11089484D02*
X14694944Y-11099008D01*
X14694944Y-11099008D02*
X14704468Y-11108531D01*
X14704468Y-11108531D02*
X14713991Y-11127579D01*
X14713991Y-11127579D02*
X14723515Y-11165674D01*
X14723515Y-11165674D02*
X14723515Y-11213293D01*
X14723515Y-11213293D02*
X14713991Y-11251388D01*
X14713991Y-11251388D02*
X14704468Y-11270436D01*
X14704468Y-11270436D02*
X14694944Y-11279960D01*
X14694944Y-11279960D02*
X14675896Y-11289484D01*
X14675896Y-11289484D02*
X14656848Y-11289484D01*
X14656848Y-11289484D02*
X14637801Y-11279960D01*
X14637801Y-11279960D02*
X14628277Y-11270436D01*
X14628277Y-11270436D02*
X14618753Y-11251388D01*
X14618753Y-11251388D02*
X14609229Y-11213293D01*
X14609229Y-11213293D02*
X14609229Y-11165674D01*
X14609229Y-11165674D02*
X14618753Y-11127579D01*
X14618753Y-11127579D02*
X14628277Y-11108531D01*
X14628277Y-11108531D02*
X14637801Y-11099008D01*
X14637801Y-11099008D02*
X14656848Y-11089484D01*
X14961610Y-11289484D02*
X14961610Y-11089484D01*
X15047325Y-11289484D02*
X15047325Y-11184722D01*
X15047325Y-11184722D02*
X15037801Y-11165674D01*
X15037801Y-11165674D02*
X15018753Y-11156150D01*
X15018753Y-11156150D02*
X14990182Y-11156150D01*
X14990182Y-11156150D02*
X14971134Y-11165674D01*
X14971134Y-11165674D02*
X14961610Y-11175198D01*
X15171134Y-11289484D02*
X15152087Y-11279960D01*
X15152087Y-11279960D02*
X15142563Y-11270436D01*
X15142563Y-11270436D02*
X15133039Y-11251388D01*
X15133039Y-11251388D02*
X15133039Y-11194246D01*
X15133039Y-11194246D02*
X15142563Y-11175198D01*
X15142563Y-11175198D02*
X15152087Y-11165674D01*
X15152087Y-11165674D02*
X15171134Y-11156150D01*
X15171134Y-11156150D02*
X15199706Y-11156150D01*
X15199706Y-11156150D02*
X15218753Y-11165674D01*
X15218753Y-11165674D02*
X15228277Y-11175198D01*
X15228277Y-11175198D02*
X15237801Y-11194246D01*
X15237801Y-11194246D02*
X15237801Y-11251388D01*
X15237801Y-11251388D02*
X15228277Y-11270436D01*
X15228277Y-11270436D02*
X15218753Y-11279960D01*
X15218753Y-11279960D02*
X15199706Y-11289484D01*
X15199706Y-11289484D02*
X15171134Y-11289484D01*
X15352087Y-11289484D02*
X15333039Y-11279960D01*
X15333039Y-11279960D02*
X15323515Y-11260912D01*
X15323515Y-11260912D02*
X15323515Y-11089484D01*
X15504468Y-11279960D02*
X15485420Y-11289484D01*
X15485420Y-11289484D02*
X15447325Y-11289484D01*
X15447325Y-11289484D02*
X15428277Y-11279960D01*
X15428277Y-11279960D02*
X15418753Y-11260912D01*
X15418753Y-11260912D02*
X15418753Y-11184722D01*
X15418753Y-11184722D02*
X15428277Y-11165674D01*
X15428277Y-11165674D02*
X15447325Y-11156150D01*
X15447325Y-11156150D02*
X15485420Y-11156150D01*
X15485420Y-11156150D02*
X15504468Y-11165674D01*
X15504468Y-11165674D02*
X15513991Y-11184722D01*
X15513991Y-11184722D02*
X15513991Y-11203769D01*
X15513991Y-11203769D02*
X15418753Y-11222817D01*
X15590182Y-11279960D02*
X15609230Y-11289484D01*
X15609230Y-11289484D02*
X15647325Y-11289484D01*
X15647325Y-11289484D02*
X15666372Y-11279960D01*
X15666372Y-11279960D02*
X15675896Y-11260912D01*
X15675896Y-11260912D02*
X15675896Y-11251388D01*
X15675896Y-11251388D02*
X15666372Y-11232341D01*
X15666372Y-11232341D02*
X15647325Y-11222817D01*
X15647325Y-11222817D02*
X15618753Y-11222817D01*
X15618753Y-11222817D02*
X15599706Y-11213293D01*
X15599706Y-11213293D02*
X15590182Y-11194246D01*
X15590182Y-11194246D02*
X15590182Y-11184722D01*
X15590182Y-11184722D02*
X15599706Y-11165674D01*
X15599706Y-11165674D02*
X15618753Y-11156150D01*
X15618753Y-11156150D02*
X15647325Y-11156150D01*
X15647325Y-11156150D02*
X15666372Y-11165674D01*
X15913992Y-11213293D02*
X16066373Y-11213293D01*
X15990182Y-11289484D02*
X15990182Y-11137103D01*
X16399706Y-11156150D02*
X16399706Y-11289484D01*
X16352087Y-11079960D02*
X16304468Y-11222817D01*
X16304468Y-11222817D02*
X16428277Y-11222817D01*
X16647325Y-11279960D02*
X16666373Y-11289484D01*
X16666373Y-11289484D02*
X16704468Y-11289484D01*
X16704468Y-11289484D02*
X16723515Y-11279960D01*
X16723515Y-11279960D02*
X16733039Y-11260912D01*
X16733039Y-11260912D02*
X16733039Y-11251388D01*
X16733039Y-11251388D02*
X16723515Y-11232341D01*
X16723515Y-11232341D02*
X16704468Y-11222817D01*
X16704468Y-11222817D02*
X16675896Y-11222817D01*
X16675896Y-11222817D02*
X16656849Y-11213293D01*
X16656849Y-11213293D02*
X16647325Y-11194246D01*
X16647325Y-11194246D02*
X16647325Y-11184722D01*
X16647325Y-11184722D02*
X16656849Y-11165674D01*
X16656849Y-11165674D02*
X16675896Y-11156150D01*
X16675896Y-11156150D02*
X16704468Y-11156150D01*
X16704468Y-11156150D02*
X16723515Y-11165674D01*
X16847325Y-11289484D02*
X16828277Y-11279960D01*
X16828277Y-11279960D02*
X16818754Y-11260912D01*
X16818754Y-11260912D02*
X16818754Y-11089484D01*
X16952087Y-11289484D02*
X16933039Y-11279960D01*
X16933039Y-11279960D02*
X16923516Y-11270436D01*
X16923516Y-11270436D02*
X16913992Y-11251388D01*
X16913992Y-11251388D02*
X16913992Y-11194246D01*
X16913992Y-11194246D02*
X16923516Y-11175198D01*
X16923516Y-11175198D02*
X16933039Y-11165674D01*
X16933039Y-11165674D02*
X16952087Y-11156150D01*
X16952087Y-11156150D02*
X16980658Y-11156150D01*
X16980658Y-11156150D02*
X16999706Y-11165674D01*
X16999706Y-11165674D02*
X17009230Y-11175198D01*
X17009230Y-11175198D02*
X17018754Y-11194246D01*
X17018754Y-11194246D02*
X17018754Y-11251388D01*
X17018754Y-11251388D02*
X17009230Y-11270436D01*
X17009230Y-11270436D02*
X16999706Y-11279960D01*
X16999706Y-11279960D02*
X16980658Y-11289484D01*
X16980658Y-11289484D02*
X16952087Y-11289484D01*
X17075897Y-11156150D02*
X17152087Y-11156150D01*
X17104468Y-11089484D02*
X17104468Y-11260912D01*
X17104468Y-11260912D02*
X17113992Y-11279960D01*
X17113992Y-11279960D02*
X17133039Y-11289484D01*
X17133039Y-11289484D02*
X17152087Y-11289484D01*
X17209230Y-11279960D02*
X17228277Y-11289484D01*
X17228277Y-11289484D02*
X17266373Y-11289484D01*
X17266373Y-11289484D02*
X17285420Y-11279960D01*
X17285420Y-11279960D02*
X17294944Y-11260912D01*
X17294944Y-11260912D02*
X17294944Y-11251388D01*
X17294944Y-11251388D02*
X17285420Y-11232341D01*
X17285420Y-11232341D02*
X17266373Y-11222817D01*
X17266373Y-11222817D02*
X17237801Y-11222817D01*
X17237801Y-11222817D02*
X17218754Y-11213293D01*
X17218754Y-11213293D02*
X17209230Y-11194246D01*
X17209230Y-11194246D02*
X17209230Y-11184722D01*
X17209230Y-11184722D02*
X17218754Y-11165674D01*
X17218754Y-11165674D02*
X17237801Y-11156150D01*
X17237801Y-11156150D02*
X17266373Y-11156150D01*
X17266373Y-11156150D02*
X17285420Y-11165674D01*
X17361611Y-11365674D02*
X17371135Y-11356150D01*
X17371135Y-11356150D02*
X17390182Y-11327579D01*
X17390182Y-11327579D02*
X17399706Y-11308531D01*
X17399706Y-11308531D02*
X17409230Y-11279960D01*
X17409230Y-11279960D02*
X17418754Y-11232341D01*
X17418754Y-11232341D02*
X17418754Y-11194246D01*
X17418754Y-11194246D02*
X17409230Y-11146627D01*
X17409230Y-11146627D02*
X17399706Y-11118055D01*
X17399706Y-11118055D02*
X17390182Y-11099008D01*
X17390182Y-11099008D02*
X17371135Y-11070436D01*
X17371135Y-11070436D02*
X17361611Y-11060912D01*
D10*
X10952856Y-11497356D02*
X10952856Y-11426644D01*
X10882144Y-11426644D01*
X10882144Y-11497356D01*
X10952856Y-11497356D01*
D11*
X11333039Y-11553484D02*
X11218753Y-11553484D01*
X11275896Y-11553484D02*
X11275896Y-11353484D01*
X11275896Y-11353484D02*
X11256848Y-11382055D01*
X11256848Y-11382055D02*
X11237801Y-11401103D01*
X11237801Y-11401103D02*
X11218753Y-11410627D01*
X11418753Y-11534436D02*
X11428277Y-11543960D01*
X11428277Y-11543960D02*
X11418753Y-11553484D01*
X11418753Y-11553484D02*
X11409229Y-11543960D01*
X11409229Y-11543960D02*
X11418753Y-11534436D01*
X11418753Y-11534436D02*
X11418753Y-11553484D01*
X11552086Y-11353484D02*
X11571134Y-11353484D01*
X11571134Y-11353484D02*
X11590182Y-11363008D01*
X11590182Y-11363008D02*
X11599705Y-11372531D01*
X11599705Y-11372531D02*
X11609229Y-11391579D01*
X11609229Y-11391579D02*
X11618753Y-11429674D01*
X11618753Y-11429674D02*
X11618753Y-11477293D01*
X11618753Y-11477293D02*
X11609229Y-11515388D01*
X11609229Y-11515388D02*
X11599705Y-11534436D01*
X11599705Y-11534436D02*
X11590182Y-11543960D01*
X11590182Y-11543960D02*
X11571134Y-11553484D01*
X11571134Y-11553484D02*
X11552086Y-11553484D01*
X11552086Y-11553484D02*
X11533039Y-11543960D01*
X11533039Y-11543960D02*
X11523515Y-11534436D01*
X11523515Y-11534436D02*
X11513991Y-11515388D01*
X11513991Y-11515388D02*
X11504467Y-11477293D01*
X11504467Y-11477293D02*
X11504467Y-11429674D01*
X11504467Y-11429674D02*
X11513991Y-11391579D01*
X11513991Y-11391579D02*
X11523515Y-11372531D01*
X11523515Y-11372531D02*
X11533039Y-11363008D01*
X11533039Y-11363008D02*
X11552086Y-11353484D01*
X11742562Y-11353484D02*
X11761610Y-11353484D01*
X11761610Y-11353484D02*
X11780658Y-11363008D01*
X11780658Y-11363008D02*
X11790182Y-11372531D01*
X11790182Y-11372531D02*
X11799705Y-11391579D01*
X11799705Y-11391579D02*
X11809229Y-11429674D01*
X11809229Y-11429674D02*
X11809229Y-11477293D01*
X11809229Y-11477293D02*
X11799705Y-11515388D01*
X11799705Y-11515388D02*
X11790182Y-11534436D01*
X11790182Y-11534436D02*
X11780658Y-11543960D01*
X11780658Y-11543960D02*
X11761610Y-11553484D01*
X11761610Y-11553484D02*
X11742562Y-11553484D01*
X11742562Y-11553484D02*
X11723515Y-11543960D01*
X11723515Y-11543960D02*
X11713991Y-11534436D01*
X11713991Y-11534436D02*
X11704467Y-11515388D01*
X11704467Y-11515388D02*
X11694943Y-11477293D01*
X11694943Y-11477293D02*
X11694943Y-11429674D01*
X11694943Y-11429674D02*
X11704467Y-11391579D01*
X11704467Y-11391579D02*
X11713991Y-11372531D01*
X11713991Y-11372531D02*
X11723515Y-11363008D01*
X11723515Y-11363008D02*
X11742562Y-11353484D01*
X11933039Y-11353484D02*
X11952086Y-11353484D01*
X11952086Y-11353484D02*
X11971134Y-11363008D01*
X11971134Y-11363008D02*
X11980658Y-11372531D01*
X11980658Y-11372531D02*
X11990182Y-11391579D01*
X11990182Y-11391579D02*
X11999705Y-11429674D01*
X11999705Y-11429674D02*
X11999705Y-11477293D01*
X11999705Y-11477293D02*
X11990182Y-11515388D01*
X11990182Y-11515388D02*
X11980658Y-11534436D01*
X11980658Y-11534436D02*
X11971134Y-11543960D01*
X11971134Y-11543960D02*
X11952086Y-11553484D01*
X11952086Y-11553484D02*
X11933039Y-11553484D01*
X11933039Y-11553484D02*
X11913991Y-11543960D01*
X11913991Y-11543960D02*
X11904467Y-11534436D01*
X11904467Y-11534436D02*
X11894943Y-11515388D01*
X11894943Y-11515388D02*
X11885420Y-11477293D01*
X11885420Y-11477293D02*
X11885420Y-11429674D01*
X11885420Y-11429674D02*
X11894943Y-11391579D01*
X11894943Y-11391579D02*
X11904467Y-11372531D01*
X11904467Y-11372531D02*
X11913991Y-11363008D01*
X11913991Y-11363008D02*
X11933039Y-11353484D01*
X12085420Y-11553484D02*
X12085420Y-11420150D01*
X12085420Y-11439198D02*
X12094943Y-11429674D01*
X12094943Y-11429674D02*
X12113991Y-11420150D01*
X12113991Y-11420150D02*
X12142563Y-11420150D01*
X12142563Y-11420150D02*
X12161610Y-11429674D01*
X12161610Y-11429674D02*
X12171134Y-11448722D01*
X12171134Y-11448722D02*
X12171134Y-11553484D01*
X12171134Y-11448722D02*
X12180658Y-11429674D01*
X12180658Y-11429674D02*
X12199705Y-11420150D01*
X12199705Y-11420150D02*
X12228277Y-11420150D01*
X12228277Y-11420150D02*
X12247324Y-11429674D01*
X12247324Y-11429674D02*
X12256848Y-11448722D01*
X12256848Y-11448722D02*
X12256848Y-11553484D01*
X12352086Y-11553484D02*
X12352086Y-11420150D01*
X12352086Y-11439198D02*
X12361610Y-11429674D01*
X12361610Y-11429674D02*
X12380658Y-11420150D01*
X12380658Y-11420150D02*
X12409229Y-11420150D01*
X12409229Y-11420150D02*
X12428277Y-11429674D01*
X12428277Y-11429674D02*
X12437801Y-11448722D01*
X12437801Y-11448722D02*
X12437801Y-11553484D01*
X12437801Y-11448722D02*
X12447324Y-11429674D01*
X12447324Y-11429674D02*
X12466372Y-11420150D01*
X12466372Y-11420150D02*
X12494943Y-11420150D01*
X12494943Y-11420150D02*
X12513991Y-11429674D01*
X12513991Y-11429674D02*
X12523515Y-11448722D01*
X12523515Y-11448722D02*
X12523515Y-11553484D01*
X12913991Y-11343960D02*
X12742563Y-11601103D01*
X13171134Y-11353484D02*
X13190182Y-11353484D01*
X13190182Y-11353484D02*
X13209229Y-11363008D01*
X13209229Y-11363008D02*
X13218753Y-11372531D01*
X13218753Y-11372531D02*
X13228277Y-11391579D01*
X13228277Y-11391579D02*
X13237801Y-11429674D01*
X13237801Y-11429674D02*
X13237801Y-11477293D01*
X13237801Y-11477293D02*
X13228277Y-11515388D01*
X13228277Y-11515388D02*
X13218753Y-11534436D01*
X13218753Y-11534436D02*
X13209229Y-11543960D01*
X13209229Y-11543960D02*
X13190182Y-11553484D01*
X13190182Y-11553484D02*
X13171134Y-11553484D01*
X13171134Y-11553484D02*
X13152086Y-11543960D01*
X13152086Y-11543960D02*
X13142563Y-11534436D01*
X13142563Y-11534436D02*
X13133039Y-11515388D01*
X13133039Y-11515388D02*
X13123515Y-11477293D01*
X13123515Y-11477293D02*
X13123515Y-11429674D01*
X13123515Y-11429674D02*
X13133039Y-11391579D01*
X13133039Y-11391579D02*
X13142563Y-11372531D01*
X13142563Y-11372531D02*
X13152086Y-11363008D01*
X13152086Y-11363008D02*
X13171134Y-11353484D01*
X13323515Y-11534436D02*
X13333039Y-11543960D01*
X13333039Y-11543960D02*
X13323515Y-11553484D01*
X13323515Y-11553484D02*
X13313991Y-11543960D01*
X13313991Y-11543960D02*
X13323515Y-11534436D01*
X13323515Y-11534436D02*
X13323515Y-11553484D01*
X13456848Y-11353484D02*
X13475896Y-11353484D01*
X13475896Y-11353484D02*
X13494944Y-11363008D01*
X13494944Y-11363008D02*
X13504467Y-11372531D01*
X13504467Y-11372531D02*
X13513991Y-11391579D01*
X13513991Y-11391579D02*
X13523515Y-11429674D01*
X13523515Y-11429674D02*
X13523515Y-11477293D01*
X13523515Y-11477293D02*
X13513991Y-11515388D01*
X13513991Y-11515388D02*
X13504467Y-11534436D01*
X13504467Y-11534436D02*
X13494944Y-11543960D01*
X13494944Y-11543960D02*
X13475896Y-11553484D01*
X13475896Y-11553484D02*
X13456848Y-11553484D01*
X13456848Y-11553484D02*
X13437801Y-11543960D01*
X13437801Y-11543960D02*
X13428277Y-11534436D01*
X13428277Y-11534436D02*
X13418753Y-11515388D01*
X13418753Y-11515388D02*
X13409229Y-11477293D01*
X13409229Y-11477293D02*
X13409229Y-11429674D01*
X13409229Y-11429674D02*
X13418753Y-11391579D01*
X13418753Y-11391579D02*
X13428277Y-11372531D01*
X13428277Y-11372531D02*
X13437801Y-11363008D01*
X13437801Y-11363008D02*
X13456848Y-11353484D01*
X13590182Y-11353484D02*
X13713991Y-11353484D01*
X13713991Y-11353484D02*
X13647325Y-11429674D01*
X13647325Y-11429674D02*
X13675896Y-11429674D01*
X13675896Y-11429674D02*
X13694944Y-11439198D01*
X13694944Y-11439198D02*
X13704467Y-11448722D01*
X13704467Y-11448722D02*
X13713991Y-11467769D01*
X13713991Y-11467769D02*
X13713991Y-11515388D01*
X13713991Y-11515388D02*
X13704467Y-11534436D01*
X13704467Y-11534436D02*
X13694944Y-11543960D01*
X13694944Y-11543960D02*
X13675896Y-11553484D01*
X13675896Y-11553484D02*
X13618753Y-11553484D01*
X13618753Y-11553484D02*
X13599706Y-11543960D01*
X13599706Y-11543960D02*
X13590182Y-11534436D01*
X13809229Y-11553484D02*
X13847325Y-11553484D01*
X13847325Y-11553484D02*
X13866372Y-11543960D01*
X13866372Y-11543960D02*
X13875896Y-11534436D01*
X13875896Y-11534436D02*
X13894944Y-11505865D01*
X13894944Y-11505865D02*
X13904467Y-11467769D01*
X13904467Y-11467769D02*
X13904467Y-11391579D01*
X13904467Y-11391579D02*
X13894944Y-11372531D01*
X13894944Y-11372531D02*
X13885420Y-11363008D01*
X13885420Y-11363008D02*
X13866372Y-11353484D01*
X13866372Y-11353484D02*
X13828277Y-11353484D01*
X13828277Y-11353484D02*
X13809229Y-11363008D01*
X13809229Y-11363008D02*
X13799706Y-11372531D01*
X13799706Y-11372531D02*
X13790182Y-11391579D01*
X13790182Y-11391579D02*
X13790182Y-11439198D01*
X13790182Y-11439198D02*
X13799706Y-11458246D01*
X13799706Y-11458246D02*
X13809229Y-11467769D01*
X13809229Y-11467769D02*
X13828277Y-11477293D01*
X13828277Y-11477293D02*
X13866372Y-11477293D01*
X13866372Y-11477293D02*
X13885420Y-11467769D01*
X13885420Y-11467769D02*
X13894944Y-11458246D01*
X13894944Y-11458246D02*
X13904467Y-11439198D01*
X14075896Y-11420150D02*
X14075896Y-11553484D01*
X14028277Y-11343960D02*
X13980658Y-11486817D01*
X13980658Y-11486817D02*
X14104467Y-11486817D01*
X14171134Y-11353484D02*
X14171134Y-11391579D01*
X14247325Y-11353484D02*
X14247325Y-11391579D01*
X14542563Y-11629674D02*
X14533039Y-11620150D01*
X14533039Y-11620150D02*
X14513991Y-11591579D01*
X14513991Y-11591579D02*
X14504468Y-11572531D01*
X14504468Y-11572531D02*
X14494944Y-11543960D01*
X14494944Y-11543960D02*
X14485420Y-11496341D01*
X14485420Y-11496341D02*
X14485420Y-11458246D01*
X14485420Y-11458246D02*
X14494944Y-11410627D01*
X14494944Y-11410627D02*
X14504468Y-11382055D01*
X14504468Y-11382055D02*
X14513991Y-11363008D01*
X14513991Y-11363008D02*
X14533039Y-11334436D01*
X14533039Y-11334436D02*
X14542563Y-11324912D01*
X14599706Y-11353484D02*
X14723515Y-11353484D01*
X14723515Y-11353484D02*
X14656848Y-11429674D01*
X14656848Y-11429674D02*
X14685420Y-11429674D01*
X14685420Y-11429674D02*
X14704468Y-11439198D01*
X14704468Y-11439198D02*
X14713991Y-11448722D01*
X14713991Y-11448722D02*
X14723515Y-11467769D01*
X14723515Y-11467769D02*
X14723515Y-11515388D01*
X14723515Y-11515388D02*
X14713991Y-11534436D01*
X14713991Y-11534436D02*
X14704468Y-11543960D01*
X14704468Y-11543960D02*
X14685420Y-11553484D01*
X14685420Y-11553484D02*
X14628277Y-11553484D01*
X14628277Y-11553484D02*
X14609229Y-11543960D01*
X14609229Y-11543960D02*
X14599706Y-11534436D01*
X14837801Y-11439198D02*
X14818753Y-11429674D01*
X14818753Y-11429674D02*
X14809229Y-11420150D01*
X14809229Y-11420150D02*
X14799706Y-11401103D01*
X14799706Y-11401103D02*
X14799706Y-11391579D01*
X14799706Y-11391579D02*
X14809229Y-11372531D01*
X14809229Y-11372531D02*
X14818753Y-11363008D01*
X14818753Y-11363008D02*
X14837801Y-11353484D01*
X14837801Y-11353484D02*
X14875896Y-11353484D01*
X14875896Y-11353484D02*
X14894944Y-11363008D01*
X14894944Y-11363008D02*
X14904468Y-11372531D01*
X14904468Y-11372531D02*
X14913991Y-11391579D01*
X14913991Y-11391579D02*
X14913991Y-11401103D01*
X14913991Y-11401103D02*
X14904468Y-11420150D01*
X14904468Y-11420150D02*
X14894944Y-11429674D01*
X14894944Y-11429674D02*
X14875896Y-11439198D01*
X14875896Y-11439198D02*
X14837801Y-11439198D01*
X14837801Y-11439198D02*
X14818753Y-11448722D01*
X14818753Y-11448722D02*
X14809229Y-11458246D01*
X14809229Y-11458246D02*
X14799706Y-11477293D01*
X14799706Y-11477293D02*
X14799706Y-11515388D01*
X14799706Y-11515388D02*
X14809229Y-11534436D01*
X14809229Y-11534436D02*
X14818753Y-11543960D01*
X14818753Y-11543960D02*
X14837801Y-11553484D01*
X14837801Y-11553484D02*
X14875896Y-11553484D01*
X14875896Y-11553484D02*
X14894944Y-11543960D01*
X14894944Y-11543960D02*
X14904468Y-11534436D01*
X14904468Y-11534436D02*
X14913991Y-11515388D01*
X14913991Y-11515388D02*
X14913991Y-11477293D01*
X14913991Y-11477293D02*
X14904468Y-11458246D01*
X14904468Y-11458246D02*
X14894944Y-11448722D01*
X14894944Y-11448722D02*
X14875896Y-11439198D01*
X15152087Y-11553484D02*
X15152087Y-11353484D01*
X15237801Y-11553484D02*
X15237801Y-11448722D01*
X15237801Y-11448722D02*
X15228277Y-11429674D01*
X15228277Y-11429674D02*
X15209230Y-11420150D01*
X15209230Y-11420150D02*
X15180658Y-11420150D01*
X15180658Y-11420150D02*
X15161610Y-11429674D01*
X15161610Y-11429674D02*
X15152087Y-11439198D01*
X15361610Y-11553484D02*
X15342563Y-11543960D01*
X15342563Y-11543960D02*
X15333039Y-11534436D01*
X15333039Y-11534436D02*
X15323515Y-11515388D01*
X15323515Y-11515388D02*
X15323515Y-11458246D01*
X15323515Y-11458246D02*
X15333039Y-11439198D01*
X15333039Y-11439198D02*
X15342563Y-11429674D01*
X15342563Y-11429674D02*
X15361610Y-11420150D01*
X15361610Y-11420150D02*
X15390182Y-11420150D01*
X15390182Y-11420150D02*
X15409230Y-11429674D01*
X15409230Y-11429674D02*
X15418753Y-11439198D01*
X15418753Y-11439198D02*
X15428277Y-11458246D01*
X15428277Y-11458246D02*
X15428277Y-11515388D01*
X15428277Y-11515388D02*
X15418753Y-11534436D01*
X15418753Y-11534436D02*
X15409230Y-11543960D01*
X15409230Y-11543960D02*
X15390182Y-11553484D01*
X15390182Y-11553484D02*
X15361610Y-11553484D01*
X15542563Y-11553484D02*
X15523515Y-11543960D01*
X15523515Y-11543960D02*
X15513991Y-11524912D01*
X15513991Y-11524912D02*
X15513991Y-11353484D01*
X15694944Y-11543960D02*
X15675896Y-11553484D01*
X15675896Y-11553484D02*
X15637801Y-11553484D01*
X15637801Y-11553484D02*
X15618753Y-11543960D01*
X15618753Y-11543960D02*
X15609230Y-11524912D01*
X15609230Y-11524912D02*
X15609230Y-11448722D01*
X15609230Y-11448722D02*
X15618753Y-11429674D01*
X15618753Y-11429674D02*
X15637801Y-11420150D01*
X15637801Y-11420150D02*
X15675896Y-11420150D01*
X15675896Y-11420150D02*
X15694944Y-11429674D01*
X15694944Y-11429674D02*
X15704468Y-11448722D01*
X15704468Y-11448722D02*
X15704468Y-11467769D01*
X15704468Y-11467769D02*
X15609230Y-11486817D01*
X15780658Y-11543960D02*
X15799706Y-11553484D01*
X15799706Y-11553484D02*
X15837801Y-11553484D01*
X15837801Y-11553484D02*
X15856849Y-11543960D01*
X15856849Y-11543960D02*
X15866372Y-11524912D01*
X15866372Y-11524912D02*
X15866372Y-11515388D01*
X15866372Y-11515388D02*
X15856849Y-11496341D01*
X15856849Y-11496341D02*
X15837801Y-11486817D01*
X15837801Y-11486817D02*
X15809230Y-11486817D01*
X15809230Y-11486817D02*
X15790182Y-11477293D01*
X15790182Y-11477293D02*
X15780658Y-11458246D01*
X15780658Y-11458246D02*
X15780658Y-11448722D01*
X15780658Y-11448722D02*
X15790182Y-11429674D01*
X15790182Y-11429674D02*
X15809230Y-11420150D01*
X15809230Y-11420150D02*
X15837801Y-11420150D01*
X15837801Y-11420150D02*
X15856849Y-11429674D01*
X15933039Y-11629674D02*
X15942563Y-11620150D01*
X15942563Y-11620150D02*
X15961611Y-11591579D01*
X15961611Y-11591579D02*
X15971134Y-11572531D01*
X15971134Y-11572531D02*
X15980658Y-11543960D01*
X15980658Y-11543960D02*
X15990182Y-11496341D01*
X15990182Y-11496341D02*
X15990182Y-11458246D01*
X15990182Y-11458246D02*
X15980658Y-11410627D01*
X15980658Y-11410627D02*
X15971134Y-11382055D01*
X15971134Y-11382055D02*
X15961611Y-11363008D01*
X15961611Y-11363008D02*
X15942563Y-11334436D01*
X15942563Y-11334436D02*
X15933039Y-11324912D01*
D12*
X10902500Y-11791000D02*
X10967500Y-11726000D01*
X10902500Y-11661000D01*
X10837500Y-11726000D01*
X10902500Y-11791000D01*
D11*
X11333039Y-11817484D02*
X11218753Y-11817484D01*
X11275896Y-11817484D02*
X11275896Y-11617484D01*
X11275896Y-11617484D02*
X11256848Y-11646055D01*
X11256848Y-11646055D02*
X11237801Y-11665103D01*
X11237801Y-11665103D02*
X11218753Y-11674627D01*
X11418753Y-11798436D02*
X11428277Y-11807960D01*
X11428277Y-11807960D02*
X11418753Y-11817484D01*
X11418753Y-11817484D02*
X11409229Y-11807960D01*
X11409229Y-11807960D02*
X11418753Y-11798436D01*
X11418753Y-11798436D02*
X11418753Y-11817484D01*
X11494943Y-11617484D02*
X11618753Y-11617484D01*
X11618753Y-11617484D02*
X11552086Y-11693674D01*
X11552086Y-11693674D02*
X11580658Y-11693674D01*
X11580658Y-11693674D02*
X11599705Y-11703198D01*
X11599705Y-11703198D02*
X11609229Y-11712722D01*
X11609229Y-11712722D02*
X11618753Y-11731769D01*
X11618753Y-11731769D02*
X11618753Y-11779388D01*
X11618753Y-11779388D02*
X11609229Y-11798436D01*
X11609229Y-11798436D02*
X11599705Y-11807960D01*
X11599705Y-11807960D02*
X11580658Y-11817484D01*
X11580658Y-11817484D02*
X11523515Y-11817484D01*
X11523515Y-11817484D02*
X11504467Y-11807960D01*
X11504467Y-11807960D02*
X11494943Y-11798436D01*
X11742562Y-11617484D02*
X11761610Y-11617484D01*
X11761610Y-11617484D02*
X11780658Y-11627008D01*
X11780658Y-11627008D02*
X11790182Y-11636531D01*
X11790182Y-11636531D02*
X11799705Y-11655579D01*
X11799705Y-11655579D02*
X11809229Y-11693674D01*
X11809229Y-11693674D02*
X11809229Y-11741293D01*
X11809229Y-11741293D02*
X11799705Y-11779388D01*
X11799705Y-11779388D02*
X11790182Y-11798436D01*
X11790182Y-11798436D02*
X11780658Y-11807960D01*
X11780658Y-11807960D02*
X11761610Y-11817484D01*
X11761610Y-11817484D02*
X11742562Y-11817484D01*
X11742562Y-11817484D02*
X11723515Y-11807960D01*
X11723515Y-11807960D02*
X11713991Y-11798436D01*
X11713991Y-11798436D02*
X11704467Y-11779388D01*
X11704467Y-11779388D02*
X11694943Y-11741293D01*
X11694943Y-11741293D02*
X11694943Y-11693674D01*
X11694943Y-11693674D02*
X11704467Y-11655579D01*
X11704467Y-11655579D02*
X11713991Y-11636531D01*
X11713991Y-11636531D02*
X11723515Y-11627008D01*
X11723515Y-11627008D02*
X11742562Y-11617484D01*
X11933039Y-11617484D02*
X11952086Y-11617484D01*
X11952086Y-11617484D02*
X11971134Y-11627008D01*
X11971134Y-11627008D02*
X11980658Y-11636531D01*
X11980658Y-11636531D02*
X11990182Y-11655579D01*
X11990182Y-11655579D02*
X11999705Y-11693674D01*
X11999705Y-11693674D02*
X11999705Y-11741293D01*
X11999705Y-11741293D02*
X11990182Y-11779388D01*
X11990182Y-11779388D02*
X11980658Y-11798436D01*
X11980658Y-11798436D02*
X11971134Y-11807960D01*
X11971134Y-11807960D02*
X11952086Y-11817484D01*
X11952086Y-11817484D02*
X11933039Y-11817484D01*
X11933039Y-11817484D02*
X11913991Y-11807960D01*
X11913991Y-11807960D02*
X11904467Y-11798436D01*
X11904467Y-11798436D02*
X11894943Y-11779388D01*
X11894943Y-11779388D02*
X11885420Y-11741293D01*
X11885420Y-11741293D02*
X11885420Y-11693674D01*
X11885420Y-11693674D02*
X11894943Y-11655579D01*
X11894943Y-11655579D02*
X11904467Y-11636531D01*
X11904467Y-11636531D02*
X11913991Y-11627008D01*
X11913991Y-11627008D02*
X11933039Y-11617484D01*
X12085420Y-11817484D02*
X12085420Y-11684150D01*
X12085420Y-11703198D02*
X12094943Y-11693674D01*
X12094943Y-11693674D02*
X12113991Y-11684150D01*
X12113991Y-11684150D02*
X12142563Y-11684150D01*
X12142563Y-11684150D02*
X12161610Y-11693674D01*
X12161610Y-11693674D02*
X12171134Y-11712722D01*
X12171134Y-11712722D02*
X12171134Y-11817484D01*
X12171134Y-11712722D02*
X12180658Y-11693674D01*
X12180658Y-11693674D02*
X12199705Y-11684150D01*
X12199705Y-11684150D02*
X12228277Y-11684150D01*
X12228277Y-11684150D02*
X12247324Y-11693674D01*
X12247324Y-11693674D02*
X12256848Y-11712722D01*
X12256848Y-11712722D02*
X12256848Y-11817484D01*
X12352086Y-11817484D02*
X12352086Y-11684150D01*
X12352086Y-11703198D02*
X12361610Y-11693674D01*
X12361610Y-11693674D02*
X12380658Y-11684150D01*
X12380658Y-11684150D02*
X12409229Y-11684150D01*
X12409229Y-11684150D02*
X12428277Y-11693674D01*
X12428277Y-11693674D02*
X12437801Y-11712722D01*
X12437801Y-11712722D02*
X12437801Y-11817484D01*
X12437801Y-11712722D02*
X12447324Y-11693674D01*
X12447324Y-11693674D02*
X12466372Y-11684150D01*
X12466372Y-11684150D02*
X12494943Y-11684150D01*
X12494943Y-11684150D02*
X12513991Y-11693674D01*
X12513991Y-11693674D02*
X12523515Y-11712722D01*
X12523515Y-11712722D02*
X12523515Y-11817484D01*
X12913991Y-11607960D02*
X12742563Y-11865103D01*
X13171134Y-11617484D02*
X13190182Y-11617484D01*
X13190182Y-11617484D02*
X13209229Y-11627008D01*
X13209229Y-11627008D02*
X13218753Y-11636531D01*
X13218753Y-11636531D02*
X13228277Y-11655579D01*
X13228277Y-11655579D02*
X13237801Y-11693674D01*
X13237801Y-11693674D02*
X13237801Y-11741293D01*
X13237801Y-11741293D02*
X13228277Y-11779388D01*
X13228277Y-11779388D02*
X13218753Y-11798436D01*
X13218753Y-11798436D02*
X13209229Y-11807960D01*
X13209229Y-11807960D02*
X13190182Y-11817484D01*
X13190182Y-11817484D02*
X13171134Y-11817484D01*
X13171134Y-11817484D02*
X13152086Y-11807960D01*
X13152086Y-11807960D02*
X13142563Y-11798436D01*
X13142563Y-11798436D02*
X13133039Y-11779388D01*
X13133039Y-11779388D02*
X13123515Y-11741293D01*
X13123515Y-11741293D02*
X13123515Y-11693674D01*
X13123515Y-11693674D02*
X13133039Y-11655579D01*
X13133039Y-11655579D02*
X13142563Y-11636531D01*
X13142563Y-11636531D02*
X13152086Y-11627008D01*
X13152086Y-11627008D02*
X13171134Y-11617484D01*
X13323515Y-11798436D02*
X13333039Y-11807960D01*
X13333039Y-11807960D02*
X13323515Y-11817484D01*
X13323515Y-11817484D02*
X13313991Y-11807960D01*
X13313991Y-11807960D02*
X13323515Y-11798436D01*
X13323515Y-11798436D02*
X13323515Y-11817484D01*
X13456848Y-11617484D02*
X13475896Y-11617484D01*
X13475896Y-11617484D02*
X13494944Y-11627008D01*
X13494944Y-11627008D02*
X13504467Y-11636531D01*
X13504467Y-11636531D02*
X13513991Y-11655579D01*
X13513991Y-11655579D02*
X13523515Y-11693674D01*
X13523515Y-11693674D02*
X13523515Y-11741293D01*
X13523515Y-11741293D02*
X13513991Y-11779388D01*
X13513991Y-11779388D02*
X13504467Y-11798436D01*
X13504467Y-11798436D02*
X13494944Y-11807960D01*
X13494944Y-11807960D02*
X13475896Y-11817484D01*
X13475896Y-11817484D02*
X13456848Y-11817484D01*
X13456848Y-11817484D02*
X13437801Y-11807960D01*
X13437801Y-11807960D02*
X13428277Y-11798436D01*
X13428277Y-11798436D02*
X13418753Y-11779388D01*
X13418753Y-11779388D02*
X13409229Y-11741293D01*
X13409229Y-11741293D02*
X13409229Y-11693674D01*
X13409229Y-11693674D02*
X13418753Y-11655579D01*
X13418753Y-11655579D02*
X13428277Y-11636531D01*
X13428277Y-11636531D02*
X13437801Y-11627008D01*
X13437801Y-11627008D02*
X13456848Y-11617484D01*
X13704467Y-11617484D02*
X13609229Y-11617484D01*
X13609229Y-11617484D02*
X13599706Y-11712722D01*
X13599706Y-11712722D02*
X13609229Y-11703198D01*
X13609229Y-11703198D02*
X13628277Y-11693674D01*
X13628277Y-11693674D02*
X13675896Y-11693674D01*
X13675896Y-11693674D02*
X13694944Y-11703198D01*
X13694944Y-11703198D02*
X13704467Y-11712722D01*
X13704467Y-11712722D02*
X13713991Y-11731769D01*
X13713991Y-11731769D02*
X13713991Y-11779388D01*
X13713991Y-11779388D02*
X13704467Y-11798436D01*
X13704467Y-11798436D02*
X13694944Y-11807960D01*
X13694944Y-11807960D02*
X13675896Y-11817484D01*
X13675896Y-11817484D02*
X13628277Y-11817484D01*
X13628277Y-11817484D02*
X13609229Y-11807960D01*
X13609229Y-11807960D02*
X13599706Y-11798436D01*
X13904467Y-11817484D02*
X13790182Y-11817484D01*
X13847325Y-11817484D02*
X13847325Y-11617484D01*
X13847325Y-11617484D02*
X13828277Y-11646055D01*
X13828277Y-11646055D02*
X13809229Y-11665103D01*
X13809229Y-11665103D02*
X13790182Y-11674627D01*
X13980658Y-11636531D02*
X13990182Y-11627008D01*
X13990182Y-11627008D02*
X14009229Y-11617484D01*
X14009229Y-11617484D02*
X14056848Y-11617484D01*
X14056848Y-11617484D02*
X14075896Y-11627008D01*
X14075896Y-11627008D02*
X14085420Y-11636531D01*
X14085420Y-11636531D02*
X14094944Y-11655579D01*
X14094944Y-11655579D02*
X14094944Y-11674627D01*
X14094944Y-11674627D02*
X14085420Y-11703198D01*
X14085420Y-11703198D02*
X13971134Y-11817484D01*
X13971134Y-11817484D02*
X14094944Y-11817484D01*
X14171134Y-11617484D02*
X14171134Y-11655579D01*
X14247325Y-11617484D02*
X14247325Y-11655579D01*
X14542563Y-11893674D02*
X14533039Y-11884150D01*
X14533039Y-11884150D02*
X14513991Y-11855579D01*
X14513991Y-11855579D02*
X14504468Y-11836531D01*
X14504468Y-11836531D02*
X14494944Y-11807960D01*
X14494944Y-11807960D02*
X14485420Y-11760341D01*
X14485420Y-11760341D02*
X14485420Y-11722246D01*
X14485420Y-11722246D02*
X14494944Y-11674627D01*
X14494944Y-11674627D02*
X14504468Y-11646055D01*
X14504468Y-11646055D02*
X14513991Y-11627008D01*
X14513991Y-11627008D02*
X14533039Y-11598436D01*
X14533039Y-11598436D02*
X14542563Y-11588912D01*
X14713991Y-11617484D02*
X14618753Y-11617484D01*
X14618753Y-11617484D02*
X14609229Y-11712722D01*
X14609229Y-11712722D02*
X14618753Y-11703198D01*
X14618753Y-11703198D02*
X14637801Y-11693674D01*
X14637801Y-11693674D02*
X14685420Y-11693674D01*
X14685420Y-11693674D02*
X14704468Y-11703198D01*
X14704468Y-11703198D02*
X14713991Y-11712722D01*
X14713991Y-11712722D02*
X14723515Y-11731769D01*
X14723515Y-11731769D02*
X14723515Y-11779388D01*
X14723515Y-11779388D02*
X14713991Y-11798436D01*
X14713991Y-11798436D02*
X14704468Y-11807960D01*
X14704468Y-11807960D02*
X14685420Y-11817484D01*
X14685420Y-11817484D02*
X14637801Y-11817484D01*
X14637801Y-11817484D02*
X14618753Y-11807960D01*
X14618753Y-11807960D02*
X14609229Y-11798436D01*
X14961610Y-11817484D02*
X14961610Y-11617484D01*
X15047325Y-11817484D02*
X15047325Y-11712722D01*
X15047325Y-11712722D02*
X15037801Y-11693674D01*
X15037801Y-11693674D02*
X15018753Y-11684150D01*
X15018753Y-11684150D02*
X14990182Y-11684150D01*
X14990182Y-11684150D02*
X14971134Y-11693674D01*
X14971134Y-11693674D02*
X14961610Y-11703198D01*
X15171134Y-11817484D02*
X15152087Y-11807960D01*
X15152087Y-11807960D02*
X15142563Y-11798436D01*
X15142563Y-11798436D02*
X15133039Y-11779388D01*
X15133039Y-11779388D02*
X15133039Y-11722246D01*
X15133039Y-11722246D02*
X15142563Y-11703198D01*
X15142563Y-11703198D02*
X15152087Y-11693674D01*
X15152087Y-11693674D02*
X15171134Y-11684150D01*
X15171134Y-11684150D02*
X15199706Y-11684150D01*
X15199706Y-11684150D02*
X15218753Y-11693674D01*
X15218753Y-11693674D02*
X15228277Y-11703198D01*
X15228277Y-11703198D02*
X15237801Y-11722246D01*
X15237801Y-11722246D02*
X15237801Y-11779388D01*
X15237801Y-11779388D02*
X15228277Y-11798436D01*
X15228277Y-11798436D02*
X15218753Y-11807960D01*
X15218753Y-11807960D02*
X15199706Y-11817484D01*
X15199706Y-11817484D02*
X15171134Y-11817484D01*
X15352087Y-11817484D02*
X15333039Y-11807960D01*
X15333039Y-11807960D02*
X15323515Y-11788912D01*
X15323515Y-11788912D02*
X15323515Y-11617484D01*
X15504468Y-11807960D02*
X15485420Y-11817484D01*
X15485420Y-11817484D02*
X15447325Y-11817484D01*
X15447325Y-11817484D02*
X15428277Y-11807960D01*
X15428277Y-11807960D02*
X15418753Y-11788912D01*
X15418753Y-11788912D02*
X15418753Y-11712722D01*
X15418753Y-11712722D02*
X15428277Y-11693674D01*
X15428277Y-11693674D02*
X15447325Y-11684150D01*
X15447325Y-11684150D02*
X15485420Y-11684150D01*
X15485420Y-11684150D02*
X15504468Y-11693674D01*
X15504468Y-11693674D02*
X15513991Y-11712722D01*
X15513991Y-11712722D02*
X15513991Y-11731769D01*
X15513991Y-11731769D02*
X15418753Y-11750817D01*
X15590182Y-11807960D02*
X15609230Y-11817484D01*
X15609230Y-11817484D02*
X15647325Y-11817484D01*
X15647325Y-11817484D02*
X15666372Y-11807960D01*
X15666372Y-11807960D02*
X15675896Y-11788912D01*
X15675896Y-11788912D02*
X15675896Y-11779388D01*
X15675896Y-11779388D02*
X15666372Y-11760341D01*
X15666372Y-11760341D02*
X15647325Y-11750817D01*
X15647325Y-11750817D02*
X15618753Y-11750817D01*
X15618753Y-11750817D02*
X15599706Y-11741293D01*
X15599706Y-11741293D02*
X15590182Y-11722246D01*
X15590182Y-11722246D02*
X15590182Y-11712722D01*
X15590182Y-11712722D02*
X15599706Y-11693674D01*
X15599706Y-11693674D02*
X15618753Y-11684150D01*
X15618753Y-11684150D02*
X15647325Y-11684150D01*
X15647325Y-11684150D02*
X15666372Y-11693674D01*
X15742563Y-11893674D02*
X15752087Y-11884150D01*
X15752087Y-11884150D02*
X15771134Y-11855579D01*
X15771134Y-11855579D02*
X15780658Y-11836531D01*
X15780658Y-11836531D02*
X15790182Y-11807960D01*
X15790182Y-11807960D02*
X15799706Y-11760341D01*
X15799706Y-11760341D02*
X15799706Y-11722246D01*
X15799706Y-11722246D02*
X15790182Y-11674627D01*
X15790182Y-11674627D02*
X15780658Y-11646055D01*
X15780658Y-11646055D02*
X15771134Y-11627008D01*
X15771134Y-11627008D02*
X15752087Y-11598436D01*
X15752087Y-11598436D02*
X15742563Y-11588912D01*
M02*
