%TF.GenerationSoftware,KiCad,Pcbnew,8.0.5*%
%TF.CreationDate,2024-09-26T23:09:47+07:00*%
%TF.ProjectId,HW.ACIM-DBG,48572e41-4349-44d2-9d44-42472e6b6963,0.1*%
%TF.SameCoordinates,Original*%
%TF.FileFunction,Soldermask,Top*%
%TF.FilePolarity,Negative*%
%FSLAX46Y46*%
G04 Gerber Fmt 4.6, Leading zero omitted, Abs format (unit mm)*
G04 Created by KiCad (PCBNEW 8.0.5) date 2024-09-26 23:09:47*
%MOMM*%
%LPD*%
G01*
G04 APERTURE LIST*
G04 Aperture macros list*
%AMRoundRect*
0 Rectangle with rounded corners*
0 $1 Rounding radius*
0 $2 $3 $4 $5 $6 $7 $8 $9 X,Y pos of 4 corners*
0 Add a 4 corners polygon primitive as box body*
4,1,4,$2,$3,$4,$5,$6,$7,$8,$9,$2,$3,0*
0 Add four circle primitives for the rounded corners*
1,1,$1+$1,$2,$3*
1,1,$1+$1,$4,$5*
1,1,$1+$1,$6,$7*
1,1,$1+$1,$8,$9*
0 Add four rect primitives between the rounded corners*
20,1,$1+$1,$2,$3,$4,$5,0*
20,1,$1+$1,$4,$5,$6,$7,0*
20,1,$1+$1,$6,$7,$8,$9,0*
20,1,$1+$1,$8,$9,$2,$3,0*%
G04 Aperture macros list end*
%ADD10C,1.500000*%
%ADD11R,0.650000X1.000000*%
%ADD12R,1.000000X0.650000*%
%ADD13RoundRect,0.450000X-0.450000X-0.450000X0.450000X-0.450000X0.450000X0.450000X-0.450000X0.450000X0*%
%ADD14C,1.800000*%
%ADD15R,2.500000X1.300000*%
%ADD16C,2.500000*%
%ADD17R,1.700000X3.200000*%
%ADD18R,0.600000X0.420000*%
%ADD19C,1.000000*%
%ADD20R,0.700000X0.300000*%
%ADD21R,1.700000X0.900000*%
%ADD22RoundRect,0.450000X0.450000X-0.450000X0.450000X0.450000X-0.450000X0.450000X-0.450000X-0.450000X0*%
%ADD23R,0.800000X0.500000*%
%ADD24R,0.350000X3.250000*%
%ADD25RoundRect,0.220000X-0.330000X0.980000X-0.330000X-0.980000X0.330000X-0.980000X0.330000X0.980000X0*%
%ADD26R,1.100000X0.600000*%
%ADD27R,1.450000X0.550000*%
%ADD28R,0.800000X0.800000*%
%ADD29R,2.500000X2.500000*%
%ADD30RoundRect,0.162500X0.337500X-0.162500X0.337500X0.162500X-0.337500X0.162500X-0.337500X-0.162500X0*%
%ADD31R,1.000000X0.900000*%
%ADD32R,0.300000X0.700000*%
%ADD33R,0.610000X1.600000*%
%ADD34R,3.510000X2.620000*%
%ADD35RoundRect,0.270000X0.630000X-0.630000X0.630000X0.630000X-0.630000X0.630000X-0.630000X-0.630000X0*%
%ADD36R,1.100000X1.000000*%
%ADD37RoundRect,0.162500X-0.162500X-0.337500X0.162500X-0.337500X0.162500X0.337500X-0.162500X0.337500X0*%
%ADD38R,0.600000X0.900000*%
%ADD39R,0.600000X0.500000*%
%ADD40RoundRect,0.250000X0.650000X-0.650000X0.650000X0.650000X-0.650000X0.650000X-0.650000X-0.650000X0*%
%ADD41R,1.000000X1.500000*%
%ADD42R,0.900000X1.700000*%
%ADD43R,6.000000X6.000000*%
%ADD44R,1.000000X0.350000*%
%ADD45R,0.600000X1.100000*%
%ADD46R,3.500000X1.600000*%
%ADD47R,2.000000X2.000000*%
%ADD48O,0.900000X0.300000*%
%ADD49O,0.300000X0.900000*%
%ADD50RoundRect,0.185000X1.665000X1.665000X-1.665000X1.665000X-1.665000X-1.665000X1.665000X-1.665000X0*%
G04 APERTURE END LIST*
D10*
X204025000Y-81900000D02*
X178225000Y-81900000D01*
D11*
%TO.C,C43*%
X145700000Y-63050000D03*
X147150000Y-63050000D03*
%TD*%
D12*
%TO.C,R33*%
X153925000Y-43975000D03*
X153925000Y-42525000D03*
%TD*%
D13*
%TO.C,J1*%
X127432700Y-38950000D03*
D14*
X129972700Y-38950000D03*
X132512700Y-38950000D03*
X135052700Y-38950000D03*
X137592700Y-38950000D03*
X140132700Y-38950000D03*
X142672700Y-38950000D03*
X145212700Y-38950000D03*
X147752700Y-38950000D03*
X150292700Y-38950000D03*
%TD*%
D12*
%TO.C,C4*%
X150887500Y-72687502D03*
X150887500Y-74137500D03*
%TD*%
D11*
%TO.C,C47*%
X163650000Y-59900000D03*
X162200000Y-59900000D03*
%TD*%
%TO.C,R47*%
X145700000Y-67850000D03*
X147150000Y-67850000D03*
%TD*%
D12*
%TO.C,C23*%
X127617000Y-65725200D03*
X127617000Y-67175200D03*
%TD*%
D11*
%TO.C,C26*%
X120650000Y-70900200D03*
X122100000Y-70900200D03*
%TD*%
D15*
%TO.C,C1*%
X147812700Y-85900000D03*
X147812700Y-83100000D03*
%TD*%
D16*
%TO.C,SH5*%
X199787500Y-95312500D03*
%TD*%
D11*
%TO.C,C38*%
X144450000Y-59000000D03*
X143000000Y-59000000D03*
%TD*%
%TO.C,R6*%
X115250000Y-75700200D03*
X116700000Y-75700200D03*
%TD*%
%TO.C,R2*%
X116700000Y-79180200D03*
X115250000Y-79180200D03*
%TD*%
D12*
%TO.C,R34*%
X155525000Y-43975000D03*
X155525000Y-42525000D03*
%TD*%
%TO.C,R26*%
X140132700Y-40775000D03*
X140132700Y-42225000D03*
%TD*%
%TO.C,R52*%
X195705000Y-55490000D03*
X195705000Y-54040002D03*
%TD*%
%TO.C,R48*%
X172875100Y-97305099D03*
X172875100Y-95855101D03*
%TD*%
D11*
%TO.C,R35*%
X162200000Y-43300000D03*
X163650000Y-43300000D03*
%TD*%
%TO.C,C48*%
X160950000Y-59900000D03*
X159500000Y-59900000D03*
%TD*%
D12*
%TO.C,C29*%
X130817000Y-65725200D03*
X130817000Y-67175200D03*
%TD*%
%TO.C,C45*%
X157675000Y-53725000D03*
X157675000Y-55175000D03*
%TD*%
D11*
%TO.C,R42*%
X162200000Y-56700000D03*
X163650000Y-56700000D03*
%TD*%
%TO.C,R16*%
X144450000Y-66250000D03*
X143000000Y-66250000D03*
%TD*%
D12*
%TO.C,C67*%
X197555000Y-58440000D03*
X197555000Y-56990002D03*
%TD*%
D17*
%TO.C,L2*%
X188340000Y-50515001D03*
X179339998Y-50515001D03*
%TD*%
D12*
%TO.C,C46*%
X156075000Y-53725000D03*
X156075000Y-55175000D03*
%TD*%
D18*
%TO.C,U9*%
X177825100Y-97230100D03*
X177825099Y-96580100D03*
X177825100Y-95930100D03*
X175925100Y-95930100D03*
X175925101Y-96580100D03*
X175925100Y-97230100D03*
%TD*%
D19*
%TO.C,TP3*%
X174475100Y-93930100D03*
%TD*%
D11*
%TO.C,R41*%
X162200000Y-58300000D03*
X163650000Y-58300000D03*
%TD*%
D12*
%TO.C,C36*%
X159275000Y-53725000D03*
X159275000Y-55175000D03*
%TD*%
D11*
%TO.C,R49*%
X117950000Y-79180200D03*
X119400000Y-79180200D03*
%TD*%
D20*
%TO.C,FT6*%
X147100000Y-61500000D03*
X145850000Y-61500000D03*
X145850000Y-61000000D03*
X147100000Y-61000000D03*
%TD*%
D21*
%TO.C,C5*%
X147812700Y-81500000D03*
X147812700Y-78500000D03*
%TD*%
D12*
%TO.C,R12*%
X123362700Y-79425000D03*
X123362700Y-77975000D03*
%TD*%
D11*
%TO.C,R40*%
X162200000Y-51700000D03*
X163650000Y-51700000D03*
%TD*%
D12*
%TO.C,C9*%
X180875100Y-95855100D03*
X180875100Y-97305100D03*
%TD*%
D11*
%TO.C,C28*%
X134392000Y-72600200D03*
X132942000Y-72600200D03*
%TD*%
D20*
%TO.C,FT11*%
X180700100Y-94304385D03*
X179450100Y-94304385D03*
X179450100Y-93804385D03*
X180700100Y-93804385D03*
%TD*%
D11*
%TO.C,C41*%
X143000000Y-64650000D03*
X144450000Y-64650000D03*
%TD*%
%TO.C,R22*%
X116700000Y-61400200D03*
X115250000Y-61400200D03*
%TD*%
D19*
%TO.C,TP4*%
X139737500Y-76962500D03*
%TD*%
D12*
%TO.C,C11*%
X174475100Y-97305099D03*
X174475100Y-95855101D03*
%TD*%
%TO.C,C3*%
X148762700Y-89374999D03*
X148762700Y-87925001D03*
%TD*%
D22*
%TO.C,J3*%
X113425000Y-79180200D03*
D14*
X113425000Y-76640200D03*
X113425000Y-74100200D03*
X113425000Y-71560200D03*
X113425000Y-69020200D03*
X113425000Y-66480200D03*
X113425000Y-63940200D03*
X113425000Y-61400200D03*
X113425000Y-58860200D03*
X113425000Y-56320200D03*
%TD*%
D21*
%TO.C,C66*%
X188540000Y-59565001D03*
X188540000Y-56565001D03*
%TD*%
D11*
%TO.C,R5*%
X117950000Y-74100200D03*
X119400000Y-74100200D03*
%TD*%
D21*
%TO.C,C56*%
X191125000Y-41090000D03*
X191125000Y-44090000D03*
%TD*%
D23*
%TO.C,D2*%
X166575000Y-57050000D03*
X164975000Y-57050000D03*
X164975000Y-57950000D03*
X166575000Y-57950000D03*
%TD*%
D12*
%TO.C,C50*%
X152575000Y-53725000D03*
X152575000Y-55175000D03*
%TD*%
D16*
%TO.C,SH4*%
X111975000Y-98000000D03*
%TD*%
D24*
%TO.C,J2*%
X185625100Y-96580100D03*
X186275100Y-96580100D03*
X186925100Y-96580100D03*
X187575100Y-96580100D03*
X188225100Y-96580100D03*
D25*
X182825100Y-96075100D03*
X182825100Y-92025100D03*
X191025100Y-92025100D03*
X191025100Y-96075100D03*
%TD*%
D12*
%TO.C,C51*%
X150725000Y-42525000D03*
X150725000Y-43975000D03*
%TD*%
D11*
%TO.C,C53*%
X144712499Y-70750000D03*
X143262501Y-70750000D03*
%TD*%
%TO.C,R13*%
X117950000Y-70900200D03*
X119400000Y-70900200D03*
%TD*%
D12*
%TO.C,C49*%
X150575000Y-68800000D03*
X150575000Y-67350000D03*
%TD*%
%TO.C,R23*%
X137592700Y-40775000D03*
X137592700Y-42225000D03*
%TD*%
D15*
%TO.C,C2*%
X170075100Y-95180101D03*
X170075100Y-97980099D03*
%TD*%
D12*
%TO.C,R28*%
X145225000Y-40775000D03*
X145225000Y-42225000D03*
%TD*%
D11*
%TO.C,C31*%
X134392000Y-75800200D03*
X132942000Y-75800200D03*
%TD*%
D12*
%TO.C,C63*%
X195704999Y-58440000D03*
X195704999Y-56990002D03*
%TD*%
D21*
%TO.C,C65*%
X183624998Y-41090000D03*
X183624998Y-44090000D03*
%TD*%
D11*
%TO.C,FT8*%
X147150000Y-64650000D03*
X145700000Y-64650000D03*
%TD*%
D26*
%TO.C,U1*%
X145387500Y-74362501D03*
X145387499Y-73412501D03*
X145387500Y-72462501D03*
X142587500Y-72462501D03*
X142587500Y-74362501D03*
%TD*%
D12*
%TO.C,R9*%
X133362700Y-77975000D03*
X133362700Y-79425000D03*
%TD*%
D11*
%TO.C,R7*%
X119400000Y-75700200D03*
X117950000Y-75700200D03*
%TD*%
D12*
%TO.C,C13*%
X125062700Y-94550000D03*
X125062700Y-93100000D03*
%TD*%
%TO.C,C33*%
X142325000Y-55175000D03*
X142325000Y-53725000D03*
%TD*%
D11*
%TO.C,C37*%
X160950000Y-61500000D03*
X159500000Y-61500000D03*
%TD*%
D12*
%TO.C,R51*%
X195125000Y-42640002D03*
X195125000Y-44090000D03*
%TD*%
D11*
%TO.C,R37*%
X162200000Y-48300000D03*
X163650000Y-48300000D03*
%TD*%
D12*
%TO.C,C57*%
X193275000Y-42640002D03*
X193275000Y-44090000D03*
%TD*%
%TO.C,R46*%
X127432700Y-43475000D03*
X127432700Y-44925000D03*
%TD*%
D21*
%TO.C,C58*%
X188625000Y-41090000D03*
X188625000Y-44090000D03*
%TD*%
D27*
%TO.C,U3*%
X136662700Y-95550000D03*
X136662700Y-94280000D03*
X136662700Y-93010000D03*
X136662700Y-91740000D03*
X136662700Y-90470000D03*
X136662700Y-89200000D03*
X136662700Y-87930000D03*
X136662700Y-86660000D03*
X126962700Y-86660000D03*
X126962700Y-87930000D03*
X126962700Y-89200000D03*
X126962700Y-90470000D03*
X126962700Y-91740000D03*
X126962700Y-93010000D03*
X126962700Y-94280000D03*
X126962700Y-95550000D03*
%TD*%
D28*
%TO.C,D6*%
X136712700Y-97075000D03*
X136712700Y-98575000D03*
%TD*%
D11*
%TO.C,R3*%
X163649999Y-63100000D03*
X162200001Y-63100000D03*
%TD*%
D23*
%TO.C,D3*%
X166575000Y-52050000D03*
X164975000Y-52050000D03*
X164975000Y-52950000D03*
X166575000Y-52950000D03*
%TD*%
D12*
%TO.C,C30*%
X124962700Y-79425000D03*
X124962700Y-77975000D03*
%TD*%
D29*
%TO.C,MD4*%
X180965000Y-84310000D03*
D16*
X201285000Y-84310000D03*
X201285000Y-38590000D03*
X191125000Y-38590000D03*
X180965000Y-38590000D03*
%TD*%
D12*
%TO.C,C15*%
X126962700Y-98550000D03*
X126962700Y-97100000D03*
%TD*%
%TO.C,R30*%
X152325000Y-43975000D03*
X152325000Y-42525000D03*
%TD*%
D11*
%TO.C,R44*%
X143000000Y-67850000D03*
X144450000Y-67850000D03*
%TD*%
%TO.C,C42*%
X143000000Y-63050000D03*
X144450000Y-63050000D03*
%TD*%
%TO.C,C39*%
X145700000Y-57400000D03*
X147150000Y-57400000D03*
%TD*%
D12*
%TO.C,C19*%
X133867000Y-80675200D03*
D30*
X133867000Y-82125200D03*
%TD*%
D12*
%TO.C,C59*%
X193855000Y-58440000D03*
X193855000Y-56990002D03*
%TD*%
%TO.C,R27*%
X147752700Y-40775000D03*
X147752700Y-42225000D03*
%TD*%
D11*
%TO.C,R36*%
X162200000Y-41700000D03*
X163650000Y-41700000D03*
%TD*%
D19*
%TO.C,TP5*%
X194475100Y-93930100D03*
%TD*%
D11*
%TO.C,R17*%
X116700000Y-69020200D03*
X115250000Y-69020200D03*
%TD*%
D12*
%TO.C,C10*%
X179275100Y-95855100D03*
X179275100Y-97305100D03*
%TD*%
%TO.C,R53*%
X199405000Y-58440000D03*
X199405000Y-56990002D03*
%TD*%
D11*
%TO.C,FT1*%
X155587699Y-92300000D03*
X154137701Y-92300000D03*
%TD*%
D31*
%TO.C,U8*%
X145925000Y-55150000D03*
X145925000Y-53750000D03*
X144225000Y-53750000D03*
X144225000Y-55150000D03*
%TD*%
D16*
%TO.C,SH3*%
X165775000Y-98000000D03*
%TD*%
D23*
%TO.C,D4*%
X166575000Y-47050000D03*
X164975000Y-47050000D03*
X164975000Y-47950000D03*
X166575000Y-47950000D03*
%TD*%
D11*
%TO.C,R43*%
X177600099Y-98780100D03*
X176150101Y-98780100D03*
%TD*%
%TO.C,R14*%
X120650000Y-72500200D03*
X122100000Y-72500200D03*
%TD*%
D15*
%TO.C,C55*%
X139712700Y-85699999D03*
X139712700Y-82900001D03*
%TD*%
D12*
%TO.C,R54*%
X199405000Y-54040002D03*
X199405000Y-55490000D03*
%TD*%
D32*
%TO.C,FT2*%
X127017000Y-78075200D03*
X127017000Y-79325200D03*
X126517000Y-79325200D03*
X126517000Y-78075200D03*
%TD*%
D11*
%TO.C,R11*%
X119400000Y-72500200D03*
X117950000Y-72500200D03*
%TD*%
D16*
%TO.C,SH1*%
X111975000Y-37500000D03*
%TD*%
D33*
%TO.C,U10*%
X192585000Y-51765001D03*
X193855000Y-51765001D03*
X195125000Y-51765001D03*
X196395000Y-51765001D03*
X196395000Y-46365001D03*
X195125000Y-46365001D03*
X193855000Y-46365001D03*
X192585000Y-46365001D03*
D34*
X194490000Y-49065001D03*
%TD*%
D12*
%TO.C,C60*%
X190590000Y-45890002D03*
X190590000Y-47340000D03*
%TD*%
D35*
%TO.C,MD3*%
X187225000Y-85400001D03*
D14*
X195025000Y-85400001D03*
X202525000Y-42900000D03*
X179725000Y-42900000D03*
%TD*%
D11*
%TO.C,FT7*%
X143000000Y-57400000D03*
X144450000Y-57400000D03*
%TD*%
D36*
%TO.C,U4*%
X132362701Y-80950000D03*
X130062699Y-80950000D03*
X130062699Y-82700001D03*
X132362701Y-82700001D03*
%TD*%
D11*
%TO.C,R38*%
X162200000Y-46700000D03*
X163650000Y-46700000D03*
%TD*%
D19*
%TO.C,TP1*%
X136662700Y-85060000D03*
%TD*%
D12*
%TO.C,R32*%
X152575000Y-51025000D03*
X152575000Y-52475000D03*
%TD*%
D21*
%TO.C,C62*%
X186239998Y-59565001D03*
X186239998Y-56565001D03*
%TD*%
D12*
%TO.C,R4*%
X125062700Y-90400000D03*
X125062700Y-91850000D03*
%TD*%
D37*
%TO.C,R29*%
X144450000Y-60600000D03*
X143000000Y-60600000D03*
%TD*%
D12*
%TO.C,R50*%
X193855000Y-54040002D03*
X193855000Y-55490000D03*
%TD*%
D11*
%TO.C,R18*%
X116700000Y-71560200D03*
X115250000Y-71560200D03*
%TD*%
D19*
%TO.C,TP2*%
X142552700Y-87575000D03*
%TD*%
D12*
%TO.C,R1*%
X138562700Y-98550000D03*
X138562700Y-97100000D03*
%TD*%
D38*
%TO.C,D1*%
X145362700Y-87900000D03*
D39*
X145362700Y-89600000D03*
X147362700Y-89600000D03*
X147362700Y-87700000D03*
%TD*%
D40*
%TO.C,J4*%
X142552700Y-92575000D03*
D14*
X145092700Y-92575000D03*
X147632700Y-92575000D03*
X150172700Y-92575000D03*
%TD*%
D41*
%TO.C,F1*%
X153762701Y-94150000D03*
X155962699Y-94150000D03*
%TD*%
D42*
%TO.C,C6*%
X133312700Y-97850000D03*
X130312700Y-97850000D03*
%TD*%
D12*
%TO.C,R45*%
X127432700Y-42225000D03*
X127432700Y-40775000D03*
%TD*%
D20*
%TO.C,U5*%
X149425000Y-58000000D03*
X149425000Y-58500000D03*
X149425000Y-59000000D03*
X149425000Y-59500000D03*
X149425000Y-60000000D03*
X149425000Y-60500000D03*
X149425000Y-61000000D03*
X149425000Y-61500000D03*
X149425000Y-62000000D03*
X149425000Y-62500000D03*
X149425000Y-63000000D03*
X149425000Y-63500000D03*
X149425000Y-64000000D03*
X149425000Y-64500000D03*
D32*
X150075000Y-65150000D03*
X150575000Y-65150000D03*
X151075000Y-65150000D03*
X151575000Y-65150000D03*
X152075000Y-65150000D03*
X152575000Y-65150000D03*
X153075000Y-65150000D03*
X153575000Y-65150000D03*
X154075000Y-65150000D03*
X154575000Y-65150000D03*
X155075000Y-65150000D03*
X155575000Y-65150000D03*
X156075000Y-65150000D03*
X156575000Y-65150000D03*
D20*
X157225000Y-64500000D03*
X157225000Y-64000000D03*
X157225000Y-63500000D03*
X157225000Y-63000000D03*
X157225000Y-62500000D03*
X157225000Y-62000000D03*
X157225000Y-61500000D03*
X157225000Y-61000000D03*
X157225000Y-60500000D03*
X157225000Y-60000000D03*
X157225000Y-59500000D03*
X157225000Y-59000000D03*
X157225000Y-58500000D03*
X157225000Y-58000000D03*
D32*
X156575000Y-57350000D03*
X156075000Y-57350000D03*
X155575000Y-57350000D03*
X155075000Y-57350000D03*
X154575000Y-57350000D03*
X154075000Y-57350000D03*
X153575000Y-57350000D03*
X153075000Y-57350000D03*
X152575000Y-57350000D03*
X152075000Y-57350000D03*
X151575000Y-57350000D03*
X151075000Y-57350000D03*
X150575000Y-57350000D03*
X150075000Y-57350000D03*
D43*
X153325000Y-61250000D03*
%TD*%
D12*
%TO.C,C44*%
X156075000Y-52475000D03*
X156075000Y-51025000D03*
%TD*%
D22*
%TO.C,MD1*%
X152987500Y-88862500D03*
X160987500Y-88862500D03*
D14*
X152987500Y-86322500D03*
X160987500Y-86322500D03*
X160987500Y-81242500D03*
X152987500Y-81242499D03*
X152987500Y-78702500D03*
X160987500Y-78702500D03*
X152987500Y-76162500D03*
X160987500Y-76162500D03*
%TD*%
D11*
%TO.C,R19*%
X116700000Y-63940200D03*
X115250000Y-63940200D03*
%TD*%
D44*
%TO.C,U7*%
X160275000Y-49775000D03*
X160275000Y-49125000D03*
X160275000Y-48475000D03*
X160275000Y-47825000D03*
X160275000Y-47175000D03*
X160275000Y-46525000D03*
X160275000Y-45875000D03*
X160275000Y-45225000D03*
X154275000Y-45225000D03*
X154275000Y-45875000D03*
X154275000Y-46525000D03*
X154275000Y-47175000D03*
X154275000Y-47825000D03*
X154275000Y-48475000D03*
X154275000Y-49125000D03*
X154275000Y-49775000D03*
%TD*%
D21*
%TO.C,C64*%
X186124999Y-41090000D03*
X186124999Y-44090000D03*
%TD*%
D11*
%TO.C,C8*%
X144712499Y-76062501D03*
X143262501Y-76062501D03*
%TD*%
D12*
%TO.C,C16*%
X138562700Y-92850000D03*
X138562700Y-91400000D03*
%TD*%
%TO.C,R24*%
X135052700Y-40775000D03*
X135052700Y-42225000D03*
%TD*%
%TO.C,C18*%
X128562700Y-79425000D03*
X128562700Y-77975000D03*
%TD*%
D11*
%TO.C,C14*%
X120650000Y-75700200D03*
X122100000Y-75700200D03*
%TD*%
%TO.C,C34*%
X145700000Y-66250000D03*
X147150000Y-66250000D03*
%TD*%
%TO.C,R15*%
X162200000Y-61500000D03*
X163650000Y-61500000D03*
%TD*%
D45*
%TO.C,U6*%
X150675000Y-48900000D03*
X151625000Y-48900000D03*
X152575000Y-48900000D03*
X152575000Y-46100000D03*
X151625000Y-46100000D03*
X150675000Y-46100000D03*
%TD*%
D12*
%TO.C,FT4*%
X124417000Y-65725200D03*
X124417000Y-67175200D03*
%TD*%
%TO.C,C12*%
X138562700Y-94100000D03*
X138562700Y-95550000D03*
%TD*%
D23*
%TO.C,D5*%
X166575000Y-42050000D03*
X164975000Y-42050000D03*
X164975000Y-42950000D03*
X166575000Y-42950000D03*
%TD*%
D16*
%TO.C,SH2*%
X165775000Y-37500000D03*
%TD*%
D28*
%TO.C,D7*%
X165025000Y-62300000D03*
X166525000Y-62300000D03*
%TD*%
D12*
%TO.C,C24*%
X122817000Y-67175200D03*
X122817000Y-65725200D03*
%TD*%
%TO.C,R8*%
X128562700Y-80675000D03*
X128562700Y-82125000D03*
%TD*%
D11*
%TO.C,R21*%
X116700000Y-58860200D03*
X115250000Y-58860200D03*
%TD*%
%TO.C,R10*%
X122100000Y-69300200D03*
X120650000Y-69300200D03*
%TD*%
%TO.C,C25*%
X135642000Y-74200200D03*
X137092000Y-74200200D03*
%TD*%
%TO.C,FT10*%
X160950000Y-58300000D03*
X159500000Y-58300000D03*
%TD*%
D12*
%TO.C,C61*%
X197555000Y-54040002D03*
X197555000Y-55490000D03*
%TD*%
D46*
%TO.C,L1*%
X143762700Y-85700000D03*
X143762700Y-83300000D03*
%TD*%
D12*
%TO.C,R25*%
X142672700Y-40775000D03*
X142672700Y-42225000D03*
%TD*%
D20*
%TO.C,FT3*%
X138577700Y-88315000D03*
X139827700Y-88315000D03*
X139827700Y-88815000D03*
X138577700Y-88815000D03*
%TD*%
D12*
%TO.C,C35*%
X147825000Y-51025000D03*
X147825000Y-52475000D03*
%TD*%
D11*
%TO.C,C40*%
X145700000Y-59000000D03*
X147150000Y-59000000D03*
%TD*%
%TO.C,R20*%
X116700000Y-66480200D03*
X115250000Y-66480200D03*
%TD*%
D12*
%TO.C,C21*%
X131762700Y-79425000D03*
X131762700Y-77975000D03*
%TD*%
D11*
%TO.C,C17*%
X120650000Y-74100200D03*
X122100000Y-74100200D03*
%TD*%
D12*
%TO.C,FT9*%
X157675000Y-51025000D03*
X157675000Y-52475000D03*
%TD*%
%TO.C,C32*%
X147825000Y-53725000D03*
X147825000Y-55175000D03*
%TD*%
%TO.C,C22*%
X129217000Y-65725200D03*
X129217000Y-67175200D03*
%TD*%
%TO.C,C20*%
X130162700Y-79425000D03*
X130162700Y-77975000D03*
%TD*%
D11*
%TO.C,R39*%
X162200000Y-53300000D03*
X163650000Y-53300000D03*
%TD*%
D15*
%TO.C,C54*%
X148237500Y-74812500D03*
X148237500Y-72012502D03*
%TD*%
D12*
%TO.C,C27*%
X126017000Y-65725200D03*
X126017000Y-67175200D03*
%TD*%
D47*
%TO.C,D8*%
X191340000Y-58715002D03*
X191340000Y-54715000D03*
%TD*%
D48*
%TO.C,U2*%
X130517000Y-74600200D03*
X130517000Y-74100200D03*
X130517000Y-73600200D03*
X130517000Y-73100200D03*
X130517000Y-72600200D03*
X130517000Y-72100200D03*
X130517000Y-71600200D03*
X130517000Y-71100200D03*
X130517000Y-70600200D03*
D49*
X129517000Y-69600200D03*
X129017000Y-69600200D03*
X128517000Y-69600200D03*
X128017000Y-69600200D03*
X127517000Y-69600200D03*
X127017000Y-69600200D03*
X126517000Y-69600200D03*
X126017000Y-69600200D03*
X125517000Y-69600200D03*
D48*
X124517000Y-70600200D03*
X124517000Y-71100200D03*
X124517000Y-71600200D03*
X124517000Y-72100200D03*
X124517000Y-72600200D03*
X124517000Y-73100200D03*
X124517000Y-73600200D03*
X124517000Y-74100200D03*
X124517000Y-74600200D03*
D49*
X125517000Y-75600200D03*
X126017000Y-75600200D03*
X126517000Y-75600200D03*
X127017000Y-75600200D03*
X127517000Y-75600200D03*
X128017000Y-75600200D03*
X128517000Y-75600200D03*
X129017000Y-75600200D03*
X129517000Y-75600200D03*
D50*
X127517000Y-72600200D03*
%TD*%
D11*
%TO.C,FT5*%
X137092000Y-72600200D03*
X135642000Y-72600200D03*
%TD*%
D15*
%TO.C,C7*%
X139737500Y-74812500D03*
X139737500Y-72012502D03*
%TD*%
D12*
%TO.C,C52*%
X154475000Y-52475000D03*
X154475000Y-51025000D03*
%TD*%
%TO.C,R31*%
X150675000Y-51025000D03*
X150675000Y-52475000D03*
%TD*%
M02*
