%TF.GenerationSoftware,KiCad,Pcbnew,8.0.5*%
%TF.CreationDate,2024-09-26T23:09:47+07:00*%
%TF.ProjectId,HW.ACIM-DBG,48572e41-4349-44d2-9d44-42472e6b6963,0.1*%
%TF.SameCoordinates,Original*%
%TF.FileFunction,Profile,NP*%
%FSLAX46Y46*%
G04 Gerber Fmt 4.6, Leading zero omitted, Abs format (unit mm)*
G04 Created by KiCad (PCBNEW 8.0.5) date 2024-09-26 23:09:47*
%MOMM*%
%LPD*%
G01*
G04 APERTURE LIST*
%TA.AperFunction,Profile*%
%ADD10C,0.100000*%
%TD*%
G04 APERTURE END LIST*
D10*
X165775000Y-35250000D02*
X111975000Y-35250000D01*
X177112500Y-80931250D02*
G75*
G02*
X176512500Y-80931250I-300000J0D01*
G01*
X176512500Y-80931250D02*
G75*
G02*
X177112500Y-80931250I300000J0D01*
G01*
X177525000Y-79650000D02*
G75*
G02*
X176925000Y-80250000I-600000J0D01*
G01*
X200350000Y-90375000D02*
G75*
G02*
X199750000Y-89775000I0J600000D01*
G01*
X169037500Y-82293750D02*
G75*
G02*
X168437500Y-82293750I-300000J0D01*
G01*
X168437500Y-82293750D02*
G75*
G02*
X169037500Y-82293750I300000J0D01*
G01*
X111975000Y-100250000D02*
G75*
G02*
X109725000Y-98000000I0J2250000D01*
G01*
X168025000Y-43550000D02*
X168025000Y-79650000D01*
X177112500Y-42268750D02*
G75*
G02*
X176512500Y-42268750I-300000J0D01*
G01*
X176512500Y-42268750D02*
G75*
G02*
X177112500Y-42268750I300000J0D01*
G01*
X200350000Y-87650000D02*
X204125000Y-87650000D01*
X181850000Y-90375000D02*
X170275000Y-90375000D01*
X177525000Y-87050000D02*
X177525000Y-83575000D01*
X176925000Y-82975000D02*
X168625000Y-82975000D01*
X178125000Y-87650000D02*
G75*
G02*
X177525000Y-87050000I0J600000D01*
G01*
X197025000Y-88250000D02*
X197025000Y-89775000D01*
X185775000Y-90375000D02*
G75*
G02*
X185175000Y-89775000I0J600000D01*
G01*
X168625000Y-40225000D02*
X176925000Y-40225000D01*
X165775000Y-35250000D02*
G75*
G02*
X168025000Y-37500000I0J-2250000D01*
G01*
X169037500Y-80931250D02*
G75*
G02*
X168437500Y-80931250I-300000J0D01*
G01*
X168437500Y-80931250D02*
G75*
G02*
X169037500Y-80931250I300000J0D01*
G01*
X196425000Y-87650000D02*
G75*
G02*
X197025000Y-88250000I0J-600000D01*
G01*
X177525000Y-39625000D02*
X177525000Y-35850000D01*
X196425000Y-90375000D02*
X185775000Y-90375000D01*
X199750000Y-88250000D02*
G75*
G02*
X200350000Y-87650000I600000J0D01*
G01*
X111975000Y-100250000D02*
X202475000Y-100250000D01*
X176925000Y-42950000D02*
X168625000Y-42950000D01*
X178125000Y-87650000D02*
X181850000Y-87650000D01*
X168025000Y-37500000D02*
X168025000Y-39625000D01*
X177112500Y-40906250D02*
G75*
G02*
X176512500Y-40906250I-300000J0D01*
G01*
X176512500Y-40906250D02*
G75*
G02*
X177112500Y-40906250I300000J0D01*
G01*
X176925000Y-42950000D02*
G75*
G02*
X177525000Y-43550000I0J-600000D01*
G01*
X202475000Y-90375000D02*
G75*
G02*
X204725000Y-92625000I0J-2250000D01*
G01*
X182450000Y-88250000D02*
X182450000Y-89775000D01*
X199368750Y-89662500D02*
G75*
G02*
X198768750Y-89662500I-300000J0D01*
G01*
X198768750Y-89662500D02*
G75*
G02*
X199368750Y-89662500I300000J0D01*
G01*
X204725000Y-98000000D02*
G75*
G02*
X202475000Y-100250000I-2250000J0D01*
G01*
X204725000Y-98000000D02*
X204725000Y-92625000D01*
X198006250Y-88362500D02*
G75*
G02*
X197406250Y-88362500I-300000J0D01*
G01*
X197406250Y-88362500D02*
G75*
G02*
X198006250Y-88362500I300000J0D01*
G01*
X185175000Y-88250000D02*
G75*
G02*
X185775000Y-87650000I600000J0D01*
G01*
X168025000Y-83575000D02*
G75*
G02*
X168625000Y-82975000I600000J0D01*
G01*
X169037500Y-42268750D02*
G75*
G02*
X168437500Y-42268750I-300000J0D01*
G01*
X168437500Y-42268750D02*
G75*
G02*
X169037500Y-42268750I300000J0D01*
G01*
X177525000Y-39625000D02*
G75*
G02*
X176925000Y-40225000I-600000J0D01*
G01*
X168625000Y-80250000D02*
X176925000Y-80250000D01*
X184793750Y-89662500D02*
G75*
G02*
X184193750Y-89662500I-300000J0D01*
G01*
X184193750Y-89662500D02*
G75*
G02*
X184793750Y-89662500I300000J0D01*
G01*
X168025000Y-83575000D02*
X168025000Y-88125000D01*
X177112500Y-82293750D02*
G75*
G02*
X176512500Y-82293750I-300000J0D01*
G01*
X176512500Y-82293750D02*
G75*
G02*
X177112500Y-82293750I300000J0D01*
G01*
X183431250Y-88362500D02*
G75*
G02*
X182831250Y-88362500I-300000J0D01*
G01*
X182831250Y-88362500D02*
G75*
G02*
X183431250Y-88362500I300000J0D01*
G01*
X202475000Y-90375000D02*
X200350000Y-90375000D01*
X177525000Y-79650000D02*
X177525000Y-43550000D01*
X199368750Y-88362500D02*
G75*
G02*
X198768750Y-88362500I-300000J0D01*
G01*
X198768750Y-88362500D02*
G75*
G02*
X199368750Y-88362500I300000J0D01*
G01*
X109725000Y-37500000D02*
X109725000Y-98000000D01*
X182450000Y-89775000D02*
G75*
G02*
X181850000Y-90375000I-600000J0D01*
G01*
X184793750Y-88362500D02*
G75*
G02*
X184193750Y-88362500I-300000J0D01*
G01*
X184193750Y-88362500D02*
G75*
G02*
X184793750Y-88362500I300000J0D01*
G01*
X204125000Y-35250000D02*
G75*
G02*
X204725000Y-35850000I0J-600000D01*
G01*
X109725000Y-37500000D02*
G75*
G02*
X111975000Y-35250000I2250000J0D01*
G01*
X183431250Y-89662500D02*
G75*
G02*
X182831250Y-89662500I-300000J0D01*
G01*
X182831250Y-89662500D02*
G75*
G02*
X183431250Y-89662500I300000J0D01*
G01*
X168625000Y-80250000D02*
G75*
G02*
X168025000Y-79650000I0J600000D01*
G01*
X181850000Y-87650000D02*
G75*
G02*
X182450000Y-88250000I0J-600000D01*
G01*
X185775000Y-87650000D02*
X196425000Y-87650000D01*
X199750000Y-88250000D02*
X199750000Y-89775000D01*
X204725000Y-87050000D02*
X204725000Y-35850000D01*
X197025000Y-89775000D02*
G75*
G02*
X196425000Y-90375000I-600000J0D01*
G01*
X204125000Y-35250000D02*
X178125000Y-35250000D01*
X168025000Y-43550000D02*
G75*
G02*
X168625000Y-42950000I600000J0D01*
G01*
X170275000Y-90375000D02*
G75*
G02*
X168025000Y-88125000I0J2250000D01*
G01*
X168625000Y-40225000D02*
G75*
G02*
X168025000Y-39625000I0J600000D01*
G01*
X204725000Y-87050000D02*
G75*
G02*
X204125000Y-87650000I-600000J0D01*
G01*
X176925000Y-82975000D02*
G75*
G02*
X177525000Y-83575000I0J-600000D01*
G01*
X177525000Y-35850000D02*
G75*
G02*
X178125000Y-35250000I600000J0D01*
G01*
X185175000Y-88250000D02*
X185175000Y-89775000D01*
X198006250Y-89662500D02*
G75*
G02*
X197406250Y-89662500I-300000J0D01*
G01*
X197406250Y-89662500D02*
G75*
G02*
X198006250Y-89662500I300000J0D01*
G01*
X169037500Y-40906250D02*
G75*
G02*
X168437500Y-40906250I-300000J0D01*
G01*
X168437500Y-40906250D02*
G75*
G02*
X169037500Y-40906250I300000J0D01*
G01*
M02*
